%TF.GenerationSoftware,KiCad,Pcbnew,7.0.1*%
%TF.CreationDate,2023-04-28T10:50:47+02:00*%
%TF.ProjectId,zvukovka,7a76756b-6f76-46b6-912e-6b696361645f,rev?*%
%TF.SameCoordinates,Original*%
%TF.FileFunction,Copper,L1,Top*%
%TF.FilePolarity,Positive*%
%FSLAX46Y46*%
G04 Gerber Fmt 4.6, Leading zero omitted, Abs format (unit mm)*
G04 Created by KiCad (PCBNEW 7.0.1) date 2023-04-28 10:50:47*
%MOMM*%
%LPD*%
G01*
G04 APERTURE LIST*
G04 Aperture macros list*
%AMRoundRect*
0 Rectangle with rounded corners*
0 $1 Rounding radius*
0 $2 $3 $4 $5 $6 $7 $8 $9 X,Y pos of 4 corners*
0 Add a 4 corners polygon primitive as box body*
4,1,4,$2,$3,$4,$5,$6,$7,$8,$9,$2,$3,0*
0 Add four circle primitives for the rounded corners*
1,1,$1+$1,$2,$3*
1,1,$1+$1,$4,$5*
1,1,$1+$1,$6,$7*
1,1,$1+$1,$8,$9*
0 Add four rect primitives between the rounded corners*
20,1,$1+$1,$2,$3,$4,$5,0*
20,1,$1+$1,$4,$5,$6,$7,0*
20,1,$1+$1,$6,$7,$8,$9,0*
20,1,$1+$1,$8,$9,$2,$3,0*%
G04 Aperture macros list end*
%TA.AperFunction,SMDPad,CuDef*%
%ADD10RoundRect,0.250000X-0.475000X0.250000X-0.475000X-0.250000X0.475000X-0.250000X0.475000X0.250000X0*%
%TD*%
%TA.AperFunction,SMDPad,CuDef*%
%ADD11R,2.100000X1.700000*%
%TD*%
%TA.AperFunction,SMDPad,CuDef*%
%ADD12RoundRect,0.250000X0.450000X-0.262500X0.450000X0.262500X-0.450000X0.262500X-0.450000X-0.262500X0*%
%TD*%
%TA.AperFunction,SMDPad,CuDef*%
%ADD13R,1.200000X0.600000*%
%TD*%
%TA.AperFunction,SMDPad,CuDef*%
%ADD14R,1.200000X0.300000*%
%TD*%
%TA.AperFunction,ComponentPad*%
%ADD15C,0.900000*%
%TD*%
%TA.AperFunction,ComponentPad*%
%ADD16O,2.300000X1.500000*%
%TD*%
%TA.AperFunction,ComponentPad*%
%ADD17O,2.500000X1.500000*%
%TD*%
%TA.AperFunction,ComponentPad*%
%ADD18C,1.400000*%
%TD*%
%TA.AperFunction,SMDPad,CuDef*%
%ADD19R,1.600000X0.550000*%
%TD*%
%TA.AperFunction,SMDPad,CuDef*%
%ADD20R,0.550000X1.600000*%
%TD*%
%TA.AperFunction,SMDPad,CuDef*%
%ADD21RoundRect,0.150000X-0.150000X0.512500X-0.150000X-0.512500X0.150000X-0.512500X0.150000X0.512500X0*%
%TD*%
%TA.AperFunction,SMDPad,CuDef*%
%ADD22RoundRect,0.250000X0.250000X0.475000X-0.250000X0.475000X-0.250000X-0.475000X0.250000X-0.475000X0*%
%TD*%
%TA.AperFunction,SMDPad,CuDef*%
%ADD23R,2.500000X1.800000*%
%TD*%
%TA.AperFunction,SMDPad,CuDef*%
%ADD24RoundRect,0.250000X0.475000X-0.250000X0.475000X0.250000X-0.475000X0.250000X-0.475000X-0.250000X0*%
%TD*%
%TA.AperFunction,SMDPad,CuDef*%
%ADD25RoundRect,0.250000X0.262500X0.450000X-0.262500X0.450000X-0.262500X-0.450000X0.262500X-0.450000X0*%
%TD*%
%TA.AperFunction,SMDPad,CuDef*%
%ADD26RoundRect,0.250000X-0.262500X-0.450000X0.262500X-0.450000X0.262500X0.450000X-0.262500X0.450000X0*%
%TD*%
%TA.AperFunction,SMDPad,CuDef*%
%ADD27RoundRect,0.250000X-0.450000X0.262500X-0.450000X-0.262500X0.450000X-0.262500X0.450000X0.262500X0*%
%TD*%
%TA.AperFunction,SMDPad,CuDef*%
%ADD28R,1.000000X1.900000*%
%TD*%
%TA.AperFunction,SMDPad,CuDef*%
%ADD29RoundRect,0.250000X-0.250000X-0.475000X0.250000X-0.475000X0.250000X0.475000X-0.250000X0.475000X0*%
%TD*%
%TA.AperFunction,ComponentPad*%
%ADD30C,0.600000*%
%TD*%
%TA.AperFunction,SMDPad,CuDef*%
%ADD31O,3.000000X2.000000*%
%TD*%
%TA.AperFunction,SMDPad,CuDef*%
%ADD32O,2.000000X3.000000*%
%TD*%
%TA.AperFunction,ViaPad*%
%ADD33C,1.500000*%
%TD*%
%TA.AperFunction,ViaPad*%
%ADD34C,1.000000*%
%TD*%
%TA.AperFunction,Conductor*%
%ADD35C,0.400000*%
%TD*%
%TA.AperFunction,Conductor*%
%ADD36C,0.300000*%
%TD*%
G04 APERTURE END LIST*
D10*
%TO.P,C15,1*%
%TO.N,GNDA*%
X98650000Y-66550000D03*
%TO.P,C15,2*%
%TO.N,CAPOUT*%
X98650000Y-68450000D03*
%TD*%
%TO.P,C13,1*%
%TO.N,Net-(U3-CAP-)*%
X104700000Y-67550000D03*
%TO.P,C13,2*%
%TO.N,Net-(U3-CAP+)*%
X104700000Y-69450000D03*
%TD*%
D11*
%TO.P,Y2,1,1*%
%TO.N,/XTO*%
X76300000Y-69850000D03*
%TO.P,Y2,2,2*%
%TO.N,GNDD*%
X82200000Y-69850000D03*
%TO.P,Y2,3,3*%
%TO.N,Net-(U2-XTI)*%
X82200000Y-67150000D03*
%TO.P,Y2,4,4*%
%TO.N,GNDD*%
X76300000Y-67150000D03*
%TD*%
D12*
%TO.P,R7,1*%
%TO.N,GNDD*%
X76700000Y-52862500D03*
%TO.P,R7,2*%
%TO.N,Net-(J1-CC1)*%
X76700000Y-51037500D03*
%TD*%
%TO.P,R5,1*%
%TO.N,GNDD*%
X79350000Y-64712500D03*
%TO.P,R5,2*%
%TO.N,Net-(J1-CC2)*%
X79350000Y-62887500D03*
%TD*%
D13*
%TO.P,J1,A1,GND*%
%TO.N,GNDD*%
X76900000Y-56650000D03*
X76900000Y-63050000D03*
%TO.P,J1,A4,VBUS*%
%TO.N,Net-(J1-VBUS-PadA4)*%
X76900000Y-57450000D03*
X76900000Y-62250000D03*
D14*
%TO.P,J1,A5,CC1*%
%TO.N,Net-(J1-CC1)*%
X76900000Y-58600000D03*
%TO.P,J1,A6,D+*%
%TO.N,Net-(J1-D+-PadA6)*%
X76900000Y-59600000D03*
%TO.P,J1,A7,D-*%
%TO.N,Net-(J1-D--PadA7)*%
X76900000Y-60100000D03*
%TO.P,J1,A8,SBU1*%
%TO.N,unconnected-(J1-SBU1-PadA8)*%
X76900000Y-61100000D03*
%TO.P,J1,B5,CC2*%
%TO.N,Net-(J1-CC2)*%
X76900000Y-61600000D03*
%TO.P,J1,B6,D+*%
%TO.N,Net-(J1-D+-PadA6)*%
X76900000Y-60600000D03*
%TO.P,J1,B7,D-*%
%TO.N,Net-(J1-D--PadA7)*%
X76900000Y-59100000D03*
%TO.P,J1,B8,SBU2*%
%TO.N,unconnected-(J1-SBU2-PadB8)*%
X76900000Y-58100000D03*
D15*
%TO.P,J1,S1,SHIELD*%
%TO.N,GNDD*%
X76730000Y-55530000D03*
D16*
X76325000Y-55530000D03*
D17*
X72325000Y-55530000D03*
D15*
X75800000Y-55550000D03*
X72900000Y-55550000D03*
X71700000Y-55550000D03*
X76800000Y-64150000D03*
X75900000Y-64150000D03*
D16*
X76300000Y-64170000D03*
D18*
X72820000Y-64170000D03*
D17*
X72325000Y-64170000D03*
D18*
X71830000Y-64170000D03*
%TD*%
D19*
%TO.P,U2,1,BGND*%
%TO.N,GND1*%
X87190000Y-53080000D03*
%TO.P,U2,2,VBUS*%
%TO.N,Net-(U2-VBUS)*%
X87190000Y-53880000D03*
%TO.P,U2,3,D-*%
%TO.N,Net-(U2-D-)*%
X87190000Y-54680000D03*
%TO.P,U2,4,D+*%
%TO.N,Net-(U2-D+)*%
X87190000Y-55480000D03*
%TO.P,U2,5,VDD*%
%TO.N,Net-(U2-VDD)*%
X87190000Y-56280000D03*
%TO.P,U2,6,DGND*%
%TO.N,GNDD*%
X87190000Y-57080000D03*
%TO.P,U2,7,XTO*%
%TO.N,/XTO*%
X87190000Y-57880000D03*
%TO.P,U2,8,XTI*%
%TO.N,Net-(U2-XTI)*%
X87190000Y-58680000D03*
D20*
%TO.P,U2,9,FL*%
%TO.N,unconnected-(U2-FL-Pad9)*%
X88640000Y-60130000D03*
%TO.P,U2,10,FR*%
%TO.N,unconnected-(U2-FR-Pad10)*%
X89440000Y-60130000D03*
%TO.P,U2,11,VCOM1*%
%TO.N,Net-(U2-VCOM1)*%
X90240000Y-60130000D03*
%TO.P,U2,12,VCOM2*%
%TO.N,Net-(U2-VCOM2)*%
X91040000Y-60130000D03*
%TO.P,U2,13,AGND*%
%TO.N,GNDA*%
X91840000Y-60130000D03*
%TO.P,U2,14*%
%TO.N,N/C*%
X92640000Y-60130000D03*
%TO.P,U2,15,VCCA*%
%TO.N,Net-(U2-VCCA)*%
X93440000Y-60130000D03*
%TO.P,U2,16,VIN*%
%TO.N,Net-(U2-VIN)*%
X94240000Y-60130000D03*
D19*
%TO.P,U2,17,MBIAS*%
%TO.N,Net-(D1-A)*%
X95690000Y-58680000D03*
%TO.P,U2,18,VOUTL*%
%TO.N,unconnected-(U2-VOUTL-Pad18)*%
X95690000Y-57880000D03*
%TO.P,U2,19,VCCL*%
%TO.N,Net-(U2-VCCL)*%
X95690000Y-57080000D03*
%TO.P,U2,20,HGND*%
%TO.N,GND*%
X95690000Y-56280000D03*
%TO.P,U2,21,VCCR*%
%TO.N,Net-(U2-VCCR)*%
X95690000Y-55480000D03*
%TO.P,U2,22,VOUTR*%
%TO.N,unconnected-(U2-VOUTR-Pad22)*%
X95690000Y-54680000D03*
%TO.P,U2,23,MAMP*%
%TO.N,Net-(U2-MAMP)*%
X95690000Y-53880000D03*
%TO.P,U2,24,POWER*%
X95690000Y-53080000D03*
D20*
%TO.P,U2,25,PGND*%
%TO.N,GND*%
X94240000Y-51630000D03*
%TO.P,U2,26,VCCP*%
%TO.N,Net-(U2-MAMP)*%
X93440000Y-51630000D03*
%TO.P,U2,27,TEST1*%
X92640000Y-51630000D03*
%TO.P,U2,28,TEST0*%
%TO.N,GND*%
X91840000Y-51630000D03*
%TO.P,U2,29,~{SSPND}*%
%TO.N,unconnected-(U2-~{SSPND}-Pad29)*%
X91040000Y-51630000D03*
%TO.P,U2,30,MMUTE*%
%TO.N,GND*%
X90240000Y-51630000D03*
%TO.P,U2,31,~{REC}*%
%TO.N,unconnected-(U2-~{REC}-Pad31)*%
X89440000Y-51630000D03*
%TO.P,U2,32,~{PLAY}*%
%TO.N,unconnected-(U2-~{PLAY}-Pad32)*%
X88640000Y-51630000D03*
%TD*%
D21*
%TO.P,U3,6,CAP+*%
%TO.N,Net-(U3-CAP+)*%
X102500000Y-68637500D03*
%TO.P,U3,5,VOUT*%
%TO.N,CAPOUT*%
X101550000Y-68637500D03*
%TO.P,U3,4,SD*%
%TO.N,Net-(D1-A)*%
X100600000Y-68637500D03*
%TO.P,U3,3,CAP-*%
%TO.N,Net-(U3-CAP-)*%
X100600000Y-66362500D03*
%TO.P,U3,2,GND*%
%TO.N,GNDA*%
X101550000Y-66362500D03*
%TO.P,U3,1,V+*%
%TO.N,Net-(D1-A)*%
X102500000Y-66362500D03*
%TD*%
D22*
%TO.P,C1,1*%
%TO.N,Net-(U2-VDD)*%
X83350000Y-60100000D03*
%TO.P,C1,2*%
%TO.N,GNDD*%
X81450000Y-60100000D03*
%TD*%
D23*
%TO.P,D1,1,K*%
%TO.N,CAPOUT*%
X90700000Y-69400000D03*
%TO.P,D1,2,A*%
%TO.N,Net-(D1-A)*%
X94700000Y-69400000D03*
%TD*%
D24*
%TO.P,C2,1*%
%TO.N,GNDD*%
X84950000Y-69050000D03*
%TO.P,C2,2*%
%TO.N,Net-(U2-XTI)*%
X84950000Y-67150000D03*
%TD*%
D25*
%TO.P,R3,1*%
%TO.N,Net-(U2-VDD)*%
X83312500Y-58000000D03*
%TO.P,R3,2*%
%TO.N,/D+*%
X81487500Y-58000000D03*
%TD*%
D22*
%TO.P,C17,1*%
%TO.N,GND*%
X100250000Y-53100000D03*
%TO.P,C17,2*%
%TO.N,Net-(U2-MAMP)*%
X98350000Y-53100000D03*
%TD*%
D24*
%TO.P,C8,1*%
%TO.N,GNDA*%
X93800000Y-64650000D03*
%TO.P,C8,2*%
%TO.N,Net-(U2-VCCA)*%
X93800000Y-62750000D03*
%TD*%
D26*
%TO.P,R2,1*%
%TO.N,Net-(J1-D+-PadA6)*%
X81487500Y-56000000D03*
%TO.P,R2,2*%
%TO.N,Net-(U2-D+)*%
X83312500Y-56000000D03*
%TD*%
D22*
%TO.P,C14,1*%
%TO.N,GND*%
X100250000Y-55200000D03*
%TO.P,C14,2*%
%TO.N,Net-(U2-VCCR)*%
X98350000Y-55200000D03*
%TD*%
D24*
%TO.P,C6,1*%
%TO.N,GNDA*%
X88300000Y-64750000D03*
%TO.P,C6,2*%
%TO.N,Net-(U2-VCOM1)*%
X88300000Y-62850000D03*
%TD*%
D27*
%TO.P,R4,1*%
%TO.N,/XTO*%
X84900000Y-63487500D03*
%TO.P,R4,2*%
%TO.N,Net-(U2-XTI)*%
X84900000Y-65312500D03*
%TD*%
D28*
%TO.P,L1,1*%
%TO.N,Net-(U2-VBUS)*%
X82500000Y-51800000D03*
%TO.P,L1,2*%
%TO.N,Net-(J1-VBUS-PadA4)*%
X80900000Y-51800000D03*
%TD*%
D10*
%TO.P,C9,1*%
%TO.N,Net-(U2-VIN)*%
X95850000Y-62750000D03*
%TO.P,C9,2*%
%TO.N,VIN*%
X95850000Y-64650000D03*
%TD*%
D29*
%TO.P,C11,1*%
%TO.N,Net-(U2-VCCL)*%
X98350000Y-57200000D03*
%TO.P,C11,2*%
%TO.N,GND*%
X100250000Y-57200000D03*
%TD*%
D22*
%TO.P,C10,1*%
%TO.N,Net-(D1-A)*%
X102450000Y-63700000D03*
%TO.P,C10,2*%
%TO.N,GNDA*%
X100550000Y-63700000D03*
%TD*%
D24*
%TO.P,C7,1*%
%TO.N,GNDA*%
X90300000Y-64750000D03*
%TO.P,C7,2*%
%TO.N,Net-(U2-VCOM2)*%
X90300000Y-62850000D03*
%TD*%
D10*
%TO.P,C3,1*%
%TO.N,GNDD*%
X73650000Y-67900000D03*
%TO.P,C3,2*%
%TO.N,/XTO*%
X73650000Y-69800000D03*
%TD*%
D25*
%TO.P,R1,1*%
%TO.N,Net-(U2-D-)*%
X83312500Y-54100000D03*
%TO.P,R1,2*%
%TO.N,Net-(J1-D--PadA7)*%
X81487500Y-54100000D03*
%TD*%
D30*
%TO.P,U1,3*%
%TO.N,unconnected-(U1-Pad3)*%
X111550000Y-65100000D03*
D31*
X111950000Y-65100000D03*
D30*
X112350000Y-65100000D03*
%TO.P,U1,2*%
%TO.N,VIN*%
X115050000Y-55100000D03*
D31*
X115450000Y-55100000D03*
D30*
X115850000Y-55100000D03*
%TO.P,U1,1*%
%TO.N,GNDA*%
X119850000Y-59500000D03*
D32*
X119850000Y-59900000D03*
D30*
X119850000Y-60300000D03*
%TD*%
D10*
%TO.P,C18,1*%
%TO.N,GND1*%
X84800000Y-50250000D03*
%TO.P,C18,2*%
%TO.N,Net-(U2-VBUS)*%
X84800000Y-52150000D03*
%TD*%
D27*
%TO.P,R6,1*%
%TO.N,VIN*%
X108800000Y-67587500D03*
%TO.P,R6,2*%
%TO.N,CAPOUT*%
X108800000Y-69412500D03*
%TD*%
D33*
%TO.N,Net-(D1-A)*%
X104450000Y-65150000D03*
D34*
X96900000Y-69400000D03*
%TO.N,GNDD*%
X72350000Y-52700000D03*
X73600000Y-66400000D03*
D33*
%TO.N,GNDA*%
X98500000Y-64400000D03*
%TO.N,VIN*%
X98400000Y-62150000D03*
D34*
%TO.N,Net-(J1-CC1)*%
X78750000Y-51050000D03*
X78500000Y-58150000D03*
%TO.N,GND*%
X99800000Y-50300000D03*
%TO.N,Net-(D1-A)*%
X100600000Y-70150000D03*
%TO.N,GNDA*%
X104650000Y-50550000D03*
D33*
X88600000Y-66950000D03*
D34*
X113300000Y-50550000D03*
X112800000Y-69000000D03*
%TO.N,GNDD*%
X84900000Y-70850000D03*
X83200000Y-61900000D03*
%TD*%
D35*
%TO.N,Net-(U3-CAP+)*%
X102700000Y-70400000D02*
X104600000Y-70400000D01*
X104600000Y-70400000D02*
X104700000Y-70300000D01*
X104700000Y-70300000D02*
X104700000Y-69450000D01*
X102500000Y-70200000D02*
X102700000Y-70400000D01*
X102500000Y-68637500D02*
X102500000Y-70200000D01*
%TO.N,CAPOUT*%
X101550000Y-71100000D02*
X105650000Y-71100000D01*
X105650000Y-71100000D02*
X107337500Y-69412500D01*
X107337500Y-69412500D02*
X108800000Y-69412500D01*
%TO.N,GNDA*%
X101550000Y-65150000D02*
X99450000Y-65150000D01*
X101550000Y-66362500D02*
X101550000Y-65150000D01*
%TO.N,/XTO*%
X79700000Y-66950000D02*
X83150000Y-63500000D01*
X78900000Y-69850000D02*
X79700000Y-69050000D01*
X79700000Y-69050000D02*
X79700000Y-66950000D01*
X84887500Y-63500000D02*
X84900000Y-63487500D01*
X76300000Y-69850000D02*
X78900000Y-69850000D01*
X83150000Y-63500000D02*
X84887500Y-63500000D01*
X73700000Y-69850000D02*
X73650000Y-69800000D01*
X76300000Y-69850000D02*
X73700000Y-69850000D01*
%TO.N,GND1*%
X88980000Y-53080000D02*
X89250000Y-53350000D01*
X87190000Y-53080000D02*
X88980000Y-53080000D01*
%TO.N,GNDD*%
X89830000Y-57080000D02*
X89850000Y-57100000D01*
X87190000Y-57080000D02*
X89830000Y-57080000D01*
%TO.N,GNDA*%
X91840000Y-58060000D02*
X91850000Y-58050000D01*
X91840000Y-60130000D02*
X91840000Y-58060000D01*
%TO.N,Net-(D1-A)*%
X101950000Y-62350000D02*
X102450000Y-62850000D01*
X100650000Y-62350000D02*
X101950000Y-62350000D01*
X96980000Y-58680000D02*
X100650000Y-62350000D01*
X95690000Y-58680000D02*
X96980000Y-58680000D01*
X102450000Y-62850000D02*
X102450000Y-63700000D01*
X102450000Y-63300000D02*
X102450000Y-63700000D01*
D36*
%TO.N,GND*%
X90240000Y-49410000D02*
X90250000Y-49400000D01*
X90240000Y-51630000D02*
X90240000Y-49410000D01*
D35*
%TO.N,GNDD*%
X74650000Y-56650000D02*
X74600000Y-56700000D01*
X76900000Y-56650000D02*
X74650000Y-56650000D01*
X79237500Y-64600000D02*
X79350000Y-64712500D01*
X78250000Y-64600000D02*
X79237500Y-64600000D01*
X76900000Y-63050000D02*
X77450000Y-63050000D01*
X77450000Y-63050000D02*
X78250000Y-63850000D01*
X78250000Y-63850000D02*
X78250000Y-64600000D01*
X76900000Y-63050000D02*
X74650000Y-63050000D01*
%TO.N,Net-(D1-A)*%
X104450000Y-65150000D02*
X102500000Y-65150000D01*
X102500000Y-65150000D02*
X102500000Y-63750000D01*
X102500000Y-66362500D02*
X102500000Y-65150000D01*
%TO.N,CAPOUT*%
X98650000Y-68450000D02*
X98650000Y-71050000D01*
X98700000Y-71100000D02*
X91050000Y-71100000D01*
X98650000Y-71050000D02*
X98700000Y-71100000D01*
X100277207Y-71100000D02*
X98700000Y-71100000D01*
X90700000Y-70750000D02*
X90700000Y-69400000D01*
X91050000Y-71100000D02*
X90700000Y-70750000D01*
%TO.N,Net-(D1-A)*%
X96900000Y-69400000D02*
X94700000Y-69400000D01*
X102500000Y-63750000D02*
X102450000Y-63700000D01*
%TO.N,CAPOUT*%
X100277207Y-71100000D02*
X101550000Y-71100000D01*
%TO.N,Net-(U2-VIN)*%
X95600000Y-61850000D02*
X95850000Y-62100000D01*
X95850000Y-62100000D02*
X95850000Y-62750000D01*
X95000000Y-61850000D02*
X95600000Y-61850000D01*
X94240000Y-61090000D02*
X95000000Y-61850000D01*
X94240000Y-60130000D02*
X94240000Y-61090000D01*
%TO.N,VIN*%
X96950000Y-63600000D02*
X98400000Y-62150000D01*
X96950000Y-64600000D02*
X96950000Y-63600000D01*
X96900000Y-64650000D02*
X96950000Y-64600000D01*
X95850000Y-64650000D02*
X96900000Y-64650000D01*
X108800000Y-61900000D02*
X115450000Y-55250000D01*
X108800000Y-67587500D02*
X108800000Y-61900000D01*
%TO.N,CAPOUT*%
X101550000Y-68637500D02*
X101550000Y-71100000D01*
%TO.N,Net-(D1-A)*%
X100600000Y-69650500D02*
X100600000Y-68637500D01*
D36*
%TO.N,Net-(U3-CAP-)*%
X101005000Y-67525000D02*
X104675000Y-67525000D01*
X104675000Y-67525000D02*
X104700000Y-67550000D01*
%TO.N,Net-(J1-CC1)*%
X78050000Y-58600000D02*
X78500000Y-58150000D01*
X76900000Y-58600000D02*
X78050000Y-58600000D01*
%TO.N,Net-(J1-D--PadA7)*%
X78050000Y-59100000D02*
X78300000Y-59350000D01*
X76900000Y-59100000D02*
X78050000Y-59100000D01*
X77750000Y-60100000D02*
X78300000Y-59550000D01*
X76900000Y-60100000D02*
X77750000Y-60100000D01*
%TO.N,Net-(J1-D+-PadA6)*%
X75650000Y-59900000D02*
X75950000Y-59600000D01*
X75650000Y-60300000D02*
X75650000Y-59900000D01*
X75950000Y-60600000D02*
X75650000Y-60300000D01*
X75950000Y-59600000D02*
X76542893Y-59600000D01*
X76900000Y-60600000D02*
X75950000Y-60600000D01*
%TO.N,Net-(J1-CC2)*%
X79350000Y-62200000D02*
X79350000Y-62887500D01*
X78750000Y-61600000D02*
X79350000Y-62200000D01*
X76900000Y-61600000D02*
X78750000Y-61600000D01*
%TO.N,Net-(J1-D+-PadA6)*%
X80500000Y-56000000D02*
X80987500Y-56000000D01*
X78500000Y-60600000D02*
X80100000Y-59000000D01*
X76900000Y-60600000D02*
X78500000Y-60600000D01*
X80100000Y-59000000D02*
X80100000Y-56400000D01*
X80100000Y-56400000D02*
X80500000Y-56000000D01*
D35*
%TO.N,Net-(J1-VBUS-PadA4)*%
X76900000Y-62250000D02*
X76050000Y-62250000D01*
X76050000Y-62250000D02*
X74850000Y-61050000D01*
X74850000Y-61050000D02*
X74850000Y-58450000D01*
X74850000Y-58450000D02*
X75850000Y-57450000D01*
X78750000Y-53200000D02*
X80150000Y-51800000D01*
X77750000Y-57450000D02*
X78750000Y-56450000D01*
X75850000Y-57450000D02*
X77750000Y-57450000D01*
X78750000Y-56450000D02*
X78750000Y-53200000D01*
X80150000Y-51800000D02*
X80900000Y-51800000D01*
%TO.N,Net-(J1-CC1)*%
X76712500Y-51050000D02*
X76700000Y-51037500D01*
X78750000Y-51050000D02*
X76712500Y-51050000D01*
%TO.N,Net-(U2-XTI)*%
X84950000Y-65362500D02*
X84900000Y-65312500D01*
X84950000Y-67150000D02*
X84950000Y-65362500D01*
X82200000Y-67150000D02*
X84950000Y-67150000D01*
D36*
%TO.N,Net-(J1-D--PadA7)*%
X79800000Y-54100000D02*
X81487500Y-54100000D01*
X79450000Y-58700000D02*
X79450000Y-54450000D01*
X78700000Y-59450000D02*
X79450000Y-58700000D01*
X79450000Y-54450000D02*
X79800000Y-54100000D01*
X78300000Y-59450000D02*
X78700000Y-59450000D01*
X78300000Y-59450000D02*
X78300000Y-59350000D01*
X78300000Y-59550000D02*
X78300000Y-59450000D01*
%TO.N,Net-(U2-VDD)*%
X83350000Y-58037500D02*
X83312500Y-58000000D01*
X85520000Y-56280000D02*
X87190000Y-56280000D01*
X83350000Y-60100000D02*
X83350000Y-58037500D01*
X83312500Y-58000000D02*
X83800000Y-58000000D01*
X83800000Y-58000000D02*
X85520000Y-56280000D01*
%TO.N,GND*%
X91900000Y-56300000D02*
X91920000Y-56280000D01*
X91920000Y-56280000D02*
X95690000Y-56280000D01*
X91840000Y-51630000D02*
X91840000Y-56240000D01*
D35*
X91840000Y-51630000D02*
X91840000Y-49560000D01*
D36*
X94240000Y-51630000D02*
X94240000Y-53860000D01*
X90240000Y-51630000D02*
X90240000Y-55060000D01*
D35*
X98100000Y-48600000D02*
X99800000Y-50300000D01*
X91840000Y-49560000D02*
X92800000Y-48600000D01*
X92800000Y-48600000D02*
X98100000Y-48600000D01*
D36*
X91840000Y-56240000D02*
X91900000Y-56300000D01*
%TO.N,Net-(U2-XTI)*%
X85487500Y-65312500D02*
X86000000Y-64800000D01*
X86000000Y-58900000D02*
X86220000Y-58680000D01*
X86220000Y-58680000D02*
X87190000Y-58680000D01*
X84900000Y-65312500D02*
X85487500Y-65312500D01*
X86000000Y-64800000D02*
X86000000Y-58900000D01*
%TO.N,/XTO*%
X87190000Y-57880000D02*
X86090000Y-57880000D01*
X85000000Y-63387500D02*
X84900000Y-63487500D01*
X85000000Y-58970000D02*
X85000000Y-63387500D01*
X86090000Y-57880000D02*
X85000000Y-58970000D01*
D35*
%TO.N,Net-(U2-VCOM1)*%
X89400000Y-61800000D02*
X88500000Y-61800000D01*
D36*
X90240000Y-60130000D02*
X90240000Y-60960000D01*
D35*
X88300000Y-62000000D02*
X88300000Y-62850000D01*
X90240000Y-60960000D02*
X89400000Y-61800000D01*
X88500000Y-61800000D02*
X88300000Y-62000000D01*
%TO.N,Net-(U2-VCOM2)*%
X91040000Y-61460000D02*
X91040000Y-60130000D01*
X90300000Y-62200000D02*
X91040000Y-61460000D01*
X90300000Y-62850000D02*
X90300000Y-62200000D01*
D36*
%TO.N,Net-(U2-VCCA)*%
X93440000Y-62690000D02*
X93500000Y-62750000D01*
D35*
X93800000Y-62000000D02*
X93440000Y-61640000D01*
X93440000Y-61640000D02*
X93440000Y-60130000D01*
X93800000Y-62750000D02*
X93800000Y-62000000D01*
D36*
X93800000Y-62750000D02*
X94350000Y-62750000D01*
D35*
%TO.N,Net-(U2-VCCL)*%
X97300000Y-57200000D02*
X97180000Y-57080000D01*
X97180000Y-57080000D02*
X95690000Y-57080000D01*
X98350000Y-57200000D02*
X97300000Y-57200000D01*
D36*
%TO.N,Net-(U3-CAP-)*%
X100600000Y-66362500D02*
X100600000Y-67120000D01*
X100600000Y-67120000D02*
X101005000Y-67525000D01*
D35*
%TO.N,Net-(U2-VCCR)*%
X97600000Y-55200000D02*
X98350000Y-55200000D01*
X97320000Y-55480000D02*
X97600000Y-55200000D01*
X95690000Y-55480000D02*
X97320000Y-55480000D01*
%TO.N,Net-(U2-MAMP)*%
X96680000Y-53880000D02*
X97480000Y-53080000D01*
X93440000Y-51630000D02*
X93440000Y-49660000D01*
X93600000Y-49500000D02*
X96300000Y-49500000D01*
X93440000Y-49660000D02*
X93600000Y-49500000D01*
X95690000Y-53080000D02*
X97380000Y-53080000D01*
X95690000Y-53880000D02*
X96680000Y-53880000D01*
D36*
X97380000Y-53080000D02*
X97480000Y-53080000D01*
D35*
X92640000Y-51630000D02*
X92640000Y-50060000D01*
X92640000Y-50060000D02*
X93200000Y-49500000D01*
X93200000Y-49500000D02*
X93600000Y-49500000D01*
X97480000Y-53080000D02*
X98330000Y-53080000D01*
X96300000Y-49500000D02*
X97380000Y-50580000D01*
D36*
X98330000Y-53080000D02*
X98350000Y-53100000D01*
D35*
X97380000Y-50580000D02*
X97380000Y-53080000D01*
D36*
%TO.N,Net-(U2-VBUS)*%
X84750000Y-52200000D02*
X84800000Y-52150000D01*
D35*
X82900000Y-52200000D02*
X84750000Y-52200000D01*
X84800000Y-53200000D02*
X84800000Y-52150000D01*
X87190000Y-53880000D02*
X85480000Y-53880000D01*
D36*
X82500000Y-51800000D02*
X82900000Y-52200000D01*
D35*
X85480000Y-53880000D02*
X84800000Y-53200000D01*
D36*
%TO.N,/D+*%
X81487500Y-58000000D02*
X81487500Y-56000000D01*
D35*
%TO.N,Net-(U2-D-)*%
X83312500Y-54100000D02*
X84300000Y-54100000D01*
X84300000Y-54100000D02*
X84880000Y-54680000D01*
X84880000Y-54680000D02*
X87190000Y-54680000D01*
%TO.N,Net-(U2-D+)*%
X84400000Y-56000000D02*
X84920000Y-55480000D01*
X83312500Y-56000000D02*
X84400000Y-56000000D01*
X84920000Y-55480000D02*
X87190000Y-55480000D01*
%TO.N,GNDA*%
X92277818Y-62100000D02*
X92300000Y-62100000D01*
X92400000Y-62200000D02*
X92400000Y-64500000D01*
X92400000Y-64500000D02*
X92550000Y-64650000D01*
X92550000Y-64650000D02*
X93800000Y-64650000D01*
X91840000Y-60130000D02*
X91840000Y-61662182D01*
X92300000Y-62100000D02*
X92400000Y-62200000D01*
X91840000Y-61662182D02*
X92277818Y-62100000D01*
D36*
%TO.N,GNDD*%
X84450000Y-58450000D02*
X85820000Y-57080000D01*
X84450000Y-60573528D02*
X84450000Y-58450000D01*
X83848528Y-61175000D02*
X84450000Y-60573528D01*
X85820000Y-57080000D02*
X87190000Y-57080000D01*
X81450000Y-60100000D02*
X82525000Y-61175000D01*
X82525000Y-61175000D02*
X83175000Y-61175000D01*
X83175000Y-61175000D02*
X83848528Y-61175000D01*
X83200000Y-61900000D02*
X83200000Y-61200000D01*
X83200000Y-61200000D02*
X83175000Y-61175000D01*
D35*
%TO.N,GND1*%
X86050000Y-50250000D02*
X84800000Y-50250000D01*
X86280000Y-53080000D02*
X86100000Y-52900000D01*
X87190000Y-53080000D02*
X86280000Y-53080000D01*
X86100000Y-50300000D02*
X86050000Y-50250000D01*
X86100000Y-52900000D02*
X86100000Y-50300000D01*
%TD*%
%TA.AperFunction,Conductor*%
%TO.N,GNDA*%
G36*
X121336500Y-47917381D02*
G01*
X121382619Y-47963500D01*
X121399500Y-48026500D01*
X121399500Y-58593826D01*
X121383123Y-58655945D01*
X121338250Y-58701916D01*
X121276544Y-58719789D01*
X121214048Y-58704918D01*
X121167006Y-58661168D01*
X121059484Y-58491134D01*
X120898025Y-58308886D01*
X120709429Y-58154903D01*
X120498572Y-58033164D01*
X120270919Y-57946826D01*
X120103999Y-57912749D01*
X120104000Y-57912750D01*
X120104000Y-61888234D01*
X120152621Y-61882330D01*
X120386481Y-61814592D01*
X120606453Y-61710214D01*
X120806832Y-61571902D01*
X120982421Y-61403246D01*
X121128695Y-61208592D01*
X121161933Y-61145264D01*
X121207017Y-61096786D01*
X121270455Y-61077856D01*
X121334734Y-61093699D01*
X121382108Y-61139942D01*
X121399500Y-61203819D01*
X121399500Y-71773500D01*
X121382619Y-71836500D01*
X121336500Y-71882619D01*
X121273500Y-71899500D01*
X106143469Y-71899500D01*
X106083584Y-71884360D01*
X106038092Y-71842577D01*
X106017924Y-71784193D01*
X106027927Y-71723240D01*
X106065699Y-71674365D01*
X106066105Y-71674045D01*
X106067060Y-71673298D01*
X106073180Y-71668791D01*
X106123273Y-71634215D01*
X106163611Y-71588682D01*
X106168803Y-71583165D01*
X107588051Y-70163919D01*
X107644533Y-70131310D01*
X107709755Y-70131310D01*
X107766239Y-70163922D01*
X107876344Y-70274027D01*
X107876346Y-70274028D01*
X107876348Y-70274030D01*
X108027262Y-70367115D01*
X108195574Y-70422887D01*
X108299455Y-70433500D01*
X109300544Y-70433499D01*
X109404426Y-70422887D01*
X109572738Y-70367115D01*
X109723652Y-70274030D01*
X109849030Y-70148652D01*
X109942115Y-69997738D01*
X109997887Y-69829426D01*
X110008500Y-69725545D01*
X110008499Y-69099456D01*
X109997887Y-68995574D01*
X109982786Y-68950000D01*
X117044341Y-68950000D01*
X117048391Y-68996295D01*
X117064937Y-69185409D01*
X117126096Y-69413662D01*
X117225965Y-69627829D01*
X117361507Y-69821404D01*
X117528595Y-69988492D01*
X117528598Y-69988494D01*
X117528599Y-69988495D01*
X117722171Y-70124035D01*
X117936337Y-70223903D01*
X118164592Y-70285063D01*
X118341034Y-70300500D01*
X118458960Y-70300500D01*
X118458966Y-70300500D01*
X118635408Y-70285063D01*
X118863663Y-70223903D01*
X119077829Y-70124035D01*
X119271401Y-69988495D01*
X119438495Y-69821401D01*
X119574035Y-69627830D01*
X119673903Y-69413663D01*
X119735063Y-69185408D01*
X119755659Y-68950000D01*
X119735063Y-68714592D01*
X119673903Y-68486337D01*
X119574035Y-68272171D01*
X119438495Y-68078599D01*
X119438494Y-68078598D01*
X119438492Y-68078595D01*
X119271404Y-67911507D01*
X119077829Y-67775965D01*
X118863662Y-67676096D01*
X118635409Y-67614937D01*
X118610202Y-67612731D01*
X118458966Y-67599500D01*
X118341034Y-67599500D01*
X118208702Y-67611077D01*
X118164590Y-67614937D01*
X117936337Y-67676096D01*
X117722170Y-67775965D01*
X117528595Y-67911507D01*
X117361507Y-68078595D01*
X117225965Y-68272169D01*
X117126096Y-68486336D01*
X117064937Y-68714590D01*
X117058640Y-68786565D01*
X117044341Y-68950000D01*
X109982786Y-68950000D01*
X109942115Y-68827262D01*
X109849030Y-68676348D01*
X109761775Y-68589093D01*
X109729165Y-68532611D01*
X109729165Y-68467389D01*
X109761775Y-68410906D01*
X109849030Y-68323652D01*
X109942115Y-68172738D01*
X109997887Y-68004426D01*
X110008500Y-67900545D01*
X110008499Y-67274456D01*
X109997887Y-67170574D01*
X109942115Y-67002262D01*
X109849030Y-66851348D01*
X109849028Y-66851346D01*
X109849027Y-66851344D01*
X109723655Y-66725972D01*
X109683124Y-66700972D01*
X109572738Y-66632885D01*
X109572735Y-66632884D01*
X109568353Y-66630181D01*
X109524476Y-66584346D01*
X109508500Y-66522940D01*
X109508500Y-65160941D01*
X109937819Y-65160941D01*
X109959483Y-65339352D01*
X109967177Y-65402720D01*
X110034939Y-65636662D01*
X110092970Y-65758960D01*
X110139350Y-65856705D01*
X110277708Y-66057150D01*
X110436309Y-66222270D01*
X110446425Y-66232802D01*
X110641135Y-66379117D01*
X110661139Y-66389616D01*
X110852395Y-66489995D01*
X110856795Y-66492304D01*
X111040099Y-66553500D01*
X111087821Y-66569432D01*
X111328219Y-66608500D01*
X111328221Y-66608500D01*
X112510797Y-66608500D01*
X112510802Y-66608500D01*
X112593511Y-66601822D01*
X112692768Y-66593810D01*
X112929248Y-66535523D01*
X113153316Y-66440056D01*
X113359168Y-66309883D01*
X113541474Y-66148375D01*
X113695510Y-65959714D01*
X113817289Y-65748787D01*
X113903656Y-65521057D01*
X113952374Y-65282421D01*
X113962181Y-65039061D01*
X113932823Y-64797280D01*
X113865061Y-64563338D01*
X113760650Y-64343296D01*
X113756968Y-64337962D01*
X113622291Y-64142849D01*
X113453579Y-63967202D01*
X113453578Y-63967201D01*
X113453575Y-63967198D01*
X113258865Y-63820883D01*
X113258861Y-63820881D01*
X113258860Y-63820880D01*
X113043208Y-63707697D01*
X112812178Y-63630567D01*
X112571781Y-63591500D01*
X112571779Y-63591500D01*
X111389203Y-63591500D01*
X111389198Y-63591500D01*
X111207237Y-63606189D01*
X111207233Y-63606189D01*
X111207232Y-63606190D01*
X111074563Y-63638890D01*
X110970748Y-63664478D01*
X110746683Y-63759944D01*
X110540830Y-63890117D01*
X110358527Y-64051623D01*
X110204490Y-64240285D01*
X110082712Y-64451210D01*
X109996344Y-64678942D01*
X109961050Y-64851824D01*
X109947626Y-64917579D01*
X109942731Y-65039061D01*
X109937819Y-65160941D01*
X109508500Y-65160941D01*
X109508500Y-62245660D01*
X109518091Y-62197442D01*
X109545405Y-62156565D01*
X111547970Y-60154000D01*
X118342000Y-60154000D01*
X118342000Y-60460776D01*
X118356685Y-60642682D01*
X118414954Y-60879089D01*
X118510389Y-61103084D01*
X118640515Y-61308865D01*
X118801974Y-61491113D01*
X118990570Y-61645096D01*
X119201427Y-61766835D01*
X119429080Y-61853173D01*
X119596000Y-61887250D01*
X119596000Y-60154000D01*
X118342000Y-60154000D01*
X111547970Y-60154000D01*
X112055970Y-59646000D01*
X118342000Y-59646000D01*
X119596000Y-59646000D01*
X119596000Y-57911766D01*
X119595999Y-57911765D01*
X119547378Y-57917669D01*
X119313518Y-57985407D01*
X119093546Y-58089785D01*
X118893167Y-58228097D01*
X118717578Y-58396753D01*
X118571307Y-58591403D01*
X118458156Y-58806994D01*
X118381055Y-59037938D01*
X118342000Y-59278259D01*
X118342000Y-59646000D01*
X112055970Y-59646000D01*
X115056565Y-56645405D01*
X115097442Y-56618091D01*
X115145660Y-56608500D01*
X116010802Y-56608500D01*
X116093511Y-56601822D01*
X116192768Y-56593810D01*
X116429248Y-56535523D01*
X116653316Y-56440056D01*
X116859168Y-56309883D01*
X117041474Y-56148375D01*
X117195510Y-55959714D01*
X117317289Y-55748787D01*
X117403656Y-55521057D01*
X117452374Y-55282421D01*
X117462181Y-55039061D01*
X117432823Y-54797280D01*
X117365061Y-54563338D01*
X117260650Y-54343296D01*
X117216530Y-54279378D01*
X117122291Y-54142849D01*
X116953579Y-53967202D01*
X116953578Y-53967201D01*
X116953575Y-53967198D01*
X116758865Y-53820883D01*
X116758861Y-53820881D01*
X116758860Y-53820880D01*
X116543208Y-53707697D01*
X116312178Y-53630567D01*
X116071781Y-53591500D01*
X116071779Y-53591500D01*
X114889203Y-53591500D01*
X114889198Y-53591500D01*
X114707237Y-53606189D01*
X114707233Y-53606189D01*
X114707232Y-53606190D01*
X114470752Y-53664477D01*
X114470748Y-53664478D01*
X114246683Y-53759944D01*
X114040830Y-53890117D01*
X113858527Y-54051623D01*
X113704490Y-54240285D01*
X113582712Y-54451210D01*
X113496344Y-54678942D01*
X113489155Y-54714157D01*
X113447626Y-54917579D01*
X113442731Y-55039061D01*
X113437819Y-55160941D01*
X113462967Y-55368046D01*
X113467177Y-55402720D01*
X113534939Y-55636662D01*
X113639350Y-55856704D01*
X113651490Y-55874292D01*
X113662179Y-55889777D01*
X113683234Y-55943650D01*
X113678000Y-56001254D01*
X113647579Y-56050449D01*
X108316856Y-61381172D01*
X108311317Y-61386388D01*
X108265782Y-61426729D01*
X108231238Y-61476773D01*
X108226731Y-61482898D01*
X108189224Y-61530774D01*
X108185036Y-61540078D01*
X108173843Y-61559923D01*
X108168048Y-61568319D01*
X108146482Y-61625183D01*
X108143570Y-61632211D01*
X108118611Y-61687668D01*
X108116771Y-61697710D01*
X108110651Y-61719662D01*
X108107035Y-61729197D01*
X108099705Y-61789554D01*
X108098561Y-61797071D01*
X108087597Y-61856906D01*
X108091270Y-61917610D01*
X108091500Y-61925218D01*
X108091500Y-66522940D01*
X108075524Y-66584346D01*
X108031647Y-66630181D01*
X108027264Y-66632884D01*
X108027262Y-66632885D01*
X107938289Y-66687764D01*
X107876344Y-66725972D01*
X107750972Y-66851344D01*
X107722630Y-66897294D01*
X107657885Y-67002262D01*
X107602113Y-67170574D01*
X107593904Y-67250931D01*
X107591500Y-67274459D01*
X107591500Y-67900540D01*
X107601458Y-67998011D01*
X107602113Y-68004426D01*
X107657885Y-68172738D01*
X107742241Y-68309500D01*
X107750972Y-68323655D01*
X107838222Y-68410905D01*
X107870834Y-68467389D01*
X107870834Y-68532611D01*
X107838222Y-68589095D01*
X107760222Y-68667095D01*
X107719345Y-68694409D01*
X107671127Y-68704000D01*
X107362706Y-68704000D01*
X107355098Y-68703770D01*
X107294404Y-68700098D01*
X107234597Y-68711058D01*
X107227076Y-68712203D01*
X107166698Y-68719535D01*
X107157163Y-68723151D01*
X107135205Y-68729272D01*
X107125170Y-68731111D01*
X107069721Y-68756066D01*
X107062694Y-68758977D01*
X107005824Y-68780546D01*
X106997427Y-68786342D01*
X106977576Y-68797538D01*
X106968274Y-68801724D01*
X106920388Y-68839240D01*
X106914261Y-68843748D01*
X106864226Y-68878285D01*
X106823904Y-68923798D01*
X106818689Y-68929338D01*
X106148595Y-69599433D01*
X106098435Y-69630171D01*
X106039788Y-69634787D01*
X105985438Y-69612274D01*
X105947232Y-69567541D01*
X105933499Y-69510340D01*
X105933499Y-69149456D01*
X105922887Y-69045574D01*
X105867115Y-68877262D01*
X105774030Y-68726348D01*
X105774028Y-68726346D01*
X105774027Y-68726344D01*
X105638239Y-68590556D01*
X105640593Y-68588201D01*
X105614943Y-68561410D01*
X105598965Y-68500000D01*
X105614943Y-68438590D01*
X105640593Y-68411798D01*
X105638239Y-68409444D01*
X105774027Y-68273655D01*
X105774027Y-68273654D01*
X105774030Y-68273652D01*
X105867115Y-68122738D01*
X105922887Y-67954426D01*
X105933500Y-67850545D01*
X105933499Y-67249456D01*
X105922887Y-67145574D01*
X105867115Y-66977262D01*
X105774030Y-66826348D01*
X105774028Y-66826346D01*
X105774027Y-66826344D01*
X105648655Y-66700972D01*
X105648652Y-66700970D01*
X105497738Y-66607885D01*
X105329426Y-66552113D01*
X105225545Y-66541500D01*
X105225541Y-66541500D01*
X105012130Y-66541500D01*
X104947235Y-66523503D01*
X104900878Y-66474653D01*
X104886303Y-66408905D01*
X104907672Y-66345041D01*
X104958879Y-66301306D01*
X105081654Y-66244056D01*
X105262038Y-66117749D01*
X105417749Y-65962038D01*
X105544056Y-65781654D01*
X105637120Y-65582076D01*
X105694115Y-65369371D01*
X105713307Y-65150000D01*
X105694115Y-64930629D01*
X105691005Y-64919024D01*
X105651289Y-64770803D01*
X105637120Y-64717924D01*
X105544056Y-64518347D01*
X105417749Y-64337962D01*
X105417748Y-64337961D01*
X105417746Y-64337958D01*
X105262041Y-64182253D01*
X105081653Y-64055943D01*
X104882074Y-63962879D01*
X104669375Y-63905885D01*
X104450000Y-63886693D01*
X104230624Y-63905885D01*
X104017925Y-63962879D01*
X103818348Y-64055942D01*
X103656769Y-64169081D01*
X103592739Y-64191597D01*
X103526318Y-64177630D01*
X103476780Y-64131232D01*
X103458499Y-64065870D01*
X103458499Y-63174456D01*
X103447887Y-63070574D01*
X103392115Y-62902262D01*
X103299030Y-62751348D01*
X103299028Y-62751346D01*
X103299027Y-62751344D01*
X103173653Y-62625970D01*
X103143712Y-62607502D01*
X103112706Y-62580494D01*
X103092049Y-62544945D01*
X103081954Y-62518325D01*
X103081952Y-62518322D01*
X103081951Y-62518319D01*
X103076161Y-62509931D01*
X103064957Y-62490067D01*
X103062396Y-62484376D01*
X103060775Y-62480774D01*
X103023260Y-62432891D01*
X103018766Y-62426783D01*
X102984215Y-62376727D01*
X102938682Y-62336388D01*
X102933141Y-62331171D01*
X102468827Y-61866857D01*
X102463610Y-61861316D01*
X102455648Y-61852329D01*
X102423273Y-61815785D01*
X102388338Y-61791671D01*
X102373220Y-61781235D01*
X102367092Y-61776725D01*
X102319224Y-61739223D01*
X102309922Y-61735036D01*
X102290068Y-61723839D01*
X102284016Y-61719662D01*
X102281675Y-61718046D01*
X102281673Y-61718045D01*
X102224822Y-61696483D01*
X102217794Y-61693572D01*
X102162329Y-61668610D01*
X102152289Y-61666770D01*
X102130332Y-61660649D01*
X102120801Y-61657035D01*
X102060432Y-61649704D01*
X102052914Y-61648559D01*
X102045153Y-61647137D01*
X101993093Y-61637597D01*
X101932390Y-61641270D01*
X101924782Y-61641500D01*
X100995660Y-61641500D01*
X100947442Y-61631909D01*
X100906565Y-61604595D01*
X99251970Y-59950000D01*
X102044341Y-59950000D01*
X102064937Y-60185409D01*
X102126096Y-60413662D01*
X102225965Y-60627829D01*
X102361507Y-60821404D01*
X102528595Y-60988492D01*
X102528598Y-60988494D01*
X102528599Y-60988495D01*
X102722171Y-61124035D01*
X102936337Y-61223903D01*
X103164592Y-61285063D01*
X103341034Y-61300500D01*
X103458960Y-61300500D01*
X103458966Y-61300500D01*
X103635408Y-61285063D01*
X103863663Y-61223903D01*
X104077829Y-61124035D01*
X104271401Y-60988495D01*
X104438495Y-60821401D01*
X104574035Y-60627830D01*
X104673903Y-60413663D01*
X104735063Y-60185408D01*
X104755659Y-59950000D01*
X104735063Y-59714592D01*
X104673903Y-59486337D01*
X104574035Y-59272171D01*
X104438495Y-59078599D01*
X104438494Y-59078598D01*
X104438492Y-59078595D01*
X104271404Y-58911507D01*
X104077829Y-58775965D01*
X103863662Y-58676096D01*
X103635409Y-58614937D01*
X103610201Y-58612731D01*
X103458966Y-58599500D01*
X103341034Y-58599500D01*
X103208702Y-58611077D01*
X103164590Y-58614937D01*
X102936337Y-58676096D01*
X102722170Y-58775965D01*
X102528595Y-58911507D01*
X102361507Y-59078595D01*
X102225965Y-59272169D01*
X102126096Y-59486336D01*
X102064937Y-59714590D01*
X102044341Y-59950000D01*
X99251970Y-59950000D01*
X98017065Y-58715095D01*
X97986327Y-58664936D01*
X97981711Y-58606289D01*
X98004224Y-58551939D01*
X98048957Y-58513733D01*
X98106160Y-58500000D01*
X101400000Y-58500000D01*
X101400000Y-52211825D01*
X101405459Y-52175140D01*
X101421362Y-52141633D01*
X101443375Y-52108818D01*
X101485407Y-51995269D01*
X101499224Y-51937903D01*
X101513500Y-51817662D01*
X101513500Y-50900000D01*
X117044341Y-50900000D01*
X117064937Y-51135409D01*
X117126096Y-51363662D01*
X117225965Y-51577829D01*
X117361507Y-51771404D01*
X117528595Y-51938492D01*
X117528598Y-51938494D01*
X117528599Y-51938495D01*
X117722171Y-52074035D01*
X117936337Y-52173903D01*
X118164592Y-52235063D01*
X118341034Y-52250500D01*
X118458960Y-52250500D01*
X118458966Y-52250500D01*
X118635408Y-52235063D01*
X118863663Y-52173903D01*
X119077829Y-52074035D01*
X119271401Y-51938495D01*
X119438495Y-51771401D01*
X119574035Y-51577830D01*
X119673903Y-51363663D01*
X119735063Y-51135408D01*
X119755659Y-50900000D01*
X119735063Y-50664592D01*
X119673903Y-50436337D01*
X119574035Y-50222171D01*
X119438495Y-50028599D01*
X119438494Y-50028598D01*
X119438492Y-50028595D01*
X119271404Y-49861507D01*
X119077829Y-49725965D01*
X118863662Y-49626096D01*
X118635409Y-49564937D01*
X118610201Y-49562731D01*
X118458966Y-49549500D01*
X118341034Y-49549500D01*
X118208702Y-49561077D01*
X118164590Y-49564937D01*
X117936337Y-49626096D01*
X117722170Y-49725965D01*
X117528595Y-49861507D01*
X117361507Y-50028595D01*
X117225965Y-50222169D01*
X117126096Y-50436336D01*
X117064937Y-50664590D01*
X117044341Y-50900000D01*
X101513500Y-50900000D01*
X101513500Y-48026500D01*
X101513500Y-48026499D01*
X101530381Y-47963500D01*
X101576500Y-47917381D01*
X101639500Y-47900500D01*
X121273500Y-47900500D01*
X121336500Y-47917381D01*
G37*
%TD.AperFunction*%
%TA.AperFunction,Conductor*%
G36*
X92094000Y-61425398D02*
G01*
X92094000Y-61438000D01*
X92163588Y-61438000D01*
X92224178Y-61431485D01*
X92251119Y-61431485D01*
X92255795Y-61431987D01*
X92255799Y-61431989D01*
X92316362Y-61438500D01*
X92605500Y-61438500D01*
X92668500Y-61455381D01*
X92714619Y-61501500D01*
X92731500Y-61564500D01*
X92731500Y-61614782D01*
X92731270Y-61622390D01*
X92727597Y-61683093D01*
X92738559Y-61742910D01*
X92739704Y-61750432D01*
X92747035Y-61810801D01*
X92750649Y-61820332D01*
X92756770Y-61842289D01*
X92758610Y-61852329D01*
X92766797Y-61870520D01*
X92777871Y-61919693D01*
X92768786Y-61969273D01*
X92740994Y-62011323D01*
X92725970Y-62026348D01*
X92632885Y-62177262D01*
X92577113Y-62345574D01*
X92568192Y-62432901D01*
X92566500Y-62449459D01*
X92566500Y-63050540D01*
X92567712Y-63062402D01*
X92577113Y-63154426D01*
X92632885Y-63322738D01*
X92725970Y-63473652D01*
X92725972Y-63473655D01*
X92861761Y-63609444D01*
X92859507Y-63611697D01*
X92885536Y-63638890D01*
X92901511Y-63700293D01*
X92885537Y-63761696D01*
X92859754Y-63788631D01*
X92862074Y-63790951D01*
X92726367Y-63926657D01*
X92633340Y-64077477D01*
X92577606Y-64245671D01*
X92567000Y-64349497D01*
X92567000Y-64396000D01*
X93928000Y-64396000D01*
X93991000Y-64412881D01*
X94037119Y-64459000D01*
X94054000Y-64522000D01*
X94054000Y-65658000D01*
X94325503Y-65658000D01*
X94429328Y-65647393D01*
X94597521Y-65591659D01*
X94758376Y-65492443D01*
X94824523Y-65473684D01*
X94890670Y-65492443D01*
X94901346Y-65499028D01*
X94901348Y-65499030D01*
X95052262Y-65592115D01*
X95220574Y-65647887D01*
X95324455Y-65658500D01*
X96375544Y-65658499D01*
X96479426Y-65647887D01*
X96647738Y-65592115D01*
X96798652Y-65499030D01*
X96905769Y-65391912D01*
X96936303Y-65369445D01*
X96972142Y-65357078D01*
X97002932Y-65351436D01*
X97010398Y-65350299D01*
X97070801Y-65342965D01*
X97080328Y-65339351D01*
X97102294Y-65333227D01*
X97112329Y-65331389D01*
X97167797Y-65306423D01*
X97174802Y-65303522D01*
X97231675Y-65281954D01*
X97240069Y-65276159D01*
X97259926Y-65264960D01*
X97269226Y-65260775D01*
X97317140Y-65223235D01*
X97323179Y-65218791D01*
X97373273Y-65184215D01*
X97413612Y-65138680D01*
X97418811Y-65133157D01*
X97433157Y-65118811D01*
X97438683Y-65113610D01*
X97446788Y-65106430D01*
X97484215Y-65073273D01*
X97518774Y-65023204D01*
X97523256Y-65017113D01*
X97560775Y-64969225D01*
X97564956Y-64959934D01*
X97576163Y-64940064D01*
X97581955Y-64931673D01*
X97603516Y-64874818D01*
X97606418Y-64867809D01*
X97631389Y-64812329D01*
X97633228Y-64802290D01*
X97639350Y-64780332D01*
X97642965Y-64770801D01*
X97650299Y-64710396D01*
X97651433Y-64702945D01*
X97662402Y-64643092D01*
X97662108Y-64638239D01*
X97658730Y-64582385D01*
X97658500Y-64574777D01*
X97658500Y-63954000D01*
X99542000Y-63954000D01*
X99542000Y-64225503D01*
X99552606Y-64329328D01*
X99608340Y-64497522D01*
X99701367Y-64648342D01*
X99826657Y-64773632D01*
X99977477Y-64866659D01*
X100145671Y-64922393D01*
X100249497Y-64933000D01*
X100296000Y-64933000D01*
X100296000Y-63954000D01*
X99542000Y-63954000D01*
X97658500Y-63954000D01*
X97658500Y-63945661D01*
X97668091Y-63897443D01*
X97695404Y-63856566D01*
X97798887Y-63753083D01*
X98118141Y-63433827D01*
X98164140Y-63404523D01*
X98218214Y-63397403D01*
X98400000Y-63413307D01*
X98619371Y-63394115D01*
X98832076Y-63337120D01*
X99031654Y-63244056D01*
X99212038Y-63117749D01*
X99335564Y-62994222D01*
X99388169Y-62962718D01*
X99449418Y-62959776D01*
X99504803Y-62986094D01*
X99541206Y-63035439D01*
X99550006Y-63096124D01*
X99542000Y-63174496D01*
X99542000Y-63446000D01*
X100678000Y-63446000D01*
X100741000Y-63462881D01*
X100787119Y-63509000D01*
X100804000Y-63572000D01*
X100804000Y-64933000D01*
X100850503Y-64933000D01*
X100954328Y-64922393D01*
X101122522Y-64866659D01*
X101273342Y-64773632D01*
X101409049Y-64637926D01*
X101411369Y-64640246D01*
X101438262Y-64614484D01*
X101499671Y-64598488D01*
X101561089Y-64614451D01*
X101588301Y-64640493D01*
X101590556Y-64638239D01*
X101726345Y-64774028D01*
X101731646Y-64777298D01*
X101775524Y-64823132D01*
X101791500Y-64884539D01*
X101791500Y-65466294D01*
X101773953Y-65530433D01*
X101740855Y-65586397D01*
X101694438Y-65746166D01*
X101694232Y-65748787D01*
X101691646Y-65781653D01*
X101691500Y-65783503D01*
X101691500Y-66490500D01*
X101674619Y-66553500D01*
X101628500Y-66599619D01*
X101565500Y-66616500D01*
X101534500Y-66616500D01*
X101471500Y-66599619D01*
X101425381Y-66553500D01*
X101408500Y-66490500D01*
X101408500Y-65783503D01*
X101408500Y-65783498D01*
X101405562Y-65746169D01*
X101359145Y-65586399D01*
X101356588Y-65582076D01*
X101313547Y-65509297D01*
X101296000Y-65445158D01*
X101296000Y-65195007D01*
X101121316Y-65245759D01*
X101120986Y-65244626D01*
X101075486Y-65257072D01*
X101029148Y-65244393D01*
X101028886Y-65245296D01*
X101013601Y-65240855D01*
X100950498Y-65222522D01*
X100853833Y-65194438D01*
X100843165Y-65193598D01*
X100816502Y-65191500D01*
X100383498Y-65191500D01*
X100360167Y-65193336D01*
X100346166Y-65194438D01*
X100186400Y-65240854D01*
X100043189Y-65325549D01*
X99925549Y-65443189D01*
X99840854Y-65586400D01*
X99819818Y-65658809D01*
X99786506Y-65714140D01*
X99730156Y-65745698D01*
X99665573Y-65745190D01*
X99609726Y-65712751D01*
X99598342Y-65701367D01*
X99447522Y-65608340D01*
X99279328Y-65552606D01*
X99175503Y-65542000D01*
X98904000Y-65542000D01*
X98904000Y-66678000D01*
X98887119Y-66741000D01*
X98841000Y-66787119D01*
X98778000Y-66804000D01*
X97417000Y-66804000D01*
X97417000Y-66850503D01*
X97427606Y-66954328D01*
X97483340Y-67122522D01*
X97576367Y-67273342D01*
X97712074Y-67409049D01*
X97709754Y-67411368D01*
X97735520Y-67438272D01*
X97751511Y-67499672D01*
X97735552Y-67561081D01*
X97709507Y-67588302D01*
X97711761Y-67590556D01*
X97575972Y-67726344D01*
X97560575Y-67751307D01*
X97482885Y-67877262D01*
X97427113Y-68045574D01*
X97417800Y-68136738D01*
X97416500Y-68149459D01*
X97416500Y-68332907D01*
X97403046Y-68389558D01*
X97365558Y-68434111D01*
X97312041Y-68457052D01*
X97253925Y-68453482D01*
X97097701Y-68406092D01*
X97097698Y-68406091D01*
X97097696Y-68406091D01*
X96900000Y-68386619D01*
X96702301Y-68406091D01*
X96595821Y-68438391D01*
X96533195Y-68441094D01*
X96477017Y-68413285D01*
X96441191Y-68361850D01*
X96400889Y-68253796D01*
X96400888Y-68253794D01*
X96313261Y-68136738D01*
X96196205Y-68049111D01*
X96127702Y-68023561D01*
X96059201Y-67998011D01*
X95998638Y-67991500D01*
X93401362Y-67991500D01*
X93340799Y-67998011D01*
X93203794Y-68049111D01*
X93086738Y-68136738D01*
X92999111Y-68253794D01*
X92948011Y-68390799D01*
X92941500Y-68451362D01*
X92941500Y-70265500D01*
X92924619Y-70328500D01*
X92878500Y-70374619D01*
X92815500Y-70391500D01*
X92584500Y-70391500D01*
X92521500Y-70374619D01*
X92475381Y-70328500D01*
X92458500Y-70265500D01*
X92458500Y-68451362D01*
X92457127Y-68438590D01*
X92451989Y-68390799D01*
X92400889Y-68253796D01*
X92400888Y-68253794D01*
X92313261Y-68136738D01*
X92196205Y-68049111D01*
X92127702Y-68023561D01*
X92059201Y-67998011D01*
X91998638Y-67991500D01*
X89401362Y-67991500D01*
X89340799Y-67998011D01*
X89203794Y-68049111D01*
X89086738Y-68136738D01*
X88999111Y-68253794D01*
X88972248Y-68325818D01*
X88948011Y-68390799D01*
X88941500Y-68451362D01*
X88941500Y-70348638D01*
X88948011Y-70409201D01*
X88953116Y-70422887D01*
X88999111Y-70546205D01*
X89086738Y-70663261D01*
X89203794Y-70750888D01*
X89203795Y-70750888D01*
X89203796Y-70750889D01*
X89340799Y-70801989D01*
X89401362Y-70808500D01*
X89881773Y-70808500D01*
X89940327Y-70822932D01*
X89985468Y-70862923D01*
X90006854Y-70919310D01*
X90007035Y-70920801D01*
X90010649Y-70930332D01*
X90016770Y-70952289D01*
X90018610Y-70962329D01*
X90043572Y-71017794D01*
X90046483Y-71024822D01*
X90068045Y-71081673D01*
X90073839Y-71090068D01*
X90085036Y-71109922D01*
X90089223Y-71119224D01*
X90126725Y-71167092D01*
X90131235Y-71173220D01*
X90165785Y-71223273D01*
X90211316Y-71263610D01*
X90216857Y-71268827D01*
X90531171Y-71583141D01*
X90536388Y-71588682D01*
X90576727Y-71634215D01*
X90626783Y-71668766D01*
X90632913Y-71673278D01*
X90632958Y-71673313D01*
X90634261Y-71674334D01*
X90672056Y-71723203D01*
X90682078Y-71784163D01*
X90661918Y-71842560D01*
X90616423Y-71884355D01*
X90556530Y-71899500D01*
X87442049Y-71899500D01*
X87379162Y-71882684D01*
X87333060Y-71836726D01*
X87316050Y-71773891D01*
X87315738Y-71673286D01*
X87299037Y-66296000D01*
X97417000Y-66296000D01*
X98396000Y-66296000D01*
X98396000Y-65542000D01*
X98124497Y-65542000D01*
X98020671Y-65552606D01*
X97852477Y-65608340D01*
X97701657Y-65701367D01*
X97576367Y-65826657D01*
X97483340Y-65977477D01*
X97427606Y-66145671D01*
X97417000Y-66249497D01*
X97417000Y-66296000D01*
X87299037Y-66296000D01*
X87297470Y-65791355D01*
X87314662Y-65727429D01*
X87361892Y-65681039D01*
X87426119Y-65664995D01*
X87489615Y-65683726D01*
X87502475Y-65691658D01*
X87670671Y-65747393D01*
X87774497Y-65758000D01*
X88046000Y-65758000D01*
X88046000Y-65004000D01*
X88554000Y-65004000D01*
X88554000Y-65758000D01*
X88825503Y-65758000D01*
X88929328Y-65747393D01*
X89097521Y-65691659D01*
X89233853Y-65607569D01*
X89300000Y-65588810D01*
X89366147Y-65607569D01*
X89502478Y-65691659D01*
X89670671Y-65747393D01*
X89774497Y-65758000D01*
X90046000Y-65758000D01*
X90046000Y-65004000D01*
X90554000Y-65004000D01*
X90554000Y-65758000D01*
X90825503Y-65758000D01*
X90929328Y-65747393D01*
X91097522Y-65691659D01*
X91248342Y-65598632D01*
X91373632Y-65473342D01*
X91466659Y-65322522D01*
X91522393Y-65154328D01*
X91533000Y-65050503D01*
X91533000Y-65004000D01*
X90554000Y-65004000D01*
X90046000Y-65004000D01*
X88554000Y-65004000D01*
X88046000Y-65004000D01*
X88046000Y-64904000D01*
X92567000Y-64904000D01*
X92567000Y-64950503D01*
X92577606Y-65054328D01*
X92633340Y-65222522D01*
X92726367Y-65373342D01*
X92851657Y-65498632D01*
X93002477Y-65591659D01*
X93170671Y-65647393D01*
X93274497Y-65658000D01*
X93546000Y-65658000D01*
X93546000Y-64904000D01*
X92567000Y-64904000D01*
X88046000Y-64904000D01*
X88046000Y-64622000D01*
X88062881Y-64559000D01*
X88109000Y-64512881D01*
X88172000Y-64496000D01*
X91533000Y-64496000D01*
X91533000Y-64449497D01*
X91522393Y-64345671D01*
X91466659Y-64177477D01*
X91373632Y-64026657D01*
X91237926Y-63890951D01*
X91240246Y-63888630D01*
X91214467Y-63861706D01*
X91198488Y-63800294D01*
X91214468Y-63738881D01*
X91240493Y-63711698D01*
X91238239Y-63709444D01*
X91374027Y-63573655D01*
X91374026Y-63573655D01*
X91374030Y-63573652D01*
X91467115Y-63422738D01*
X91522887Y-63254426D01*
X91533500Y-63150545D01*
X91533499Y-62549456D01*
X91522887Y-62445574D01*
X91467115Y-62277262D01*
X91426937Y-62212123D01*
X91408895Y-62159392D01*
X91415365Y-62104034D01*
X91445082Y-62056886D01*
X91523157Y-61978811D01*
X91528683Y-61973610D01*
X91574215Y-61933273D01*
X91608791Y-61883179D01*
X91613235Y-61877140D01*
X91650775Y-61829226D01*
X91654960Y-61819926D01*
X91666159Y-61800069D01*
X91671954Y-61791675D01*
X91693522Y-61734802D01*
X91696423Y-61727797D01*
X91721389Y-61672329D01*
X91723227Y-61662294D01*
X91729352Y-61640327D01*
X91730387Y-61637598D01*
X91732965Y-61630801D01*
X91740299Y-61570398D01*
X91741434Y-61562941D01*
X91752402Y-61503093D01*
X91748730Y-61442390D01*
X91748500Y-61434782D01*
X91748500Y-61400029D01*
X92088004Y-61400026D01*
X92094000Y-61425398D01*
G37*
%TD.AperFunction*%
%TD*%
%TA.AperFunction,Conductor*%
%TO.N,GND*%
G36*
X94323621Y-52660754D02*
G01*
X94366088Y-52706367D01*
X94381500Y-52766752D01*
X94381500Y-53403640D01*
X94388261Y-53466532D01*
X94388261Y-53493468D01*
X94381500Y-53556360D01*
X94381500Y-54203640D01*
X94388261Y-54266532D01*
X94388261Y-54293468D01*
X94381500Y-54356360D01*
X94381500Y-55003640D01*
X94388261Y-55066531D01*
X94388261Y-55093466D01*
X94381500Y-55156359D01*
X94381500Y-55803643D01*
X94388513Y-55868885D01*
X94388513Y-55895818D01*
X94382000Y-55956406D01*
X94382000Y-56026000D01*
X94394602Y-56026000D01*
X94451002Y-56039328D01*
X94495471Y-56076492D01*
X94526738Y-56118260D01*
X94608052Y-56179132D01*
X94645215Y-56223601D01*
X94658542Y-56280000D01*
X94645215Y-56336399D01*
X94608052Y-56380868D01*
X94526738Y-56441739D01*
X94495471Y-56483508D01*
X94451002Y-56520672D01*
X94394602Y-56534000D01*
X94382000Y-56534000D01*
X94382000Y-56603589D01*
X94388514Y-56664175D01*
X94388514Y-56691112D01*
X94381500Y-56756359D01*
X94381500Y-57403640D01*
X94388261Y-57466531D01*
X94388261Y-57493466D01*
X94381500Y-57556359D01*
X94381500Y-58203640D01*
X94388261Y-58266531D01*
X94388261Y-58293466D01*
X94381500Y-58356359D01*
X94381500Y-58695500D01*
X94364619Y-58758500D01*
X94318500Y-58804619D01*
X94255500Y-58821500D01*
X93916360Y-58821500D01*
X93853468Y-58828261D01*
X93826532Y-58828261D01*
X93763640Y-58821500D01*
X93763638Y-58821500D01*
X93116362Y-58821500D01*
X93116360Y-58821500D01*
X93053468Y-58828261D01*
X93026532Y-58828261D01*
X92963640Y-58821500D01*
X92963638Y-58821500D01*
X92316362Y-58821500D01*
X92316360Y-58821500D01*
X92253468Y-58828261D01*
X92226532Y-58828261D01*
X92163640Y-58821500D01*
X92163638Y-58821500D01*
X91516362Y-58821500D01*
X91516360Y-58821500D01*
X91453468Y-58828261D01*
X91426532Y-58828261D01*
X91363640Y-58821500D01*
X91363638Y-58821500D01*
X90716362Y-58821500D01*
X90716360Y-58821500D01*
X90653468Y-58828261D01*
X90626532Y-58828261D01*
X90563640Y-58821500D01*
X90563638Y-58821500D01*
X89916362Y-58821500D01*
X89916360Y-58821500D01*
X89853468Y-58828261D01*
X89826532Y-58828261D01*
X89763640Y-58821500D01*
X89763638Y-58821500D01*
X89116362Y-58821500D01*
X89116360Y-58821500D01*
X89053468Y-58828261D01*
X89026532Y-58828261D01*
X88963640Y-58821500D01*
X88963638Y-58821500D01*
X88624500Y-58821500D01*
X88561500Y-58804619D01*
X88515381Y-58758500D01*
X88498500Y-58695500D01*
X88498500Y-58356362D01*
X88498500Y-58356359D01*
X88491989Y-58295799D01*
X88491988Y-58295797D01*
X88491738Y-58293469D01*
X88491738Y-58266531D01*
X88498500Y-58203638D01*
X88498500Y-57556362D01*
X88498500Y-57556359D01*
X88491989Y-57495799D01*
X88491988Y-57495797D01*
X88491738Y-57493468D01*
X88491738Y-57466529D01*
X88491988Y-57464203D01*
X88491989Y-57464201D01*
X88498500Y-57403638D01*
X88498500Y-56756362D01*
X88491989Y-56695799D01*
X88491988Y-56695797D01*
X88491738Y-56693469D01*
X88491738Y-56666531D01*
X88491992Y-56664175D01*
X88498500Y-56603638D01*
X88498500Y-55956362D01*
X88491989Y-55895799D01*
X88491988Y-55895797D01*
X88491738Y-55893469D01*
X88491738Y-55866531D01*
X88495728Y-55829426D01*
X88498500Y-55803638D01*
X88498500Y-55156362D01*
X88491989Y-55095799D01*
X88491988Y-55095797D01*
X88491738Y-55093468D01*
X88491738Y-55066529D01*
X88491988Y-55064203D01*
X88491989Y-55064201D01*
X88498500Y-55003638D01*
X88498500Y-54356362D01*
X88491989Y-54295799D01*
X88491988Y-54295797D01*
X88491738Y-54293468D01*
X88491738Y-54266529D01*
X88491988Y-54264203D01*
X88491989Y-54264201D01*
X88498500Y-54203638D01*
X88498500Y-53556362D01*
X88491989Y-53495799D01*
X88491988Y-53495797D01*
X88491738Y-53493469D01*
X88491738Y-53466531D01*
X88498500Y-53403638D01*
X88498500Y-53064500D01*
X88515381Y-53001500D01*
X88561500Y-52955381D01*
X88624500Y-52938500D01*
X88963638Y-52938500D01*
X89024201Y-52931989D01*
X89024202Y-52931988D01*
X89026531Y-52931738D01*
X89053469Y-52931738D01*
X89055797Y-52931988D01*
X89055799Y-52931989D01*
X89116362Y-52938500D01*
X89763637Y-52938500D01*
X89763638Y-52938500D01*
X89824201Y-52931989D01*
X89824204Y-52931987D01*
X89828881Y-52931485D01*
X89855822Y-52931485D01*
X89916412Y-52938000D01*
X89986000Y-52938000D01*
X89986000Y-52925398D01*
X89999328Y-52868998D01*
X90036492Y-52824529D01*
X90078262Y-52793260D01*
X90139132Y-52711948D01*
X90183600Y-52674785D01*
X90240000Y-52661457D01*
X90296400Y-52674785D01*
X90340868Y-52711948D01*
X90401737Y-52793260D01*
X90443508Y-52824529D01*
X90480672Y-52868998D01*
X90494000Y-52925398D01*
X90494000Y-52938000D01*
X90563588Y-52938000D01*
X90624178Y-52931485D01*
X90651119Y-52931485D01*
X90655795Y-52931987D01*
X90655799Y-52931989D01*
X90716362Y-52938500D01*
X91363637Y-52938500D01*
X91363638Y-52938500D01*
X91424201Y-52931989D01*
X91424204Y-52931987D01*
X91428881Y-52931485D01*
X91455822Y-52931485D01*
X91516412Y-52938000D01*
X91586000Y-52938000D01*
X91586000Y-52925398D01*
X91599328Y-52868998D01*
X91636492Y-52824529D01*
X91678262Y-52793260D01*
X91739132Y-52711948D01*
X91783600Y-52674785D01*
X91840000Y-52661457D01*
X91896400Y-52674785D01*
X91940868Y-52711948D01*
X92001737Y-52793260D01*
X92043508Y-52824529D01*
X92080672Y-52868998D01*
X92094000Y-52925398D01*
X92094000Y-52938000D01*
X92163588Y-52938000D01*
X92224178Y-52931485D01*
X92251119Y-52931485D01*
X92255795Y-52931987D01*
X92255799Y-52931989D01*
X92316362Y-52938500D01*
X92963638Y-52938500D01*
X93024201Y-52931989D01*
X93024202Y-52931988D01*
X93026531Y-52931738D01*
X93053469Y-52931738D01*
X93055797Y-52931988D01*
X93055799Y-52931989D01*
X93116362Y-52938500D01*
X93763637Y-52938500D01*
X93763638Y-52938500D01*
X93824201Y-52931989D01*
X93824204Y-52931987D01*
X93828881Y-52931485D01*
X93855822Y-52931485D01*
X93916412Y-52938000D01*
X93986000Y-52938000D01*
X93986000Y-52925398D01*
X93999328Y-52868998D01*
X94036492Y-52824529D01*
X94078262Y-52793260D01*
X94154632Y-52691243D01*
X94203158Y-52652138D01*
X94264489Y-52641073D01*
X94323621Y-52660754D01*
G37*
%TD.AperFunction*%
%TA.AperFunction,Conductor*%
G36*
X100937000Y-47917381D02*
G01*
X100983119Y-47963500D01*
X101000000Y-48026500D01*
X101000000Y-51817662D01*
X100986183Y-51875028D01*
X100947764Y-51919813D01*
X100893167Y-51942196D01*
X100834367Y-51937266D01*
X100654328Y-51877606D01*
X100550503Y-51867000D01*
X100504000Y-51867000D01*
X100504000Y-57328000D01*
X100487119Y-57391000D01*
X100441000Y-57437119D01*
X100378000Y-57454000D01*
X100122000Y-57454000D01*
X100059000Y-57437119D01*
X100012881Y-57391000D01*
X99996000Y-57328000D01*
X99996000Y-51867000D01*
X99949497Y-51867000D01*
X99845671Y-51877606D01*
X99677477Y-51933340D01*
X99526657Y-52026367D01*
X99390951Y-52162074D01*
X99388631Y-52159754D01*
X99361696Y-52185537D01*
X99300293Y-52201511D01*
X99238890Y-52185536D01*
X99211697Y-52159507D01*
X99209444Y-52161761D01*
X99073655Y-52025972D01*
X99073652Y-52025970D01*
X98922738Y-51932885D01*
X98754426Y-51877113D01*
X98650545Y-51866500D01*
X98650540Y-51866500D01*
X98650522Y-51866500D01*
X98214499Y-51866500D01*
X98151500Y-51849620D01*
X98105381Y-51803501D01*
X98088500Y-51740501D01*
X98088500Y-50605223D01*
X98088730Y-50597615D01*
X98092402Y-50536908D01*
X98091586Y-50532454D01*
X98081435Y-50477064D01*
X98080293Y-50469555D01*
X98072965Y-50409200D01*
X98069350Y-50399667D01*
X98063227Y-50377702D01*
X98061389Y-50367671D01*
X98036420Y-50312193D01*
X98033525Y-50305204D01*
X98011954Y-50248325D01*
X98006160Y-50239931D01*
X97994957Y-50220068D01*
X97990775Y-50210776D01*
X97990775Y-50210775D01*
X97953271Y-50162905D01*
X97948772Y-50156790D01*
X97935739Y-50137909D01*
X97914215Y-50106727D01*
X97868682Y-50066388D01*
X97863141Y-50061171D01*
X96818827Y-49016857D01*
X96813610Y-49011316D01*
X96773273Y-48965785D01*
X96742743Y-48944711D01*
X96723220Y-48931235D01*
X96717092Y-48926725D01*
X96669224Y-48889223D01*
X96659922Y-48885036D01*
X96640068Y-48873839D01*
X96638781Y-48872951D01*
X96631675Y-48868046D01*
X96631673Y-48868045D01*
X96574822Y-48846483D01*
X96567794Y-48843572D01*
X96512329Y-48818610D01*
X96502289Y-48816770D01*
X96480332Y-48810649D01*
X96470801Y-48807035D01*
X96410432Y-48799704D01*
X96402914Y-48798559D01*
X96395153Y-48797137D01*
X96343093Y-48787597D01*
X96282390Y-48791270D01*
X96274782Y-48791500D01*
X93642859Y-48791500D01*
X93625206Y-48791500D01*
X93617598Y-48791270D01*
X93556908Y-48787598D01*
X93549560Y-48788945D01*
X93546880Y-48789436D01*
X93524171Y-48791500D01*
X93225223Y-48791500D01*
X93217616Y-48791270D01*
X93215540Y-48791144D01*
X93156906Y-48787597D01*
X93097090Y-48798559D01*
X93089569Y-48799704D01*
X93029197Y-48807035D01*
X93019662Y-48810651D01*
X92997711Y-48816770D01*
X92995609Y-48817155D01*
X92987668Y-48818611D01*
X92932213Y-48843569D01*
X92925186Y-48846480D01*
X92868322Y-48868046D01*
X92859926Y-48873842D01*
X92840076Y-48885038D01*
X92830776Y-48889224D01*
X92830774Y-48889225D01*
X92830775Y-48889225D01*
X92782899Y-48926731D01*
X92776785Y-48931230D01*
X92726730Y-48965781D01*
X92686388Y-49011317D01*
X92681172Y-49016856D01*
X92156856Y-49541172D01*
X92151317Y-49546388D01*
X92105782Y-49586729D01*
X92071238Y-49636773D01*
X92066731Y-49642898D01*
X92029224Y-49690774D01*
X92025036Y-49700078D01*
X92013843Y-49719923D01*
X92008048Y-49728319D01*
X91986482Y-49785183D01*
X91983570Y-49792211D01*
X91958611Y-49847668D01*
X91956771Y-49857710D01*
X91950651Y-49879662D01*
X91947035Y-49889197D01*
X91939705Y-49949554D01*
X91938561Y-49957071D01*
X91927597Y-50016906D01*
X91931270Y-50077610D01*
X91931500Y-50085218D01*
X91931500Y-50426456D01*
X91916088Y-50486841D01*
X91873621Y-50532454D01*
X91814489Y-50552135D01*
X91753158Y-50541070D01*
X91704632Y-50501965D01*
X91678262Y-50466739D01*
X91636492Y-50435471D01*
X91599328Y-50391002D01*
X91586000Y-50334602D01*
X91586000Y-50322000D01*
X91516406Y-50322000D01*
X91455818Y-50328513D01*
X91428885Y-50328513D01*
X91363643Y-50321500D01*
X91363638Y-50321500D01*
X90716362Y-50321500D01*
X90716359Y-50321500D01*
X90651112Y-50328514D01*
X90624175Y-50328514D01*
X90563589Y-50322000D01*
X90494000Y-50322000D01*
X90494000Y-50334602D01*
X90480672Y-50391002D01*
X90443508Y-50435471D01*
X90401739Y-50466738D01*
X90340868Y-50548052D01*
X90296399Y-50585215D01*
X90240000Y-50598542D01*
X90183601Y-50585215D01*
X90139132Y-50548052D01*
X90078260Y-50466738D01*
X90036492Y-50435471D01*
X89999328Y-50391002D01*
X89986000Y-50334602D01*
X89986000Y-50322000D01*
X89916406Y-50322000D01*
X89855818Y-50328513D01*
X89828885Y-50328513D01*
X89763643Y-50321500D01*
X89763638Y-50321500D01*
X89116362Y-50321500D01*
X89116360Y-50321500D01*
X89053468Y-50328261D01*
X89026532Y-50328261D01*
X88963640Y-50321500D01*
X88963638Y-50321500D01*
X88316362Y-50321500D01*
X88255799Y-50328011D01*
X88118794Y-50379111D01*
X88001738Y-50466738D01*
X87914111Y-50583794D01*
X87863011Y-50720799D01*
X87856500Y-50781362D01*
X87856500Y-52170500D01*
X87839619Y-52233500D01*
X87793500Y-52279619D01*
X87730500Y-52296500D01*
X87426000Y-52296500D01*
X87363000Y-52279619D01*
X87316881Y-52233500D01*
X87300000Y-52170500D01*
X87300000Y-48026500D01*
X87316881Y-47963500D01*
X87363000Y-47917381D01*
X87426000Y-47900500D01*
X100874000Y-47900500D01*
X100937000Y-47917381D01*
G37*
%TD.AperFunction*%
%TA.AperFunction,Conductor*%
G36*
X94431000Y-51392881D02*
G01*
X94477119Y-51439000D01*
X94494000Y-51502000D01*
X94494000Y-52443536D01*
X94487552Y-52483327D01*
X94468868Y-52519045D01*
X94450368Y-52543758D01*
X94401842Y-52582863D01*
X94340511Y-52593928D01*
X94281379Y-52574247D01*
X94238912Y-52528634D01*
X94223500Y-52468249D01*
X94223500Y-51502000D01*
X94240381Y-51439000D01*
X94286500Y-51392881D01*
X94349500Y-51376000D01*
X94368000Y-51376000D01*
X94431000Y-51392881D01*
G37*
%TD.AperFunction*%
%TD*%
%TA.AperFunction,Conductor*%
%TO.N,GNDD*%
G36*
X86074598Y-47917411D02*
G01*
X86120726Y-47963605D01*
X86137546Y-48026681D01*
X86135546Y-49415681D01*
X86118605Y-49478605D01*
X86072494Y-49524649D01*
X86009546Y-49541500D01*
X85941373Y-49541500D01*
X85893155Y-49531909D01*
X85852278Y-49504595D01*
X85748655Y-49400972D01*
X85748652Y-49400970D01*
X85597738Y-49307885D01*
X85429426Y-49252113D01*
X85325545Y-49241500D01*
X85325540Y-49241500D01*
X84274459Y-49241500D01*
X84170573Y-49252113D01*
X84002262Y-49307885D01*
X83851344Y-49400972D01*
X83725972Y-49526344D01*
X83719031Y-49537598D01*
X83632885Y-49677262D01*
X83577113Y-49845574D01*
X83568409Y-49930775D01*
X83566500Y-49949459D01*
X83566500Y-50387165D01*
X83547697Y-50453383D01*
X83496900Y-50499837D01*
X83429269Y-50512664D01*
X83364991Y-50488033D01*
X83246205Y-50399111D01*
X83177702Y-50373561D01*
X83109201Y-50348011D01*
X83048638Y-50341500D01*
X81951362Y-50341500D01*
X81890799Y-50348011D01*
X81744032Y-50402752D01*
X81700000Y-50410696D01*
X81655968Y-50402752D01*
X81555049Y-50365111D01*
X81509201Y-50348011D01*
X81448638Y-50341500D01*
X80351362Y-50341500D01*
X80290799Y-50348011D01*
X80153794Y-50399111D01*
X80036738Y-50486738D01*
X79949111Y-50603793D01*
X79924726Y-50669174D01*
X79889352Y-50720218D01*
X79833893Y-50748165D01*
X79771820Y-50746226D01*
X79718213Y-50714871D01*
X79692777Y-50672774D01*
X79692091Y-50673141D01*
X79592593Y-50486992D01*
X79466568Y-50333431D01*
X79313007Y-50207406D01*
X79137802Y-50113758D01*
X78947701Y-50056091D01*
X78750000Y-50036619D01*
X78552298Y-50056091D01*
X78362197Y-50113758D01*
X78186996Y-50207404D01*
X78097062Y-50281211D01*
X78058450Y-50312899D01*
X78020966Y-50334134D01*
X77978518Y-50341500D01*
X77841373Y-50341500D01*
X77793155Y-50331909D01*
X77752278Y-50304595D01*
X77623655Y-50175972D01*
X77623652Y-50175970D01*
X77472738Y-50082885D01*
X77304426Y-50027113D01*
X77200545Y-50016500D01*
X77200540Y-50016500D01*
X76199459Y-50016500D01*
X76095573Y-50027113D01*
X75927262Y-50082885D01*
X75776344Y-50175972D01*
X75650972Y-50301344D01*
X75631181Y-50333431D01*
X75557885Y-50452262D01*
X75502113Y-50620574D01*
X75492480Y-50714871D01*
X75491500Y-50724459D01*
X75491500Y-51350540D01*
X75496229Y-51396830D01*
X75502113Y-51454426D01*
X75557885Y-51622738D01*
X75641624Y-51758500D01*
X75650972Y-51773655D01*
X75738576Y-51861259D01*
X75771188Y-51917743D01*
X75771188Y-51982965D01*
X75738576Y-52039449D01*
X75651367Y-52126657D01*
X75558340Y-52277477D01*
X75502606Y-52445671D01*
X75492000Y-52549497D01*
X75492000Y-52608500D01*
X77908000Y-52608500D01*
X77908000Y-52549497D01*
X77897393Y-52445671D01*
X77841659Y-52277477D01*
X77748632Y-52126657D01*
X77661424Y-52039449D01*
X77628812Y-51982965D01*
X77628812Y-51917743D01*
X77661424Y-51861259D01*
X77727278Y-51795405D01*
X77768155Y-51768091D01*
X77816373Y-51758500D01*
X77978518Y-51758500D01*
X78020966Y-51765866D01*
X78058450Y-51787100D01*
X78186996Y-51892595D01*
X78362196Y-51986241D01*
X78457247Y-52015074D01*
X78552298Y-52043908D01*
X78564815Y-52045140D01*
X78607455Y-52049340D01*
X78672623Y-52075401D01*
X78713739Y-52132284D01*
X78718044Y-52202339D01*
X78684200Y-52263828D01*
X78266856Y-52681172D01*
X78261317Y-52686388D01*
X78215782Y-52726729D01*
X78181238Y-52776773D01*
X78176731Y-52782898D01*
X78139224Y-52830774D01*
X78135036Y-52840078D01*
X78123843Y-52859923D01*
X78118048Y-52868319D01*
X78096482Y-52925183D01*
X78093570Y-52932211D01*
X78068611Y-52987668D01*
X78066771Y-52997710D01*
X78060651Y-53019662D01*
X78054770Y-53035172D01*
X78027830Y-53077779D01*
X77986345Y-53106416D01*
X77936955Y-53116500D01*
X76954000Y-53116500D01*
X76954000Y-53883000D01*
X77200503Y-53883000D01*
X77304328Y-53872393D01*
X77472522Y-53816659D01*
X77623342Y-53723632D01*
X77748633Y-53598341D01*
X77808259Y-53501673D01*
X77855056Y-53457264D01*
X77917699Y-53441838D01*
X77979765Y-53459440D01*
X78024984Y-53505455D01*
X78041500Y-53567819D01*
X78041500Y-54821678D01*
X78024240Y-54885330D01*
X77977190Y-54931543D01*
X77913238Y-54947658D01*
X77849907Y-54929258D01*
X77804545Y-54881386D01*
X77779137Y-54834170D01*
X77637948Y-54657126D01*
X77467424Y-54508144D01*
X77273031Y-54392000D01*
X77061024Y-54312432D01*
X76838223Y-54272000D01*
X76579000Y-54272000D01*
X76579000Y-55658000D01*
X76562119Y-55721000D01*
X76516000Y-55767119D01*
X76453000Y-55784000D01*
X74689918Y-55784000D01*
X74693584Y-55811065D01*
X74763557Y-56026421D01*
X74870863Y-56225829D01*
X75012051Y-56402873D01*
X75182575Y-56551855D01*
X75376968Y-56667999D01*
X75383636Y-56670502D01*
X75438348Y-56710502D01*
X75464421Y-56773061D01*
X75454313Y-56840078D01*
X75410947Y-56892162D01*
X75376730Y-56915781D01*
X75336388Y-56961317D01*
X75331172Y-56966856D01*
X74366856Y-57931172D01*
X74361317Y-57936388D01*
X74315782Y-57976729D01*
X74281238Y-58026773D01*
X74276731Y-58032898D01*
X74239224Y-58080774D01*
X74235036Y-58090078D01*
X74223843Y-58109923D01*
X74218048Y-58118319D01*
X74196482Y-58175183D01*
X74193570Y-58182211D01*
X74168611Y-58237668D01*
X74166771Y-58247710D01*
X74160651Y-58269662D01*
X74157035Y-58279197D01*
X74149705Y-58339554D01*
X74148561Y-58347071D01*
X74137597Y-58406906D01*
X74141270Y-58467610D01*
X74141500Y-58475218D01*
X74141500Y-61024782D01*
X74141270Y-61032390D01*
X74137597Y-61093093D01*
X74148559Y-61152910D01*
X74149704Y-61160432D01*
X74157035Y-61220801D01*
X74160649Y-61230332D01*
X74166770Y-61252289D01*
X74168610Y-61262329D01*
X74193572Y-61317794D01*
X74196483Y-61324822D01*
X74218045Y-61381673D01*
X74223839Y-61390068D01*
X74235036Y-61409922D01*
X74239223Y-61419224D01*
X74276725Y-61467092D01*
X74281235Y-61473220D01*
X74315785Y-61523273D01*
X74361316Y-61563610D01*
X74366857Y-61568827D01*
X75531171Y-62733141D01*
X75536388Y-62738682D01*
X75563726Y-62769540D01*
X75592422Y-62825798D01*
X75590215Y-62888914D01*
X75557661Y-62943030D01*
X75502936Y-62974553D01*
X75456183Y-62987456D01*
X75252165Y-63085705D01*
X75068967Y-63218806D01*
X74912479Y-63382479D01*
X74787734Y-63571460D01*
X74698735Y-63779685D01*
X74667622Y-63915999D01*
X74667623Y-63916000D01*
X77935082Y-63916000D01*
X77931415Y-63888934D01*
X77890985Y-63764502D01*
X77886513Y-63704966D01*
X77909951Y-63650055D01*
X77950446Y-63595960D01*
X77986058Y-63500480D01*
X78027277Y-63444651D01*
X78091804Y-63419114D01*
X78160066Y-63431616D01*
X78211355Y-63478364D01*
X78300972Y-63623655D01*
X78388576Y-63711259D01*
X78421188Y-63767743D01*
X78421188Y-63832965D01*
X78388576Y-63889449D01*
X78301367Y-63976657D01*
X78208340Y-64127477D01*
X78152606Y-64295672D01*
X78147352Y-64347106D01*
X78127733Y-64402837D01*
X78100946Y-64428246D01*
X78126126Y-64442627D01*
X78141999Y-64458500D01*
X80558000Y-64458500D01*
X80558000Y-64399497D01*
X80547393Y-64295671D01*
X80491659Y-64127477D01*
X80398632Y-63976657D01*
X80311424Y-63889449D01*
X80278812Y-63832965D01*
X80278812Y-63767743D01*
X80311424Y-63711259D01*
X80399027Y-63623655D01*
X80399027Y-63623654D01*
X80399030Y-63623652D01*
X80492115Y-63472738D01*
X80547887Y-63304426D01*
X80558500Y-63200545D01*
X80558499Y-62574456D01*
X80547887Y-62470574D01*
X80492115Y-62302262D01*
X80399030Y-62151348D01*
X80399028Y-62151346D01*
X80399027Y-62151344D01*
X80273655Y-62025972D01*
X80273652Y-62025970D01*
X80122738Y-61932885D01*
X79961482Y-61879451D01*
X79922051Y-61857952D01*
X79892663Y-61823986D01*
X79874453Y-61793193D01*
X79859288Y-61778028D01*
X79846447Y-61762994D01*
X79833840Y-61745642D01*
X79798246Y-61716196D01*
X79789467Y-61708207D01*
X79276874Y-61195614D01*
X79263356Y-61178742D01*
X79257914Y-61173632D01*
X79209741Y-61128394D01*
X79206930Y-61125670D01*
X79186333Y-61105073D01*
X79182828Y-61102354D01*
X79173803Y-61094646D01*
X79146262Y-61068783D01*
X79111518Y-61012085D01*
X79110474Y-60945598D01*
X79143418Y-60887840D01*
X79677258Y-60354000D01*
X80442000Y-60354000D01*
X80442000Y-60625503D01*
X80452606Y-60729328D01*
X80508340Y-60897522D01*
X80601367Y-61048342D01*
X80726657Y-61173632D01*
X80877477Y-61266659D01*
X81045671Y-61322393D01*
X81149497Y-61333000D01*
X81196000Y-61333000D01*
X81196000Y-60354000D01*
X80442000Y-60354000D01*
X79677258Y-60354000D01*
X80226905Y-59804354D01*
X80277064Y-59773616D01*
X80335711Y-59769000D01*
X80390061Y-59791513D01*
X80405086Y-59809104D01*
X80405095Y-59809096D01*
X80441999Y-59846000D01*
X81578000Y-59846000D01*
X81641000Y-59862881D01*
X81687119Y-59909000D01*
X81704000Y-59972000D01*
X81704000Y-61333000D01*
X81750503Y-61333000D01*
X81854328Y-61322393D01*
X82022522Y-61266659D01*
X82173342Y-61173632D01*
X82309049Y-61037926D01*
X82311369Y-61040246D01*
X82338262Y-61014484D01*
X82399671Y-60998488D01*
X82461089Y-61014451D01*
X82488301Y-61040493D01*
X82490556Y-61038239D01*
X82626344Y-61174027D01*
X82626346Y-61174028D01*
X82626348Y-61174030D01*
X82777262Y-61267115D01*
X82945574Y-61322887D01*
X83049455Y-61333500D01*
X83650544Y-61333499D01*
X83754426Y-61322887D01*
X83922738Y-61267115D01*
X84073652Y-61174030D01*
X84094772Y-61152910D01*
X84126405Y-61121278D01*
X84176564Y-61090540D01*
X84235211Y-61085924D01*
X84289561Y-61108437D01*
X84327767Y-61153170D01*
X84341500Y-61210373D01*
X84341500Y-62370909D01*
X84330706Y-62421934D01*
X84300173Y-62464218D01*
X84255134Y-62490512D01*
X84127262Y-62532885D01*
X84059867Y-62574455D01*
X83976344Y-62625972D01*
X83847722Y-62754595D01*
X83806845Y-62781909D01*
X83758627Y-62791500D01*
X83175223Y-62791500D01*
X83167616Y-62791270D01*
X83165540Y-62791144D01*
X83106906Y-62787597D01*
X83047090Y-62798559D01*
X83039569Y-62799704D01*
X82979197Y-62807035D01*
X82969662Y-62810651D01*
X82947711Y-62816770D01*
X82945609Y-62817155D01*
X82937668Y-62818611D01*
X82882211Y-62843570D01*
X82875183Y-62846482D01*
X82818319Y-62868048D01*
X82809923Y-62873843D01*
X82790078Y-62885036D01*
X82780774Y-62889224D01*
X82732898Y-62926731D01*
X82726773Y-62931238D01*
X82676729Y-62965782D01*
X82636388Y-63011317D01*
X82631172Y-63016856D01*
X80708859Y-64939168D01*
X80652375Y-64971780D01*
X80587153Y-64971780D01*
X80578008Y-64966500D01*
X79604000Y-64966500D01*
X79604000Y-65733000D01*
X79610837Y-65733000D01*
X79668040Y-65746733D01*
X79712773Y-65784939D01*
X79735286Y-65839289D01*
X79730670Y-65897936D01*
X79699932Y-65948095D01*
X79216847Y-66431180D01*
X79211308Y-66436396D01*
X79165782Y-66476729D01*
X79131238Y-66526773D01*
X79126731Y-66532898D01*
X79089224Y-66580774D01*
X79085036Y-66590078D01*
X79073843Y-66609923D01*
X79068048Y-66618319D01*
X79046482Y-66675183D01*
X79043570Y-66682211D01*
X79018611Y-66737668D01*
X79016771Y-66747710D01*
X79010651Y-66769662D01*
X79007035Y-66779197D01*
X78999705Y-66839554D01*
X78998561Y-66847071D01*
X78987597Y-66906906D01*
X78991270Y-66967610D01*
X78991500Y-66975218D01*
X78991500Y-68704340D01*
X78981909Y-68752558D01*
X78954595Y-68793435D01*
X78643435Y-69104595D01*
X78602558Y-69131909D01*
X78554340Y-69141500D01*
X77984500Y-69141500D01*
X77921500Y-69124619D01*
X77875381Y-69078500D01*
X77858500Y-69015500D01*
X77858500Y-68951362D01*
X77854169Y-68911081D01*
X77851989Y-68890799D01*
X77800889Y-68753796D01*
X77800888Y-68753794D01*
X77713261Y-68636738D01*
X77664926Y-68600555D01*
X77627762Y-68556086D01*
X77614435Y-68499686D01*
X77627763Y-68443286D01*
X77664928Y-68398817D01*
X77712905Y-68362902D01*
X77800445Y-68245962D01*
X77851494Y-68109093D01*
X77858000Y-68048589D01*
X77858000Y-67404000D01*
X76172000Y-67404000D01*
X76109000Y-67387119D01*
X76062881Y-67341000D01*
X76046000Y-67278000D01*
X76046000Y-65792000D01*
X76554000Y-65792000D01*
X76554000Y-66896000D01*
X77858000Y-66896000D01*
X77858000Y-66251411D01*
X77851494Y-66190906D01*
X77800445Y-66054037D01*
X77712904Y-65937095D01*
X77595962Y-65849554D01*
X77459093Y-65798505D01*
X77398589Y-65792000D01*
X76554000Y-65792000D01*
X76046000Y-65792000D01*
X75201411Y-65792000D01*
X75140906Y-65798505D01*
X75004037Y-65849554D01*
X74887095Y-65937095D01*
X74799554Y-66054037D01*
X74748505Y-66190906D01*
X74742000Y-66251411D01*
X74742000Y-66914218D01*
X74724658Y-66978010D01*
X74677407Y-67024242D01*
X74613252Y-67040188D01*
X74549853Y-67021459D01*
X74447522Y-66958340D01*
X74279328Y-66902606D01*
X74175503Y-66892000D01*
X73904000Y-66892000D01*
X73904000Y-68028000D01*
X73887119Y-68091000D01*
X73841000Y-68137119D01*
X73778000Y-68154000D01*
X72417000Y-68154000D01*
X72417000Y-68200503D01*
X72427606Y-68304328D01*
X72483340Y-68472522D01*
X72576367Y-68623342D01*
X72712074Y-68759049D01*
X72709754Y-68761368D01*
X72735520Y-68788272D01*
X72751511Y-68849672D01*
X72735552Y-68911081D01*
X72709507Y-68938302D01*
X72711761Y-68940556D01*
X72575972Y-69076344D01*
X72537473Y-69138761D01*
X72482885Y-69227262D01*
X72452892Y-69317778D01*
X72427113Y-69395574D01*
X72416500Y-69499459D01*
X72416500Y-70100540D01*
X72427112Y-70204425D01*
X72427113Y-70204426D01*
X72482885Y-70372738D01*
X72550251Y-70481955D01*
X72575972Y-70523655D01*
X72701344Y-70649027D01*
X72701346Y-70649028D01*
X72701348Y-70649030D01*
X72852262Y-70742115D01*
X73020574Y-70797887D01*
X73124455Y-70808500D01*
X74175544Y-70808499D01*
X74279426Y-70797887D01*
X74447738Y-70742115D01*
X74552510Y-70677490D01*
X74612533Y-70658881D01*
X74674082Y-70671579D01*
X74721843Y-70712426D01*
X74743932Y-70771262D01*
X74748011Y-70809201D01*
X74782077Y-70900536D01*
X74799111Y-70946205D01*
X74886738Y-71063261D01*
X75003794Y-71150888D01*
X75003795Y-71150888D01*
X75003796Y-71150889D01*
X75140799Y-71201989D01*
X75201362Y-71208500D01*
X77398638Y-71208500D01*
X77459201Y-71201989D01*
X77596204Y-71150889D01*
X77713261Y-71063261D01*
X77800889Y-70946204D01*
X77851989Y-70809201D01*
X77858500Y-70748638D01*
X77858500Y-70684500D01*
X77875381Y-70621500D01*
X77921500Y-70575381D01*
X77984500Y-70558500D01*
X78874782Y-70558500D01*
X78882390Y-70558730D01*
X78943091Y-70562402D01*
X78943091Y-70562401D01*
X78943093Y-70562402D01*
X79002941Y-70551434D01*
X79010398Y-70550299D01*
X79070801Y-70542965D01*
X79080328Y-70539351D01*
X79102294Y-70533227D01*
X79112329Y-70531389D01*
X79167797Y-70506423D01*
X79174802Y-70503522D01*
X79231675Y-70481954D01*
X79240069Y-70476159D01*
X79259926Y-70464960D01*
X79269226Y-70460775D01*
X79317140Y-70423235D01*
X79323179Y-70418791D01*
X79373273Y-70384215D01*
X79413612Y-70338680D01*
X79418811Y-70333157D01*
X79647968Y-70104000D01*
X80642000Y-70104000D01*
X80642000Y-70748589D01*
X80648505Y-70809093D01*
X80699554Y-70945962D01*
X80787095Y-71062904D01*
X80904037Y-71150445D01*
X81040906Y-71201494D01*
X81101411Y-71208000D01*
X81946000Y-71208000D01*
X81946000Y-70104000D01*
X80642000Y-70104000D01*
X79647968Y-70104000D01*
X80183157Y-69568811D01*
X80188683Y-69563610D01*
X80234215Y-69523273D01*
X80268791Y-69473179D01*
X80273235Y-69467140D01*
X80310775Y-69419226D01*
X80314960Y-69409926D01*
X80326159Y-69390069D01*
X80331954Y-69381675D01*
X80353522Y-69324802D01*
X80356423Y-69317797D01*
X80381389Y-69262329D01*
X80383227Y-69252294D01*
X80389350Y-69230331D01*
X80392965Y-69220801D01*
X80392965Y-69220800D01*
X80398190Y-69207025D01*
X80439501Y-69151591D01*
X80503842Y-69126298D01*
X80571844Y-69138761D01*
X80623034Y-69185228D01*
X80642000Y-69251710D01*
X80642000Y-69596000D01*
X82328000Y-69596000D01*
X82391000Y-69612881D01*
X82437119Y-69659000D01*
X82454000Y-69722000D01*
X82454000Y-71208000D01*
X83298589Y-71208000D01*
X83359093Y-71201494D01*
X83495962Y-71150445D01*
X83612904Y-71062904D01*
X83700445Y-70945962D01*
X83751494Y-70809093D01*
X83758000Y-70748589D01*
X83758000Y-69959165D01*
X83771733Y-69901962D01*
X83809939Y-69857229D01*
X83864289Y-69834716D01*
X83922936Y-69839332D01*
X83973095Y-69870070D01*
X84001657Y-69898632D01*
X84152477Y-69991659D01*
X84320671Y-70047393D01*
X84424497Y-70058000D01*
X84696000Y-70058000D01*
X84696000Y-68922000D01*
X84712881Y-68859000D01*
X84759000Y-68812881D01*
X84822000Y-68796000D01*
X85078000Y-68796000D01*
X85141000Y-68812881D01*
X85187119Y-68859000D01*
X85204000Y-68922000D01*
X85204000Y-70058000D01*
X85475503Y-70058000D01*
X85579328Y-70047393D01*
X85747522Y-69991659D01*
X85910874Y-69890903D01*
X85912202Y-69893057D01*
X85940992Y-69875415D01*
X85999679Y-69870815D01*
X86054052Y-69893377D01*
X86092241Y-69938177D01*
X86105910Y-69995435D01*
X86103350Y-71773681D01*
X86086409Y-71836605D01*
X86040298Y-71882649D01*
X85977350Y-71899500D01*
X70376500Y-71899500D01*
X70313500Y-71882619D01*
X70267381Y-71836500D01*
X70250500Y-71773500D01*
X70250500Y-67646000D01*
X72417000Y-67646000D01*
X73396000Y-67646000D01*
X73396000Y-66892000D01*
X73124497Y-66892000D01*
X73020671Y-66902606D01*
X72852477Y-66958340D01*
X72701657Y-67051367D01*
X72576367Y-67176657D01*
X72483340Y-67327477D01*
X72427606Y-67495671D01*
X72417000Y-67599497D01*
X72417000Y-67646000D01*
X70250500Y-67646000D01*
X70250500Y-64424000D01*
X70589918Y-64424000D01*
X70593584Y-64451065D01*
X70663557Y-64666421D01*
X70770863Y-64865829D01*
X70912051Y-65042873D01*
X71082575Y-65191855D01*
X71276968Y-65307999D01*
X71488975Y-65387567D01*
X71711777Y-65428000D01*
X72071000Y-65428000D01*
X72071000Y-64424000D01*
X72579000Y-64424000D01*
X72579000Y-65428000D01*
X72881497Y-65428000D01*
X73050535Y-65412786D01*
X73268815Y-65352543D01*
X73472834Y-65254294D01*
X73656032Y-65121193D01*
X73812520Y-64957520D01*
X73937265Y-64768539D01*
X74026264Y-64560314D01*
X74057377Y-64424000D01*
X74664918Y-64424000D01*
X74668584Y-64451065D01*
X74738557Y-64666421D01*
X74845863Y-64865829D01*
X74987051Y-65042873D01*
X75157575Y-65191855D01*
X75351968Y-65307999D01*
X75563975Y-65387567D01*
X75786777Y-65428000D01*
X76046000Y-65428000D01*
X76046000Y-64424000D01*
X76554000Y-64424000D01*
X76554000Y-65428000D01*
X76756497Y-65428000D01*
X76925535Y-65412786D01*
X77143815Y-65352543D01*
X77347834Y-65254294D01*
X77531032Y-65121193D01*
X77678934Y-64966500D01*
X78142000Y-64966500D01*
X78142000Y-65025503D01*
X78152606Y-65129328D01*
X78208340Y-65297522D01*
X78301367Y-65448342D01*
X78426657Y-65573632D01*
X78577477Y-65666659D01*
X78745671Y-65722393D01*
X78849497Y-65733000D01*
X79096000Y-65733000D01*
X79096000Y-64966500D01*
X78142000Y-64966500D01*
X77678934Y-64966500D01*
X77687520Y-64957520D01*
X77812265Y-64768539D01*
X77901265Y-64560313D01*
X77914190Y-64503685D01*
X77945472Y-64445160D01*
X77956441Y-64438480D01*
X77937820Y-64424000D01*
X76554000Y-64424000D01*
X76046000Y-64424000D01*
X74664918Y-64424000D01*
X74057377Y-64424000D01*
X72579000Y-64424000D01*
X72071000Y-64424000D01*
X70589918Y-64424000D01*
X70250500Y-64424000D01*
X70250500Y-63915999D01*
X70592622Y-63915999D01*
X70592623Y-63916000D01*
X72071000Y-63916000D01*
X72071000Y-62912000D01*
X72579000Y-62912000D01*
X72579000Y-63916000D01*
X74060082Y-63916000D01*
X74056415Y-63888934D01*
X73986442Y-63673578D01*
X73879136Y-63474170D01*
X73737948Y-63297126D01*
X73567424Y-63148144D01*
X73373031Y-63032000D01*
X73161024Y-62952432D01*
X72938223Y-62912000D01*
X72579000Y-62912000D01*
X72071000Y-62912000D01*
X71768503Y-62912000D01*
X71599464Y-62927213D01*
X71381184Y-62987456D01*
X71177165Y-63085705D01*
X70993967Y-63218806D01*
X70837479Y-63382479D01*
X70712734Y-63571460D01*
X70623735Y-63779685D01*
X70592622Y-63915999D01*
X70250500Y-63915999D01*
X70250500Y-55784000D01*
X70589918Y-55784000D01*
X70593584Y-55811065D01*
X70663557Y-56026421D01*
X70770863Y-56225829D01*
X70912051Y-56402873D01*
X71082575Y-56551855D01*
X71276968Y-56667999D01*
X71488975Y-56747567D01*
X71711777Y-56788000D01*
X72071000Y-56788000D01*
X72579000Y-56788000D01*
X72881497Y-56788000D01*
X73050535Y-56772786D01*
X73268815Y-56712543D01*
X73472834Y-56614294D01*
X73656032Y-56481193D01*
X73812520Y-56317520D01*
X73937265Y-56128539D01*
X74026264Y-55920314D01*
X74057377Y-55784000D01*
X73025210Y-55784000D01*
X72579000Y-56230210D01*
X72579000Y-56788000D01*
X72071000Y-56788000D01*
X72071000Y-56280211D01*
X72070999Y-56280210D01*
X71574790Y-55784000D01*
X70589918Y-55784000D01*
X70250500Y-55784000D01*
X70250500Y-55275999D01*
X70592622Y-55275999D01*
X70592623Y-55276000D01*
X71614789Y-55276000D01*
X71700002Y-55190787D01*
X72070999Y-54819789D01*
X72071000Y-54819789D01*
X72071000Y-54272000D01*
X72579000Y-54272000D01*
X72579000Y-54869789D01*
X72899997Y-55190787D01*
X72900001Y-55190790D01*
X72985210Y-55276000D01*
X74060082Y-55276000D01*
X74060082Y-55275999D01*
X74692622Y-55275999D01*
X74692623Y-55276000D01*
X76071000Y-55276000D01*
X76071000Y-54272000D01*
X75868503Y-54272000D01*
X75699464Y-54287213D01*
X75481184Y-54347456D01*
X75277165Y-54445705D01*
X75093967Y-54578806D01*
X74937479Y-54742479D01*
X74812734Y-54931460D01*
X74723735Y-55139685D01*
X74692622Y-55275999D01*
X74060082Y-55275999D01*
X74056415Y-55248934D01*
X73986442Y-55033578D01*
X73879136Y-54834170D01*
X73737948Y-54657126D01*
X73567424Y-54508144D01*
X73373031Y-54392000D01*
X73161024Y-54312432D01*
X72938223Y-54272000D01*
X72579000Y-54272000D01*
X72071000Y-54272000D01*
X71768503Y-54272000D01*
X71599464Y-54287213D01*
X71381184Y-54347456D01*
X71177165Y-54445705D01*
X70993967Y-54578806D01*
X70837479Y-54742479D01*
X70712734Y-54931460D01*
X70623735Y-55139685D01*
X70592622Y-55275999D01*
X70250500Y-55275999D01*
X70250500Y-53116500D01*
X75492000Y-53116500D01*
X75492000Y-53175503D01*
X75502606Y-53279328D01*
X75558340Y-53447522D01*
X75651367Y-53598342D01*
X75776657Y-53723632D01*
X75927477Y-53816659D01*
X76095671Y-53872393D01*
X76199497Y-53883000D01*
X76446000Y-53883000D01*
X76446000Y-53116500D01*
X75492000Y-53116500D01*
X70250500Y-53116500D01*
X70250500Y-49045084D01*
X70250573Y-49040810D01*
X70285146Y-48022226D01*
X70303407Y-47961048D01*
X70349311Y-47916675D01*
X70411073Y-47900500D01*
X86011546Y-47900500D01*
X86074598Y-47917411D01*
G37*
%TD.AperFunction*%
%TA.AperFunction,Conductor*%
G36*
X86051630Y-56944948D02*
G01*
X86087348Y-56963633D01*
X86108053Y-56979133D01*
X86124626Y-56998964D01*
X86124392Y-57161316D01*
X86108051Y-57180869D01*
X86084461Y-57198528D01*
X86050617Y-57216571D01*
X86012913Y-57223597D01*
X85986166Y-57224437D01*
X85965573Y-57230420D01*
X85946222Y-57234428D01*
X85924934Y-57237118D01*
X85881974Y-57254126D01*
X85870749Y-57257969D01*
X85826400Y-57270854D01*
X85807938Y-57281772D01*
X85790188Y-57290467D01*
X85777489Y-57295495D01*
X85709832Y-57302535D01*
X85648374Y-57273380D01*
X85611029Y-57216526D01*
X85608678Y-57148545D01*
X85642006Y-57089252D01*
X85755857Y-56975401D01*
X85796731Y-56948091D01*
X85844949Y-56938500D01*
X86011838Y-56938500D01*
X86051630Y-56944948D01*
G37*
%TD.AperFunction*%
%TD*%
M02*
