%TF.GenerationSoftware,KiCad,Pcbnew,7.0.1*%
%TF.CreationDate,2023-04-28T10:50:47+02:00*%
%TF.ProjectId,zvukovka,7a76756b-6f76-46b6-912e-6b696361645f,rev?*%
%TF.SameCoordinates,Original*%
%TF.FileFunction,Copper,L2,Bot*%
%TF.FilePolarity,Positive*%
%FSLAX46Y46*%
G04 Gerber Fmt 4.6, Leading zero omitted, Abs format (unit mm)*
G04 Created by KiCad (PCBNEW 7.0.1) date 2023-04-28 10:50:47*
%MOMM*%
%LPD*%
G01*
G04 APERTURE LIST*
%TA.AperFunction,ComponentPad*%
%ADD10C,0.900000*%
%TD*%
%TA.AperFunction,ComponentPad*%
%ADD11O,2.300000X1.500000*%
%TD*%
%TA.AperFunction,ComponentPad*%
%ADD12O,2.500000X1.500000*%
%TD*%
%TA.AperFunction,ComponentPad*%
%ADD13C,1.400000*%
%TD*%
%TA.AperFunction,ComponentPad*%
%ADD14C,0.600000*%
%TD*%
%TA.AperFunction,SMDPad,CuDef*%
%ADD15O,3.000000X2.000000*%
%TD*%
%TA.AperFunction,SMDPad,CuDef*%
%ADD16O,2.000000X3.000000*%
%TD*%
%TA.AperFunction,ViaPad*%
%ADD17C,1.500000*%
%TD*%
%TA.AperFunction,ViaPad*%
%ADD18C,1.000000*%
%TD*%
%TA.AperFunction,Conductor*%
%ADD19C,0.400000*%
%TD*%
G04 APERTURE END LIST*
D10*
%TO.P,J1,S1,SHIELD*%
%TO.N,GNDD*%
X76730000Y-55530000D03*
D11*
X76325000Y-55530000D03*
D12*
X72325000Y-55530000D03*
D10*
X75800000Y-55550000D03*
X72900000Y-55550000D03*
X71700000Y-55550000D03*
X76800000Y-64150000D03*
X75900000Y-64150000D03*
D11*
X76300000Y-64170000D03*
D13*
X72820000Y-64170000D03*
D12*
X72325000Y-64170000D03*
D13*
X71830000Y-64170000D03*
%TD*%
D14*
%TO.P,U1,3*%
%TO.N,unconnected-(U1-Pad3)*%
X111550000Y-65100000D03*
D15*
X111950000Y-65100000D03*
D14*
X112350000Y-65100000D03*
%TO.P,U1,2*%
%TO.N,VIN*%
X115050000Y-55100000D03*
D15*
X115450000Y-55100000D03*
D14*
X115850000Y-55100000D03*
%TO.P,U1,1*%
%TO.N,GNDA*%
X119850000Y-59500000D03*
D16*
X119850000Y-59900000D03*
D14*
X119850000Y-60300000D03*
%TD*%
D17*
%TO.N,Net-(D1-A)*%
X104450000Y-65150000D03*
D18*
X96900000Y-69400000D03*
%TO.N,GNDD*%
X72350000Y-52700000D03*
X73600000Y-66400000D03*
D17*
%TO.N,GNDA*%
X98500000Y-64400000D03*
%TO.N,VIN*%
X98400000Y-62150000D03*
D18*
%TO.N,Net-(J1-CC1)*%
X78750000Y-51050000D03*
X78500000Y-58150000D03*
%TO.N,GND*%
X99800000Y-50300000D03*
%TO.N,Net-(D1-A)*%
X100600000Y-70150000D03*
%TO.N,GNDA*%
X104650000Y-50550000D03*
D17*
X88600000Y-66950000D03*
D18*
X113300000Y-50550000D03*
X112800000Y-69000000D03*
%TO.N,GNDD*%
X84900000Y-70850000D03*
X83200000Y-61900000D03*
%TD*%
D19*
%TO.N,Net-(D1-A)*%
X100000000Y-65150000D02*
X100050000Y-65100000D01*
X100000000Y-68650000D02*
X100000000Y-65150000D01*
X100600000Y-69250000D02*
X100000000Y-68650000D01*
X104400000Y-65100000D02*
X104450000Y-65150000D01*
X100600000Y-70150000D02*
X100600000Y-69250000D01*
X100050000Y-65100000D02*
X104400000Y-65100000D01*
X97650000Y-70150000D02*
X100600000Y-70150000D01*
X96900000Y-69400000D02*
X97650000Y-70150000D01*
%TO.N,VIN*%
X108550000Y-62150000D02*
X115450000Y-55250000D01*
X98400000Y-62150000D02*
X108550000Y-62150000D01*
%TO.N,Net-(J1-CC1)*%
X78750000Y-53300000D02*
X78750000Y-51050000D01*
X78500000Y-53550000D02*
X78750000Y-53300000D01*
X78500000Y-58150000D02*
X78500000Y-53550000D01*
%TD*%
%TA.AperFunction,Conductor*%
%TO.N,GNDA*%
G36*
X121336500Y-47917381D02*
G01*
X121382619Y-47963500D01*
X121399500Y-48026500D01*
X121399500Y-58593826D01*
X121383123Y-58655945D01*
X121338250Y-58701916D01*
X121276544Y-58719789D01*
X121214048Y-58704918D01*
X121167006Y-58661168D01*
X121059484Y-58491134D01*
X120898025Y-58308886D01*
X120709429Y-58154903D01*
X120498572Y-58033164D01*
X120270919Y-57946826D01*
X120103999Y-57912749D01*
X120104000Y-57912750D01*
X120104000Y-61888234D01*
X120152621Y-61882330D01*
X120386481Y-61814592D01*
X120606453Y-61710214D01*
X120806832Y-61571902D01*
X120982421Y-61403246D01*
X121128695Y-61208592D01*
X121161933Y-61145264D01*
X121207017Y-61096786D01*
X121270455Y-61077856D01*
X121334734Y-61093699D01*
X121382108Y-61139942D01*
X121399500Y-61203819D01*
X121399500Y-71773500D01*
X121382619Y-71836500D01*
X121336500Y-71882619D01*
X121273500Y-71899500D01*
X87442049Y-71899500D01*
X87379162Y-71882684D01*
X87333060Y-71836726D01*
X87316050Y-71773891D01*
X87314154Y-71163380D01*
X87308677Y-69400000D01*
X95886619Y-69400000D01*
X95906091Y-69597701D01*
X95963758Y-69787802D01*
X96057406Y-69963007D01*
X96183431Y-70116568D01*
X96336992Y-70242593D01*
X96336996Y-70242595D01*
X96512196Y-70336241D01*
X96549975Y-70347701D01*
X96702298Y-70393908D01*
X96726780Y-70396319D01*
X96867793Y-70410207D01*
X96909312Y-70421697D01*
X96944535Y-70446505D01*
X97131171Y-70633141D01*
X97136388Y-70638682D01*
X97176727Y-70684215D01*
X97226768Y-70718756D01*
X97232899Y-70723267D01*
X97280774Y-70760775D01*
X97290060Y-70764954D01*
X97309933Y-70776162D01*
X97318323Y-70781953D01*
X97318324Y-70781953D01*
X97318325Y-70781954D01*
X97375192Y-70803520D01*
X97382205Y-70806424D01*
X97437671Y-70831388D01*
X97447695Y-70833224D01*
X97469662Y-70839348D01*
X97479199Y-70842965D01*
X97539588Y-70850297D01*
X97547068Y-70851435D01*
X97606907Y-70862401D01*
X97606907Y-70862400D01*
X97606908Y-70862401D01*
X97667598Y-70858730D01*
X97675206Y-70858500D01*
X99828518Y-70858500D01*
X99870966Y-70865866D01*
X99908450Y-70887100D01*
X100036996Y-70992595D01*
X100212196Y-71086241D01*
X100307247Y-71115074D01*
X100402298Y-71143908D01*
X100599999Y-71163380D01*
X100599999Y-71163379D01*
X100600000Y-71163380D01*
X100797701Y-71143908D01*
X100987804Y-71086241D01*
X101163004Y-70992595D01*
X101163005Y-70992593D01*
X101163007Y-70992593D01*
X101316568Y-70866568D01*
X101442593Y-70713007D01*
X101442595Y-70713004D01*
X101536241Y-70537804D01*
X101593908Y-70347701D01*
X101613380Y-70150000D01*
X101593908Y-69952299D01*
X101536241Y-69762196D01*
X101442595Y-69586996D01*
X101337100Y-69458450D01*
X101315866Y-69420966D01*
X101308500Y-69378518D01*
X101308500Y-69275206D01*
X101308730Y-69267598D01*
X101312401Y-69206908D01*
X101312401Y-69206907D01*
X101301432Y-69147053D01*
X101300301Y-69139620D01*
X101292965Y-69079199D01*
X101289351Y-69069672D01*
X101283225Y-69047694D01*
X101281389Y-69037671D01*
X101256418Y-68982189D01*
X101253524Y-68975203D01*
X101243966Y-68950000D01*
X117044341Y-68950000D01*
X117047112Y-68981673D01*
X117064937Y-69185409D01*
X117126096Y-69413662D01*
X117225965Y-69627829D01*
X117361507Y-69821404D01*
X117528595Y-69988492D01*
X117528598Y-69988494D01*
X117528599Y-69988495D01*
X117722171Y-70124035D01*
X117936337Y-70223903D01*
X118164592Y-70285063D01*
X118341034Y-70300500D01*
X118458960Y-70300500D01*
X118458966Y-70300500D01*
X118635408Y-70285063D01*
X118863663Y-70223903D01*
X119077829Y-70124035D01*
X119271401Y-69988495D01*
X119438495Y-69821401D01*
X119574035Y-69627830D01*
X119673903Y-69413663D01*
X119735063Y-69185408D01*
X119755659Y-68950000D01*
X119735063Y-68714592D01*
X119673903Y-68486337D01*
X119574035Y-68272171D01*
X119438495Y-68078599D01*
X119438494Y-68078598D01*
X119438492Y-68078595D01*
X119271404Y-67911507D01*
X119077829Y-67775965D01*
X118863662Y-67676096D01*
X118635409Y-67614937D01*
X118610202Y-67612731D01*
X118458966Y-67599500D01*
X118341034Y-67599500D01*
X118208702Y-67611077D01*
X118164590Y-67614937D01*
X117936337Y-67676096D01*
X117722170Y-67775965D01*
X117528595Y-67911507D01*
X117361507Y-68078595D01*
X117225965Y-68272169D01*
X117126096Y-68486336D01*
X117064937Y-68714590D01*
X117046544Y-68924822D01*
X117044341Y-68950000D01*
X101243966Y-68950000D01*
X101231954Y-68918325D01*
X101231952Y-68918323D01*
X101231952Y-68918321D01*
X101226161Y-68909931D01*
X101214957Y-68890067D01*
X101210775Y-68880774D01*
X101173260Y-68832891D01*
X101168766Y-68826783D01*
X101134215Y-68776727D01*
X101088682Y-68736388D01*
X101083141Y-68731171D01*
X100745405Y-68393435D01*
X100718091Y-68352558D01*
X100708500Y-68304340D01*
X100708500Y-65934500D01*
X100725381Y-65871500D01*
X100771500Y-65825381D01*
X100834500Y-65808500D01*
X103309151Y-65808500D01*
X103367331Y-65822737D01*
X103412363Y-65862228D01*
X103462969Y-65934500D01*
X103482253Y-65962041D01*
X103637958Y-66117746D01*
X103637961Y-66117748D01*
X103637962Y-66117749D01*
X103818346Y-66244056D01*
X104017924Y-66337120D01*
X104111707Y-66362249D01*
X104230624Y-66394114D01*
X104230625Y-66394114D01*
X104230629Y-66394115D01*
X104450000Y-66413307D01*
X104669371Y-66394115D01*
X104882076Y-66337120D01*
X105081654Y-66244056D01*
X105262038Y-66117749D01*
X105417749Y-65962038D01*
X105544056Y-65781654D01*
X105637120Y-65582076D01*
X105694115Y-65369371D01*
X105712350Y-65160941D01*
X109937819Y-65160941D01*
X109939553Y-65175218D01*
X109967177Y-65402720D01*
X110034939Y-65636662D01*
X110088143Y-65748787D01*
X110139350Y-65856705D01*
X110277708Y-66057150D01*
X110446420Y-66232797D01*
X110446425Y-66232802D01*
X110641135Y-66379117D01*
X110856795Y-66492304D01*
X111087818Y-66569431D01*
X111087821Y-66569432D01*
X111328219Y-66608500D01*
X111328221Y-66608500D01*
X112510797Y-66608500D01*
X112510802Y-66608500D01*
X112593511Y-66601822D01*
X112692768Y-66593810D01*
X112929248Y-66535523D01*
X113153316Y-66440056D01*
X113359168Y-66309883D01*
X113541474Y-66148375D01*
X113695510Y-65959714D01*
X113817289Y-65748787D01*
X113903656Y-65521057D01*
X113952374Y-65282421D01*
X113962181Y-65039061D01*
X113932823Y-64797280D01*
X113865061Y-64563338D01*
X113760650Y-64343296D01*
X113756968Y-64337962D01*
X113622291Y-64142849D01*
X113453579Y-63967202D01*
X113453578Y-63967201D01*
X113453575Y-63967198D01*
X113258865Y-63820883D01*
X113258861Y-63820881D01*
X113258860Y-63820880D01*
X113043208Y-63707697D01*
X112812178Y-63630567D01*
X112571781Y-63591500D01*
X112571779Y-63591500D01*
X111389203Y-63591500D01*
X111389198Y-63591500D01*
X111207237Y-63606189D01*
X111207233Y-63606189D01*
X111207232Y-63606190D01*
X110970752Y-63664477D01*
X110970748Y-63664478D01*
X110746683Y-63759944D01*
X110540830Y-63890117D01*
X110358527Y-64051623D01*
X110204490Y-64240285D01*
X110082712Y-64451210D01*
X109996344Y-64678942D01*
X109972185Y-64797279D01*
X109947626Y-64917579D01*
X109939997Y-65106906D01*
X109937819Y-65160941D01*
X105712350Y-65160941D01*
X105713307Y-65150000D01*
X105694115Y-64930629D01*
X105690618Y-64917579D01*
X105641132Y-64732898D01*
X105637120Y-64717924D01*
X105544056Y-64518347D01*
X105417749Y-64337962D01*
X105417748Y-64337961D01*
X105417746Y-64337958D01*
X105262041Y-64182253D01*
X105081653Y-64055943D01*
X104882074Y-63962879D01*
X104669375Y-63905885D01*
X104450000Y-63886693D01*
X104230624Y-63905885D01*
X104017925Y-63962879D01*
X103818347Y-64055943D01*
X103637958Y-64182253D01*
X103474456Y-64345756D01*
X103473906Y-64345206D01*
X103437353Y-64377263D01*
X103379172Y-64391500D01*
X100075223Y-64391500D01*
X100067616Y-64391270D01*
X100065540Y-64391144D01*
X100006906Y-64387597D01*
X99947090Y-64398559D01*
X99939569Y-64399704D01*
X99879197Y-64407035D01*
X99869662Y-64410651D01*
X99847711Y-64416770D01*
X99845609Y-64417155D01*
X99837668Y-64418611D01*
X99782213Y-64443569D01*
X99775186Y-64446480D01*
X99718322Y-64468046D01*
X99709926Y-64473842D01*
X99690076Y-64485038D01*
X99680776Y-64489224D01*
X99680774Y-64489225D01*
X99680775Y-64489225D01*
X99632899Y-64526731D01*
X99626785Y-64531230D01*
X99576730Y-64565781D01*
X99536388Y-64611317D01*
X99531172Y-64616856D01*
X99516856Y-64631172D01*
X99511317Y-64636388D01*
X99465782Y-64676729D01*
X99431238Y-64726773D01*
X99426731Y-64732898D01*
X99389224Y-64780774D01*
X99385036Y-64790078D01*
X99373843Y-64809923D01*
X99368048Y-64818319D01*
X99346482Y-64875183D01*
X99343570Y-64882211D01*
X99318611Y-64937668D01*
X99316771Y-64947710D01*
X99310651Y-64969662D01*
X99307035Y-64979197D01*
X99299705Y-65039554D01*
X99298561Y-65047071D01*
X99287597Y-65106906D01*
X99291270Y-65167610D01*
X99291500Y-65175218D01*
X99291500Y-68624782D01*
X99291270Y-68632390D01*
X99287597Y-68693093D01*
X99298559Y-68752910D01*
X99299704Y-68760432D01*
X99307035Y-68820801D01*
X99310649Y-68830332D01*
X99316770Y-68852289D01*
X99318610Y-68862329D01*
X99343572Y-68917794D01*
X99346483Y-68924822D01*
X99366933Y-68978740D01*
X99368046Y-68981675D01*
X99372951Y-68988781D01*
X99373839Y-68990068D01*
X99385036Y-69009922D01*
X99389223Y-69019224D01*
X99426725Y-69067092D01*
X99431235Y-69073220D01*
X99444711Y-69092743D01*
X99465785Y-69123273D01*
X99511316Y-69163610D01*
X99516857Y-69168827D01*
X99574435Y-69226405D01*
X99605173Y-69276564D01*
X99609789Y-69335211D01*
X99587276Y-69389561D01*
X99542543Y-69427767D01*
X99485340Y-69441500D01*
X98031667Y-69441500D01*
X97972271Y-69426622D01*
X97926902Y-69385502D01*
X97906274Y-69327850D01*
X97893908Y-69202298D01*
X97852893Y-69067092D01*
X97836241Y-69012196D01*
X97742595Y-68836996D01*
X97742593Y-68836992D01*
X97616568Y-68683431D01*
X97463007Y-68557406D01*
X97287802Y-68463758D01*
X97097701Y-68406091D01*
X96900000Y-68386619D01*
X96702298Y-68406091D01*
X96512197Y-68463758D01*
X96336992Y-68557406D01*
X96183431Y-68683431D01*
X96057406Y-68836992D01*
X95963758Y-69012197D01*
X95906091Y-69202298D01*
X95886619Y-69400000D01*
X87308677Y-69400000D01*
X87284574Y-61638943D01*
X87304166Y-61571076D01*
X87357207Y-61524416D01*
X87417742Y-61515067D01*
X87417742Y-61513500D01*
X96774000Y-61513500D01*
X96906905Y-61496003D01*
X96969905Y-61479122D01*
X97093751Y-61427823D01*
X97093753Y-61427821D01*
X97109077Y-61421474D01*
X97110674Y-61425329D01*
X97142685Y-61412216D01*
X97208299Y-61421704D01*
X97260014Y-61463187D01*
X97283513Y-61525179D01*
X97272289Y-61590519D01*
X97212879Y-61717925D01*
X97155885Y-61930624D01*
X97136693Y-62149999D01*
X97155885Y-62369375D01*
X97212879Y-62582074D01*
X97305943Y-62781653D01*
X97432253Y-62962041D01*
X97587958Y-63117746D01*
X97587961Y-63117748D01*
X97587962Y-63117749D01*
X97768346Y-63244056D01*
X97967924Y-63337120D01*
X98061707Y-63362249D01*
X98180624Y-63394114D01*
X98180625Y-63394114D01*
X98180629Y-63394115D01*
X98400000Y-63413307D01*
X98619371Y-63394115D01*
X98832076Y-63337120D01*
X99031654Y-63244056D01*
X99212038Y-63117749D01*
X99367749Y-62962038D01*
X99402626Y-62912228D01*
X99447659Y-62872736D01*
X99505839Y-62858500D01*
X108524782Y-62858500D01*
X108532390Y-62858730D01*
X108593091Y-62862402D01*
X108593091Y-62862401D01*
X108593093Y-62862402D01*
X108652941Y-62851434D01*
X108660398Y-62850299D01*
X108720801Y-62842965D01*
X108730328Y-62839351D01*
X108752294Y-62833227D01*
X108762329Y-62831389D01*
X108817797Y-62806423D01*
X108824802Y-62803522D01*
X108881675Y-62781954D01*
X108890069Y-62776159D01*
X108909926Y-62764960D01*
X108919226Y-62760775D01*
X108967140Y-62723235D01*
X108973179Y-62718791D01*
X109023273Y-62684215D01*
X109063612Y-62638680D01*
X109068811Y-62633157D01*
X111547968Y-60154000D01*
X118342000Y-60154000D01*
X118342000Y-60460776D01*
X118356685Y-60642682D01*
X118414954Y-60879089D01*
X118510389Y-61103084D01*
X118640515Y-61308865D01*
X118801974Y-61491113D01*
X118990570Y-61645096D01*
X119201427Y-61766835D01*
X119429080Y-61853173D01*
X119596000Y-61887250D01*
X119596000Y-60154000D01*
X118342000Y-60154000D01*
X111547968Y-60154000D01*
X112055968Y-59646000D01*
X118342000Y-59646000D01*
X119596000Y-59646000D01*
X119596000Y-57911766D01*
X119595999Y-57911765D01*
X119547378Y-57917669D01*
X119313518Y-57985407D01*
X119093546Y-58089785D01*
X118893167Y-58228097D01*
X118717578Y-58396753D01*
X118571307Y-58591403D01*
X118458156Y-58806994D01*
X118381055Y-59037938D01*
X118342000Y-59278259D01*
X118342000Y-59646000D01*
X112055968Y-59646000D01*
X115056564Y-56645405D01*
X115097442Y-56618091D01*
X115145660Y-56608500D01*
X116010802Y-56608500D01*
X116093511Y-56601822D01*
X116192768Y-56593810D01*
X116429248Y-56535523D01*
X116653316Y-56440056D01*
X116859168Y-56309883D01*
X117041474Y-56148375D01*
X117195510Y-55959714D01*
X117317289Y-55748787D01*
X117403656Y-55521057D01*
X117452374Y-55282421D01*
X117462181Y-55039061D01*
X117432823Y-54797280D01*
X117365061Y-54563338D01*
X117260650Y-54343296D01*
X117189546Y-54240285D01*
X117122291Y-54142849D01*
X116953579Y-53967202D01*
X116953578Y-53967201D01*
X116953575Y-53967198D01*
X116758865Y-53820883D01*
X116758861Y-53820881D01*
X116758860Y-53820880D01*
X116543208Y-53707697D01*
X116312178Y-53630567D01*
X116071781Y-53591500D01*
X116071779Y-53591500D01*
X114889203Y-53591500D01*
X114889198Y-53591500D01*
X114707237Y-53606189D01*
X114707233Y-53606189D01*
X114707232Y-53606190D01*
X114591972Y-53634599D01*
X114470748Y-53664478D01*
X114246683Y-53759944D01*
X114040830Y-53890117D01*
X113858527Y-54051623D01*
X113704490Y-54240285D01*
X113582712Y-54451210D01*
X113582710Y-54451213D01*
X113582711Y-54451213D01*
X113496344Y-54678943D01*
X113447626Y-54917579D01*
X113437819Y-55160939D01*
X113467177Y-55402720D01*
X113534939Y-55636662D01*
X113639350Y-55856704D01*
X113639351Y-55856705D01*
X113662179Y-55889777D01*
X113683234Y-55943650D01*
X113678000Y-56001254D01*
X113647579Y-56050449D01*
X108293435Y-61404595D01*
X108252558Y-61431909D01*
X108204340Y-61441500D01*
X103965374Y-61441500D01*
X103900479Y-61423503D01*
X103854123Y-61374654D01*
X103839547Y-61308906D01*
X103860915Y-61245042D01*
X103912124Y-61201305D01*
X104077829Y-61124035D01*
X104271401Y-60988495D01*
X104438495Y-60821401D01*
X104574035Y-60627830D01*
X104673903Y-60413663D01*
X104735063Y-60185408D01*
X104755659Y-59950000D01*
X104735063Y-59714592D01*
X104673903Y-59486337D01*
X104574035Y-59272171D01*
X104438495Y-59078599D01*
X104438494Y-59078598D01*
X104438492Y-59078595D01*
X104271404Y-58911507D01*
X104077829Y-58775965D01*
X103863662Y-58676096D01*
X103635409Y-58614937D01*
X103610201Y-58612731D01*
X103458966Y-58599500D01*
X103341034Y-58599500D01*
X103208702Y-58611077D01*
X103164590Y-58614937D01*
X102936337Y-58676096D01*
X102722170Y-58775965D01*
X102528595Y-58911507D01*
X102361507Y-59078595D01*
X102225965Y-59272169D01*
X102126096Y-59486336D01*
X102064937Y-59714590D01*
X102044341Y-59950000D01*
X102064937Y-60185409D01*
X102126096Y-60413662D01*
X102225965Y-60627829D01*
X102361507Y-60821404D01*
X102528595Y-60988492D01*
X102528598Y-60988494D01*
X102528599Y-60988495D01*
X102722171Y-61124035D01*
X102887876Y-61201305D01*
X102939085Y-61245042D01*
X102960453Y-61308906D01*
X102945877Y-61374654D01*
X102899521Y-61423503D01*
X102834626Y-61441500D01*
X99505839Y-61441500D01*
X99447659Y-61427264D01*
X99402626Y-61387771D01*
X99367746Y-61337958D01*
X99212041Y-61182253D01*
X99031653Y-61055943D01*
X98832074Y-60962879D01*
X98619375Y-60905885D01*
X98400000Y-60886693D01*
X98180624Y-60905885D01*
X97967925Y-60962879D01*
X97768347Y-61055943D01*
X97578932Y-61188574D01*
X97577093Y-61185948D01*
X97537555Y-61208762D01*
X97472340Y-61208749D01*
X97415867Y-61176133D01*
X97383264Y-61119651D01*
X97383267Y-61054436D01*
X97396002Y-61006907D01*
X97396003Y-61006905D01*
X97413500Y-60874000D01*
X97413500Y-58739500D01*
X97430381Y-58676500D01*
X97476500Y-58630381D01*
X97539500Y-58613500D01*
X100874000Y-58613500D01*
X101006905Y-58596003D01*
X101069905Y-58579122D01*
X101193751Y-58527823D01*
X101196080Y-58526035D01*
X101232279Y-58506687D01*
X101272781Y-58500000D01*
X101400000Y-58500000D01*
X101400000Y-58372781D01*
X101406687Y-58332279D01*
X101426035Y-58296080D01*
X101427823Y-58293751D01*
X101479122Y-58169905D01*
X101496003Y-58106905D01*
X101513500Y-57974000D01*
X101513500Y-50900000D01*
X117044341Y-50900000D01*
X117064937Y-51135409D01*
X117126096Y-51363662D01*
X117225965Y-51577829D01*
X117361507Y-51771404D01*
X117528595Y-51938492D01*
X117528598Y-51938494D01*
X117528599Y-51938495D01*
X117722171Y-52074035D01*
X117936337Y-52173903D01*
X118164592Y-52235063D01*
X118341034Y-52250500D01*
X118458960Y-52250500D01*
X118458966Y-52250500D01*
X118635408Y-52235063D01*
X118863663Y-52173903D01*
X119077829Y-52074035D01*
X119271401Y-51938495D01*
X119438495Y-51771401D01*
X119574035Y-51577830D01*
X119673903Y-51363663D01*
X119735063Y-51135408D01*
X119755659Y-50900000D01*
X119735063Y-50664592D01*
X119673903Y-50436337D01*
X119574035Y-50222171D01*
X119438495Y-50028599D01*
X119438494Y-50028598D01*
X119438492Y-50028595D01*
X119271404Y-49861507D01*
X119077829Y-49725965D01*
X118863662Y-49626096D01*
X118635409Y-49564937D01*
X118610201Y-49562731D01*
X118458966Y-49549500D01*
X118341034Y-49549500D01*
X118208702Y-49561077D01*
X118164590Y-49564937D01*
X117936337Y-49626096D01*
X117722170Y-49725965D01*
X117528595Y-49861507D01*
X117361507Y-50028595D01*
X117225965Y-50222169D01*
X117126096Y-50436336D01*
X117064937Y-50664590D01*
X117044341Y-50900000D01*
X101513500Y-50900000D01*
X101513500Y-48026500D01*
X101513500Y-48026499D01*
X101530381Y-47963500D01*
X101576500Y-47917381D01*
X101639500Y-47900500D01*
X121273500Y-47900500D01*
X121336500Y-47917381D01*
G37*
%TD.AperFunction*%
%TD*%
%TA.AperFunction,Conductor*%
%TO.N,GND*%
G36*
X100937000Y-47917381D02*
G01*
X100983119Y-47963500D01*
X101000000Y-48026500D01*
X101000000Y-57974000D01*
X100983119Y-58037000D01*
X100937000Y-58083119D01*
X100874000Y-58100000D01*
X96900000Y-58100000D01*
X96900000Y-60874000D01*
X96883119Y-60937000D01*
X96837000Y-60983119D01*
X96774000Y-61000000D01*
X87426000Y-61000000D01*
X87363000Y-60983119D01*
X87316881Y-60937000D01*
X87300000Y-60874000D01*
X87300000Y-48026500D01*
X87316881Y-47963500D01*
X87363000Y-47917381D01*
X87426000Y-47900500D01*
X100874000Y-47900500D01*
X100937000Y-47917381D01*
G37*
%TD.AperFunction*%
%TD*%
%TA.AperFunction,Conductor*%
%TO.N,GNDD*%
G36*
X86074598Y-47917411D02*
G01*
X86120726Y-47963605D01*
X86137546Y-48026681D01*
X86103350Y-71773681D01*
X86086409Y-71836605D01*
X86040298Y-71882649D01*
X85977350Y-71899500D01*
X70376500Y-71899500D01*
X70313500Y-71882619D01*
X70267381Y-71836500D01*
X70250500Y-71773500D01*
X70250500Y-64424000D01*
X70589918Y-64424000D01*
X70593584Y-64451065D01*
X70663557Y-64666421D01*
X70770863Y-64865829D01*
X70912051Y-65042873D01*
X71082575Y-65191855D01*
X71276968Y-65307999D01*
X71488975Y-65387567D01*
X71711777Y-65428000D01*
X72071000Y-65428000D01*
X72071000Y-64424000D01*
X72579000Y-64424000D01*
X72579000Y-65428000D01*
X72881497Y-65428000D01*
X73050535Y-65412786D01*
X73268815Y-65352543D01*
X73472834Y-65254294D01*
X73656032Y-65121193D01*
X73812520Y-64957520D01*
X73937265Y-64768539D01*
X74026264Y-64560314D01*
X74057377Y-64424000D01*
X74664918Y-64424000D01*
X74668584Y-64451065D01*
X74738557Y-64666421D01*
X74845863Y-64865829D01*
X74987051Y-65042873D01*
X75157575Y-65191855D01*
X75351968Y-65307999D01*
X75563975Y-65387567D01*
X75786777Y-65428000D01*
X76046000Y-65428000D01*
X76046000Y-64424000D01*
X76554000Y-64424000D01*
X76554000Y-65428000D01*
X76756497Y-65428000D01*
X76925535Y-65412786D01*
X77143815Y-65352543D01*
X77347834Y-65254294D01*
X77531032Y-65121193D01*
X77687520Y-64957520D01*
X77812265Y-64768539D01*
X77901264Y-64560314D01*
X77932377Y-64424000D01*
X76554000Y-64424000D01*
X76046000Y-64424000D01*
X74664918Y-64424000D01*
X74057377Y-64424000D01*
X72579000Y-64424000D01*
X72071000Y-64424000D01*
X70589918Y-64424000D01*
X70250500Y-64424000D01*
X70250500Y-63915999D01*
X70592622Y-63915999D01*
X70592623Y-63916000D01*
X72071000Y-63916000D01*
X72071000Y-62912000D01*
X72579000Y-62912000D01*
X72579000Y-63916000D01*
X74060082Y-63916000D01*
X74060082Y-63915999D01*
X74667622Y-63915999D01*
X74667623Y-63916000D01*
X76046000Y-63916000D01*
X76046000Y-62912000D01*
X76554000Y-62912000D01*
X76554000Y-63916000D01*
X77935082Y-63916000D01*
X77931415Y-63888934D01*
X77861442Y-63673578D01*
X77754136Y-63474170D01*
X77612948Y-63297126D01*
X77442424Y-63148144D01*
X77248031Y-63032000D01*
X77036024Y-62952432D01*
X76813223Y-62912000D01*
X76554000Y-62912000D01*
X76046000Y-62912000D01*
X75843503Y-62912000D01*
X75674464Y-62927213D01*
X75456184Y-62987456D01*
X75252165Y-63085705D01*
X75068967Y-63218806D01*
X74912479Y-63382479D01*
X74787734Y-63571460D01*
X74698735Y-63779685D01*
X74667622Y-63915999D01*
X74060082Y-63915999D01*
X74056415Y-63888934D01*
X73986442Y-63673578D01*
X73879136Y-63474170D01*
X73737948Y-63297126D01*
X73567424Y-63148144D01*
X73373031Y-63032000D01*
X73161024Y-62952432D01*
X72938223Y-62912000D01*
X72579000Y-62912000D01*
X72071000Y-62912000D01*
X71768503Y-62912000D01*
X71599464Y-62927213D01*
X71381184Y-62987456D01*
X71177165Y-63085705D01*
X70993967Y-63218806D01*
X70837479Y-63382479D01*
X70712734Y-63571460D01*
X70623735Y-63779685D01*
X70592622Y-63915999D01*
X70250500Y-63915999D01*
X70250500Y-55784000D01*
X70589918Y-55784000D01*
X70593584Y-55811065D01*
X70663557Y-56026421D01*
X70770863Y-56225829D01*
X70912051Y-56402873D01*
X71082575Y-56551855D01*
X71276968Y-56667999D01*
X71488975Y-56747567D01*
X71711777Y-56788000D01*
X72071000Y-56788000D01*
X72579000Y-56788000D01*
X72881497Y-56788000D01*
X73050535Y-56772786D01*
X73268815Y-56712543D01*
X73472834Y-56614294D01*
X73656032Y-56481193D01*
X73812520Y-56317520D01*
X73937265Y-56128539D01*
X74026264Y-55920314D01*
X74057377Y-55784000D01*
X74689918Y-55784000D01*
X74693584Y-55811065D01*
X74763557Y-56026421D01*
X74870863Y-56225829D01*
X75012051Y-56402873D01*
X75182575Y-56551855D01*
X75376968Y-56667999D01*
X75588975Y-56747567D01*
X75811777Y-56788000D01*
X76071000Y-56788000D01*
X76579000Y-56788000D01*
X76781497Y-56788000D01*
X76950535Y-56772786D01*
X77168815Y-56712543D01*
X77372834Y-56614294D01*
X77556033Y-56481193D01*
X77574429Y-56461953D01*
X77624420Y-56429913D01*
X77683534Y-56424325D01*
X77738643Y-56446431D01*
X77777509Y-56491322D01*
X77791500Y-56549028D01*
X77791500Y-57378518D01*
X77784134Y-57420966D01*
X77762899Y-57458452D01*
X77657404Y-57586996D01*
X77563758Y-57762197D01*
X77506091Y-57952298D01*
X77486619Y-58150000D01*
X77506091Y-58347701D01*
X77563758Y-58537802D01*
X77657406Y-58713007D01*
X77783431Y-58866568D01*
X77936992Y-58992593D01*
X77936996Y-58992595D01*
X78112196Y-59086241D01*
X78207247Y-59115074D01*
X78302298Y-59143908D01*
X78500000Y-59163380D01*
X78697701Y-59143908D01*
X78887804Y-59086241D01*
X79063004Y-58992595D01*
X79063005Y-58992593D01*
X79063007Y-58992593D01*
X79216568Y-58866568D01*
X79342593Y-58713007D01*
X79342595Y-58713004D01*
X79436241Y-58537804D01*
X79493908Y-58347701D01*
X79513380Y-58150000D01*
X79493908Y-57952299D01*
X79436241Y-57762196D01*
X79342595Y-57586996D01*
X79237100Y-57458450D01*
X79215866Y-57420966D01*
X79208500Y-57378518D01*
X79208500Y-53897058D01*
X79219601Y-53845346D01*
X79250947Y-53802745D01*
X79284215Y-53773273D01*
X79318763Y-53723219D01*
X79323254Y-53717115D01*
X79360775Y-53669226D01*
X79364960Y-53659926D01*
X79376159Y-53640069D01*
X79381954Y-53631675D01*
X79403526Y-53574791D01*
X79406410Y-53567825D01*
X79431388Y-53512330D01*
X79433225Y-53502302D01*
X79439349Y-53480333D01*
X79442965Y-53470801D01*
X79450298Y-53410392D01*
X79451435Y-53402927D01*
X79462401Y-53343093D01*
X79458729Y-53282401D01*
X79458500Y-53274794D01*
X79458500Y-51821482D01*
X79465866Y-51779034D01*
X79487101Y-51741548D01*
X79592595Y-51613004D01*
X79686241Y-51437804D01*
X79743908Y-51247701D01*
X79763380Y-51050000D01*
X79743908Y-50852299D01*
X79686241Y-50662196D01*
X79592595Y-50486996D01*
X79592593Y-50486992D01*
X79466568Y-50333431D01*
X79313007Y-50207406D01*
X79137802Y-50113758D01*
X78947701Y-50056091D01*
X78750000Y-50036619D01*
X78552298Y-50056091D01*
X78362197Y-50113758D01*
X78186992Y-50207406D01*
X78033431Y-50333431D01*
X77907406Y-50486992D01*
X77813758Y-50662197D01*
X77756091Y-50852298D01*
X77736619Y-51049999D01*
X77756091Y-51247701D01*
X77813758Y-51437802D01*
X77907404Y-51613003D01*
X78012899Y-51741548D01*
X78034134Y-51779034D01*
X78041500Y-51821482D01*
X78041500Y-52952940D01*
X78030400Y-53004651D01*
X77999055Y-53047251D01*
X77965784Y-53076727D01*
X77931238Y-53126773D01*
X77926731Y-53132898D01*
X77889224Y-53180774D01*
X77885036Y-53190078D01*
X77873843Y-53209923D01*
X77868048Y-53218319D01*
X77846482Y-53275183D01*
X77843570Y-53282211D01*
X77818611Y-53337668D01*
X77816771Y-53347710D01*
X77810651Y-53369662D01*
X77807035Y-53379197D01*
X77799705Y-53439554D01*
X77798561Y-53447071D01*
X77787597Y-53506906D01*
X77791270Y-53567610D01*
X77791500Y-53575218D01*
X77791500Y-54513883D01*
X77778527Y-54569569D01*
X77742279Y-54613788D01*
X77690220Y-54637434D01*
X77633071Y-54635638D01*
X77582600Y-54608770D01*
X77467424Y-54508144D01*
X77273031Y-54392000D01*
X77061024Y-54312432D01*
X76838223Y-54272000D01*
X76579000Y-54272000D01*
X76579000Y-56788000D01*
X76071000Y-56788000D01*
X76071000Y-55784000D01*
X74689918Y-55784000D01*
X74057377Y-55784000D01*
X73025210Y-55784000D01*
X72579000Y-56230210D01*
X72579000Y-56788000D01*
X72071000Y-56788000D01*
X72071000Y-56280211D01*
X72070999Y-56280210D01*
X71574790Y-55784000D01*
X70589918Y-55784000D01*
X70250500Y-55784000D01*
X70250500Y-55275999D01*
X70592622Y-55275999D01*
X70592623Y-55276000D01*
X71614789Y-55276000D01*
X71700002Y-55190787D01*
X72070999Y-54819789D01*
X72071000Y-54819789D01*
X72071000Y-54272000D01*
X72579000Y-54272000D01*
X72579000Y-54869789D01*
X72899997Y-55190787D01*
X72900001Y-55190790D01*
X72985210Y-55276000D01*
X74060082Y-55276000D01*
X74060082Y-55275999D01*
X74692622Y-55275999D01*
X74692623Y-55276000D01*
X76071000Y-55276000D01*
X76071000Y-54272000D01*
X75868503Y-54272000D01*
X75699464Y-54287213D01*
X75481184Y-54347456D01*
X75277165Y-54445705D01*
X75093967Y-54578806D01*
X74937479Y-54742479D01*
X74812734Y-54931460D01*
X74723735Y-55139685D01*
X74692622Y-55275999D01*
X74060082Y-55275999D01*
X74056415Y-55248934D01*
X73986442Y-55033578D01*
X73879136Y-54834170D01*
X73737948Y-54657126D01*
X73567424Y-54508144D01*
X73373031Y-54392000D01*
X73161024Y-54312432D01*
X72938223Y-54272000D01*
X72579000Y-54272000D01*
X72071000Y-54272000D01*
X71768503Y-54272000D01*
X71599464Y-54287213D01*
X71381184Y-54347456D01*
X71177165Y-54445705D01*
X70993967Y-54578806D01*
X70837479Y-54742479D01*
X70712734Y-54931460D01*
X70623735Y-55139685D01*
X70592622Y-55275999D01*
X70250500Y-55275999D01*
X70250500Y-49045084D01*
X70250573Y-49040810D01*
X70285146Y-48022226D01*
X70303407Y-47961048D01*
X70349311Y-47916675D01*
X70411073Y-47900500D01*
X86011546Y-47900500D01*
X86074598Y-47917411D01*
G37*
%TD.AperFunction*%
%TD*%
M02*
