M48
; DRILL file {KiCad 7.0.1} date Fri Apr 28 10:49:31 2023
; FORMAT={-:-/ absolute / inch / decimal}
; #@! TF.CreationDate,2023-04-28T10:49:31+02:00
; #@! TF.GenerationSoftware,Kicad,Pcbnew,7.0.1
; #@! TF.FileFunction,MixedPlating,1,2
FMAT,2
INCH
; #@! TA.AperFunction,Plated,PTH,ComponentDrill
T1C0.0004
; #@! TA.AperFunction,Plated,PTH,ComponentDrill
T2C0.0039
; #@! TA.AperFunction,Plated,PTH,ViaDrill
T3C0.0157
; #@! TA.AperFunction,Plated,PTH,ViaDrill
T4C0.0236
; #@! TA.AperFunction,Plated,PTH,ComponentDrill
T5C0.0236
; #@! TA.AperFunction,Plated,PTH,ComponentDrill
T6C0.0315
; #@! TA.AperFunction,NonPlated,NPTH,ComponentDrill
T7C0.0866
%
G90
G05
T1
X2.8474Y-2.5264
T2
X2.8474Y-2.1862
X3.0039Y-2.5264
X3.0049Y-2.1862
T3
X3.9291Y-1.9803
T4
X2.8484Y-2.0748
X2.8976Y-2.6142
X3.0906Y-2.2894
X3.1004Y-2.0098
X3.2756Y-2.437
X3.3425Y-2.7894
X3.4882Y-2.6358
X3.815Y-2.7323
X3.874Y-2.4469
X3.878Y-2.5354
X3.9606Y-2.7618
X4.1122Y-2.565
X4.1201Y-1.9902
X4.4409Y-2.7165
X4.4606Y-1.9902
T5
X4.3917Y-2.563
X4.4232Y-2.563
X4.5295Y-2.1693
X4.561Y-2.1693
X4.7185Y-2.3425
X4.7185Y-2.374
T6
X2.8228Y-2.187
X2.828Y-2.5264
X2.8669Y-2.5264
X2.8701Y-2.187
X2.9843Y-2.187
X2.9882Y-2.5256
X3.0209Y-2.1862
X3.0236Y-2.5256
T7
X4.0709Y-2.3602
X4.6614Y-2.0039
X4.6614Y-2.7146
T0
M30
