M48
; DRILL file {KiCad 7.0.2} date Tue May 30 14:50:08 2023
; FORMAT={-:-/ absolute / inch / decimal}
; #@! TF.CreationDate,2023-05-30T14:50:08+02:00
; #@! TF.GenerationSoftware,Kicad,Pcbnew,7.0.2
; #@! TF.FileFunction,MixedPlating,1,2
FMAT,2
INCH
; #@! TA.AperFunction,Plated,PTH,ViaDrill
T1C0.0079
; #@! TA.AperFunction,Plated,PTH,ViaDrill
T2C0.0118
; #@! TA.AperFunction,Plated,PTH,ComponentDrill
T3C0.0197
; #@! TA.AperFunction,Plated,PTH,ComponentDrill
T4C0.0236
; #@! TA.AperFunction,NonPlated,NPTH,ComponentDrill
T5C0.0197
; #@! TA.AperFunction,NonPlated,NPTH,ComponentDrill
T6C0.0866
%
G90
G05
T1
X3.06Y-1.5079
X3.06Y-2.5315
X3.062Y-1.6673
X3.062Y-2.6909
X3.0837Y-1.5571
X3.0837Y-2.5807
X3.1348Y-1.5571
X3.1348Y-2.5807
X5.1526Y-1.5079
X5.1526Y-2.5315
X5.1545Y-1.6673
X5.1545Y-2.6909
X5.1762Y-1.5571
X5.1762Y-2.5807
X5.2274Y-1.5571
X5.2274Y-2.5807
X7.2451Y-1.5079
X7.2451Y-2.5315
X7.247Y-1.6673
X7.247Y-2.6909
X7.2687Y-1.5571
X7.2687Y-2.5807
X7.3199Y-1.5571
X7.3199Y-2.5807
T2
X2.8533Y-1.8051
X2.8533Y-2.8287
X2.8868Y-1.8051
X2.8868Y-2.8287
X2.8967Y-1.3386
X2.8967Y-2.3622
X2.9341Y-1.3386
X2.9341Y-2.3622
X3.06Y-1.2264
X3.06Y-2.25
X3.0935Y-1.2992
X3.0935Y-2.3228
X3.2569Y-1.6535
X3.2569Y-2.6772
X3.3219Y-2.002
X3.3219Y-3.0256
X3.4596Y-1.8425
X3.4596Y-2.8661
X3.5719Y-1.1654
X3.5719Y-2.189
X3.6014Y-1.7244
X3.6014Y-2.748
X3.7963Y-1.9488
X3.7963Y-2.9724
X3.8553Y-1.6634
X3.8553Y-2.687
X3.8652Y-1.7579
X3.8652Y-2.7815
X3.9124Y-1.1988
X3.9124Y-2.2224
X3.9419Y-1.9783
X3.9419Y-3.002
X4.0679Y-1.7815
X4.0679Y-2.8051
X4.1093Y-1.1614
X4.1093Y-2.185
X4.188Y-1.4665
X4.188Y-1.7815
X4.188Y-2.4902
X4.188Y-2.8051
X4.2648Y-1.6516
X4.2648Y-2.6752
X4.4026Y-1.9252
X4.4026Y-2.9488
X4.5148Y-1.5807
X4.5148Y-2.6043
X4.9459Y-1.8051
X4.9459Y-2.8287
X4.9793Y-1.8051
X4.9793Y-2.8287
X4.9892Y-1.3386
X4.9892Y-2.3622
X5.0266Y-1.3386
X5.0266Y-2.3622
X5.1526Y-1.2264
X5.1526Y-2.25
X5.186Y-1.2992
X5.186Y-2.3228
X5.3494Y-1.6535
X5.3494Y-2.6772
X5.4144Y-2.002
X5.4144Y-3.0256
X5.5522Y-1.8425
X5.5522Y-2.8661
X5.6644Y-1.1654
X5.6644Y-2.189
X5.6939Y-1.7244
X5.6939Y-2.748
X5.8888Y-1.9488
X5.8888Y-2.9724
X5.9478Y-1.6634
X5.9478Y-2.687
X5.9577Y-1.7579
X5.9577Y-2.7815
X6.0049Y-1.1988
X6.0049Y-2.2224
X6.0344Y-1.9783
X6.0344Y-3.002
X6.1604Y-1.7815
X6.1604Y-2.8051
X6.2018Y-1.1614
X6.2018Y-2.185
X6.2805Y-1.4665
X6.2805Y-1.7815
X6.2805Y-2.4902
X6.2805Y-2.8051
X6.3573Y-1.6516
X6.3573Y-2.6752
X6.4951Y-1.9252
X6.4951Y-2.9488
X6.6073Y-1.5807
X6.6073Y-2.6043
X7.0384Y-1.8051
X7.0384Y-2.8287
X7.0719Y-1.8051
X7.0719Y-2.8287
X7.0817Y-1.3386
X7.0817Y-2.3622
X7.1191Y-1.3386
X7.1191Y-2.3622
X7.2451Y-1.2264
X7.2451Y-2.25
X7.2785Y-1.2992
X7.2785Y-2.3228
X7.4419Y-1.6535
X7.4419Y-2.6772
X7.5069Y-2.002
X7.5069Y-3.0256
X7.6447Y-1.8425
X7.6447Y-2.8661
X7.7569Y-1.1654
X7.7569Y-2.189
X7.7864Y-1.7244
X7.7864Y-2.748
X7.9813Y-1.9488
X7.9813Y-2.9724
X8.0404Y-1.6634
X8.0404Y-2.687
X8.0502Y-1.7579
X8.0502Y-2.7815
X8.0974Y-1.1988
X8.0974Y-2.2224
X8.127Y-1.9783
X8.127Y-3.002
X8.253Y-1.7815
X8.253Y-2.8051
X8.2943Y-1.1614
X8.2943Y-2.185
X8.373Y-1.4665
X8.373Y-1.7815
X8.373Y-2.4902
X8.373Y-2.8051
X8.4498Y-1.6516
X8.4498Y-2.6752
X8.5876Y-1.9252
X8.5876Y-2.9488
X8.6998Y-1.5807
X8.6998Y-2.6043
T5
X2.4461Y-1.1024
X2.4461Y-3.0709
X2.4799Y-1.1024
X2.4799Y-3.0709
X2.5136Y-1.1024
X2.5136Y-3.0709
X2.5474Y-1.1024
X2.5474Y-3.0709
X2.5811Y-1.1024
X2.5811Y-3.0709
X2.6149Y-1.1024
X2.6149Y-3.0709
X2.747Y-0.8015
X2.747Y-0.8352
X2.747Y-0.869
X2.747Y-0.9027
X2.747Y-0.9364
X2.747Y-0.9702
X2.747Y-1.3386
X2.747Y-1.3701
X2.747Y-1.4016
X2.747Y-1.4331
X2.747Y-1.4646
X2.747Y-1.4961
X2.747Y-1.6535
X2.747Y-1.685
X2.747Y-1.7165
X2.747Y-1.748
X2.747Y-1.7795
X2.747Y-1.811
X2.747Y-2.3622
X2.747Y-2.3937
X2.747Y-2.4252
X2.747Y-2.4567
X2.747Y-2.4882
X2.747Y-2.5197
X2.747Y-2.6772
X2.747Y-2.7087
X2.747Y-2.7402
X2.747Y-2.7717
X2.747Y-2.8031
X2.747Y-2.8346
X2.747Y-3.203
X2.747Y-3.2368
X2.747Y-3.2705
X2.747Y-3.3043
X2.747Y-3.338
X2.747Y-3.3718
X3.0711Y-1.1024
X3.0711Y-2.0472
X3.0711Y-2.126
X3.0711Y-3.0709
X3.1026Y-1.1024
X3.1026Y-2.0472
X3.1026Y-2.126
X3.1026Y-3.0709
X3.1341Y-1.1024
X3.1341Y-2.0472
X3.1341Y-2.126
X3.1341Y-3.0709
X3.1656Y-1.1024
X3.1656Y-2.0472
X3.1656Y-2.126
X3.1656Y-3.0709
X3.197Y-1.1024
X3.197Y-2.0472
X3.197Y-2.126
X3.197Y-3.0709
X3.2285Y-1.1024
X3.2285Y-2.0472
X3.2285Y-2.126
X3.2285Y-3.0709
X3.4738Y-1.1024
X3.4738Y-2.0472
X3.4738Y-2.126
X3.4738Y-3.0709
X3.5053Y-1.1024
X3.5053Y-2.0472
X3.5053Y-2.126
X3.5053Y-3.0709
X3.5368Y-1.1024
X3.5368Y-2.0472
X3.5368Y-2.126
X3.5368Y-3.0709
X3.5683Y-1.1024
X3.5683Y-2.0472
X3.5683Y-2.126
X3.5683Y-3.0709
X3.5998Y-1.1024
X3.5998Y-2.0472
X3.5998Y-2.126
X3.5998Y-3.0709
X3.6313Y-1.1024
X3.6313Y-2.0472
X3.6313Y-2.126
X3.6313Y-3.0709
X3.8766Y-1.1024
X3.8766Y-2.0472
X3.8766Y-2.126
X3.8766Y-3.0709
X3.9081Y-1.1024
X3.9081Y-2.0472
X3.9081Y-2.126
X3.9081Y-3.0709
X3.9396Y-1.1024
X3.9396Y-2.0472
X3.9396Y-2.126
X3.9396Y-3.0709
X3.9711Y-1.1024
X3.9711Y-2.0472
X3.9711Y-2.126
X3.9711Y-3.0709
X4.0026Y-1.1024
X4.0026Y-2.0472
X4.0026Y-2.126
X4.0026Y-3.0709
X4.0341Y-1.1024
X4.0341Y-2.0472
X4.0341Y-2.126
X4.0341Y-3.0709
X4.2793Y-1.1024
X4.2793Y-2.0472
X4.2793Y-2.126
X4.2793Y-3.0709
X4.3108Y-1.1024
X4.3108Y-2.0472
X4.3108Y-2.126
X4.3108Y-3.0709
X4.3423Y-1.1024
X4.3423Y-2.0472
X4.3423Y-2.126
X4.3423Y-3.0709
X4.3738Y-1.1024
X4.3738Y-2.0472
X4.3738Y-2.126
X4.3738Y-3.0709
X4.4053Y-1.1024
X4.4053Y-2.0472
X4.4053Y-2.126
X4.4053Y-3.0709
X4.4368Y-1.1024
X4.4368Y-2.0472
X4.4368Y-2.126
X4.4368Y-3.0709
X4.7608Y-1.3386
X4.7608Y-1.3701
X4.7608Y-1.4016
X4.7608Y-1.4331
X4.7608Y-1.4646
X4.7608Y-1.4961
X4.7608Y-1.6535
X4.7608Y-1.685
X4.7608Y-1.7165
X4.7608Y-1.748
X4.7608Y-1.7795
X4.7608Y-1.811
X4.7608Y-2.3622
X4.7608Y-2.3937
X4.7608Y-2.4252
X4.7608Y-2.4567
X4.7608Y-2.4882
X4.7608Y-2.5197
X4.7608Y-2.6772
X4.7608Y-2.7087
X4.7608Y-2.7402
X4.7608Y-2.7717
X4.7608Y-2.8031
X4.7608Y-2.8346
X4.8396Y-1.3386
X4.8396Y-1.3701
X4.8396Y-1.4016
X4.8396Y-1.4331
X4.8396Y-1.4646
X4.8396Y-1.4961
X4.8396Y-1.6535
X4.8396Y-1.685
X4.8396Y-1.7165
X4.8396Y-1.748
X4.8396Y-1.7795
X4.8396Y-1.811
X4.8396Y-2.3622
X4.8396Y-2.3937
X4.8396Y-2.4252
X4.8396Y-2.4567
X4.8396Y-2.4882
X4.8396Y-2.5197
X4.8396Y-2.6772
X4.8396Y-2.7087
X4.8396Y-2.7402
X4.8396Y-2.7717
X4.8396Y-2.8031
X4.8396Y-2.8346
X5.1636Y-1.1024
X5.1636Y-2.0472
X5.1636Y-2.126
X5.1636Y-3.0709
X5.1951Y-1.1024
X5.1951Y-2.0472
X5.1951Y-2.126
X5.1951Y-3.0709
X5.2266Y-1.1024
X5.2266Y-2.0472
X5.2266Y-2.126
X5.2266Y-3.0709
X5.2581Y-1.1024
X5.2581Y-2.0472
X5.2581Y-2.126
X5.2581Y-3.0709
X5.2896Y-1.1024
X5.2896Y-2.0472
X5.2896Y-2.126
X5.2896Y-3.0709
X5.3211Y-1.1024
X5.3211Y-2.0472
X5.3211Y-2.126
X5.3211Y-3.0709
X5.5663Y-1.1024
X5.5663Y-2.0472
X5.5663Y-2.126
X5.5663Y-3.0709
X5.5978Y-1.1024
X5.5978Y-2.0472
X5.5978Y-2.126
X5.5978Y-3.0709
X5.6293Y-1.1024
X5.6293Y-2.0472
X5.6293Y-2.126
X5.6293Y-3.0709
X5.6608Y-1.1024
X5.6608Y-2.0472
X5.6608Y-2.126
X5.6608Y-3.0709
X5.6923Y-1.1024
X5.6923Y-2.0472
X5.6923Y-2.126
X5.6923Y-3.0709
X5.7238Y-1.1024
X5.7238Y-2.0472
X5.7238Y-2.126
X5.7238Y-3.0709
X5.9691Y-1.1024
X5.9691Y-2.0472
X5.9691Y-2.126
X5.9691Y-3.0709
X6.0006Y-1.1024
X6.0006Y-2.0472
X6.0006Y-2.126
X6.0006Y-3.0709
X6.0321Y-1.1024
X6.0321Y-2.0472
X6.0321Y-2.126
X6.0321Y-3.0709
X6.0636Y-1.1024
X6.0636Y-2.0472
X6.0636Y-2.126
X6.0636Y-3.0709
X6.0951Y-1.1024
X6.0951Y-2.0472
X6.0951Y-2.126
X6.0951Y-3.0709
X6.1266Y-1.1024
X6.1266Y-2.0472
X6.1266Y-2.126
X6.1266Y-3.0709
X6.3719Y-1.1024
X6.3719Y-2.0472
X6.3719Y-2.126
X6.3719Y-3.0709
X6.4033Y-1.1024
X6.4033Y-2.0472
X6.4033Y-2.126
X6.4033Y-3.0709
X6.4348Y-1.1024
X6.4348Y-2.0472
X6.4348Y-2.126
X6.4348Y-3.0709
X6.4663Y-1.1024
X6.4663Y-2.0472
X6.4663Y-2.126
X6.4663Y-3.0709
X6.4978Y-1.1024
X6.4978Y-2.0472
X6.4978Y-2.126
X6.4978Y-3.0709
X6.5293Y-1.1024
X6.5293Y-2.0472
X6.5293Y-2.126
X6.5293Y-3.0709
X6.8533Y-1.3386
X6.8533Y-1.3701
X6.8533Y-1.4016
X6.8533Y-1.4331
X6.8533Y-1.4646
X6.8533Y-1.4961
X6.8533Y-1.6535
X6.8533Y-1.685
X6.8533Y-1.7165
X6.8533Y-1.748
X6.8533Y-1.7795
X6.8533Y-1.811
X6.8533Y-2.3622
X6.8533Y-2.3937
X6.8533Y-2.4252
X6.8533Y-2.4567
X6.8533Y-2.4882
X6.8533Y-2.5197
X6.8533Y-2.6772
X6.8533Y-2.7087
X6.8533Y-2.7402
X6.8533Y-2.7717
X6.8533Y-2.8031
X6.8533Y-2.8346
X6.9321Y-1.3386
X6.9321Y-1.3701
X6.9321Y-1.4016
X6.9321Y-1.4331
X6.9321Y-1.4646
X6.9321Y-1.4961
X6.9321Y-1.6535
X6.9321Y-1.685
X6.9321Y-1.7165
X6.9321Y-1.748
X6.9321Y-1.7795
X6.9321Y-1.811
X6.9321Y-2.3622
X6.9321Y-2.3937
X6.9321Y-2.4252
X6.9321Y-2.4567
X6.9321Y-2.4882
X6.9321Y-2.5197
X6.9321Y-2.6772
X6.9321Y-2.7087
X6.9321Y-2.7402
X6.9321Y-2.7717
X6.9321Y-2.8031
X6.9321Y-2.8346
X7.2561Y-1.1024
X7.2561Y-2.0472
X7.2561Y-2.126
X7.2561Y-3.0709
X7.2876Y-1.1024
X7.2876Y-2.0472
X7.2876Y-2.126
X7.2876Y-3.0709
X7.3191Y-1.1024
X7.3191Y-2.0472
X7.3191Y-2.126
X7.3191Y-3.0709
X7.3506Y-1.1024
X7.3506Y-2.0472
X7.3506Y-2.126
X7.3506Y-3.0709
X7.3821Y-1.1024
X7.3821Y-2.0472
X7.3821Y-2.126
X7.3821Y-3.0709
X7.4136Y-1.1024
X7.4136Y-2.0472
X7.4136Y-2.126
X7.4136Y-3.0709
X7.6589Y-1.1024
X7.6589Y-2.0472
X7.6589Y-2.126
X7.6589Y-3.0709
X7.6904Y-1.1024
X7.6904Y-2.0472
X7.6904Y-2.126
X7.6904Y-3.0709
X7.7219Y-1.1024
X7.7219Y-2.0472
X7.7219Y-2.126
X7.7219Y-3.0709
X7.7533Y-1.1024
X7.7533Y-2.0472
X7.7533Y-2.126
X7.7533Y-3.0709
X7.7848Y-1.1024
X7.7848Y-2.0472
X7.7848Y-2.126
X7.7848Y-3.0709
X7.8163Y-1.1024
X7.8163Y-2.0472
X7.8163Y-2.126
X7.8163Y-3.0709
X8.0616Y-1.1024
X8.0616Y-2.0472
X8.0616Y-2.126
X8.0616Y-3.0709
X8.0931Y-1.1024
X8.0931Y-2.0472
X8.0931Y-2.126
X8.0931Y-3.0709
X8.1246Y-1.1024
X8.1246Y-2.0472
X8.1246Y-2.126
X8.1246Y-3.0709
X8.1561Y-1.1024
X8.1561Y-2.0472
X8.1561Y-2.126
X8.1561Y-3.0709
X8.1876Y-1.1024
X8.1876Y-2.0472
X8.1876Y-2.126
X8.1876Y-3.0709
X8.2191Y-1.1024
X8.2191Y-2.0472
X8.2191Y-2.126
X8.2191Y-3.0709
X8.4644Y-1.1024
X8.4644Y-2.0472
X8.4644Y-2.126
X8.4644Y-3.0709
X8.4959Y-1.1024
X8.4959Y-2.0472
X8.4959Y-2.126
X8.4959Y-3.0709
X8.5274Y-1.1024
X8.5274Y-2.0472
X8.5274Y-2.126
X8.5274Y-3.0709
X8.5589Y-1.1024
X8.5589Y-2.0472
X8.5589Y-2.126
X8.5589Y-3.0709
X8.5904Y-1.1024
X8.5904Y-2.0472
X8.5904Y-2.126
X8.5904Y-3.0709
X8.6219Y-1.1024
X8.6219Y-2.0472
X8.6219Y-2.126
X8.6219Y-3.0709
X8.9459Y-0.8015
X8.9459Y-0.8352
X8.9459Y-0.869
X8.9459Y-0.9027
X8.9459Y-0.9364
X8.9459Y-0.9702
X8.9459Y-1.3386
X8.9459Y-1.3701
X8.9459Y-1.4016
X8.9459Y-1.4331
X8.9459Y-1.4646
X8.9459Y-1.4961
X8.9459Y-1.6535
X8.9459Y-1.685
X8.9459Y-1.7165
X8.9459Y-1.748
X8.9459Y-1.7795
X8.9459Y-1.811
X8.9459Y-2.3622
X8.9459Y-2.3937
X8.9459Y-2.4252
X8.9459Y-2.4567
X8.9459Y-2.4882
X8.9459Y-2.5197
X8.9459Y-2.6772
X8.9459Y-2.7087
X8.9459Y-2.7402
X8.9459Y-2.7717
X8.9459Y-2.8031
X8.9459Y-2.8346
X8.9459Y-3.203
X8.9459Y-3.2368
X8.9459Y-3.2705
X8.9459Y-3.3043
X8.9459Y-3.338
X8.9459Y-3.3718
X9.078Y-1.1024
X9.078Y-3.0709
X9.1118Y-1.1024
X9.1118Y-3.0709
X9.1455Y-1.1024
X9.1455Y-3.0709
X9.1793Y-1.1024
X9.1793Y-3.0709
X9.213Y-1.1024
X9.213Y-3.0709
X9.2468Y-1.1024
X9.2468Y-3.0709
T6
X4.0522Y-1.5768
X4.0522Y-2.6004
X4.6427Y-1.2205
X4.6427Y-1.9311
X4.6427Y-2.2441
X4.6427Y-2.9547
X6.1447Y-1.5768
X6.1447Y-2.6004
X6.7352Y-1.2205
X6.7352Y-1.9311
X6.7352Y-2.2441
X6.7352Y-2.9547
X8.2372Y-1.5768
X8.2372Y-2.6004
X8.8278Y-1.2205
X8.8278Y-1.9311
X8.8278Y-2.2441
X8.8278Y-2.9547
T3
G00X4.4085Y-1.7795
M15
G01X4.3691Y-1.7795
M16
G05
G00X4.4085Y-2.8031
M15
G01X4.3691Y-2.8031
M16
G05
G00X4.5463Y-1.3858
M15
G01X4.5069Y-1.3858
M16
G05
G00X4.5463Y-2.4094
M15
G01X4.5069Y-2.4094
M16
G05
G00X4.6998Y-1.5945
M15
G01X4.6998Y-1.5551
M16
G05
G00X4.6998Y-2.6181
M15
G01X4.6998Y-2.5787
M16
G05
G00X6.501Y-1.7795
M15
G01X6.4616Y-1.7795
M16
G05
G00X6.501Y-2.8031
M15
G01X6.4616Y-2.8031
M16
G05
G00X6.6388Y-1.3858
M15
G01X6.5994Y-1.3858
M16
G05
G00X6.6388Y-2.4094
M15
G01X6.5994Y-2.4094
M16
G05
G00X6.7923Y-1.5945
M15
G01X6.7923Y-1.5551
M16
G05
G00X6.7923Y-2.6181
M15
G01X6.7923Y-2.5787
M16
G05
G00X8.5935Y-1.7795
M15
G01X8.5541Y-1.7795
M16
G05
G00X8.5935Y-2.8031
M15
G01X8.5541Y-2.8031
M16
G05
G00X8.7313Y-1.3858
M15
G01X8.6919Y-1.3858
M16
G05
G00X8.7313Y-2.4094
M15
G01X8.6919Y-2.4094
M16
G05
G00X8.8848Y-1.5945
M15
G01X8.8848Y-1.5551
M16
G05
G00X8.8848Y-2.6181
M15
G01X8.8848Y-2.5787
M16
G05
T4
G00X2.8514Y-1.4028
M15
G01X2.8041Y-1.4028
M16
G05
G00X2.8514Y-1.7429
M15
G01X2.8041Y-1.7429
M16
G05
G00X2.8514Y-2.4264
M15
G01X2.8041Y-2.4264
M16
G05
G00X2.8514Y-2.7665
M15
G01X2.8041Y-2.7665
M16
G05
G00X3.001Y-1.4028
M15
G01X2.9695Y-1.4028
M16
G05
G00X3.001Y-1.7429
M15
G01X2.9695Y-1.7429
M16
G05
G00X3.001Y-2.4264
M15
G01X2.9695Y-2.4264
M16
G05
G00X3.001Y-2.7665
M15
G01X2.9695Y-2.7665
M16
G05
G00X4.9439Y-1.4028
M15
G01X4.8967Y-1.4028
M16
G05
G00X4.9439Y-1.7429
M15
G01X4.8967Y-1.7429
M16
G05
G00X4.9439Y-2.4264
M15
G01X4.8967Y-2.4264
M16
G05
G00X4.9439Y-2.7665
M15
G01X4.8967Y-2.7665
M16
G05
G00X5.0935Y-1.4028
M15
G01X5.062Y-1.4028
M16
G05
G00X5.0935Y-1.7429
M15
G01X5.062Y-1.7429
M16
G05
G00X5.0935Y-2.4264
M15
G01X5.062Y-2.4264
M16
G05
G00X5.0935Y-2.7665
M15
G01X5.062Y-2.7665
M16
G05
G00X7.0364Y-1.4028
M15
G01X6.9892Y-1.4028
M16
G05
G00X7.0364Y-1.7429
M15
G01X6.9892Y-1.7429
M16
G05
G00X7.0364Y-2.4264
M15
G01X6.9892Y-2.4264
M16
G05
G00X7.0364Y-2.7665
M15
G01X6.9892Y-2.7665
M16
G05
G00X7.186Y-1.4028
M15
G01X7.1545Y-1.4028
M16
G05
G00X7.186Y-1.7429
M15
G01X7.1545Y-1.7429
M16
G05
G00X7.186Y-2.4264
M15
G01X7.1545Y-2.4264
M16
G05
G00X7.186Y-2.7665
M15
G01X7.1545Y-2.7665
M16
G05
T0
M30
