M48
; DRILL file {KiCad 7.0.2} date Thu Jun 29 11:18:30 2023
; FORMAT={-:-/ absolute / inch / decimal}
; #@! TF.CreationDate,2023-06-29T11:18:30+02:00
; #@! TF.GenerationSoftware,Kicad,Pcbnew,7.0.2
; #@! TF.FileFunction,NonPlated,1,2,NPTH
FMAT,2
INCH
; #@! TA.AperFunction,NonPlated,NPTH,ComponentDrill
T1C0.0197
; #@! TA.AperFunction,NonPlated,NPTH,ComponentDrill
T2C0.0866
%
G90
G05
T1
X0.3536Y-1.1024
X0.3536Y-7.1654
X0.3874Y-1.1024
X0.3874Y-7.1654
X0.4211Y-1.1024
X0.4211Y-7.1654
X0.4549Y-1.1024
X0.4549Y-7.1654
X0.4886Y-1.1024
X0.4886Y-7.1654
X0.5224Y-1.1024
X0.5224Y-7.1654
X0.6545Y-0.8015
X0.6545Y-0.8352
X0.6545Y-0.869
X0.6545Y-0.9027
X0.6545Y-0.9364
X0.6545Y-0.9702
X0.6545Y-7.2975
X0.6545Y-7.3313
X0.6545Y-7.365
X0.6545Y-7.3988
X0.6545Y-7.4325
X0.6545Y-7.4663
X0.6644Y-1.1378
X0.6644Y-1.1693
X0.6644Y-1.2008
X0.6644Y-1.2323
X0.6644Y-1.2638
X0.6644Y-1.2953
X0.6644Y-1.8602
X0.6644Y-1.8917
X0.6644Y-1.9232
X0.6644Y-1.9547
X0.6644Y-1.9862
X0.6644Y-2.0177
X0.6644Y-2.1614
X0.6644Y-2.1929
X0.6644Y-2.2244
X0.6644Y-2.2559
X0.6644Y-2.2874
X0.6644Y-2.3189
X0.6644Y-2.8839
X0.6644Y-2.9154
X0.6644Y-2.9469
X0.6644Y-2.9783
X0.6644Y-3.0098
X0.6644Y-3.0413
X0.6644Y-3.185
X0.6644Y-3.2165
X0.6644Y-3.248
X0.6644Y-3.2795
X0.6644Y-3.311
X0.6644Y-3.3425
X0.6644Y-3.9075
X0.6644Y-3.939
X0.6644Y-3.9705
X0.6644Y-4.002
X0.6644Y-4.0335
X0.6644Y-4.065
X0.6644Y-4.2087
X0.6644Y-4.2402
X0.6644Y-4.2717
X0.6644Y-4.3031
X0.6644Y-4.3346
X0.6644Y-4.3661
X0.6644Y-4.9311
X0.6644Y-4.9626
X0.6644Y-4.9941
X0.6644Y-5.0256
X0.6644Y-5.0571
X0.6644Y-5.0886
X0.6644Y-5.2323
X0.6644Y-5.2638
X0.6644Y-5.2953
X0.6644Y-5.3268
X0.6644Y-5.3583
X0.6644Y-5.3898
X0.6644Y-5.9547
X0.6644Y-5.9862
X0.6644Y-6.0177
X0.6644Y-6.0492
X0.6644Y-6.0807
X0.6644Y-6.1122
X0.6644Y-6.2559
X0.6644Y-6.2874
X0.6644Y-6.3189
X0.6644Y-6.3504
X0.6644Y-6.3819
X0.6644Y-6.4134
X0.6644Y-6.9783
X0.6644Y-7.0098
X0.6644Y-7.0413
X0.6644Y-7.0728
X0.6644Y-7.1043
X0.6644Y-7.1358
X1.2215Y-1.1122
X1.2215Y-2.1358
X1.2215Y-3.1594
X1.2215Y-4.1831
X1.2215Y-5.2067
X1.2215Y-6.2303
X1.2234Y-2.0374
X1.2234Y-3.061
X1.2234Y-4.0846
X1.2234Y-5.1083
X1.2234Y-6.1319
X1.2234Y-7.1555
X1.253Y-1.1122
X1.253Y-2.1358
X1.253Y-3.1594
X1.253Y-4.1831
X1.253Y-5.2067
X1.253Y-6.2303
X1.2549Y-2.0374
X1.2549Y-3.061
X1.2549Y-4.0846
X1.2549Y-5.1083
X1.2549Y-6.1319
X1.2549Y-7.1555
X1.2844Y-1.1122
X1.2844Y-2.1358
X1.2844Y-3.1594
X1.2844Y-4.1831
X1.2844Y-5.2067
X1.2844Y-6.2303
X1.2864Y-2.0374
X1.2864Y-3.061
X1.2864Y-4.0846
X1.2864Y-5.1083
X1.2864Y-6.1319
X1.2864Y-7.1555
X1.3159Y-1.1122
X1.3159Y-2.1358
X1.3159Y-3.1594
X1.3159Y-4.1831
X1.3159Y-5.2067
X1.3159Y-6.2303
X1.3179Y-2.0374
X1.3179Y-3.061
X1.3179Y-4.0846
X1.3179Y-5.1083
X1.3179Y-6.1319
X1.3179Y-7.1555
X1.3474Y-1.1122
X1.3474Y-2.1358
X1.3474Y-3.1594
X1.3474Y-4.1831
X1.3474Y-5.2067
X1.3474Y-6.2303
X1.3494Y-2.0374
X1.3494Y-3.061
X1.3494Y-4.0846
X1.3494Y-5.1083
X1.3494Y-6.1319
X1.3494Y-7.1555
X1.3789Y-1.1122
X1.3789Y-2.1358
X1.3789Y-3.1594
X1.3789Y-4.1831
X1.3789Y-5.2067
X1.3789Y-6.2303
X1.3809Y-2.0374
X1.3809Y-3.061
X1.3809Y-4.0846
X1.3809Y-5.1083
X1.3809Y-6.1319
X1.3809Y-7.1555
X2.2333Y-1.1122
X2.2333Y-2.1358
X2.2333Y-3.1594
X2.2333Y-4.1831
X2.2333Y-5.2067
X2.2333Y-6.2303
X2.2352Y-2.0374
X2.2352Y-3.061
X2.2352Y-4.0846
X2.2352Y-5.1083
X2.2352Y-6.1319
X2.2352Y-7.1555
X2.2648Y-1.1122
X2.2648Y-2.1358
X2.2648Y-3.1594
X2.2648Y-4.1831
X2.2648Y-5.2067
X2.2648Y-6.2303
X2.2667Y-2.0374
X2.2667Y-3.061
X2.2667Y-4.0846
X2.2667Y-5.1083
X2.2667Y-6.1319
X2.2667Y-7.1555
X2.2963Y-1.1122
X2.2963Y-2.1358
X2.2963Y-3.1594
X2.2963Y-4.1831
X2.2963Y-5.2067
X2.2963Y-6.2303
X2.2982Y-2.0374
X2.2982Y-3.061
X2.2982Y-4.0846
X2.2982Y-5.1083
X2.2982Y-6.1319
X2.2982Y-7.1555
X2.3278Y-1.1122
X2.3278Y-2.1358
X2.3278Y-3.1594
X2.3278Y-4.1831
X2.3278Y-5.2067
X2.3278Y-6.2303
X2.3297Y-2.0374
X2.3297Y-3.061
X2.3297Y-4.0846
X2.3297Y-5.1083
X2.3297Y-6.1319
X2.3297Y-7.1555
X2.3593Y-1.1122
X2.3593Y-2.1358
X2.3593Y-3.1594
X2.3593Y-4.1831
X2.3593Y-5.2067
X2.3593Y-6.2303
X2.3612Y-2.0374
X2.3612Y-3.061
X2.3612Y-4.0846
X2.3612Y-5.1083
X2.3612Y-6.1319
X2.3612Y-7.1555
X2.3907Y-1.1122
X2.3907Y-2.1358
X2.3907Y-3.1594
X2.3907Y-4.1831
X2.3907Y-5.2067
X2.3907Y-6.2303
X2.3927Y-2.0374
X2.3927Y-3.061
X2.3927Y-4.0846
X2.3927Y-5.1083
X2.3927Y-6.1319
X2.3927Y-7.1555
X2.6585Y-1.1378
X2.6585Y-1.1693
X2.6585Y-1.2008
X2.6585Y-1.2323
X2.6585Y-1.2638
X2.6585Y-1.2953
X2.6585Y-1.8602
X2.6585Y-1.8917
X2.6585Y-1.9232
X2.6585Y-1.9547
X2.6585Y-1.9862
X2.6585Y-2.0177
X2.6585Y-2.1614
X2.6585Y-2.1929
X2.6585Y-2.2244
X2.6585Y-2.2559
X2.6585Y-2.2874
X2.6585Y-2.3189
X2.6585Y-2.8839
X2.6585Y-2.9154
X2.6585Y-2.9469
X2.6585Y-2.9783
X2.6585Y-3.0098
X2.6585Y-3.0413
X2.6585Y-3.185
X2.6585Y-3.2165
X2.6585Y-3.248
X2.6585Y-3.2795
X2.6585Y-3.311
X2.6585Y-3.3425
X2.6585Y-3.9075
X2.6585Y-3.939
X2.6585Y-3.9705
X2.6585Y-4.002
X2.6585Y-4.0335
X2.6585Y-4.065
X2.6585Y-4.2087
X2.6585Y-4.2402
X2.6585Y-4.2717
X2.6585Y-4.3031
X2.6585Y-4.3346
X2.6585Y-4.3661
X2.6585Y-4.9311
X2.6585Y-4.9626
X2.6585Y-4.9941
X2.6585Y-5.0256
X2.6585Y-5.0571
X2.6585Y-5.0886
X2.6585Y-5.2323
X2.6585Y-5.2638
X2.6585Y-5.2953
X2.6585Y-5.3268
X2.6585Y-5.3583
X2.6585Y-5.3898
X2.6585Y-5.9547
X2.6585Y-5.9862
X2.6585Y-6.0177
X2.6585Y-6.0492
X2.6585Y-6.0807
X2.6585Y-6.1122
X2.6585Y-6.2559
X2.6585Y-6.2874
X2.6585Y-6.3189
X2.6585Y-6.3504
X2.6585Y-6.3819
X2.6585Y-6.4134
X2.6585Y-6.9783
X2.6585Y-7.0098
X2.6585Y-7.0413
X2.6585Y-7.0728
X2.6585Y-7.1043
X2.6585Y-7.1358
X2.7569Y-1.1378
X2.7569Y-1.1693
X2.7569Y-1.2008
X2.7569Y-1.2323
X2.7569Y-1.2638
X2.7569Y-1.2953
X2.7569Y-1.8602
X2.7569Y-1.8917
X2.7569Y-1.9232
X2.7569Y-1.9547
X2.7569Y-1.9862
X2.7569Y-2.0177
X2.7569Y-2.1614
X2.7569Y-2.1929
X2.7569Y-2.2244
X2.7569Y-2.2559
X2.7569Y-2.2874
X2.7569Y-2.3189
X2.7569Y-2.8839
X2.7569Y-2.9154
X2.7569Y-2.9469
X2.7569Y-2.9783
X2.7569Y-3.0098
X2.7569Y-3.0413
X2.7569Y-3.185
X2.7569Y-3.2165
X2.7569Y-3.248
X2.7569Y-3.2795
X2.7569Y-3.311
X2.7569Y-3.3425
X2.7569Y-3.9075
X2.7569Y-3.939
X2.7569Y-3.9705
X2.7569Y-4.002
X2.7569Y-4.0335
X2.7569Y-4.065
X2.7569Y-4.2087
X2.7569Y-4.2402
X2.7569Y-4.2717
X2.7569Y-4.3031
X2.7569Y-4.3346
X2.7569Y-4.3661
X2.7569Y-4.9311
X2.7569Y-4.9626
X2.7569Y-4.9941
X2.7569Y-5.0256
X2.7569Y-5.0571
X2.7569Y-5.0886
X2.7569Y-5.2323
X2.7569Y-5.2638
X2.7569Y-5.2953
X2.7569Y-5.3268
X2.7569Y-5.3583
X2.7569Y-5.3898
X2.7569Y-5.9547
X2.7569Y-5.9862
X2.7569Y-6.0177
X2.7569Y-6.0492
X2.7569Y-6.0807
X2.7569Y-6.1122
X2.7569Y-6.2559
X2.7569Y-6.2874
X2.7569Y-6.3189
X2.7569Y-6.3504
X2.7569Y-6.3819
X2.7569Y-6.4134
X2.7569Y-6.9783
X2.7569Y-7.0098
X2.7569Y-7.0413
X2.7569Y-7.0728
X2.7569Y-7.1043
X2.7569Y-7.1358
X3.314Y-1.1122
X3.314Y-2.1358
X3.314Y-3.1594
X3.314Y-4.1831
X3.314Y-5.2067
X3.314Y-6.2303
X3.3159Y-2.0374
X3.3159Y-3.061
X3.3159Y-4.0846
X3.3159Y-5.1083
X3.3159Y-6.1319
X3.3159Y-7.1555
X3.3455Y-1.1122
X3.3455Y-2.1358
X3.3455Y-3.1594
X3.3455Y-4.1831
X3.3455Y-5.2067
X3.3455Y-6.2303
X3.3474Y-2.0374
X3.3474Y-3.061
X3.3474Y-4.0846
X3.3474Y-5.1083
X3.3474Y-6.1319
X3.3474Y-7.1555
X3.377Y-1.1122
X3.377Y-2.1358
X3.377Y-3.1594
X3.377Y-4.1831
X3.377Y-5.2067
X3.377Y-6.2303
X3.3789Y-2.0374
X3.3789Y-3.061
X3.3789Y-4.0846
X3.3789Y-5.1083
X3.3789Y-6.1319
X3.3789Y-7.1555
X3.4085Y-1.1122
X3.4085Y-2.1358
X3.4085Y-3.1594
X3.4085Y-4.1831
X3.4085Y-5.2067
X3.4085Y-6.2303
X3.4104Y-2.0374
X3.4104Y-3.061
X3.4104Y-4.0846
X3.4104Y-5.1083
X3.4104Y-6.1319
X3.4104Y-7.1555
X3.44Y-1.1122
X3.44Y-2.1358
X3.44Y-3.1594
X3.44Y-4.1831
X3.44Y-5.2067
X3.44Y-6.2303
X3.4419Y-2.0374
X3.4419Y-3.061
X3.4419Y-4.0846
X3.4419Y-5.1083
X3.4419Y-6.1319
X3.4419Y-7.1555
X3.4715Y-1.1122
X3.4715Y-2.1358
X3.4715Y-3.1594
X3.4715Y-4.1831
X3.4715Y-5.2067
X3.4715Y-6.2303
X3.4734Y-2.0374
X3.4734Y-3.061
X3.4734Y-4.0846
X3.4734Y-5.1083
X3.4734Y-6.1319
X3.4734Y-7.1555
X4.3258Y-1.1122
X4.3258Y-2.1358
X4.3258Y-3.1594
X4.3258Y-4.1831
X4.3258Y-5.2067
X4.3258Y-6.2303
X4.3278Y-2.0374
X4.3278Y-3.061
X4.3278Y-4.0846
X4.3278Y-5.1083
X4.3278Y-6.1319
X4.3278Y-7.1555
X4.3573Y-1.1122
X4.3573Y-2.1358
X4.3573Y-3.1594
X4.3573Y-4.1831
X4.3573Y-5.2067
X4.3573Y-6.2303
X4.3593Y-2.0374
X4.3593Y-3.061
X4.3593Y-4.0846
X4.3593Y-5.1083
X4.3593Y-6.1319
X4.3593Y-7.1555
X4.3888Y-1.1122
X4.3888Y-2.1358
X4.3888Y-3.1594
X4.3888Y-4.1831
X4.3888Y-5.2067
X4.3888Y-6.2303
X4.3907Y-2.0374
X4.3907Y-3.061
X4.3907Y-4.0846
X4.3907Y-5.1083
X4.3907Y-6.1319
X4.3907Y-7.1555
X4.4203Y-1.1122
X4.4203Y-2.1358
X4.4203Y-3.1594
X4.4203Y-4.1831
X4.4203Y-5.2067
X4.4203Y-6.2303
X4.4222Y-2.0374
X4.4222Y-3.061
X4.4222Y-4.0846
X4.4222Y-5.1083
X4.4222Y-6.1319
X4.4222Y-7.1555
X4.4518Y-1.1122
X4.4518Y-2.1358
X4.4518Y-3.1594
X4.4518Y-4.1831
X4.4518Y-5.2067
X4.4518Y-6.2303
X4.4537Y-2.0374
X4.4537Y-3.061
X4.4537Y-4.0846
X4.4537Y-5.1083
X4.4537Y-6.1319
X4.4537Y-7.1555
X4.4833Y-1.1122
X4.4833Y-2.1358
X4.4833Y-3.1594
X4.4833Y-4.1831
X4.4833Y-5.2067
X4.4833Y-6.2303
X4.4852Y-2.0374
X4.4852Y-3.061
X4.4852Y-4.0846
X4.4852Y-5.1083
X4.4852Y-6.1319
X4.4852Y-7.1555
X4.751Y-1.1378
X4.751Y-1.1693
X4.751Y-1.2008
X4.751Y-1.2323
X4.751Y-1.2638
X4.751Y-1.2953
X4.751Y-1.8602
X4.751Y-1.8917
X4.751Y-1.9232
X4.751Y-1.9547
X4.751Y-1.9862
X4.751Y-2.0177
X4.751Y-2.1614
X4.751Y-2.1929
X4.751Y-2.2244
X4.751Y-2.2559
X4.751Y-2.2874
X4.751Y-2.3189
X4.751Y-2.8839
X4.751Y-2.9154
X4.751Y-2.9469
X4.751Y-2.9783
X4.751Y-3.0098
X4.751Y-3.0413
X4.751Y-3.185
X4.751Y-3.2165
X4.751Y-3.248
X4.751Y-3.2795
X4.751Y-3.311
X4.751Y-3.3425
X4.751Y-3.9075
X4.751Y-3.939
X4.751Y-3.9705
X4.751Y-4.002
X4.751Y-4.0335
X4.751Y-4.065
X4.751Y-4.2087
X4.751Y-4.2402
X4.751Y-4.2717
X4.751Y-4.3031
X4.751Y-4.3346
X4.751Y-4.3661
X4.751Y-4.9311
X4.751Y-4.9626
X4.751Y-4.9941
X4.751Y-5.0256
X4.751Y-5.0571
X4.751Y-5.0886
X4.751Y-5.2323
X4.751Y-5.2638
X4.751Y-5.2953
X4.751Y-5.3268
X4.751Y-5.3583
X4.751Y-5.3898
X4.751Y-5.9547
X4.751Y-5.9862
X4.751Y-6.0177
X4.751Y-6.0492
X4.751Y-6.0807
X4.751Y-6.1122
X4.751Y-6.2559
X4.751Y-6.2874
X4.751Y-6.3189
X4.751Y-6.3504
X4.751Y-6.3819
X4.751Y-6.4134
X4.751Y-6.9783
X4.751Y-7.0098
X4.751Y-7.0413
X4.751Y-7.0728
X4.751Y-7.1043
X4.751Y-7.1358
X4.8494Y-1.1378
X4.8494Y-1.1693
X4.8494Y-1.2008
X4.8494Y-1.2323
X4.8494Y-1.2638
X4.8494Y-1.2953
X4.8494Y-1.8602
X4.8494Y-1.8917
X4.8494Y-1.9232
X4.8494Y-1.9547
X4.8494Y-1.9862
X4.8494Y-2.0177
X4.8494Y-2.1614
X4.8494Y-2.1929
X4.8494Y-2.2244
X4.8494Y-2.2559
X4.8494Y-2.2874
X4.8494Y-2.3189
X4.8494Y-2.8839
X4.8494Y-2.9154
X4.8494Y-2.9469
X4.8494Y-2.9783
X4.8494Y-3.0098
X4.8494Y-3.0413
X4.8494Y-3.185
X4.8494Y-3.2165
X4.8494Y-3.248
X4.8494Y-3.2795
X4.8494Y-3.311
X4.8494Y-3.3425
X4.8494Y-3.9075
X4.8494Y-3.939
X4.8494Y-3.9705
X4.8494Y-4.002
X4.8494Y-4.0335
X4.8494Y-4.065
X4.8494Y-4.2087
X4.8494Y-4.2402
X4.8494Y-4.2717
X4.8494Y-4.3031
X4.8494Y-4.3346
X4.8494Y-4.3661
X4.8494Y-4.9311
X4.8494Y-4.9626
X4.8494Y-4.9941
X4.8494Y-5.0256
X4.8494Y-5.0571
X4.8494Y-5.0886
X4.8494Y-5.2323
X4.8494Y-5.2638
X4.8494Y-5.2953
X4.8494Y-5.3268
X4.8494Y-5.3583
X4.8494Y-5.3898
X4.8494Y-5.9547
X4.8494Y-5.9862
X4.8494Y-6.0177
X4.8494Y-6.0492
X4.8494Y-6.0807
X4.8494Y-6.1122
X4.8494Y-6.2559
X4.8494Y-6.2874
X4.8494Y-6.3189
X4.8494Y-6.3504
X4.8494Y-6.3819
X4.8494Y-6.4134
X4.8494Y-6.9783
X4.8494Y-7.0098
X4.8494Y-7.0413
X4.8494Y-7.0728
X4.8494Y-7.1043
X4.8494Y-7.1358
X5.4065Y-1.1122
X5.4065Y-2.1358
X5.4065Y-3.1594
X5.4065Y-4.1831
X5.4065Y-5.2067
X5.4065Y-6.2303
X5.4085Y-2.0374
X5.4085Y-3.061
X5.4085Y-4.0846
X5.4085Y-5.1083
X5.4085Y-6.1319
X5.4085Y-7.1555
X5.438Y-1.1122
X5.438Y-2.1358
X5.438Y-3.1594
X5.438Y-4.1831
X5.438Y-5.2067
X5.438Y-6.2303
X5.44Y-2.0374
X5.44Y-3.061
X5.44Y-4.0846
X5.44Y-5.1083
X5.44Y-6.1319
X5.44Y-7.1555
X5.4695Y-1.1122
X5.4695Y-2.1358
X5.4695Y-3.1594
X5.4695Y-4.1831
X5.4695Y-5.2067
X5.4695Y-6.2303
X5.4715Y-2.0374
X5.4715Y-3.061
X5.4715Y-4.0846
X5.4715Y-5.1083
X5.4715Y-6.1319
X5.4715Y-7.1555
X5.501Y-1.1122
X5.501Y-2.1358
X5.501Y-3.1594
X5.501Y-4.1831
X5.501Y-5.2067
X5.501Y-6.2303
X5.503Y-2.0374
X5.503Y-3.061
X5.503Y-4.0846
X5.503Y-5.1083
X5.503Y-6.1319
X5.503Y-7.1555
X5.5325Y-1.1122
X5.5325Y-2.1358
X5.5325Y-3.1594
X5.5325Y-4.1831
X5.5325Y-5.2067
X5.5325Y-6.2303
X5.5344Y-2.0374
X5.5344Y-3.061
X5.5344Y-4.0846
X5.5344Y-5.1083
X5.5344Y-6.1319
X5.5344Y-7.1555
X5.564Y-1.1122
X5.564Y-2.1358
X5.564Y-3.1594
X5.564Y-4.1831
X5.564Y-5.2067
X5.564Y-6.2303
X5.5659Y-2.0374
X5.5659Y-3.061
X5.5659Y-4.0846
X5.5659Y-5.1083
X5.5659Y-6.1319
X5.5659Y-7.1555
X6.4183Y-1.1122
X6.4183Y-2.1358
X6.4183Y-3.1594
X6.4183Y-4.1831
X6.4183Y-5.2067
X6.4183Y-6.2303
X6.4203Y-2.0374
X6.4203Y-3.061
X6.4203Y-4.0846
X6.4203Y-5.1083
X6.4203Y-6.1319
X6.4203Y-7.1555
X6.4498Y-1.1122
X6.4498Y-2.1358
X6.4498Y-3.1594
X6.4498Y-4.1831
X6.4498Y-5.2067
X6.4498Y-6.2303
X6.4518Y-2.0374
X6.4518Y-3.061
X6.4518Y-4.0846
X6.4518Y-5.1083
X6.4518Y-6.1319
X6.4518Y-7.1555
X6.4813Y-1.1122
X6.4813Y-2.1358
X6.4813Y-3.1594
X6.4813Y-4.1831
X6.4813Y-5.2067
X6.4813Y-6.2303
X6.4833Y-2.0374
X6.4833Y-3.061
X6.4833Y-4.0846
X6.4833Y-5.1083
X6.4833Y-6.1319
X6.4833Y-7.1555
X6.5128Y-1.1122
X6.5128Y-2.1358
X6.5128Y-3.1594
X6.5128Y-4.1831
X6.5128Y-5.2067
X6.5128Y-6.2303
X6.5148Y-2.0374
X6.5148Y-3.061
X6.5148Y-4.0846
X6.5148Y-5.1083
X6.5148Y-6.1319
X6.5148Y-7.1555
X6.5443Y-1.1122
X6.5443Y-2.1358
X6.5443Y-3.1594
X6.5443Y-4.1831
X6.5443Y-5.2067
X6.5443Y-6.2303
X6.5463Y-2.0374
X6.5463Y-3.061
X6.5463Y-4.0846
X6.5463Y-5.1083
X6.5463Y-6.1319
X6.5463Y-7.1555
X6.5758Y-1.1122
X6.5758Y-2.1358
X6.5758Y-3.1594
X6.5758Y-4.1831
X6.5758Y-5.2067
X6.5758Y-6.2303
X6.5778Y-2.0374
X6.5778Y-3.061
X6.5778Y-4.0846
X6.5778Y-5.1083
X6.5778Y-6.1319
X6.5778Y-7.1555
X6.8435Y-1.1378
X6.8435Y-1.1693
X6.8435Y-1.2008
X6.8435Y-1.2323
X6.8435Y-1.2638
X6.8435Y-1.2953
X6.8435Y-1.8602
X6.8435Y-1.8917
X6.8435Y-1.9232
X6.8435Y-1.9547
X6.8435Y-1.9862
X6.8435Y-2.0177
X6.8435Y-2.1614
X6.8435Y-2.1929
X6.8435Y-2.2244
X6.8435Y-2.2559
X6.8435Y-2.2874
X6.8435Y-2.3189
X6.8435Y-2.8839
X6.8435Y-2.9154
X6.8435Y-2.9469
X6.8435Y-2.9783
X6.8435Y-3.0098
X6.8435Y-3.0413
X6.8435Y-3.185
X6.8435Y-3.2165
X6.8435Y-3.248
X6.8435Y-3.2795
X6.8435Y-3.311
X6.8435Y-3.3425
X6.8435Y-3.9075
X6.8435Y-3.939
X6.8435Y-3.9705
X6.8435Y-4.002
X6.8435Y-4.0335
X6.8435Y-4.065
X6.8435Y-4.2087
X6.8435Y-4.2402
X6.8435Y-4.2717
X6.8435Y-4.3031
X6.8435Y-4.3346
X6.8435Y-4.3661
X6.8435Y-4.9311
X6.8435Y-4.9626
X6.8435Y-4.9941
X6.8435Y-5.0256
X6.8435Y-5.0571
X6.8435Y-5.0886
X6.8435Y-5.2323
X6.8435Y-5.2638
X6.8435Y-5.2953
X6.8435Y-5.3268
X6.8435Y-5.3583
X6.8435Y-5.3898
X6.8435Y-5.9547
X6.8435Y-5.9862
X6.8435Y-6.0177
X6.8435Y-6.0492
X6.8435Y-6.0807
X6.8435Y-6.1122
X6.8435Y-6.2559
X6.8435Y-6.2874
X6.8435Y-6.3189
X6.8435Y-6.3504
X6.8435Y-6.3819
X6.8435Y-6.4134
X6.8435Y-6.9783
X6.8435Y-7.0098
X6.8435Y-7.0413
X6.8435Y-7.0728
X6.8435Y-7.1043
X6.8435Y-7.1358
X6.9419Y-1.1378
X6.9419Y-1.1693
X6.9419Y-1.2008
X6.9419Y-1.2323
X6.9419Y-1.2638
X6.9419Y-1.2953
X6.9419Y-1.8602
X6.9419Y-1.8917
X6.9419Y-1.9232
X6.9419Y-1.9547
X6.9419Y-1.9862
X6.9419Y-2.0177
X6.9419Y-2.1614
X6.9419Y-2.1929
X6.9419Y-2.2244
X6.9419Y-2.2559
X6.9419Y-2.2874
X6.9419Y-2.3189
X6.9419Y-2.8839
X6.9419Y-2.9154
X6.9419Y-2.9469
X6.9419Y-2.9783
X6.9419Y-3.0098
X6.9419Y-3.0413
X6.9419Y-3.185
X6.9419Y-3.2165
X6.9419Y-3.248
X6.9419Y-3.2795
X6.9419Y-3.311
X6.9419Y-3.3425
X6.9419Y-3.9075
X6.9419Y-3.939
X6.9419Y-3.9705
X6.9419Y-4.002
X6.9419Y-4.0335
X6.9419Y-4.065
X6.9419Y-4.2087
X6.9419Y-4.2402
X6.9419Y-4.2717
X6.9419Y-4.3031
X6.9419Y-4.3346
X6.9419Y-4.3661
X6.9419Y-4.9311
X6.9419Y-4.9626
X6.9419Y-4.9941
X6.9419Y-5.0256
X6.9419Y-5.0571
X6.9419Y-5.0886
X6.9419Y-5.2323
X6.9419Y-5.2638
X6.9419Y-5.2953
X6.9419Y-5.3268
X6.9419Y-5.3583
X6.9419Y-5.3898
X6.9419Y-5.9547
X6.9419Y-5.9862
X6.9419Y-6.0177
X6.9419Y-6.0492
X6.9419Y-6.0807
X6.9419Y-6.1122
X6.9419Y-6.2559
X6.9419Y-6.2874
X6.9419Y-6.3189
X6.9419Y-6.3504
X6.9419Y-6.3819
X6.9419Y-6.4134
X6.9419Y-6.9783
X6.9419Y-7.0098
X6.9419Y-7.0413
X6.9419Y-7.0728
X6.9419Y-7.1043
X6.9419Y-7.1358
X7.499Y-1.1122
X7.499Y-2.1358
X7.499Y-3.1594
X7.499Y-4.1831
X7.499Y-5.2067
X7.499Y-6.2303
X7.501Y-2.0374
X7.501Y-3.061
X7.501Y-4.0846
X7.501Y-5.1083
X7.501Y-6.1319
X7.501Y-7.1555
X7.5305Y-1.1122
X7.5305Y-2.1358
X7.5305Y-3.1594
X7.5305Y-4.1831
X7.5305Y-5.2067
X7.5305Y-6.2303
X7.5325Y-2.0374
X7.5325Y-3.061
X7.5325Y-4.0846
X7.5325Y-5.1083
X7.5325Y-6.1319
X7.5325Y-7.1555
X7.562Y-1.1122
X7.562Y-2.1358
X7.562Y-3.1594
X7.562Y-4.1831
X7.562Y-5.2067
X7.562Y-6.2303
X7.564Y-2.0374
X7.564Y-3.061
X7.564Y-4.0846
X7.564Y-5.1083
X7.564Y-6.1319
X7.564Y-7.1555
X7.5935Y-1.1122
X7.5935Y-2.1358
X7.5935Y-3.1594
X7.5935Y-4.1831
X7.5935Y-5.2067
X7.5935Y-6.2303
X7.5955Y-2.0374
X7.5955Y-3.061
X7.5955Y-4.0846
X7.5955Y-5.1083
X7.5955Y-6.1319
X7.5955Y-7.1555
X7.625Y-1.1122
X7.625Y-2.1358
X7.625Y-3.1594
X7.625Y-4.1831
X7.625Y-5.2067
X7.625Y-6.2303
X7.627Y-2.0374
X7.627Y-3.061
X7.627Y-4.0846
X7.627Y-5.1083
X7.627Y-6.1319
X7.627Y-7.1555
X7.6565Y-1.1122
X7.6565Y-2.1358
X7.6565Y-3.1594
X7.6565Y-4.1831
X7.6565Y-5.2067
X7.6565Y-6.2303
X7.6585Y-2.0374
X7.6585Y-3.061
X7.6585Y-4.0846
X7.6585Y-5.1083
X7.6585Y-6.1319
X7.6585Y-7.1555
X8.5108Y-1.1122
X8.5108Y-2.1358
X8.5108Y-3.1594
X8.5108Y-4.1831
X8.5108Y-5.2067
X8.5108Y-6.2303
X8.5128Y-2.0374
X8.5128Y-3.061
X8.5128Y-4.0846
X8.5128Y-5.1083
X8.5128Y-6.1319
X8.5128Y-7.1555
X8.5423Y-1.1122
X8.5423Y-2.1358
X8.5423Y-3.1594
X8.5423Y-4.1831
X8.5423Y-5.2067
X8.5423Y-6.2303
X8.5443Y-2.0374
X8.5443Y-3.061
X8.5443Y-4.0846
X8.5443Y-5.1083
X8.5443Y-6.1319
X8.5443Y-7.1555
X8.5738Y-1.1122
X8.5738Y-2.1358
X8.5738Y-3.1594
X8.5738Y-4.1831
X8.5738Y-5.2067
X8.5738Y-6.2303
X8.5758Y-2.0374
X8.5758Y-3.061
X8.5758Y-4.0846
X8.5758Y-5.1083
X8.5758Y-6.1319
X8.5758Y-7.1555
X8.6053Y-1.1122
X8.6053Y-2.1358
X8.6053Y-3.1594
X8.6053Y-4.1831
X8.6053Y-5.2067
X8.6053Y-6.2303
X8.6073Y-2.0374
X8.6073Y-3.061
X8.6073Y-4.0846
X8.6073Y-5.1083
X8.6073Y-6.1319
X8.6073Y-7.1555
X8.6368Y-1.1122
X8.6368Y-2.1358
X8.6368Y-3.1594
X8.6368Y-4.1831
X8.6368Y-5.2067
X8.6368Y-6.2303
X8.6388Y-2.0374
X8.6388Y-3.061
X8.6388Y-4.0846
X8.6388Y-5.1083
X8.6388Y-6.1319
X8.6388Y-7.1555
X8.6683Y-1.1122
X8.6683Y-2.1358
X8.6683Y-3.1594
X8.6683Y-4.1831
X8.6683Y-5.2067
X8.6683Y-6.2303
X8.6703Y-2.0374
X8.6703Y-3.061
X8.6703Y-4.0846
X8.6703Y-5.1083
X8.6703Y-6.1319
X8.6703Y-7.1555
X8.936Y-1.1378
X8.936Y-1.1693
X8.936Y-1.2008
X8.936Y-1.2323
X8.936Y-1.2638
X8.936Y-1.2953
X8.936Y-1.8602
X8.936Y-1.8917
X8.936Y-1.9232
X8.936Y-1.9547
X8.936Y-1.9862
X8.936Y-2.0177
X8.936Y-2.1614
X8.936Y-2.1929
X8.936Y-2.2244
X8.936Y-2.2559
X8.936Y-2.2874
X8.936Y-2.3189
X8.936Y-2.8839
X8.936Y-2.9154
X8.936Y-2.9469
X8.936Y-2.9783
X8.936Y-3.0098
X8.936Y-3.0413
X8.936Y-3.185
X8.936Y-3.2165
X8.936Y-3.248
X8.936Y-3.2795
X8.936Y-3.311
X8.936Y-3.3425
X8.936Y-3.9075
X8.936Y-3.939
X8.936Y-3.9705
X8.936Y-4.002
X8.936Y-4.0335
X8.936Y-4.065
X8.936Y-4.2087
X8.936Y-4.2402
X8.936Y-4.2717
X8.936Y-4.3031
X8.936Y-4.3346
X8.936Y-4.3661
X8.936Y-4.9311
X8.936Y-4.9626
X8.936Y-4.9941
X8.936Y-5.0256
X8.936Y-5.0571
X8.936Y-5.0886
X8.936Y-5.2323
X8.936Y-5.2638
X8.936Y-5.2953
X8.936Y-5.3268
X8.936Y-5.3583
X8.936Y-5.3898
X8.936Y-5.9547
X8.936Y-5.9862
X8.936Y-6.0177
X8.936Y-6.0492
X8.936Y-6.0807
X8.936Y-6.1122
X8.936Y-6.2559
X8.936Y-6.2874
X8.936Y-6.3189
X8.936Y-6.3504
X8.936Y-6.3819
X8.936Y-6.4134
X8.936Y-6.9783
X8.936Y-7.0098
X8.936Y-7.0413
X8.936Y-7.0728
X8.936Y-7.1043
X8.936Y-7.1358
X9.0344Y-1.1378
X9.0344Y-1.1693
X9.0344Y-1.2008
X9.0344Y-1.2323
X9.0344Y-1.2638
X9.0344Y-1.2953
X9.0344Y-1.8602
X9.0344Y-1.8917
X9.0344Y-1.9232
X9.0344Y-1.9547
X9.0344Y-1.9862
X9.0344Y-2.0177
X9.0344Y-2.1614
X9.0344Y-2.1929
X9.0344Y-2.2244
X9.0344Y-2.2559
X9.0344Y-2.2874
X9.0344Y-2.3189
X9.0344Y-2.8839
X9.0344Y-2.9154
X9.0344Y-2.9469
X9.0344Y-2.9783
X9.0344Y-3.0098
X9.0344Y-3.0413
X9.0344Y-3.185
X9.0344Y-3.2165
X9.0344Y-3.248
X9.0344Y-3.2795
X9.0344Y-3.311
X9.0344Y-3.3425
X9.0344Y-3.9075
X9.0344Y-3.939
X9.0344Y-3.9705
X9.0344Y-4.002
X9.0344Y-4.0335
X9.0344Y-4.065
X9.0344Y-4.2087
X9.0344Y-4.2402
X9.0344Y-4.2717
X9.0344Y-4.3031
X9.0344Y-4.3346
X9.0344Y-4.3661
X9.0344Y-4.9311
X9.0344Y-4.9626
X9.0344Y-4.9941
X9.0344Y-5.0256
X9.0344Y-5.0571
X9.0344Y-5.0886
X9.0344Y-5.2323
X9.0344Y-5.2638
X9.0344Y-5.2953
X9.0344Y-5.3268
X9.0344Y-5.3583
X9.0344Y-5.3898
X9.0344Y-5.9547
X9.0344Y-5.9862
X9.0344Y-6.0177
X9.0344Y-6.0492
X9.0344Y-6.0807
X9.0344Y-6.1122
X9.0344Y-6.2559
X9.0344Y-6.2874
X9.0344Y-6.3189
X9.0344Y-6.3504
X9.0344Y-6.3819
X9.0344Y-6.4134
X9.0344Y-6.9783
X9.0344Y-7.0098
X9.0344Y-7.0413
X9.0344Y-7.0728
X9.0344Y-7.1043
X9.0344Y-7.1358
X9.5915Y-1.1122
X9.5915Y-2.1358
X9.5915Y-3.1594
X9.5915Y-4.1831
X9.5915Y-5.2067
X9.5915Y-6.2303
X9.5935Y-2.0374
X9.5935Y-3.061
X9.5935Y-4.0846
X9.5935Y-5.1083
X9.5935Y-6.1319
X9.5935Y-7.1555
X9.623Y-1.1122
X9.623Y-2.1358
X9.623Y-3.1594
X9.623Y-4.1831
X9.623Y-5.2067
X9.623Y-6.2303
X9.625Y-2.0374
X9.625Y-3.061
X9.625Y-4.0846
X9.625Y-5.1083
X9.625Y-6.1319
X9.625Y-7.1555
X9.6545Y-1.1122
X9.6545Y-2.1358
X9.6545Y-3.1594
X9.6545Y-4.1831
X9.6545Y-5.2067
X9.6545Y-6.2303
X9.6565Y-2.0374
X9.6565Y-3.061
X9.6565Y-4.0846
X9.6565Y-5.1083
X9.6565Y-6.1319
X9.6565Y-7.1555
X9.686Y-1.1122
X9.686Y-2.1358
X9.686Y-3.1594
X9.686Y-4.1831
X9.686Y-5.2067
X9.686Y-6.2303
X9.688Y-2.0374
X9.688Y-3.061
X9.688Y-4.0846
X9.688Y-5.1083
X9.688Y-6.1319
X9.688Y-7.1555
X9.7175Y-1.1122
X9.7175Y-2.1358
X9.7175Y-3.1594
X9.7175Y-4.1831
X9.7175Y-5.2067
X9.7175Y-6.2303
X9.7195Y-2.0374
X9.7195Y-3.061
X9.7195Y-4.0846
X9.7195Y-5.1083
X9.7195Y-6.1319
X9.7195Y-7.1555
X9.749Y-1.1122
X9.749Y-2.1358
X9.749Y-3.1594
X9.749Y-4.1831
X9.749Y-5.2067
X9.749Y-6.2303
X9.751Y-2.0374
X9.751Y-3.061
X9.751Y-4.0846
X9.751Y-5.1083
X9.751Y-6.1319
X9.751Y-7.1555
X10.6033Y-1.1122
X10.6033Y-2.1358
X10.6033Y-3.1594
X10.6033Y-4.1831
X10.6033Y-5.2067
X10.6033Y-6.2303
X10.6053Y-2.0374
X10.6053Y-3.061
X10.6053Y-4.0846
X10.6053Y-5.1083
X10.6053Y-6.1319
X10.6053Y-7.1555
X10.6348Y-1.1122
X10.6348Y-2.1358
X10.6348Y-3.1594
X10.6348Y-4.1831
X10.6348Y-5.2067
X10.6348Y-6.2303
X10.6368Y-2.0374
X10.6368Y-3.061
X10.6368Y-4.0846
X10.6368Y-5.1083
X10.6368Y-6.1319
X10.6368Y-7.1555
X10.6663Y-1.1122
X10.6663Y-2.1358
X10.6663Y-3.1594
X10.6663Y-4.1831
X10.6663Y-5.2067
X10.6663Y-6.2303
X10.6683Y-2.0374
X10.6683Y-3.061
X10.6683Y-4.0846
X10.6683Y-5.1083
X10.6683Y-6.1319
X10.6683Y-7.1555
X10.6978Y-1.1122
X10.6978Y-2.1358
X10.6978Y-3.1594
X10.6978Y-4.1831
X10.6978Y-5.2067
X10.6978Y-6.2303
X10.6998Y-2.0374
X10.6998Y-3.061
X10.6998Y-4.0846
X10.6998Y-5.1083
X10.6998Y-6.1319
X10.6998Y-7.1555
X10.7293Y-1.1122
X10.7293Y-2.1358
X10.7293Y-3.1594
X10.7293Y-4.1831
X10.7293Y-5.2067
X10.7293Y-6.2303
X10.7313Y-2.0374
X10.7313Y-3.061
X10.7313Y-4.0846
X10.7313Y-5.1083
X10.7313Y-6.1319
X10.7313Y-7.1555
X10.7608Y-1.1122
X10.7608Y-2.1358
X10.7608Y-3.1594
X10.7608Y-4.1831
X10.7608Y-5.2067
X10.7608Y-6.2303
X10.7628Y-2.0374
X10.7628Y-3.061
X10.7628Y-4.0846
X10.7628Y-5.1083
X10.7628Y-6.1319
X10.7628Y-7.1555
X11.0285Y-1.1378
X11.0285Y-1.1693
X11.0285Y-1.2008
X11.0285Y-1.2323
X11.0285Y-1.2638
X11.0285Y-1.2953
X11.0285Y-1.8602
X11.0285Y-1.8917
X11.0285Y-1.9232
X11.0285Y-1.9547
X11.0285Y-1.9862
X11.0285Y-2.0177
X11.0285Y-2.1614
X11.0285Y-2.1929
X11.0285Y-2.2244
X11.0285Y-2.2559
X11.0285Y-2.2874
X11.0285Y-2.3189
X11.0285Y-2.8839
X11.0285Y-2.9154
X11.0285Y-2.9469
X11.0285Y-2.9783
X11.0285Y-3.0098
X11.0285Y-3.0413
X11.0285Y-3.185
X11.0285Y-3.2165
X11.0285Y-3.248
X11.0285Y-3.2795
X11.0285Y-3.311
X11.0285Y-3.3425
X11.0285Y-3.9075
X11.0285Y-3.939
X11.0285Y-3.9705
X11.0285Y-4.002
X11.0285Y-4.0335
X11.0285Y-4.065
X11.0285Y-4.2087
X11.0285Y-4.2402
X11.0285Y-4.2717
X11.0285Y-4.3031
X11.0285Y-4.3346
X11.0285Y-4.3661
X11.0285Y-4.9311
X11.0285Y-4.9626
X11.0285Y-4.9941
X11.0285Y-5.0256
X11.0285Y-5.0571
X11.0285Y-5.0886
X11.0285Y-5.2323
X11.0285Y-5.2638
X11.0285Y-5.2953
X11.0285Y-5.3268
X11.0285Y-5.3583
X11.0285Y-5.3898
X11.0285Y-5.9547
X11.0285Y-5.9862
X11.0285Y-6.0177
X11.0285Y-6.0492
X11.0285Y-6.0807
X11.0285Y-6.1122
X11.0285Y-6.2559
X11.0285Y-6.2874
X11.0285Y-6.3189
X11.0285Y-6.3504
X11.0285Y-6.3819
X11.0285Y-6.4134
X11.0285Y-6.9783
X11.0285Y-7.0098
X11.0285Y-7.0413
X11.0285Y-7.0728
X11.0285Y-7.1043
X11.0285Y-7.1358
X11.0384Y-0.8015
X11.0384Y-0.8352
X11.0384Y-0.869
X11.0384Y-0.9027
X11.0384Y-0.9364
X11.0384Y-0.9702
X11.0384Y-7.2975
X11.0384Y-7.3313
X11.0384Y-7.365
X11.0384Y-7.3988
X11.0384Y-7.4325
X11.0384Y-7.4663
X11.1706Y-1.1024
X11.1706Y-7.1654
X11.2043Y-1.1024
X11.2043Y-7.1654
X11.238Y-1.1024
X11.238Y-7.1654
X11.2718Y-1.1024
X11.2718Y-7.1654
X11.3055Y-1.1024
X11.3055Y-7.1654
X11.3393Y-1.1024
X11.3393Y-7.1654
T2
X1.9596Y-1.5768
X1.9596Y-2.6004
X1.9596Y-3.624
X1.9596Y-4.6476
X1.9596Y-5.6713
X1.9596Y-6.6949
X2.5502Y-1.2205
X2.5502Y-1.9311
X2.5502Y-2.2441
X2.5502Y-2.9547
X2.5502Y-3.2677
X2.5502Y-3.9783
X2.5502Y-4.2913
X2.5502Y-5.002
X2.5502Y-5.315
X2.5502Y-6.0256
X2.5502Y-6.3386
X2.5502Y-7.0492
X4.0522Y-1.5768
X4.0522Y-2.6004
X4.0522Y-3.624
X4.0522Y-4.6476
X4.0522Y-5.6713
X4.0522Y-6.6949
X4.6427Y-1.2205
X4.6427Y-1.9311
X4.6427Y-2.2441
X4.6427Y-2.9547
X4.6427Y-3.2677
X4.6427Y-3.9783
X4.6427Y-4.2913
X4.6427Y-5.002
X4.6427Y-5.315
X4.6427Y-6.0256
X4.6427Y-6.3386
X4.6427Y-7.0492
X6.1447Y-1.5768
X6.1447Y-2.6004
X6.1447Y-3.624
X6.1447Y-4.6476
X6.1447Y-5.6713
X6.1447Y-6.6949
X6.7352Y-1.2205
X6.7352Y-1.9311
X6.7352Y-2.2441
X6.7352Y-2.9547
X6.7352Y-3.2677
X6.7352Y-3.9783
X6.7352Y-4.2913
X6.7352Y-5.002
X6.7352Y-5.315
X6.7352Y-6.0256
X6.7352Y-6.3386
X6.7352Y-7.0492
X8.2372Y-1.5768
X8.2372Y-2.6004
X8.2372Y-3.624
X8.2372Y-4.6476
X8.2372Y-5.6713
X8.2372Y-6.6949
X8.8278Y-1.2205
X8.8278Y-1.9311
X8.8278Y-2.2441
X8.8278Y-2.9547
X8.8278Y-3.2677
X8.8278Y-3.9783
X8.8278Y-4.2913
X8.8278Y-5.002
X8.8278Y-5.315
X8.8278Y-6.0256
X8.8278Y-6.3386
X8.8278Y-7.0492
X10.3297Y-1.5768
X10.3297Y-2.6004
X10.3297Y-3.624
X10.3297Y-4.6476
X10.3297Y-5.6713
X10.3297Y-6.6949
X10.9203Y-1.2205
X10.9203Y-1.9311
X10.9203Y-2.2441
X10.9203Y-2.9547
X10.9203Y-3.2677
X10.9203Y-3.9783
X10.9203Y-4.2913
X10.9203Y-5.002
X10.9203Y-5.315
X10.9203Y-6.0256
X10.9203Y-6.3386
X10.9203Y-7.0492
T0
M30
