M48
; DRILL file {KiCad 7.0.2} date Thu Jun 29 11:18:30 2023
; FORMAT={-:-/ absolute / inch / decimal}
; #@! TF.CreationDate,2023-06-29T11:18:30+02:00
; #@! TF.GenerationSoftware,Kicad,Pcbnew,7.0.2
; #@! TF.FileFunction,Plated,1,2,PTH
FMAT,2
INCH
; #@! TA.AperFunction,Plated,PTH,ViaDrill
T1C0.0079
; #@! TA.AperFunction,Plated,PTH,ViaDrill
T2C0.0118
; #@! TA.AperFunction,Plated,PTH,ComponentDrill
T3C0.0197
; #@! TA.AperFunction,Plated,PTH,ComponentDrill
T4C0.0236
; #@! TA.AperFunction,Plated,PTH,ComponentDrill
T5C0.0394
%
G90
G05
T1
X0.9675Y-1.5079
X0.9675Y-2.5315
X0.9675Y-3.5551
X0.9675Y-4.5787
X0.9675Y-5.6024
X0.9675Y-6.626
X0.9695Y-1.6673
X0.9695Y-2.6909
X0.9695Y-3.7146
X0.9695Y-4.7382
X0.9695Y-5.7618
X0.9695Y-6.7854
X0.9911Y-1.5571
X0.9911Y-2.5807
X0.9911Y-3.6043
X0.9911Y-4.628
X0.9911Y-5.6516
X0.9911Y-6.6752
X1.0423Y-1.5571
X1.0423Y-2.5807
X1.0423Y-3.6043
X1.0423Y-4.628
X1.0423Y-5.6516
X1.0423Y-6.6752
X3.06Y-1.5079
X3.06Y-2.5315
X3.06Y-3.5551
X3.06Y-4.5787
X3.06Y-5.6024
X3.06Y-6.626
X3.062Y-1.6673
X3.062Y-2.6909
X3.062Y-3.7146
X3.062Y-4.7382
X3.062Y-5.7618
X3.062Y-6.7854
X3.0837Y-1.5571
X3.0837Y-2.5807
X3.0837Y-3.6043
X3.0837Y-4.628
X3.0837Y-5.6516
X3.0837Y-6.6752
X3.1348Y-1.5571
X3.1348Y-2.5807
X3.1348Y-3.6043
X3.1348Y-4.628
X3.1348Y-5.6516
X3.1348Y-6.6752
X5.1526Y-1.5079
X5.1526Y-2.5315
X5.1526Y-3.5551
X5.1526Y-4.5787
X5.1526Y-5.6024
X5.1526Y-6.626
X5.1545Y-1.6673
X5.1545Y-2.6909
X5.1545Y-3.7146
X5.1545Y-4.7382
X5.1545Y-5.7618
X5.1545Y-6.7854
X5.1762Y-1.5571
X5.1762Y-2.5807
X5.1762Y-3.6043
X5.1762Y-4.628
X5.1762Y-5.6516
X5.1762Y-6.6752
X5.2274Y-1.5571
X5.2274Y-2.5807
X5.2274Y-3.6043
X5.2274Y-4.628
X5.2274Y-5.6516
X5.2274Y-6.6752
X7.2451Y-1.5079
X7.2451Y-2.5315
X7.2451Y-3.5551
X7.2451Y-4.5787
X7.2451Y-5.6024
X7.2451Y-6.626
X7.247Y-1.6673
X7.247Y-2.6909
X7.247Y-3.7146
X7.247Y-4.7382
X7.247Y-5.7618
X7.247Y-6.7854
X7.2687Y-1.5571
X7.2687Y-2.5807
X7.2687Y-3.6043
X7.2687Y-4.628
X7.2687Y-5.6516
X7.2687Y-6.6752
X7.3199Y-1.5571
X7.3199Y-2.5807
X7.3199Y-3.6043
X7.3199Y-4.628
X7.3199Y-5.6516
X7.3199Y-6.6752
X9.3376Y-1.5079
X9.3376Y-2.5315
X9.3376Y-3.5551
X9.3376Y-4.5787
X9.3376Y-5.6024
X9.3376Y-6.626
X9.3396Y-1.6673
X9.3396Y-2.6909
X9.3396Y-3.7146
X9.3396Y-4.7382
X9.3396Y-5.7618
X9.3396Y-6.7854
X9.3612Y-1.5571
X9.3612Y-2.5807
X9.3612Y-3.6043
X9.3612Y-4.628
X9.3612Y-5.6516
X9.3612Y-6.6752
X9.4124Y-1.5571
X9.4124Y-2.5807
X9.4124Y-3.6043
X9.4124Y-4.628
X9.4124Y-5.6516
X9.4124Y-6.6752
T2
X0.7608Y-1.8051
X0.7608Y-2.8287
X0.7608Y-3.8524
X0.7608Y-4.876
X0.7608Y-5.8996
X0.7608Y-6.9232
X0.7943Y-1.8051
X0.7943Y-2.8287
X0.7943Y-3.8524
X0.7943Y-4.876
X0.7943Y-5.8996
X0.7943Y-6.9232
X0.8041Y-1.3386
X0.8041Y-2.3622
X0.8041Y-3.3858
X0.8041Y-4.4094
X0.8041Y-5.4331
X0.8041Y-6.4567
X0.8415Y-1.3386
X0.8415Y-2.3622
X0.8415Y-3.3858
X0.8415Y-4.4094
X0.8415Y-5.4331
X0.8415Y-6.4567
X0.9675Y-1.2264
X0.9675Y-2.25
X0.9675Y-3.2736
X0.9675Y-4.2972
X0.9675Y-5.3209
X0.9675Y-6.3445
X1.001Y-1.2992
X1.001Y-2.3228
X1.001Y-3.3465
X1.001Y-4.3701
X1.001Y-5.3937
X1.001Y-6.4173
X1.1644Y-1.6535
X1.1644Y-2.6772
X1.1644Y-3.7008
X1.1644Y-4.7244
X1.1644Y-5.748
X1.1644Y-6.7717
X1.2293Y-2.002
X1.2293Y-3.0256
X1.2293Y-4.0492
X1.2293Y-5.0728
X1.2293Y-6.0965
X1.2293Y-7.1201
X1.3671Y-1.8425
X1.3671Y-2.8661
X1.3671Y-3.8898
X1.3671Y-4.9134
X1.3671Y-5.937
X1.3671Y-6.9606
X1.4793Y-1.1654
X1.4793Y-2.189
X1.4793Y-3.2126
X1.4793Y-4.2362
X1.4793Y-5.2598
X1.4793Y-6.2835
X1.5089Y-1.7244
X1.5089Y-2.748
X1.5089Y-3.7717
X1.5089Y-4.7953
X1.5089Y-5.8189
X1.5089Y-6.8425
X1.7037Y-1.9488
X1.7037Y-2.9724
X1.7037Y-3.9961
X1.7037Y-5.0197
X1.7037Y-6.0433
X1.7037Y-7.0669
X1.7628Y-1.6634
X1.7628Y-2.687
X1.7628Y-3.7106
X1.7628Y-4.7343
X1.7628Y-5.7579
X1.7628Y-6.7815
X1.7726Y-1.7579
X1.7726Y-2.7815
X1.7726Y-3.8051
X1.7726Y-4.8287
X1.7726Y-5.8524
X1.7726Y-6.876
X1.8199Y-1.1988
X1.8199Y-2.2224
X1.8199Y-3.2461
X1.8199Y-4.2697
X1.8199Y-5.2933
X1.8199Y-6.3169
X1.8494Y-1.9783
X1.8494Y-3.002
X1.8494Y-4.0256
X1.8494Y-5.0492
X1.8494Y-6.0728
X1.8494Y-7.0965
X1.9754Y-1.7815
X1.9754Y-2.8051
X1.9754Y-3.8287
X1.9754Y-4.8524
X1.9754Y-5.876
X1.9754Y-6.8996
X2.0955Y-1.7815
X2.0955Y-2.8051
X2.0955Y-3.8287
X2.0955Y-4.8524
X2.0955Y-5.876
X2.0955Y-6.8996
X2.1329Y-1.4665
X2.1329Y-2.4902
X2.1329Y-3.5138
X2.1329Y-4.5374
X2.1329Y-5.561
X2.1329Y-6.5846
X2.1722Y-1.6516
X2.1722Y-2.6752
X2.1722Y-3.6988
X2.1722Y-4.7224
X2.1722Y-5.7461
X2.1722Y-6.7697
X2.31Y-1.9252
X2.31Y-2.9488
X2.31Y-3.9724
X2.31Y-4.9961
X2.31Y-6.0197
X2.31Y-7.0433
X2.4222Y-1.5807
X2.4222Y-2.6043
X2.4222Y-3.628
X2.4222Y-4.6516
X2.4222Y-5.6752
X2.4222Y-6.6988
X2.8533Y-1.8051
X2.8533Y-2.8287
X2.8533Y-3.8524
X2.8533Y-4.876
X2.8533Y-5.8996
X2.8533Y-6.9232
X2.8868Y-1.8051
X2.8868Y-2.8287
X2.8868Y-3.8524
X2.8868Y-4.876
X2.8868Y-5.8996
X2.8868Y-6.9232
X2.8967Y-1.3386
X2.8967Y-2.3622
X2.8967Y-3.3858
X2.8967Y-4.4094
X2.8967Y-5.4331
X2.8967Y-6.4567
X2.9341Y-1.3386
X2.9341Y-2.3622
X2.9341Y-3.3858
X2.9341Y-4.4094
X2.9341Y-5.4331
X2.9341Y-6.4567
X3.06Y-1.2264
X3.06Y-2.25
X3.06Y-3.2736
X3.06Y-4.2972
X3.06Y-5.3209
X3.06Y-6.3445
X3.0935Y-1.2992
X3.0935Y-2.3228
X3.0935Y-3.3465
X3.0935Y-4.3701
X3.0935Y-5.3937
X3.0935Y-6.4173
X3.2569Y-1.6535
X3.2569Y-2.6772
X3.2569Y-3.7008
X3.2569Y-4.7244
X3.2569Y-5.748
X3.2569Y-6.7717
X3.3219Y-2.002
X3.3219Y-3.0256
X3.3219Y-4.0492
X3.3219Y-5.0728
X3.3219Y-6.0965
X3.3219Y-7.1201
X3.4596Y-1.8425
X3.4596Y-2.8661
X3.4596Y-3.8898
X3.4596Y-4.9134
X3.4596Y-5.937
X3.4596Y-6.9606
X3.5719Y-1.1654
X3.5719Y-2.189
X3.5719Y-3.2126
X3.5719Y-4.2362
X3.5719Y-5.2598
X3.5719Y-6.2835
X3.6014Y-1.7244
X3.6014Y-2.748
X3.6014Y-3.7717
X3.6014Y-4.7953
X3.6014Y-5.8189
X3.6014Y-6.8425
X3.7963Y-1.9488
X3.7963Y-2.9724
X3.7963Y-3.9961
X3.7963Y-5.0197
X3.7963Y-6.0433
X3.7963Y-7.0669
X3.8553Y-1.6634
X3.8553Y-2.687
X3.8553Y-3.7106
X3.8553Y-4.7343
X3.8553Y-5.7579
X3.8553Y-6.7815
X3.8652Y-1.7579
X3.8652Y-2.7815
X3.8652Y-3.8051
X3.8652Y-4.8287
X3.8652Y-5.8524
X3.8652Y-6.876
X3.9124Y-1.1988
X3.9124Y-2.2224
X3.9124Y-3.2461
X3.9124Y-4.2697
X3.9124Y-5.2933
X3.9124Y-6.3169
X3.9419Y-1.9783
X3.9419Y-3.002
X3.9419Y-4.0256
X3.9419Y-5.0492
X3.9419Y-6.0728
X3.9419Y-7.0965
X4.0679Y-1.7815
X4.0679Y-2.8051
X4.0679Y-3.8287
X4.0679Y-4.8524
X4.0679Y-5.876
X4.0679Y-6.8996
X4.188Y-1.7815
X4.188Y-2.8051
X4.188Y-3.8287
X4.188Y-4.8524
X4.188Y-5.876
X4.188Y-6.8996
X4.2254Y-1.4665
X4.2254Y-2.4902
X4.2254Y-3.5138
X4.2254Y-4.5374
X4.2254Y-5.561
X4.2254Y-6.5846
X4.2648Y-1.6516
X4.2648Y-2.6752
X4.2648Y-3.6988
X4.2648Y-4.7224
X4.2648Y-5.7461
X4.2648Y-6.7697
X4.4026Y-1.9252
X4.4026Y-2.9488
X4.4026Y-3.9724
X4.4026Y-4.9961
X4.4026Y-6.0197
X4.4026Y-7.0433
X4.5148Y-1.5807
X4.5148Y-2.6043
X4.5148Y-3.628
X4.5148Y-4.6516
X4.5148Y-5.6752
X4.5148Y-6.6988
X4.9459Y-1.8051
X4.9459Y-2.8287
X4.9459Y-3.8524
X4.9459Y-4.876
X4.9459Y-5.8996
X4.9459Y-6.9232
X4.9793Y-1.8051
X4.9793Y-2.8287
X4.9793Y-3.8524
X4.9793Y-4.876
X4.9793Y-5.8996
X4.9793Y-6.9232
X4.9892Y-1.3386
X4.9892Y-2.3622
X4.9892Y-3.3858
X4.9892Y-4.4094
X4.9892Y-5.4331
X4.9892Y-6.4567
X5.0266Y-1.3386
X5.0266Y-2.3622
X5.0266Y-3.3858
X5.0266Y-4.4094
X5.0266Y-5.4331
X5.0266Y-6.4567
X5.1526Y-1.2264
X5.1526Y-2.25
X5.1526Y-3.2736
X5.1526Y-4.2972
X5.1526Y-5.3209
X5.1526Y-6.3445
X5.186Y-1.2992
X5.186Y-2.3228
X5.186Y-3.3465
X5.186Y-4.3701
X5.186Y-5.3937
X5.186Y-6.4173
X5.3494Y-1.6535
X5.3494Y-2.6772
X5.3494Y-3.7008
X5.3494Y-4.7244
X5.3494Y-5.748
X5.3494Y-6.7717
X5.4144Y-2.002
X5.4144Y-3.0256
X5.4144Y-4.0492
X5.4144Y-5.0728
X5.4144Y-6.0965
X5.4144Y-7.1201
X5.5522Y-1.8425
X5.5522Y-2.8661
X5.5522Y-3.8898
X5.5522Y-4.9134
X5.5522Y-5.937
X5.5522Y-6.9606
X5.6644Y-1.1654
X5.6644Y-2.189
X5.6644Y-3.2126
X5.6644Y-4.2362
X5.6644Y-5.2598
X5.6644Y-6.2835
X5.6939Y-1.7244
X5.6939Y-2.748
X5.6939Y-3.7717
X5.6939Y-4.7953
X5.6939Y-5.8189
X5.6939Y-6.8425
X5.8888Y-1.9488
X5.8888Y-2.9724
X5.8888Y-3.9961
X5.8888Y-5.0197
X5.8888Y-6.0433
X5.8888Y-7.0669
X5.9478Y-1.6634
X5.9478Y-2.687
X5.9478Y-3.7106
X5.9478Y-4.7343
X5.9478Y-5.7579
X5.9478Y-6.7815
X5.9577Y-1.7579
X5.9577Y-2.7815
X5.9577Y-3.8051
X5.9577Y-4.8287
X5.9577Y-5.8524
X5.9577Y-6.876
X6.0049Y-1.1988
X6.0049Y-2.2224
X6.0049Y-3.2461
X6.0049Y-4.2697
X6.0049Y-5.2933
X6.0049Y-6.3169
X6.0344Y-1.9783
X6.0344Y-3.002
X6.0344Y-4.0256
X6.0344Y-5.0492
X6.0344Y-6.0728
X6.0344Y-7.0965
X6.1604Y-1.7815
X6.1604Y-2.8051
X6.1604Y-3.8287
X6.1604Y-4.8524
X6.1604Y-5.876
X6.1604Y-6.8996
X6.2805Y-1.7815
X6.2805Y-2.8051
X6.2805Y-3.8287
X6.2805Y-4.8524
X6.2805Y-5.876
X6.2805Y-6.8996
X6.3179Y-1.4665
X6.3179Y-2.4902
X6.3179Y-3.5138
X6.3179Y-4.5374
X6.3179Y-5.561
X6.3179Y-6.5846
X6.3573Y-1.6516
X6.3573Y-2.6752
X6.3573Y-3.6988
X6.3573Y-4.7224
X6.3573Y-5.7461
X6.3573Y-6.7697
X6.4951Y-1.9252
X6.4951Y-2.9488
X6.4951Y-3.9724
X6.4951Y-4.9961
X6.4951Y-6.0197
X6.4951Y-7.0433
X6.6073Y-1.5807
X6.6073Y-2.6043
X6.6073Y-3.628
X6.6073Y-4.6516
X6.6073Y-5.6752
X6.6073Y-6.6988
X7.0384Y-1.8051
X7.0384Y-2.8287
X7.0384Y-3.8524
X7.0384Y-4.876
X7.0384Y-5.8996
X7.0384Y-6.9232
X7.0719Y-1.8051
X7.0719Y-2.8287
X7.0719Y-3.8524
X7.0719Y-4.876
X7.0719Y-5.8996
X7.0719Y-6.9232
X7.0817Y-1.3386
X7.0817Y-2.3622
X7.0817Y-3.3858
X7.0817Y-4.4094
X7.0817Y-5.4331
X7.0817Y-6.4567
X7.1191Y-1.3386
X7.1191Y-2.3622
X7.1191Y-3.3858
X7.1191Y-4.4094
X7.1191Y-5.4331
X7.1191Y-6.4567
X7.2451Y-1.2264
X7.2451Y-2.25
X7.2451Y-3.2736
X7.2451Y-4.2972
X7.2451Y-5.3209
X7.2451Y-6.3445
X7.2785Y-1.2992
X7.2785Y-2.3228
X7.2785Y-3.3465
X7.2785Y-4.3701
X7.2785Y-5.3937
X7.2785Y-6.4173
X7.4419Y-1.6535
X7.4419Y-2.6772
X7.4419Y-3.7008
X7.4419Y-4.7244
X7.4419Y-5.748
X7.4419Y-6.7717
X7.5069Y-2.002
X7.5069Y-3.0256
X7.5069Y-4.0492
X7.5069Y-5.0728
X7.5069Y-6.0965
X7.5069Y-7.1201
X7.6447Y-1.8425
X7.6447Y-2.8661
X7.6447Y-3.8898
X7.6447Y-4.9134
X7.6447Y-5.937
X7.6447Y-6.9606
X7.7569Y-1.1654
X7.7569Y-2.189
X7.7569Y-3.2126
X7.7569Y-4.2362
X7.7569Y-5.2598
X7.7569Y-6.2835
X7.7864Y-1.7244
X7.7864Y-2.748
X7.7864Y-3.7717
X7.7864Y-4.7953
X7.7864Y-5.8189
X7.7864Y-6.8425
X7.9813Y-1.9488
X7.9813Y-2.9724
X7.9813Y-3.9961
X7.9813Y-5.0197
X7.9813Y-6.0433
X7.9813Y-7.0669
X8.0404Y-1.6634
X8.0404Y-2.687
X8.0404Y-3.7106
X8.0404Y-4.7343
X8.0404Y-5.7579
X8.0404Y-6.7815
X8.0502Y-1.7579
X8.0502Y-2.7815
X8.0502Y-3.8051
X8.0502Y-4.8287
X8.0502Y-5.8524
X8.0502Y-6.876
X8.0974Y-1.1988
X8.0974Y-2.2224
X8.0974Y-3.2461
X8.0974Y-4.2697
X8.0974Y-5.2933
X8.0974Y-6.3169
X8.127Y-1.9783
X8.127Y-3.002
X8.127Y-4.0256
X8.127Y-5.0492
X8.127Y-6.0728
X8.127Y-7.0965
X8.253Y-1.7815
X8.253Y-2.8051
X8.253Y-3.8287
X8.253Y-4.8524
X8.253Y-5.876
X8.253Y-6.8996
X8.373Y-1.7815
X8.373Y-2.8051
X8.373Y-3.8287
X8.373Y-4.8524
X8.373Y-5.876
X8.373Y-6.8996
X8.4104Y-1.4665
X8.4104Y-2.4902
X8.4104Y-3.5138
X8.4104Y-4.5374
X8.4104Y-5.561
X8.4104Y-6.5846
X8.4498Y-1.6516
X8.4498Y-2.6752
X8.4498Y-3.6988
X8.4498Y-4.7224
X8.4498Y-5.7461
X8.4498Y-6.7697
X8.5876Y-1.9252
X8.5876Y-2.9488
X8.5876Y-3.9724
X8.5876Y-4.9961
X8.5876Y-6.0197
X8.5876Y-7.0433
X8.6998Y-1.5807
X8.6998Y-2.6043
X8.6998Y-3.628
X8.6998Y-4.6516
X8.6998Y-5.6752
X8.6998Y-6.6988
X9.1309Y-1.8051
X9.1309Y-2.8287
X9.1309Y-3.8524
X9.1309Y-4.876
X9.1309Y-5.8996
X9.1309Y-6.9232
X9.1644Y-1.8051
X9.1644Y-2.8287
X9.1644Y-3.8524
X9.1644Y-4.876
X9.1644Y-5.8996
X9.1644Y-6.9232
X9.1742Y-1.3386
X9.1742Y-2.3622
X9.1742Y-3.3858
X9.1742Y-4.4094
X9.1742Y-5.4331
X9.1742Y-6.4567
X9.2116Y-1.3386
X9.2116Y-2.3622
X9.2116Y-3.3858
X9.2116Y-4.4094
X9.2116Y-5.4331
X9.2116Y-6.4567
X9.3376Y-1.2264
X9.3376Y-2.25
X9.3376Y-3.2736
X9.3376Y-4.2972
X9.3376Y-5.3209
X9.3376Y-6.3445
X9.3711Y-1.2992
X9.3711Y-2.3228
X9.3711Y-3.3465
X9.3711Y-4.3701
X9.3711Y-5.3937
X9.3711Y-6.4173
X9.5344Y-1.6535
X9.5344Y-2.6772
X9.5344Y-3.7008
X9.5344Y-4.7244
X9.5344Y-5.748
X9.5344Y-6.7717
X9.5994Y-2.002
X9.5994Y-3.0256
X9.5994Y-4.0492
X9.5994Y-5.0728
X9.5994Y-6.0965
X9.5994Y-7.1201
X9.7372Y-1.8425
X9.7372Y-2.8661
X9.7372Y-3.8898
X9.7372Y-4.9134
X9.7372Y-5.937
X9.7372Y-6.9606
X9.8494Y-1.1654
X9.8494Y-2.189
X9.8494Y-3.2126
X9.8494Y-4.2362
X9.8494Y-5.2598
X9.8494Y-6.2835
X9.8789Y-1.7244
X9.8789Y-2.748
X9.8789Y-3.7717
X9.8789Y-4.7953
X9.8789Y-5.8189
X9.8789Y-6.8425
X10.0738Y-1.9488
X10.0738Y-2.9724
X10.0738Y-3.9961
X10.0738Y-5.0197
X10.0738Y-6.0433
X10.0738Y-7.0669
X10.1329Y-1.6634
X10.1329Y-2.687
X10.1329Y-3.7106
X10.1329Y-4.7343
X10.1329Y-5.7579
X10.1329Y-6.7815
X10.1427Y-1.7579
X10.1427Y-2.7815
X10.1427Y-3.8051
X10.1427Y-4.8287
X10.1427Y-5.8524
X10.1427Y-6.876
X10.19Y-1.1988
X10.19Y-2.2224
X10.19Y-3.2461
X10.19Y-4.2697
X10.19Y-5.2933
X10.19Y-6.3169
X10.2195Y-1.9783
X10.2195Y-3.002
X10.2195Y-4.0256
X10.2195Y-5.0492
X10.2195Y-6.0728
X10.2195Y-7.0965
X10.3455Y-1.7815
X10.3455Y-2.8051
X10.3455Y-3.8287
X10.3455Y-4.8524
X10.3455Y-5.876
X10.3455Y-6.8996
X10.4656Y-1.7815
X10.4656Y-2.8051
X10.4656Y-3.8287
X10.4656Y-4.8524
X10.4656Y-5.876
X10.4656Y-6.8996
X10.503Y-1.4665
X10.503Y-2.4902
X10.503Y-3.5138
X10.503Y-4.5374
X10.503Y-5.561
X10.503Y-6.5846
X10.5423Y-1.6516
X10.5423Y-2.6752
X10.5423Y-3.6988
X10.5423Y-4.7224
X10.5423Y-5.7461
X10.5423Y-6.7697
X10.6801Y-1.9252
X10.6801Y-2.9488
X10.6801Y-3.9724
X10.6801Y-4.9961
X10.6801Y-6.0197
X10.6801Y-7.0433
X10.7923Y-1.5807
X10.7923Y-2.6043
X10.7923Y-3.628
X10.7923Y-4.6516
X10.7923Y-5.6752
X10.7923Y-6.6988
T5
X1.997Y-1.251
X1.997Y-1.351
X1.997Y-2.2746
X1.997Y-2.3746
X1.997Y-3.2982
X1.997Y-3.3982
X1.997Y-4.3219
X1.997Y-4.4219
X1.997Y-5.3455
X1.997Y-5.4455
X1.997Y-6.3691
X1.997Y-6.4691
X4.0896Y-1.251
X4.0896Y-1.351
X4.0896Y-2.2746
X4.0896Y-2.3746
X4.0896Y-3.2982
X4.0896Y-3.3982
X4.0896Y-4.3219
X4.0896Y-4.4219
X4.0896Y-5.3455
X4.0896Y-5.4455
X4.0896Y-6.3691
X4.0896Y-6.4691
X6.1821Y-1.251
X6.1821Y-1.351
X6.1821Y-2.2746
X6.1821Y-2.3746
X6.1821Y-3.2982
X6.1821Y-3.3982
X6.1821Y-4.3219
X6.1821Y-4.4219
X6.1821Y-5.3455
X6.1821Y-5.4455
X6.1821Y-6.3691
X6.1821Y-6.4691
X8.2746Y-1.251
X8.2746Y-1.351
X8.2746Y-2.2746
X8.2746Y-2.3746
X8.2746Y-3.2982
X8.2746Y-3.3982
X8.2746Y-4.3219
X8.2746Y-4.4219
X8.2746Y-5.3455
X8.2746Y-5.4455
X8.2746Y-6.3691
X8.2746Y-6.4691
X10.3671Y-1.251
X10.3671Y-1.351
X10.3671Y-2.2746
X10.3671Y-2.3746
X10.3671Y-3.2982
X10.3671Y-3.3982
X10.3671Y-4.3219
X10.3671Y-4.4219
X10.3671Y-5.3455
X10.3671Y-5.4455
X10.3671Y-6.3691
X10.3671Y-6.4691
T3
G00X2.3159Y-1.7795
M15
G01X2.2766Y-1.7795
M16
G05
G00X2.3159Y-2.8031
M15
G01X2.2766Y-2.8031
M16
G05
G00X2.3159Y-3.8268
M15
G01X2.2766Y-3.8268
M16
G05
G00X2.3159Y-4.8504
M15
G01X2.2766Y-4.8504
M16
G05
G00X2.3159Y-5.874
M15
G01X2.2766Y-5.874
M16
G05
G00X2.3159Y-6.8976
M15
G01X2.2766Y-6.8976
M16
G05
G00X2.4537Y-1.3858
M15
G01X2.4144Y-1.3858
M16
G05
G00X2.4537Y-2.4094
M15
G01X2.4144Y-2.4094
M16
G05
G00X2.4537Y-3.4331
M15
G01X2.4144Y-3.4331
M16
G05
G00X2.4537Y-4.4567
M15
G01X2.4144Y-4.4567
M16
G05
G00X2.4537Y-5.4803
M15
G01X2.4144Y-5.4803
M16
G05
G00X2.4537Y-6.5039
M15
G01X2.4144Y-6.5039
M16
G05
G00X2.6073Y-1.5945
M15
G01X2.6073Y-1.5551
M16
G05
G00X2.6073Y-2.6181
M15
G01X2.6073Y-2.5787
M16
G05
G00X2.6073Y-3.6417
M15
G01X2.6073Y-3.6024
M16
G05
G00X2.6073Y-4.6654
M15
G01X2.6073Y-4.626
M16
G05
G00X2.6073Y-5.689
M15
G01X2.6073Y-5.6496
M16
G05
G00X2.6073Y-6.7126
M15
G01X2.6073Y-6.6732
M16
G05
G00X4.4085Y-1.7795
M15
G01X4.3691Y-1.7795
M16
G05
G00X4.4085Y-2.8031
M15
G01X4.3691Y-2.8031
M16
G05
G00X4.4085Y-3.8268
M15
G01X4.3691Y-3.8268
M16
G05
G00X4.4085Y-4.8504
M15
G01X4.3691Y-4.8504
M16
G05
G00X4.4085Y-5.874
M15
G01X4.3691Y-5.874
M16
G05
G00X4.4085Y-6.8976
M15
G01X4.3691Y-6.8976
M16
G05
G00X4.5463Y-1.3858
M15
G01X4.5069Y-1.3858
M16
G05
G00X4.5463Y-2.4094
M15
G01X4.5069Y-2.4094
M16
G05
G00X4.5463Y-3.4331
M15
G01X4.5069Y-3.4331
M16
G05
G00X4.5463Y-4.4567
M15
G01X4.5069Y-4.4567
M16
G05
G00X4.5463Y-5.4803
M15
G01X4.5069Y-5.4803
M16
G05
G00X4.5463Y-6.5039
M15
G01X4.5069Y-6.5039
M16
G05
G00X4.6998Y-1.5945
M15
G01X4.6998Y-1.5551
M16
G05
G00X4.6998Y-2.6181
M15
G01X4.6998Y-2.5787
M16
G05
G00X4.6998Y-3.6417
M15
G01X4.6998Y-3.6024
M16
G05
G00X4.6998Y-4.6654
M15
G01X4.6998Y-4.626
M16
G05
G00X4.6998Y-5.689
M15
G01X4.6998Y-5.6496
M16
G05
G00X4.6998Y-6.7126
M15
G01X4.6998Y-6.6732
M16
G05
G00X6.501Y-1.7795
M15
G01X6.4616Y-1.7795
M16
G05
G00X6.501Y-2.8031
M15
G01X6.4616Y-2.8031
M16
G05
G00X6.501Y-3.8268
M15
G01X6.4616Y-3.8268
M16
G05
G00X6.501Y-4.8504
M15
G01X6.4616Y-4.8504
M16
G05
G00X6.501Y-5.874
M15
G01X6.4616Y-5.874
M16
G05
G00X6.501Y-6.8976
M15
G01X6.4616Y-6.8976
M16
G05
G00X6.6388Y-1.3858
M15
G01X6.5994Y-1.3858
M16
G05
G00X6.6388Y-2.4094
M15
G01X6.5994Y-2.4094
M16
G05
G00X6.6388Y-3.4331
M15
G01X6.5994Y-3.4331
M16
G05
G00X6.6388Y-4.4567
M15
G01X6.5994Y-4.4567
M16
G05
G00X6.6388Y-5.4803
M15
G01X6.5994Y-5.4803
M16
G05
G00X6.6388Y-6.5039
M15
G01X6.5994Y-6.5039
M16
G05
G00X6.7923Y-1.5945
M15
G01X6.7923Y-1.5551
M16
G05
G00X6.7923Y-2.6181
M15
G01X6.7923Y-2.5787
M16
G05
G00X6.7923Y-3.6417
M15
G01X6.7923Y-3.6024
M16
G05
G00X6.7923Y-4.6654
M15
G01X6.7923Y-4.626
M16
G05
G00X6.7923Y-5.689
M15
G01X6.7923Y-5.6496
M16
G05
G00X6.7923Y-6.7126
M15
G01X6.7923Y-6.6732
M16
G05
G00X8.5935Y-1.7795
M15
G01X8.5541Y-1.7795
M16
G05
G00X8.5935Y-2.8031
M15
G01X8.5541Y-2.8031
M16
G05
G00X8.5935Y-3.8268
M15
G01X8.5541Y-3.8268
M16
G05
G00X8.5935Y-4.8504
M15
G01X8.5541Y-4.8504
M16
G05
G00X8.5935Y-5.874
M15
G01X8.5541Y-5.874
M16
G05
G00X8.5935Y-6.8976
M15
G01X8.5541Y-6.8976
M16
G05
G00X8.7313Y-1.3858
M15
G01X8.6919Y-1.3858
M16
G05
G00X8.7313Y-2.4094
M15
G01X8.6919Y-2.4094
M16
G05
G00X8.7313Y-3.4331
M15
G01X8.6919Y-3.4331
M16
G05
G00X8.7313Y-4.4567
M15
G01X8.6919Y-4.4567
M16
G05
G00X8.7313Y-5.4803
M15
G01X8.6919Y-5.4803
M16
G05
G00X8.7313Y-6.5039
M15
G01X8.6919Y-6.5039
M16
G05
G00X8.8848Y-1.5945
M15
G01X8.8848Y-1.5551
M16
G05
G00X8.8848Y-2.6181
M15
G01X8.8848Y-2.5787
M16
G05
G00X8.8848Y-3.6417
M15
G01X8.8848Y-3.6024
M16
G05
G00X8.8848Y-4.6654
M15
G01X8.8848Y-4.626
M16
G05
G00X8.8848Y-5.689
M15
G01X8.8848Y-5.6496
M16
G05
G00X8.8848Y-6.7126
M15
G01X8.8848Y-6.6732
M16
G05
G00X10.686Y-1.7795
M15
G01X10.6467Y-1.7795
M16
G05
G00X10.686Y-2.8031
M15
G01X10.6467Y-2.8031
M16
G05
G00X10.686Y-3.8268
M15
G01X10.6467Y-3.8268
M16
G05
G00X10.686Y-4.8504
M15
G01X10.6467Y-4.8504
M16
G05
G00X10.686Y-5.874
M15
G01X10.6467Y-5.874
M16
G05
G00X10.686Y-6.8976
M15
G01X10.6467Y-6.8976
M16
G05
G00X10.8238Y-1.3858
M15
G01X10.7844Y-1.3858
M16
G05
G00X10.8238Y-2.4094
M15
G01X10.7844Y-2.4094
M16
G05
G00X10.8238Y-3.4331
M15
G01X10.7844Y-3.4331
M16
G05
G00X10.8238Y-4.4567
M15
G01X10.7844Y-4.4567
M16
G05
G00X10.8238Y-5.4803
M15
G01X10.7844Y-5.4803
M16
G05
G00X10.8238Y-6.5039
M15
G01X10.7844Y-6.5039
M16
G05
G00X10.9774Y-1.5945
M15
G01X10.9774Y-1.5551
M16
G05
G00X10.9774Y-2.6181
M15
G01X10.9774Y-2.5787
M16
G05
G00X10.9774Y-3.6417
M15
G01X10.9774Y-3.6024
M16
G05
G00X10.9774Y-4.6654
M15
G01X10.9774Y-4.626
M16
G05
G00X10.9774Y-5.689
M15
G01X10.9774Y-5.6496
M16
G05
G00X10.9774Y-6.7126
M15
G01X10.9774Y-6.6732
M16
G05
T4
G00X0.7589Y-1.4028
M15
G01X0.7116Y-1.4028
M16
G05
G00X0.7589Y-1.7429
M15
G01X0.7116Y-1.7429
M16
G05
G00X0.7589Y-2.4264
M15
G01X0.7116Y-2.4264
M16
G05
G00X0.7589Y-2.7665
M15
G01X0.7116Y-2.7665
M16
G05
G00X0.7589Y-3.45
M15
G01X0.7116Y-3.45
M16
G05
G00X0.7589Y-3.7902
M15
G01X0.7116Y-3.7902
M16
G05
G00X0.7589Y-4.4736
M15
G01X0.7116Y-4.4736
M16
G05
G00X0.7589Y-4.8138
M15
G01X0.7116Y-4.8138
M16
G05
G00X0.7589Y-5.4972
M15
G01X0.7116Y-5.4972
M16
G05
G00X0.7589Y-5.8374
M15
G01X0.7116Y-5.8374
M16
G05
G00X0.7589Y-6.5209
M15
G01X0.7116Y-6.5209
M16
G05
G00X0.7589Y-6.861
M15
G01X0.7116Y-6.861
M16
G05
G00X0.9085Y-1.4028
M15
G01X0.877Y-1.4028
M16
G05
G00X0.9085Y-1.7429
M15
G01X0.877Y-1.7429
M16
G05
G00X0.9085Y-2.4264
M15
G01X0.877Y-2.4264
M16
G05
G00X0.9085Y-2.7665
M15
G01X0.877Y-2.7665
M16
G05
G00X0.9085Y-3.45
M15
G01X0.877Y-3.45
M16
G05
G00X0.9085Y-3.7902
M15
G01X0.877Y-3.7902
M16
G05
G00X0.9085Y-4.4736
M15
G01X0.877Y-4.4736
M16
G05
G00X0.9085Y-4.8138
M15
G01X0.877Y-4.8138
M16
G05
G00X0.9085Y-5.4972
M15
G01X0.877Y-5.4972
M16
G05
G00X0.9085Y-5.8374
M15
G01X0.877Y-5.8374
M16
G05
G00X0.9085Y-6.5209
M15
G01X0.877Y-6.5209
M16
G05
G00X0.9085Y-6.861
M15
G01X0.877Y-6.861
M16
G05
G00X2.8514Y-1.4028
M15
G01X2.8041Y-1.4028
M16
G05
G00X2.8514Y-1.7429
M15
G01X2.8041Y-1.7429
M16
G05
G00X2.8514Y-2.4264
M15
G01X2.8041Y-2.4264
M16
G05
G00X2.8514Y-2.7665
M15
G01X2.8041Y-2.7665
M16
G05
G00X2.8514Y-3.45
M15
G01X2.8041Y-3.45
M16
G05
G00X2.8514Y-3.7902
M15
G01X2.8041Y-3.7902
M16
G05
G00X2.8514Y-4.4736
M15
G01X2.8041Y-4.4736
M16
G05
G00X2.8514Y-4.8138
M15
G01X2.8041Y-4.8138
M16
G05
G00X2.8514Y-5.4972
M15
G01X2.8041Y-5.4972
M16
G05
G00X2.8514Y-5.8374
M15
G01X2.8041Y-5.8374
M16
G05
G00X2.8514Y-6.5209
M15
G01X2.8041Y-6.5209
M16
G05
G00X2.8514Y-6.861
M15
G01X2.8041Y-6.861
M16
G05
G00X3.001Y-1.4028
M15
G01X2.9695Y-1.4028
M16
G05
G00X3.001Y-1.7429
M15
G01X2.9695Y-1.7429
M16
G05
G00X3.001Y-2.4264
M15
G01X2.9695Y-2.4264
M16
G05
G00X3.001Y-2.7665
M15
G01X2.9695Y-2.7665
M16
G05
G00X3.001Y-3.45
M15
G01X2.9695Y-3.45
M16
G05
G00X3.001Y-3.7902
M15
G01X2.9695Y-3.7902
M16
G05
G00X3.001Y-4.4736
M15
G01X2.9695Y-4.4736
M16
G05
G00X3.001Y-4.8138
M15
G01X2.9695Y-4.8138
M16
G05
G00X3.001Y-5.4972
M15
G01X2.9695Y-5.4972
M16
G05
G00X3.001Y-5.8374
M15
G01X2.9695Y-5.8374
M16
G05
G00X3.001Y-6.5209
M15
G01X2.9695Y-6.5209
M16
G05
G00X3.001Y-6.861
M15
G01X2.9695Y-6.861
M16
G05
G00X4.9439Y-1.4028
M15
G01X4.8967Y-1.4028
M16
G05
G00X4.9439Y-1.7429
M15
G01X4.8967Y-1.7429
M16
G05
G00X4.9439Y-2.4264
M15
G01X4.8967Y-2.4264
M16
G05
G00X4.9439Y-2.7665
M15
G01X4.8967Y-2.7665
M16
G05
G00X4.9439Y-3.45
M15
G01X4.8967Y-3.45
M16
G05
G00X4.9439Y-3.7902
M15
G01X4.8967Y-3.7902
M16
G05
G00X4.9439Y-4.4736
M15
G01X4.8967Y-4.4736
M16
G05
G00X4.9439Y-4.8138
M15
G01X4.8967Y-4.8138
M16
G05
G00X4.9439Y-5.4972
M15
G01X4.8967Y-5.4972
M16
G05
G00X4.9439Y-5.8374
M15
G01X4.8967Y-5.8374
M16
G05
G00X4.9439Y-6.5209
M15
G01X4.8967Y-6.5209
M16
G05
G00X4.9439Y-6.861
M15
G01X4.8967Y-6.861
M16
G05
G00X5.0935Y-1.4028
M15
G01X5.062Y-1.4028
M16
G05
G00X5.0935Y-1.7429
M15
G01X5.062Y-1.7429
M16
G05
G00X5.0935Y-2.4264
M15
G01X5.062Y-2.4264
M16
G05
G00X5.0935Y-2.7665
M15
G01X5.062Y-2.7665
M16
G05
G00X5.0935Y-3.45
M15
G01X5.062Y-3.45
M16
G05
G00X5.0935Y-3.7902
M15
G01X5.062Y-3.7902
M16
G05
G00X5.0935Y-4.4736
M15
G01X5.062Y-4.4736
M16
G05
G00X5.0935Y-4.8138
M15
G01X5.062Y-4.8138
M16
G05
G00X5.0935Y-5.4972
M15
G01X5.062Y-5.4972
M16
G05
G00X5.0935Y-5.8374
M15
G01X5.062Y-5.8374
M16
G05
G00X5.0935Y-6.5209
M15
G01X5.062Y-6.5209
M16
G05
G00X5.0935Y-6.861
M15
G01X5.062Y-6.861
M16
G05
G00X7.0364Y-1.4028
M15
G01X6.9892Y-1.4028
M16
G05
G00X7.0364Y-1.7429
M15
G01X6.9892Y-1.7429
M16
G05
G00X7.0364Y-2.4264
M15
G01X6.9892Y-2.4264
M16
G05
G00X7.0364Y-2.7665
M15
G01X6.9892Y-2.7665
M16
G05
G00X7.0364Y-3.45
M15
G01X6.9892Y-3.45
M16
G05
G00X7.0364Y-3.7902
M15
G01X6.9892Y-3.7902
M16
G05
G00X7.0364Y-4.4736
M15
G01X6.9892Y-4.4736
M16
G05
G00X7.0364Y-4.8138
M15
G01X6.9892Y-4.8138
M16
G05
G00X7.0364Y-5.4972
M15
G01X6.9892Y-5.4972
M16
G05
G00X7.0364Y-5.8374
M15
G01X6.9892Y-5.8374
M16
G05
G00X7.0364Y-6.5209
M15
G01X6.9892Y-6.5209
M16
G05
G00X7.0364Y-6.861
M15
G01X6.9892Y-6.861
M16
G05
G00X7.186Y-1.4028
M15
G01X7.1545Y-1.4028
M16
G05
G00X7.186Y-1.7429
M15
G01X7.1545Y-1.7429
M16
G05
G00X7.186Y-2.4264
M15
G01X7.1545Y-2.4264
M16
G05
G00X7.186Y-2.7665
M15
G01X7.1545Y-2.7665
M16
G05
G00X7.186Y-3.45
M15
G01X7.1545Y-3.45
M16
G05
G00X7.186Y-3.7902
M15
G01X7.1545Y-3.7902
M16
G05
G00X7.186Y-4.4736
M15
G01X7.1545Y-4.4736
M16
G05
G00X7.186Y-4.8138
M15
G01X7.1545Y-4.8138
M16
G05
G00X7.186Y-5.4972
M15
G01X7.1545Y-5.4972
M16
G05
G00X7.186Y-5.8374
M15
G01X7.1545Y-5.8374
M16
G05
G00X7.186Y-6.5209
M15
G01X7.1545Y-6.5209
M16
G05
G00X7.186Y-6.861
M15
G01X7.1545Y-6.861
M16
G05
G00X9.1289Y-1.4028
M15
G01X9.0817Y-1.4028
M16
G05
G00X9.1289Y-1.7429
M15
G01X9.0817Y-1.7429
M16
G05
G00X9.1289Y-2.4264
M15
G01X9.0817Y-2.4264
M16
G05
G00X9.1289Y-2.7665
M15
G01X9.0817Y-2.7665
M16
G05
G00X9.1289Y-3.45
M15
G01X9.0817Y-3.45
M16
G05
G00X9.1289Y-3.7902
M15
G01X9.0817Y-3.7902
M16
G05
G00X9.1289Y-4.4736
M15
G01X9.0817Y-4.4736
M16
G05
G00X9.1289Y-4.8138
M15
G01X9.0817Y-4.8138
M16
G05
G00X9.1289Y-5.4972
M15
G01X9.0817Y-5.4972
M16
G05
G00X9.1289Y-5.8374
M15
G01X9.0817Y-5.8374
M16
G05
G00X9.1289Y-6.5209
M15
G01X9.0817Y-6.5209
M16
G05
G00X9.1289Y-6.861
M15
G01X9.0817Y-6.861
M16
G05
G00X9.2785Y-1.4028
M15
G01X9.247Y-1.4028
M16
G05
G00X9.2785Y-1.7429
M15
G01X9.247Y-1.7429
M16
G05
G00X9.2785Y-2.4264
M15
G01X9.247Y-2.4264
M16
G05
G00X9.2785Y-2.7665
M15
G01X9.247Y-2.7665
M16
G05
G00X9.2785Y-3.45
M15
G01X9.247Y-3.45
M16
G05
G00X9.2785Y-3.7902
M15
G01X9.247Y-3.7902
M16
G05
G00X9.2785Y-4.4736
M15
G01X9.247Y-4.4736
M16
G05
G00X9.2785Y-4.8138
M15
G01X9.247Y-4.8138
M16
G05
G00X9.2785Y-5.4972
M15
G01X9.247Y-5.4972
M16
G05
G00X9.2785Y-5.8374
M15
G01X9.247Y-5.8374
M16
G05
G00X9.2785Y-6.5209
M15
G01X9.247Y-6.5209
M16
G05
G00X9.2785Y-6.861
M15
G01X9.247Y-6.861
M16
G05
T0
M30
