%TF.GenerationSoftware,KiCad,Pcbnew,7.0.2*%
%TF.CreationDate,2023-06-29T11:18:24+02:00*%
%TF.ProjectId,zvukovka_panel,7a76756b-6f76-46b6-915f-70616e656c2e,rev?*%
%TF.SameCoordinates,Original*%
%TF.FileFunction,Paste,Top*%
%TF.FilePolarity,Positive*%
%FSLAX46Y46*%
G04 Gerber Fmt 4.6, Leading zero omitted, Abs format (unit mm)*
G04 Created by KiCad (PCBNEW 7.0.2) date 2023-06-29 11:18:24*
%MOMM*%
%LPD*%
G01*
G04 APERTURE LIST*
G04 Aperture macros list*
%AMRoundRect*
0 Rectangle with rounded corners*
0 $1 Rounding radius*
0 $2 $3 $4 $5 $6 $7 $8 $9 X,Y pos of 4 corners*
0 Add a 4 corners polygon primitive as box body*
4,1,4,$2,$3,$4,$5,$6,$7,$8,$9,$2,$3,0*
0 Add four circle primitives for the rounded corners*
1,1,$1+$1,$2,$3*
1,1,$1+$1,$4,$5*
1,1,$1+$1,$6,$7*
1,1,$1+$1,$8,$9*
0 Add four rect primitives between the rounded corners*
20,1,$1+$1,$2,$3,$4,$5,0*
20,1,$1+$1,$4,$5,$6,$7,0*
20,1,$1+$1,$6,$7,$8,$9,0*
20,1,$1+$1,$8,$9,$2,$3,0*%
G04 Aperture macros list end*
%ADD10RoundRect,0.250000X-0.475000X0.250000X-0.475000X-0.250000X0.475000X-0.250000X0.475000X0.250000X0*%
%ADD11RoundRect,0.250000X0.450000X-0.262500X0.450000X0.262500X-0.450000X0.262500X-0.450000X-0.262500X0*%
%ADD12RoundRect,0.250000X-0.450000X0.262500X-0.450000X-0.262500X0.450000X-0.262500X0.450000X0.262500X0*%
%ADD13RoundRect,0.250000X0.262500X0.450000X-0.262500X0.450000X-0.262500X-0.450000X0.262500X-0.450000X0*%
%ADD14RoundRect,0.250000X0.250000X0.475000X-0.250000X0.475000X-0.250000X-0.475000X0.250000X-0.475000X0*%
%ADD15R,2.100000X1.700000*%
%ADD16RoundRect,0.250000X-1.000000X-0.650000X1.000000X-0.650000X1.000000X0.650000X-1.000000X0.650000X0*%
%ADD17RoundRect,0.250000X-0.250000X-0.475000X0.250000X-0.475000X0.250000X0.475000X-0.250000X0.475000X0*%
%ADD18RoundRect,0.250000X0.475000X-0.250000X0.475000X0.250000X-0.475000X0.250000X-0.475000X-0.250000X0*%
%ADD19RoundRect,0.150000X-0.150000X0.512500X-0.150000X-0.512500X0.150000X-0.512500X0.150000X0.512500X0*%
%ADD20R,1.000000X1.900000*%
%ADD21RoundRect,0.250000X-0.262500X-0.450000X0.262500X-0.450000X0.262500X0.450000X-0.262500X0.450000X0*%
%ADD22R,1.600000X0.550000*%
%ADD23R,0.550000X1.600000*%
%ADD24R,1.200000X0.600000*%
%ADD25R,1.200000X0.300000*%
%ADD26RoundRect,0.250000X-0.650000X0.250000X-0.650000X-0.250000X0.650000X-0.250000X0.650000X0.250000X0*%
%ADD27RoundRect,0.250000X-0.850000X0.250000X-0.850000X-0.250000X0.850000X-0.250000X0.850000X0.250000X0*%
G04 APERTURE END LIST*
D10*
%TO.C,C13*%
X157375000Y-151650000D03*
X157375000Y-153550000D03*
%TD*%
D11*
%TO.C,R5*%
X185425000Y-122812500D03*
X185425000Y-120987500D03*
%TD*%
D12*
%TO.C,R4*%
X190725000Y-121587500D03*
X190725000Y-123412500D03*
%TD*%
%TO.C,R4*%
X243875000Y-121587500D03*
X243875000Y-123412500D03*
%TD*%
D11*
%TO.C,R5*%
X25975000Y-122812500D03*
X25975000Y-120987500D03*
%TD*%
D13*
%TO.C,R3*%
X242287500Y-116100000D03*
X240462500Y-116100000D03*
%TD*%
D11*
%TO.C,R5*%
X132275000Y-122812500D03*
X132275000Y-120987500D03*
%TD*%
D14*
%TO.C,C14*%
X46625000Y-61300000D03*
X44725000Y-61300000D03*
%TD*%
D15*
%TO.C,Y2*%
X75825000Y-179950000D03*
X81725000Y-179950000D03*
X81725000Y-177250000D03*
X75825000Y-177250000D03*
%TD*%
D13*
%TO.C,R3*%
X29687500Y-142100000D03*
X27862500Y-142100000D03*
%TD*%
D16*
%TO.C,D1*%
X196525000Y-179500000D03*
X200525000Y-179500000D03*
%TD*%
D10*
%TO.C,C9*%
X42225000Y-146850000D03*
X42225000Y-148750000D03*
%TD*%
D16*
%TO.C,D1*%
X90225000Y-49500000D03*
X94225000Y-49500000D03*
%TD*%
D17*
%TO.C,C11*%
X97875000Y-63300000D03*
X99775000Y-63300000D03*
%TD*%
D18*
%TO.C,C2*%
X84475000Y-49150000D03*
X84475000Y-47250000D03*
%TD*%
D14*
%TO.C,C17*%
X99775000Y-59200000D03*
X97875000Y-59200000D03*
%TD*%
%TO.C,C14*%
X259225000Y-113300000D03*
X257325000Y-113300000D03*
%TD*%
D15*
%TO.C,Y2*%
X182125000Y-153950000D03*
X188025000Y-153950000D03*
X188025000Y-151250000D03*
X182125000Y-151250000D03*
%TD*%
D14*
%TO.C,C10*%
X261425000Y-43800000D03*
X259525000Y-43800000D03*
%TD*%
D19*
%TO.C,U3*%
X48875000Y-176462500D03*
X47925000Y-176462500D03*
X46975000Y-176462500D03*
X46975000Y-178737500D03*
X47925000Y-178737500D03*
X48875000Y-178737500D03*
%TD*%
D16*
%TO.C,D1*%
X37075000Y-49500000D03*
X41075000Y-49500000D03*
%TD*%
D11*
%TO.C,R7*%
X235675000Y-58962500D03*
X235675000Y-57137500D03*
%TD*%
D14*
%TO.C,C10*%
X261425000Y-121800000D03*
X259525000Y-121800000D03*
%TD*%
D11*
%TO.C,R7*%
X76225000Y-58962500D03*
X76225000Y-57137500D03*
%TD*%
D18*
%TO.C,C8*%
X199625000Y-70750000D03*
X199625000Y-68850000D03*
%TD*%
D14*
%TO.C,C17*%
X99775000Y-111200000D03*
X97875000Y-111200000D03*
%TD*%
%TO.C,C14*%
X259225000Y-87300000D03*
X257325000Y-87300000D03*
%TD*%
D18*
%TO.C,C2*%
X31325000Y-127150000D03*
X31325000Y-125250000D03*
%TD*%
D10*
%TO.C,C3*%
X179475000Y-126000000D03*
X179475000Y-127900000D03*
%TD*%
D18*
%TO.C,C6*%
X34675000Y-44850000D03*
X34675000Y-42950000D03*
%TD*%
D20*
%TO.C,L1*%
X241475000Y-161900000D03*
X239875000Y-161900000D03*
%TD*%
D16*
%TO.C,D1*%
X196525000Y-101500000D03*
X200525000Y-101500000D03*
%TD*%
D21*
%TO.C,R2*%
X240462500Y-62100000D03*
X242287500Y-62100000D03*
%TD*%
D14*
%TO.C,C1*%
X29725000Y-118200000D03*
X27825000Y-118200000D03*
%TD*%
D17*
%TO.C,C11*%
X204175000Y-167300000D03*
X206075000Y-167300000D03*
%TD*%
D18*
%TO.C,C7*%
X142975000Y-148850000D03*
X142975000Y-146950000D03*
%TD*%
%TO.C,C2*%
X84475000Y-127150000D03*
X84475000Y-125250000D03*
%TD*%
%TO.C,C7*%
X249275000Y-174850000D03*
X249275000Y-172950000D03*
%TD*%
D17*
%TO.C,C11*%
X204175000Y-37300000D03*
X206075000Y-37300000D03*
%TD*%
%TO.C,C11*%
X257325000Y-37300000D03*
X259225000Y-37300000D03*
%TD*%
D18*
%TO.C,C2*%
X31325000Y-49150000D03*
X31325000Y-47250000D03*
%TD*%
D14*
%TO.C,C10*%
X155125000Y-43800000D03*
X153225000Y-43800000D03*
%TD*%
D16*
%TO.C,D1*%
X143375000Y-127500000D03*
X147375000Y-127500000D03*
%TD*%
D10*
%TO.C,C3*%
X232625000Y-178000000D03*
X232625000Y-179900000D03*
%TD*%
D19*
%TO.C,U3*%
X155175000Y-124462500D03*
X154225000Y-124462500D03*
X153275000Y-124462500D03*
X153275000Y-126737500D03*
X154225000Y-126737500D03*
X155175000Y-126737500D03*
%TD*%
D13*
%TO.C,R3*%
X29687500Y-38100000D03*
X27862500Y-38100000D03*
%TD*%
D22*
%TO.C,U2*%
X33565000Y-33180000D03*
X33565000Y-33980000D03*
X33565000Y-34780000D03*
X33565000Y-35580000D03*
X33565000Y-36380000D03*
X33565000Y-37180000D03*
X33565000Y-37980000D03*
X33565000Y-38780000D03*
D23*
X35015000Y-40230000D03*
X35815000Y-40230000D03*
X36615000Y-40230000D03*
X37415000Y-40230000D03*
X38215000Y-40230000D03*
X39015000Y-40230000D03*
X39815000Y-40230000D03*
X40615000Y-40230000D03*
D22*
X42065000Y-38780000D03*
X42065000Y-37980000D03*
X42065000Y-37180000D03*
X42065000Y-36380000D03*
X42065000Y-35580000D03*
X42065000Y-34780000D03*
X42065000Y-33980000D03*
X42065000Y-33180000D03*
D23*
X40615000Y-31730000D03*
X39815000Y-31730000D03*
X39015000Y-31730000D03*
X38215000Y-31730000D03*
X37415000Y-31730000D03*
X36615000Y-31730000D03*
X35815000Y-31730000D03*
X35015000Y-31730000D03*
%TD*%
D13*
%TO.C,R1*%
X135987500Y-86200000D03*
X134162500Y-86200000D03*
%TD*%
D12*
%TO.C,R6*%
X55175000Y-151687500D03*
X55175000Y-153512500D03*
%TD*%
D18*
%TO.C,C2*%
X137625000Y-153150000D03*
X137625000Y-151250000D03*
%TD*%
%TO.C,C7*%
X142975000Y-70850000D03*
X142975000Y-68950000D03*
%TD*%
D14*
%TO.C,C17*%
X206075000Y-163200000D03*
X204175000Y-163200000D03*
%TD*%
%TO.C,C17*%
X99775000Y-137200000D03*
X97875000Y-137200000D03*
%TD*%
D21*
%TO.C,R2*%
X27862500Y-36100000D03*
X29687500Y-36100000D03*
%TD*%
D13*
%TO.C,R1*%
X29687500Y-138200000D03*
X27862500Y-138200000D03*
%TD*%
D16*
%TO.C,D1*%
X37075000Y-179500000D03*
X41075000Y-179500000D03*
%TD*%
D12*
%TO.C,R6*%
X108325000Y-47687500D03*
X108325000Y-49512500D03*
%TD*%
D17*
%TO.C,C11*%
X257325000Y-89300000D03*
X259225000Y-89300000D03*
%TD*%
D10*
%TO.C,C9*%
X254825000Y-146850000D03*
X254825000Y-148750000D03*
%TD*%
D14*
%TO.C,C1*%
X29725000Y-92200000D03*
X27825000Y-92200000D03*
%TD*%
D10*
%TO.C,C13*%
X210525000Y-47650000D03*
X210525000Y-49550000D03*
%TD*%
%TO.C,C13*%
X104225000Y-99650000D03*
X104225000Y-101550000D03*
%TD*%
D13*
%TO.C,R1*%
X135987500Y-138200000D03*
X134162500Y-138200000D03*
%TD*%
D14*
%TO.C,C10*%
X101975000Y-121800000D03*
X100075000Y-121800000D03*
%TD*%
D20*
%TO.C,L1*%
X135175000Y-109900000D03*
X133575000Y-109900000D03*
%TD*%
D18*
%TO.C,C2*%
X31325000Y-75150000D03*
X31325000Y-73250000D03*
%TD*%
D19*
%TO.C,U3*%
X48875000Y-150462500D03*
X47925000Y-150462500D03*
X46975000Y-150462500D03*
X46975000Y-152737500D03*
X47925000Y-152737500D03*
X48875000Y-152737500D03*
%TD*%
D13*
%TO.C,R1*%
X189137500Y-164200000D03*
X187312500Y-164200000D03*
%TD*%
D14*
%TO.C,C14*%
X99775000Y-165300000D03*
X97875000Y-165300000D03*
%TD*%
%TO.C,C10*%
X261425000Y-147800000D03*
X259525000Y-147800000D03*
%TD*%
D13*
%TO.C,R1*%
X82837500Y-86200000D03*
X81012500Y-86200000D03*
%TD*%
D14*
%TO.C,C1*%
X242325000Y-144200000D03*
X240425000Y-144200000D03*
%TD*%
D15*
%TO.C,Y2*%
X22675000Y-127950000D03*
X28575000Y-127950000D03*
X28575000Y-125250000D03*
X22675000Y-125250000D03*
%TD*%
D20*
%TO.C,L1*%
X188325000Y-57900000D03*
X186725000Y-57900000D03*
%TD*%
D18*
%TO.C,C6*%
X140975000Y-148850000D03*
X140975000Y-146950000D03*
%TD*%
D24*
%TO.C,J1*%
X76425000Y-140750000D03*
X76425000Y-147150000D03*
X76425000Y-141550000D03*
X76425000Y-146350000D03*
D25*
X76425000Y-142700000D03*
X76425000Y-143700000D03*
X76425000Y-144200000D03*
X76425000Y-145200000D03*
X76425000Y-145700000D03*
X76425000Y-144700000D03*
X76425000Y-143200000D03*
X76425000Y-142200000D03*
D26*
X75825000Y-139630000D03*
D27*
X71825000Y-139630000D03*
D26*
X75825000Y-148270000D03*
D27*
X71825000Y-148270000D03*
%TD*%
D14*
%TO.C,C14*%
X99775000Y-139300000D03*
X97875000Y-139300000D03*
%TD*%
D18*
%TO.C,C7*%
X249275000Y-148850000D03*
X249275000Y-146950000D03*
%TD*%
D16*
%TO.C,D1*%
X37075000Y-101500000D03*
X41075000Y-101500000D03*
%TD*%
D10*
%TO.C,C9*%
X201675000Y-68850000D03*
X201675000Y-70750000D03*
%TD*%
D24*
%TO.C,J1*%
X235875000Y-36750000D03*
X235875000Y-43150000D03*
X235875000Y-37550000D03*
X235875000Y-42350000D03*
D25*
X235875000Y-38700000D03*
X235875000Y-39700000D03*
X235875000Y-40200000D03*
X235875000Y-41200000D03*
X235875000Y-41700000D03*
X235875000Y-40700000D03*
X235875000Y-39200000D03*
X235875000Y-38200000D03*
D26*
X235275000Y-35630000D03*
D27*
X231275000Y-35630000D03*
D26*
X235275000Y-44270000D03*
D27*
X231275000Y-44270000D03*
%TD*%
D19*
%TO.C,U3*%
X102025000Y-176462500D03*
X101075000Y-176462500D03*
X100125000Y-176462500D03*
X100125000Y-178737500D03*
X101075000Y-178737500D03*
X102025000Y-178737500D03*
%TD*%
D18*
%TO.C,C7*%
X89825000Y-174850000D03*
X89825000Y-172950000D03*
%TD*%
D10*
%TO.C,C13*%
X51075000Y-125650000D03*
X51075000Y-127550000D03*
%TD*%
D14*
%TO.C,C14*%
X259225000Y-61300000D03*
X257325000Y-61300000D03*
%TD*%
D18*
%TO.C,C7*%
X36675000Y-70850000D03*
X36675000Y-68950000D03*
%TD*%
%TO.C,C7*%
X89825000Y-44850000D03*
X89825000Y-42950000D03*
%TD*%
D13*
%TO.C,R1*%
X82837500Y-138200000D03*
X81012500Y-138200000D03*
%TD*%
D22*
%TO.C,U2*%
X193015000Y-163180000D03*
X193015000Y-163980000D03*
X193015000Y-164780000D03*
X193015000Y-165580000D03*
X193015000Y-166380000D03*
X193015000Y-167180000D03*
X193015000Y-167980000D03*
X193015000Y-168780000D03*
D23*
X194465000Y-170230000D03*
X195265000Y-170230000D03*
X196065000Y-170230000D03*
X196865000Y-170230000D03*
X197665000Y-170230000D03*
X198465000Y-170230000D03*
X199265000Y-170230000D03*
X200065000Y-170230000D03*
D22*
X201515000Y-168780000D03*
X201515000Y-167980000D03*
X201515000Y-167180000D03*
X201515000Y-166380000D03*
X201515000Y-165580000D03*
X201515000Y-164780000D03*
X201515000Y-163980000D03*
X201515000Y-163180000D03*
D23*
X200065000Y-161730000D03*
X199265000Y-161730000D03*
X198465000Y-161730000D03*
X197665000Y-161730000D03*
X196865000Y-161730000D03*
X196065000Y-161730000D03*
X195265000Y-161730000D03*
X194465000Y-161730000D03*
%TD*%
D11*
%TO.C,R5*%
X132275000Y-148812500D03*
X132275000Y-146987500D03*
%TD*%
D13*
%TO.C,R3*%
X29687500Y-90100000D03*
X27862500Y-90100000D03*
%TD*%
D14*
%TO.C,C1*%
X82875000Y-144200000D03*
X80975000Y-144200000D03*
%TD*%
%TO.C,C14*%
X46625000Y-165300000D03*
X44725000Y-165300000D03*
%TD*%
D17*
%TO.C,C11*%
X97875000Y-141300000D03*
X99775000Y-141300000D03*
%TD*%
D12*
%TO.C,R4*%
X137575000Y-147587500D03*
X137575000Y-149412500D03*
%TD*%
D10*
%TO.C,C9*%
X201675000Y-146850000D03*
X201675000Y-148750000D03*
%TD*%
D19*
%TO.C,U3*%
X208325000Y-124462500D03*
X207375000Y-124462500D03*
X206425000Y-124462500D03*
X206425000Y-126737500D03*
X207375000Y-126737500D03*
X208325000Y-126737500D03*
%TD*%
D11*
%TO.C,R7*%
X129375000Y-162962500D03*
X129375000Y-161137500D03*
%TD*%
D10*
%TO.C,C9*%
X148525000Y-42850000D03*
X148525000Y-44750000D03*
%TD*%
D20*
%TO.C,L1*%
X188325000Y-135900000D03*
X186725000Y-135900000D03*
%TD*%
D22*
%TO.C,U2*%
X193015000Y-33180000D03*
X193015000Y-33980000D03*
X193015000Y-34780000D03*
X193015000Y-35580000D03*
X193015000Y-36380000D03*
X193015000Y-37180000D03*
X193015000Y-37980000D03*
X193015000Y-38780000D03*
D23*
X194465000Y-40230000D03*
X195265000Y-40230000D03*
X196065000Y-40230000D03*
X196865000Y-40230000D03*
X197665000Y-40230000D03*
X198465000Y-40230000D03*
X199265000Y-40230000D03*
X200065000Y-40230000D03*
D22*
X201515000Y-38780000D03*
X201515000Y-37980000D03*
X201515000Y-37180000D03*
X201515000Y-36380000D03*
X201515000Y-35580000D03*
X201515000Y-34780000D03*
X201515000Y-33980000D03*
X201515000Y-33180000D03*
D23*
X200065000Y-31730000D03*
X199265000Y-31730000D03*
X198465000Y-31730000D03*
X197665000Y-31730000D03*
X196865000Y-31730000D03*
X196065000Y-31730000D03*
X195265000Y-31730000D03*
X194465000Y-31730000D03*
%TD*%
D12*
%TO.C,R6*%
X161475000Y-73687500D03*
X161475000Y-75512500D03*
%TD*%
D21*
%TO.C,R2*%
X27862500Y-166100000D03*
X29687500Y-166100000D03*
%TD*%
D18*
%TO.C,C2*%
X137625000Y-49150000D03*
X137625000Y-47250000D03*
%TD*%
D12*
%TO.C,R4*%
X190725000Y-147587500D03*
X190725000Y-149412500D03*
%TD*%
D20*
%TO.C,L1*%
X241475000Y-57900000D03*
X239875000Y-57900000D03*
%TD*%
D15*
%TO.C,Y2*%
X235275000Y-153950000D03*
X241175000Y-153950000D03*
X241175000Y-151250000D03*
X235275000Y-151250000D03*
%TD*%
D10*
%TO.C,C3*%
X20025000Y-152000000D03*
X20025000Y-153900000D03*
%TD*%
D12*
%TO.C,R6*%
X214625000Y-99687500D03*
X214625000Y-101512500D03*
%TD*%
D21*
%TO.C,R2*%
X134162500Y-166100000D03*
X135987500Y-166100000D03*
%TD*%
D10*
%TO.C,C13*%
X104225000Y-125650000D03*
X104225000Y-127550000D03*
%TD*%
D20*
%TO.C,L1*%
X28875000Y-31900000D03*
X27275000Y-31900000D03*
%TD*%
D21*
%TO.C,R2*%
X134162500Y-62100000D03*
X135987500Y-62100000D03*
%TD*%
D24*
%TO.C,J1*%
X129575000Y-88750000D03*
X129575000Y-95150000D03*
X129575000Y-89550000D03*
X129575000Y-94350000D03*
D25*
X129575000Y-90700000D03*
X129575000Y-91700000D03*
X129575000Y-92200000D03*
X129575000Y-93200000D03*
X129575000Y-93700000D03*
X129575000Y-92700000D03*
X129575000Y-91200000D03*
X129575000Y-90200000D03*
D26*
X128975000Y-87630000D03*
D27*
X124975000Y-87630000D03*
D26*
X128975000Y-96270000D03*
D27*
X124975000Y-96270000D03*
%TD*%
D18*
%TO.C,C6*%
X247275000Y-96850000D03*
X247275000Y-94950000D03*
%TD*%
%TO.C,C8*%
X146475000Y-122750000D03*
X146475000Y-120850000D03*
%TD*%
D10*
%TO.C,C3*%
X20025000Y-48000000D03*
X20025000Y-49900000D03*
%TD*%
D14*
%TO.C,C10*%
X208275000Y-95800000D03*
X206375000Y-95800000D03*
%TD*%
D10*
%TO.C,C15*%
X204475000Y-98650000D03*
X204475000Y-100550000D03*
%TD*%
D22*
%TO.C,U2*%
X193015000Y-111180000D03*
X193015000Y-111980000D03*
X193015000Y-112780000D03*
X193015000Y-113580000D03*
X193015000Y-114380000D03*
X193015000Y-115180000D03*
X193015000Y-115980000D03*
X193015000Y-116780000D03*
D23*
X194465000Y-118230000D03*
X195265000Y-118230000D03*
X196065000Y-118230000D03*
X196865000Y-118230000D03*
X197665000Y-118230000D03*
X198465000Y-118230000D03*
X199265000Y-118230000D03*
X200065000Y-118230000D03*
D22*
X201515000Y-116780000D03*
X201515000Y-115980000D03*
X201515000Y-115180000D03*
X201515000Y-114380000D03*
X201515000Y-113580000D03*
X201515000Y-112780000D03*
X201515000Y-111980000D03*
X201515000Y-111180000D03*
D23*
X200065000Y-109730000D03*
X199265000Y-109730000D03*
X198465000Y-109730000D03*
X197665000Y-109730000D03*
X196865000Y-109730000D03*
X196065000Y-109730000D03*
X195265000Y-109730000D03*
X194465000Y-109730000D03*
%TD*%
D12*
%TO.C,R6*%
X55175000Y-99687500D03*
X55175000Y-101512500D03*
%TD*%
D16*
%TO.C,D1*%
X196525000Y-153500000D03*
X200525000Y-153500000D03*
%TD*%
D12*
%TO.C,R6*%
X214625000Y-151687500D03*
X214625000Y-153512500D03*
%TD*%
D18*
%TO.C,C6*%
X87825000Y-174850000D03*
X87825000Y-172950000D03*
%TD*%
D10*
%TO.C,C15*%
X257625000Y-46650000D03*
X257625000Y-48550000D03*
%TD*%
D18*
%TO.C,C8*%
X40175000Y-70750000D03*
X40175000Y-68850000D03*
%TD*%
D13*
%TO.C,R1*%
X242287500Y-164200000D03*
X240462500Y-164200000D03*
%TD*%
D18*
%TO.C,C7*%
X142975000Y-174850000D03*
X142975000Y-172950000D03*
%TD*%
D11*
%TO.C,R7*%
X182525000Y-58962500D03*
X182525000Y-57137500D03*
%TD*%
D13*
%TO.C,R1*%
X242287500Y-112200000D03*
X240462500Y-112200000D03*
%TD*%
D11*
%TO.C,R5*%
X79125000Y-122812500D03*
X79125000Y-120987500D03*
%TD*%
D22*
%TO.C,U2*%
X86715000Y-137180000D03*
X86715000Y-137980000D03*
X86715000Y-138780000D03*
X86715000Y-139580000D03*
X86715000Y-140380000D03*
X86715000Y-141180000D03*
X86715000Y-141980000D03*
X86715000Y-142780000D03*
D23*
X88165000Y-144230000D03*
X88965000Y-144230000D03*
X89765000Y-144230000D03*
X90565000Y-144230000D03*
X91365000Y-144230000D03*
X92165000Y-144230000D03*
X92965000Y-144230000D03*
X93765000Y-144230000D03*
D22*
X95215000Y-142780000D03*
X95215000Y-141980000D03*
X95215000Y-141180000D03*
X95215000Y-140380000D03*
X95215000Y-139580000D03*
X95215000Y-138780000D03*
X95215000Y-137980000D03*
X95215000Y-137180000D03*
D23*
X93765000Y-135730000D03*
X92965000Y-135730000D03*
X92165000Y-135730000D03*
X91365000Y-135730000D03*
X90565000Y-135730000D03*
X89765000Y-135730000D03*
X88965000Y-135730000D03*
X88165000Y-135730000D03*
%TD*%
D12*
%TO.C,R4*%
X31275000Y-69587500D03*
X31275000Y-71412500D03*
%TD*%
D18*
%TO.C,C6*%
X87825000Y-122850000D03*
X87825000Y-120950000D03*
%TD*%
%TO.C,C6*%
X194125000Y-122850000D03*
X194125000Y-120950000D03*
%TD*%
D13*
%TO.C,R3*%
X189137500Y-38100000D03*
X187312500Y-38100000D03*
%TD*%
D12*
%TO.C,R6*%
X214625000Y-125687500D03*
X214625000Y-127512500D03*
%TD*%
D10*
%TO.C,C3*%
X126325000Y-152000000D03*
X126325000Y-153900000D03*
%TD*%
D12*
%TO.C,R6*%
X267775000Y-47687500D03*
X267775000Y-49512500D03*
%TD*%
D15*
%TO.C,Y2*%
X128975000Y-127950000D03*
X134875000Y-127950000D03*
X134875000Y-125250000D03*
X128975000Y-125250000D03*
%TD*%
D20*
%TO.C,L1*%
X82025000Y-109900000D03*
X80425000Y-109900000D03*
%TD*%
D10*
%TO.C,C15*%
X257625000Y-72650000D03*
X257625000Y-74550000D03*
%TD*%
D22*
%TO.C,U2*%
X193015000Y-137180000D03*
X193015000Y-137980000D03*
X193015000Y-138780000D03*
X193015000Y-139580000D03*
X193015000Y-140380000D03*
X193015000Y-141180000D03*
X193015000Y-141980000D03*
X193015000Y-142780000D03*
D23*
X194465000Y-144230000D03*
X195265000Y-144230000D03*
X196065000Y-144230000D03*
X196865000Y-144230000D03*
X197665000Y-144230000D03*
X198465000Y-144230000D03*
X199265000Y-144230000D03*
X200065000Y-144230000D03*
D22*
X201515000Y-142780000D03*
X201515000Y-141980000D03*
X201515000Y-141180000D03*
X201515000Y-140380000D03*
X201515000Y-139580000D03*
X201515000Y-138780000D03*
X201515000Y-137980000D03*
X201515000Y-137180000D03*
D23*
X200065000Y-135730000D03*
X199265000Y-135730000D03*
X198465000Y-135730000D03*
X197665000Y-135730000D03*
X196865000Y-135730000D03*
X196065000Y-135730000D03*
X195265000Y-135730000D03*
X194465000Y-135730000D03*
%TD*%
D18*
%TO.C,C7*%
X36675000Y-122850000D03*
X36675000Y-120950000D03*
%TD*%
D14*
%TO.C,C1*%
X136025000Y-92200000D03*
X134125000Y-92200000D03*
%TD*%
D10*
%TO.C,C3*%
X179475000Y-100000000D03*
X179475000Y-101900000D03*
%TD*%
%TO.C,C13*%
X210525000Y-73650000D03*
X210525000Y-75550000D03*
%TD*%
%TO.C,C18*%
X243775000Y-82350000D03*
X243775000Y-84250000D03*
%TD*%
D20*
%TO.C,L1*%
X82025000Y-57900000D03*
X80425000Y-57900000D03*
%TD*%
D16*
%TO.C,D1*%
X249675000Y-153500000D03*
X253675000Y-153500000D03*
%TD*%
D13*
%TO.C,R1*%
X82837500Y-164200000D03*
X81012500Y-164200000D03*
%TD*%
D10*
%TO.C,C15*%
X257625000Y-98650000D03*
X257625000Y-100550000D03*
%TD*%
D14*
%TO.C,C17*%
X259225000Y-85200000D03*
X257325000Y-85200000D03*
%TD*%
D13*
%TO.C,R1*%
X189137500Y-34200000D03*
X187312500Y-34200000D03*
%TD*%
D20*
%TO.C,L1*%
X135175000Y-83900000D03*
X133575000Y-83900000D03*
%TD*%
D18*
%TO.C,C8*%
X40175000Y-96750000D03*
X40175000Y-94850000D03*
%TD*%
D13*
%TO.C,R3*%
X189137500Y-64100000D03*
X187312500Y-64100000D03*
%TD*%
D12*
%TO.C,R6*%
X108325000Y-125687500D03*
X108325000Y-127512500D03*
%TD*%
D11*
%TO.C,R5*%
X238575000Y-122812500D03*
X238575000Y-120987500D03*
%TD*%
%TO.C,R5*%
X79125000Y-44812500D03*
X79125000Y-42987500D03*
%TD*%
D10*
%TO.C,C15*%
X151325000Y-124650000D03*
X151325000Y-126550000D03*
%TD*%
D15*
%TO.C,Y2*%
X75825000Y-127950000D03*
X81725000Y-127950000D03*
X81725000Y-125250000D03*
X75825000Y-125250000D03*
%TD*%
D18*
%TO.C,C8*%
X40175000Y-174750000D03*
X40175000Y-172850000D03*
%TD*%
D21*
%TO.C,R2*%
X134162500Y-140100000D03*
X135987500Y-140100000D03*
%TD*%
D10*
%TO.C,C18*%
X31175000Y-56350000D03*
X31175000Y-58250000D03*
%TD*%
%TO.C,C13*%
X210525000Y-99650000D03*
X210525000Y-101550000D03*
%TD*%
D18*
%TO.C,C8*%
X93325000Y-148750000D03*
X93325000Y-146850000D03*
%TD*%
D12*
%TO.C,R6*%
X161475000Y-47687500D03*
X161475000Y-49512500D03*
%TD*%
%TO.C,R4*%
X243875000Y-147587500D03*
X243875000Y-149412500D03*
%TD*%
D10*
%TO.C,C13*%
X51075000Y-73650000D03*
X51075000Y-75550000D03*
%TD*%
D19*
%TO.C,U3*%
X155175000Y-176462500D03*
X154225000Y-176462500D03*
X153275000Y-176462500D03*
X153275000Y-178737500D03*
X154225000Y-178737500D03*
X155175000Y-178737500D03*
%TD*%
D10*
%TO.C,C18*%
X190625000Y-134350000D03*
X190625000Y-136250000D03*
%TD*%
%TO.C,C13*%
X157375000Y-125650000D03*
X157375000Y-127550000D03*
%TD*%
D18*
%TO.C,C6*%
X34675000Y-148850000D03*
X34675000Y-146950000D03*
%TD*%
%TO.C,C6*%
X194125000Y-70850000D03*
X194125000Y-68950000D03*
%TD*%
%TO.C,C8*%
X146475000Y-148750000D03*
X146475000Y-146850000D03*
%TD*%
D11*
%TO.C,R5*%
X132275000Y-70812500D03*
X132275000Y-68987500D03*
%TD*%
D21*
%TO.C,R2*%
X27862500Y-140100000D03*
X29687500Y-140100000D03*
%TD*%
D22*
%TO.C,U2*%
X139865000Y-163180000D03*
X139865000Y-163980000D03*
X139865000Y-164780000D03*
X139865000Y-165580000D03*
X139865000Y-166380000D03*
X139865000Y-167180000D03*
X139865000Y-167980000D03*
X139865000Y-168780000D03*
D23*
X141315000Y-170230000D03*
X142115000Y-170230000D03*
X142915000Y-170230000D03*
X143715000Y-170230000D03*
X144515000Y-170230000D03*
X145315000Y-170230000D03*
X146115000Y-170230000D03*
X146915000Y-170230000D03*
D22*
X148365000Y-168780000D03*
X148365000Y-167980000D03*
X148365000Y-167180000D03*
X148365000Y-166380000D03*
X148365000Y-165580000D03*
X148365000Y-164780000D03*
X148365000Y-163980000D03*
X148365000Y-163180000D03*
D23*
X146915000Y-161730000D03*
X146115000Y-161730000D03*
X145315000Y-161730000D03*
X144515000Y-161730000D03*
X143715000Y-161730000D03*
X142915000Y-161730000D03*
X142115000Y-161730000D03*
X141315000Y-161730000D03*
%TD*%
D14*
%TO.C,C17*%
X99775000Y-33200000D03*
X97875000Y-33200000D03*
%TD*%
D15*
%TO.C,Y2*%
X22675000Y-101950000D03*
X28575000Y-101950000D03*
X28575000Y-99250000D03*
X22675000Y-99250000D03*
%TD*%
D22*
%TO.C,U2*%
X33565000Y-85180000D03*
X33565000Y-85980000D03*
X33565000Y-86780000D03*
X33565000Y-87580000D03*
X33565000Y-88380000D03*
X33565000Y-89180000D03*
X33565000Y-89980000D03*
X33565000Y-90780000D03*
D23*
X35015000Y-92230000D03*
X35815000Y-92230000D03*
X36615000Y-92230000D03*
X37415000Y-92230000D03*
X38215000Y-92230000D03*
X39015000Y-92230000D03*
X39815000Y-92230000D03*
X40615000Y-92230000D03*
D22*
X42065000Y-90780000D03*
X42065000Y-89980000D03*
X42065000Y-89180000D03*
X42065000Y-88380000D03*
X42065000Y-87580000D03*
X42065000Y-86780000D03*
X42065000Y-85980000D03*
X42065000Y-85180000D03*
D23*
X40615000Y-83730000D03*
X39815000Y-83730000D03*
X39015000Y-83730000D03*
X38215000Y-83730000D03*
X37415000Y-83730000D03*
X36615000Y-83730000D03*
X35815000Y-83730000D03*
X35015000Y-83730000D03*
%TD*%
D20*
%TO.C,L1*%
X135175000Y-31900000D03*
X133575000Y-31900000D03*
%TD*%
D11*
%TO.C,R5*%
X25975000Y-44812500D03*
X25975000Y-42987500D03*
%TD*%
D12*
%TO.C,R4*%
X243875000Y-173587500D03*
X243875000Y-175412500D03*
%TD*%
D11*
%TO.C,R5*%
X25975000Y-148812500D03*
X25975000Y-146987500D03*
%TD*%
D24*
%TO.C,J1*%
X235875000Y-140750000D03*
X235875000Y-147150000D03*
X235875000Y-141550000D03*
X235875000Y-146350000D03*
D25*
X235875000Y-142700000D03*
X235875000Y-143700000D03*
X235875000Y-144200000D03*
X235875000Y-145200000D03*
X235875000Y-145700000D03*
X235875000Y-144700000D03*
X235875000Y-143200000D03*
X235875000Y-142200000D03*
D26*
X235275000Y-139630000D03*
D27*
X231275000Y-139630000D03*
D26*
X235275000Y-148270000D03*
D27*
X231275000Y-148270000D03*
%TD*%
D18*
%TO.C,C7*%
X196125000Y-148850000D03*
X196125000Y-146950000D03*
%TD*%
D12*
%TO.C,R4*%
X31275000Y-43587500D03*
X31275000Y-45412500D03*
%TD*%
D14*
%TO.C,C1*%
X189175000Y-92200000D03*
X187275000Y-92200000D03*
%TD*%
D11*
%TO.C,R7*%
X129375000Y-58962500D03*
X129375000Y-57137500D03*
%TD*%
D22*
%TO.C,U2*%
X246165000Y-85180000D03*
X246165000Y-85980000D03*
X246165000Y-86780000D03*
X246165000Y-87580000D03*
X246165000Y-88380000D03*
X246165000Y-89180000D03*
X246165000Y-89980000D03*
X246165000Y-90780000D03*
D23*
X247615000Y-92230000D03*
X248415000Y-92230000D03*
X249215000Y-92230000D03*
X250015000Y-92230000D03*
X250815000Y-92230000D03*
X251615000Y-92230000D03*
X252415000Y-92230000D03*
X253215000Y-92230000D03*
D22*
X254665000Y-90780000D03*
X254665000Y-89980000D03*
X254665000Y-89180000D03*
X254665000Y-88380000D03*
X254665000Y-87580000D03*
X254665000Y-86780000D03*
X254665000Y-85980000D03*
X254665000Y-85180000D03*
D23*
X253215000Y-83730000D03*
X252415000Y-83730000D03*
X251615000Y-83730000D03*
X250815000Y-83730000D03*
X250015000Y-83730000D03*
X249215000Y-83730000D03*
X248415000Y-83730000D03*
X247615000Y-83730000D03*
%TD*%
D10*
%TO.C,C18*%
X190625000Y-30350000D03*
X190625000Y-32250000D03*
%TD*%
D12*
%TO.C,R4*%
X137575000Y-95587500D03*
X137575000Y-97412500D03*
%TD*%
D21*
%TO.C,R2*%
X81012500Y-166100000D03*
X82837500Y-166100000D03*
%TD*%
D10*
%TO.C,C18*%
X84325000Y-108350000D03*
X84325000Y-110250000D03*
%TD*%
D13*
%TO.C,R1*%
X242287500Y-34200000D03*
X240462500Y-34200000D03*
%TD*%
D19*
%TO.C,U3*%
X102025000Y-150462500D03*
X101075000Y-150462500D03*
X100125000Y-150462500D03*
X100125000Y-152737500D03*
X101075000Y-152737500D03*
X102025000Y-152737500D03*
%TD*%
D14*
%TO.C,C17*%
X99775000Y-163200000D03*
X97875000Y-163200000D03*
%TD*%
D19*
%TO.C,U3*%
X48875000Y-46462500D03*
X47925000Y-46462500D03*
X46975000Y-46462500D03*
X46975000Y-48737500D03*
X47925000Y-48737500D03*
X48875000Y-48737500D03*
%TD*%
D21*
%TO.C,R2*%
X187312500Y-114100000D03*
X189137500Y-114100000D03*
%TD*%
%TO.C,R2*%
X240462500Y-140100000D03*
X242287500Y-140100000D03*
%TD*%
D14*
%TO.C,C17*%
X206075000Y-33200000D03*
X204175000Y-33200000D03*
%TD*%
%TO.C,C10*%
X261425000Y-69800000D03*
X259525000Y-69800000D03*
%TD*%
D13*
%TO.C,R3*%
X82837500Y-168100000D03*
X81012500Y-168100000D03*
%TD*%
D17*
%TO.C,C11*%
X204175000Y-115300000D03*
X206075000Y-115300000D03*
%TD*%
D14*
%TO.C,C14*%
X99775000Y-35300000D03*
X97875000Y-35300000D03*
%TD*%
D11*
%TO.C,R7*%
X129375000Y-32962500D03*
X129375000Y-31137500D03*
%TD*%
D12*
%TO.C,R6*%
X161475000Y-151687500D03*
X161475000Y-153512500D03*
%TD*%
D11*
%TO.C,R5*%
X25975000Y-70812500D03*
X25975000Y-68987500D03*
%TD*%
D10*
%TO.C,C13*%
X263675000Y-125650000D03*
X263675000Y-127550000D03*
%TD*%
D13*
%TO.C,R1*%
X189137500Y-86200000D03*
X187312500Y-86200000D03*
%TD*%
D18*
%TO.C,C6*%
X87825000Y-70850000D03*
X87825000Y-68950000D03*
%TD*%
D12*
%TO.C,R4*%
X84425000Y-69587500D03*
X84425000Y-71412500D03*
%TD*%
D21*
%TO.C,R2*%
X134162500Y-36100000D03*
X135987500Y-36100000D03*
%TD*%
%TO.C,R2*%
X81012500Y-36100000D03*
X82837500Y-36100000D03*
%TD*%
D11*
%TO.C,R5*%
X185425000Y-148812500D03*
X185425000Y-146987500D03*
%TD*%
D18*
%TO.C,C8*%
X93325000Y-44750000D03*
X93325000Y-42850000D03*
%TD*%
D24*
%TO.C,J1*%
X235875000Y-166750000D03*
X235875000Y-173150000D03*
X235875000Y-167550000D03*
X235875000Y-172350000D03*
D25*
X235875000Y-168700000D03*
X235875000Y-169700000D03*
X235875000Y-170200000D03*
X235875000Y-171200000D03*
X235875000Y-171700000D03*
X235875000Y-170700000D03*
X235875000Y-169200000D03*
X235875000Y-168200000D03*
D26*
X235275000Y-165630000D03*
D27*
X231275000Y-165630000D03*
D26*
X235275000Y-174270000D03*
D27*
X231275000Y-174270000D03*
%TD*%
D11*
%TO.C,R5*%
X79125000Y-174812500D03*
X79125000Y-172987500D03*
%TD*%
D15*
%TO.C,Y2*%
X235275000Y-101950000D03*
X241175000Y-101950000D03*
X241175000Y-99250000D03*
X235275000Y-99250000D03*
%TD*%
D17*
%TO.C,C11*%
X257325000Y-63300000D03*
X259225000Y-63300000D03*
%TD*%
%TO.C,C11*%
X44725000Y-63300000D03*
X46625000Y-63300000D03*
%TD*%
D14*
%TO.C,C10*%
X208275000Y-43800000D03*
X206375000Y-43800000D03*
%TD*%
D10*
%TO.C,C15*%
X98175000Y-46650000D03*
X98175000Y-48550000D03*
%TD*%
D18*
%TO.C,C2*%
X243925000Y-153150000D03*
X243925000Y-151250000D03*
%TD*%
D11*
%TO.C,R7*%
X182525000Y-136962500D03*
X182525000Y-135137500D03*
%TD*%
D22*
%TO.C,U2*%
X86715000Y-59180000D03*
X86715000Y-59980000D03*
X86715000Y-60780000D03*
X86715000Y-61580000D03*
X86715000Y-62380000D03*
X86715000Y-63180000D03*
X86715000Y-63980000D03*
X86715000Y-64780000D03*
D23*
X88165000Y-66230000D03*
X88965000Y-66230000D03*
X89765000Y-66230000D03*
X90565000Y-66230000D03*
X91365000Y-66230000D03*
X92165000Y-66230000D03*
X92965000Y-66230000D03*
X93765000Y-66230000D03*
D22*
X95215000Y-64780000D03*
X95215000Y-63980000D03*
X95215000Y-63180000D03*
X95215000Y-62380000D03*
X95215000Y-61580000D03*
X95215000Y-60780000D03*
X95215000Y-59980000D03*
X95215000Y-59180000D03*
D23*
X93765000Y-57730000D03*
X92965000Y-57730000D03*
X92165000Y-57730000D03*
X91365000Y-57730000D03*
X90565000Y-57730000D03*
X89765000Y-57730000D03*
X88965000Y-57730000D03*
X88165000Y-57730000D03*
%TD*%
D11*
%TO.C,R7*%
X23075000Y-162962500D03*
X23075000Y-161137500D03*
%TD*%
D10*
%TO.C,C9*%
X148525000Y-120850000D03*
X148525000Y-122750000D03*
%TD*%
D14*
%TO.C,C10*%
X101975000Y-147800000D03*
X100075000Y-147800000D03*
%TD*%
D10*
%TO.C,C18*%
X137475000Y-134350000D03*
X137475000Y-136250000D03*
%TD*%
D14*
%TO.C,C1*%
X189175000Y-66200000D03*
X187275000Y-66200000D03*
%TD*%
D13*
%TO.C,R3*%
X242287500Y-90100000D03*
X240462500Y-90100000D03*
%TD*%
D10*
%TO.C,C13*%
X51075000Y-47650000D03*
X51075000Y-49550000D03*
%TD*%
D12*
%TO.C,R4*%
X137575000Y-173587500D03*
X137575000Y-175412500D03*
%TD*%
D10*
%TO.C,C9*%
X95375000Y-172850000D03*
X95375000Y-174750000D03*
%TD*%
D14*
%TO.C,C17*%
X152925000Y-59200000D03*
X151025000Y-59200000D03*
%TD*%
D10*
%TO.C,C15*%
X45025000Y-98650000D03*
X45025000Y-100550000D03*
%TD*%
D16*
%TO.C,D1*%
X249675000Y-49500000D03*
X253675000Y-49500000D03*
%TD*%
D14*
%TO.C,C17*%
X46625000Y-111200000D03*
X44725000Y-111200000D03*
%TD*%
D18*
%TO.C,C6*%
X34675000Y-122850000D03*
X34675000Y-120950000D03*
%TD*%
D14*
%TO.C,C17*%
X259225000Y-33200000D03*
X257325000Y-33200000D03*
%TD*%
D13*
%TO.C,R3*%
X242287500Y-64100000D03*
X240462500Y-64100000D03*
%TD*%
D12*
%TO.C,R6*%
X161475000Y-177687500D03*
X161475000Y-179512500D03*
%TD*%
D11*
%TO.C,R7*%
X182525000Y-32962500D03*
X182525000Y-31137500D03*
%TD*%
D24*
%TO.C,J1*%
X23275000Y-88750000D03*
X23275000Y-95150000D03*
X23275000Y-89550000D03*
X23275000Y-94350000D03*
D25*
X23275000Y-90700000D03*
X23275000Y-91700000D03*
X23275000Y-92200000D03*
X23275000Y-93200000D03*
X23275000Y-93700000D03*
X23275000Y-92700000D03*
X23275000Y-91200000D03*
X23275000Y-90200000D03*
D26*
X22675000Y-87630000D03*
D27*
X18675000Y-87630000D03*
D26*
X22675000Y-96270000D03*
D27*
X18675000Y-96270000D03*
%TD*%
D10*
%TO.C,C13*%
X210525000Y-125650000D03*
X210525000Y-127550000D03*
%TD*%
%TO.C,C15*%
X151325000Y-150650000D03*
X151325000Y-152550000D03*
%TD*%
D11*
%TO.C,R5*%
X132275000Y-44812500D03*
X132275000Y-42987500D03*
%TD*%
D14*
%TO.C,C10*%
X101975000Y-69800000D03*
X100075000Y-69800000D03*
%TD*%
D18*
%TO.C,C6*%
X140975000Y-96850000D03*
X140975000Y-94950000D03*
%TD*%
%TO.C,C6*%
X140975000Y-70850000D03*
X140975000Y-68950000D03*
%TD*%
D10*
%TO.C,C18*%
X243775000Y-134350000D03*
X243775000Y-136250000D03*
%TD*%
D14*
%TO.C,C1*%
X242325000Y-92200000D03*
X240425000Y-92200000D03*
%TD*%
%TO.C,C14*%
X259225000Y-139300000D03*
X257325000Y-139300000D03*
%TD*%
D10*
%TO.C,C13*%
X104225000Y-177650000D03*
X104225000Y-179550000D03*
%TD*%
D13*
%TO.C,R3*%
X242287500Y-142100000D03*
X240462500Y-142100000D03*
%TD*%
D10*
%TO.C,C3*%
X73175000Y-100000000D03*
X73175000Y-101900000D03*
%TD*%
%TO.C,C18*%
X84325000Y-82350000D03*
X84325000Y-84250000D03*
%TD*%
D14*
%TO.C,C1*%
X136025000Y-170200000D03*
X134125000Y-170200000D03*
%TD*%
D15*
%TO.C,Y2*%
X75825000Y-49950000D03*
X81725000Y-49950000D03*
X81725000Y-47250000D03*
X75825000Y-47250000D03*
%TD*%
D20*
%TO.C,L1*%
X28875000Y-83900000D03*
X27275000Y-83900000D03*
%TD*%
D13*
%TO.C,R1*%
X189137500Y-60200000D03*
X187312500Y-60200000D03*
%TD*%
D18*
%TO.C,C8*%
X93325000Y-96750000D03*
X93325000Y-94850000D03*
%TD*%
D11*
%TO.C,R5*%
X185425000Y-174812500D03*
X185425000Y-172987500D03*
%TD*%
D10*
%TO.C,C15*%
X151325000Y-176650000D03*
X151325000Y-178550000D03*
%TD*%
D22*
%TO.C,U2*%
X246165000Y-137180000D03*
X246165000Y-137980000D03*
X246165000Y-138780000D03*
X246165000Y-139580000D03*
X246165000Y-140380000D03*
X246165000Y-141180000D03*
X246165000Y-141980000D03*
X246165000Y-142780000D03*
D23*
X247615000Y-144230000D03*
X248415000Y-144230000D03*
X249215000Y-144230000D03*
X250015000Y-144230000D03*
X250815000Y-144230000D03*
X251615000Y-144230000D03*
X252415000Y-144230000D03*
X253215000Y-144230000D03*
D22*
X254665000Y-142780000D03*
X254665000Y-141980000D03*
X254665000Y-141180000D03*
X254665000Y-140380000D03*
X254665000Y-139580000D03*
X254665000Y-138780000D03*
X254665000Y-137980000D03*
X254665000Y-137180000D03*
D23*
X253215000Y-135730000D03*
X252415000Y-135730000D03*
X251615000Y-135730000D03*
X250815000Y-135730000D03*
X250015000Y-135730000D03*
X249215000Y-135730000D03*
X248415000Y-135730000D03*
X247615000Y-135730000D03*
%TD*%
D10*
%TO.C,C3*%
X20025000Y-126000000D03*
X20025000Y-127900000D03*
%TD*%
D16*
%TO.C,D1*%
X249675000Y-75500000D03*
X253675000Y-75500000D03*
%TD*%
D14*
%TO.C,C10*%
X101975000Y-173800000D03*
X100075000Y-173800000D03*
%TD*%
%TO.C,C14*%
X152925000Y-165300000D03*
X151025000Y-165300000D03*
%TD*%
%TO.C,C10*%
X48825000Y-69800000D03*
X46925000Y-69800000D03*
%TD*%
D19*
%TO.C,U3*%
X155175000Y-150462500D03*
X154225000Y-150462500D03*
X153275000Y-150462500D03*
X153275000Y-152737500D03*
X154225000Y-152737500D03*
X155175000Y-152737500D03*
%TD*%
D11*
%TO.C,R7*%
X235675000Y-136962500D03*
X235675000Y-135137500D03*
%TD*%
D14*
%TO.C,C1*%
X189175000Y-118200000D03*
X187275000Y-118200000D03*
%TD*%
D18*
%TO.C,C2*%
X190775000Y-153150000D03*
X190775000Y-151250000D03*
%TD*%
D15*
%TO.C,Y2*%
X22675000Y-75950000D03*
X28575000Y-75950000D03*
X28575000Y-73250000D03*
X22675000Y-73250000D03*
%TD*%
D14*
%TO.C,C14*%
X152925000Y-35300000D03*
X151025000Y-35300000D03*
%TD*%
%TO.C,C17*%
X206075000Y-111200000D03*
X204175000Y-111200000D03*
%TD*%
D16*
%TO.C,D1*%
X90225000Y-101500000D03*
X94225000Y-101500000D03*
%TD*%
D14*
%TO.C,C1*%
X136025000Y-66200000D03*
X134125000Y-66200000D03*
%TD*%
D10*
%TO.C,C15*%
X151325000Y-46650000D03*
X151325000Y-48550000D03*
%TD*%
%TO.C,C9*%
X95375000Y-120850000D03*
X95375000Y-122750000D03*
%TD*%
D14*
%TO.C,C17*%
X99775000Y-85200000D03*
X97875000Y-85200000D03*
%TD*%
%TO.C,C17*%
X152925000Y-137200000D03*
X151025000Y-137200000D03*
%TD*%
%TO.C,C17*%
X152925000Y-111200000D03*
X151025000Y-111200000D03*
%TD*%
%TO.C,C17*%
X46625000Y-85200000D03*
X44725000Y-85200000D03*
%TD*%
D18*
%TO.C,C7*%
X36675000Y-96850000D03*
X36675000Y-94950000D03*
%TD*%
%TO.C,C2*%
X137625000Y-75150000D03*
X137625000Y-73250000D03*
%TD*%
%TO.C,C7*%
X89825000Y-70850000D03*
X89825000Y-68950000D03*
%TD*%
D22*
%TO.C,U2*%
X246165000Y-59180000D03*
X246165000Y-59980000D03*
X246165000Y-60780000D03*
X246165000Y-61580000D03*
X246165000Y-62380000D03*
X246165000Y-63180000D03*
X246165000Y-63980000D03*
X246165000Y-64780000D03*
D23*
X247615000Y-66230000D03*
X248415000Y-66230000D03*
X249215000Y-66230000D03*
X250015000Y-66230000D03*
X250815000Y-66230000D03*
X251615000Y-66230000D03*
X252415000Y-66230000D03*
X253215000Y-66230000D03*
D22*
X254665000Y-64780000D03*
X254665000Y-63980000D03*
X254665000Y-63180000D03*
X254665000Y-62380000D03*
X254665000Y-61580000D03*
X254665000Y-60780000D03*
X254665000Y-59980000D03*
X254665000Y-59180000D03*
D23*
X253215000Y-57730000D03*
X252415000Y-57730000D03*
X251615000Y-57730000D03*
X250815000Y-57730000D03*
X250015000Y-57730000D03*
X249215000Y-57730000D03*
X248415000Y-57730000D03*
X247615000Y-57730000D03*
%TD*%
D17*
%TO.C,C11*%
X44725000Y-89300000D03*
X46625000Y-89300000D03*
%TD*%
D11*
%TO.C,R5*%
X185425000Y-44812500D03*
X185425000Y-42987500D03*
%TD*%
D17*
%TO.C,C11*%
X97875000Y-167300000D03*
X99775000Y-167300000D03*
%TD*%
D10*
%TO.C,C15*%
X204475000Y-150650000D03*
X204475000Y-152550000D03*
%TD*%
D11*
%TO.C,R5*%
X25975000Y-96812500D03*
X25975000Y-94987500D03*
%TD*%
D14*
%TO.C,C14*%
X152925000Y-139300000D03*
X151025000Y-139300000D03*
%TD*%
D22*
%TO.C,U2*%
X193015000Y-59180000D03*
X193015000Y-59980000D03*
X193015000Y-60780000D03*
X193015000Y-61580000D03*
X193015000Y-62380000D03*
X193015000Y-63180000D03*
X193015000Y-63980000D03*
X193015000Y-64780000D03*
D23*
X194465000Y-66230000D03*
X195265000Y-66230000D03*
X196065000Y-66230000D03*
X196865000Y-66230000D03*
X197665000Y-66230000D03*
X198465000Y-66230000D03*
X199265000Y-66230000D03*
X200065000Y-66230000D03*
D22*
X201515000Y-64780000D03*
X201515000Y-63980000D03*
X201515000Y-63180000D03*
X201515000Y-62380000D03*
X201515000Y-61580000D03*
X201515000Y-60780000D03*
X201515000Y-59980000D03*
X201515000Y-59180000D03*
D23*
X200065000Y-57730000D03*
X199265000Y-57730000D03*
X198465000Y-57730000D03*
X197665000Y-57730000D03*
X196865000Y-57730000D03*
X196065000Y-57730000D03*
X195265000Y-57730000D03*
X194465000Y-57730000D03*
%TD*%
D18*
%TO.C,C8*%
X146475000Y-44750000D03*
X146475000Y-42850000D03*
%TD*%
D12*
%TO.C,R4*%
X137575000Y-43587500D03*
X137575000Y-45412500D03*
%TD*%
%TO.C,R4*%
X84425000Y-147587500D03*
X84425000Y-149412500D03*
%TD*%
D18*
%TO.C,C6*%
X140975000Y-122850000D03*
X140975000Y-120950000D03*
%TD*%
D17*
%TO.C,C11*%
X151025000Y-167300000D03*
X152925000Y-167300000D03*
%TD*%
D10*
%TO.C,C3*%
X179475000Y-152000000D03*
X179475000Y-153900000D03*
%TD*%
D12*
%TO.C,R6*%
X55175000Y-47687500D03*
X55175000Y-49512500D03*
%TD*%
D21*
%TO.C,R2*%
X187312500Y-62100000D03*
X189137500Y-62100000D03*
%TD*%
D14*
%TO.C,C10*%
X155125000Y-69800000D03*
X153225000Y-69800000D03*
%TD*%
D12*
%TO.C,R4*%
X31275000Y-173587500D03*
X31275000Y-175412500D03*
%TD*%
D10*
%TO.C,C9*%
X254825000Y-68850000D03*
X254825000Y-70750000D03*
%TD*%
D16*
%TO.C,D1*%
X143375000Y-75500000D03*
X147375000Y-75500000D03*
%TD*%
D13*
%TO.C,R1*%
X135987500Y-34200000D03*
X134162500Y-34200000D03*
%TD*%
D19*
%TO.C,U3*%
X261475000Y-124462500D03*
X260525000Y-124462500D03*
X259575000Y-124462500D03*
X259575000Y-126737500D03*
X260525000Y-126737500D03*
X261475000Y-126737500D03*
%TD*%
D18*
%TO.C,C6*%
X140975000Y-44850000D03*
X140975000Y-42950000D03*
%TD*%
D10*
%TO.C,C15*%
X98175000Y-72650000D03*
X98175000Y-74550000D03*
%TD*%
D12*
%TO.C,R6*%
X161475000Y-125687500D03*
X161475000Y-127512500D03*
%TD*%
D10*
%TO.C,C3*%
X126325000Y-178000000D03*
X126325000Y-179900000D03*
%TD*%
D18*
%TO.C,C6*%
X194125000Y-174850000D03*
X194125000Y-172950000D03*
%TD*%
D22*
%TO.C,U2*%
X33565000Y-163180000D03*
X33565000Y-163980000D03*
X33565000Y-164780000D03*
X33565000Y-165580000D03*
X33565000Y-166380000D03*
X33565000Y-167180000D03*
X33565000Y-167980000D03*
X33565000Y-168780000D03*
D23*
X35015000Y-170230000D03*
X35815000Y-170230000D03*
X36615000Y-170230000D03*
X37415000Y-170230000D03*
X38215000Y-170230000D03*
X39015000Y-170230000D03*
X39815000Y-170230000D03*
X40615000Y-170230000D03*
D22*
X42065000Y-168780000D03*
X42065000Y-167980000D03*
X42065000Y-167180000D03*
X42065000Y-166380000D03*
X42065000Y-165580000D03*
X42065000Y-164780000D03*
X42065000Y-163980000D03*
X42065000Y-163180000D03*
D23*
X40615000Y-161730000D03*
X39815000Y-161730000D03*
X39015000Y-161730000D03*
X38215000Y-161730000D03*
X37415000Y-161730000D03*
X36615000Y-161730000D03*
X35815000Y-161730000D03*
X35015000Y-161730000D03*
%TD*%
D14*
%TO.C,C14*%
X206075000Y-139300000D03*
X204175000Y-139300000D03*
%TD*%
%TO.C,C17*%
X206075000Y-137200000D03*
X204175000Y-137200000D03*
%TD*%
%TO.C,C14*%
X46625000Y-113300000D03*
X44725000Y-113300000D03*
%TD*%
D24*
%TO.C,J1*%
X235875000Y-114750000D03*
X235875000Y-121150000D03*
X235875000Y-115550000D03*
X235875000Y-120350000D03*
D25*
X235875000Y-116700000D03*
X235875000Y-117700000D03*
X235875000Y-118200000D03*
X235875000Y-119200000D03*
X235875000Y-119700000D03*
X235875000Y-118700000D03*
X235875000Y-117200000D03*
X235875000Y-116200000D03*
D26*
X235275000Y-113630000D03*
D27*
X231275000Y-113630000D03*
D26*
X235275000Y-122270000D03*
D27*
X231275000Y-122270000D03*
%TD*%
D19*
%TO.C,U3*%
X208325000Y-46462500D03*
X207375000Y-46462500D03*
X206425000Y-46462500D03*
X206425000Y-48737500D03*
X207375000Y-48737500D03*
X208325000Y-48737500D03*
%TD*%
D10*
%TO.C,C9*%
X201675000Y-94850000D03*
X201675000Y-96750000D03*
%TD*%
D24*
%TO.C,J1*%
X23275000Y-114750000D03*
X23275000Y-121150000D03*
X23275000Y-115550000D03*
X23275000Y-120350000D03*
D25*
X23275000Y-116700000D03*
X23275000Y-117700000D03*
X23275000Y-118200000D03*
X23275000Y-119200000D03*
X23275000Y-119700000D03*
X23275000Y-118700000D03*
X23275000Y-117200000D03*
X23275000Y-116200000D03*
D26*
X22675000Y-113630000D03*
D27*
X18675000Y-113630000D03*
D26*
X22675000Y-122270000D03*
D27*
X18675000Y-122270000D03*
%TD*%
D15*
%TO.C,Y2*%
X128975000Y-75950000D03*
X134875000Y-75950000D03*
X134875000Y-73250000D03*
X128975000Y-73250000D03*
%TD*%
D10*
%TO.C,C3*%
X232625000Y-152000000D03*
X232625000Y-153900000D03*
%TD*%
%TO.C,C15*%
X98175000Y-124650000D03*
X98175000Y-126550000D03*
%TD*%
D18*
%TO.C,C6*%
X140975000Y-174850000D03*
X140975000Y-172950000D03*
%TD*%
D13*
%TO.C,R3*%
X82837500Y-38100000D03*
X81012500Y-38100000D03*
%TD*%
D19*
%TO.C,U3*%
X102025000Y-124462500D03*
X101075000Y-124462500D03*
X100125000Y-124462500D03*
X100125000Y-126737500D03*
X101075000Y-126737500D03*
X102025000Y-126737500D03*
%TD*%
D18*
%TO.C,C2*%
X137625000Y-127150000D03*
X137625000Y-125250000D03*
%TD*%
D10*
%TO.C,C9*%
X254825000Y-172850000D03*
X254825000Y-174750000D03*
%TD*%
D14*
%TO.C,C10*%
X208275000Y-147800000D03*
X206375000Y-147800000D03*
%TD*%
D18*
%TO.C,C6*%
X87825000Y-96850000D03*
X87825000Y-94950000D03*
%TD*%
D10*
%TO.C,C15*%
X151325000Y-72650000D03*
X151325000Y-74550000D03*
%TD*%
D20*
%TO.C,L1*%
X82025000Y-83900000D03*
X80425000Y-83900000D03*
%TD*%
D10*
%TO.C,C3*%
X73175000Y-74000000D03*
X73175000Y-75900000D03*
%TD*%
D12*
%TO.C,R6*%
X267775000Y-151687500D03*
X267775000Y-153512500D03*
%TD*%
D10*
%TO.C,C15*%
X45025000Y-124650000D03*
X45025000Y-126550000D03*
%TD*%
D13*
%TO.C,R1*%
X135987500Y-60200000D03*
X134162500Y-60200000D03*
%TD*%
%TO.C,R3*%
X189137500Y-168100000D03*
X187312500Y-168100000D03*
%TD*%
D17*
%TO.C,C11*%
X204175000Y-63300000D03*
X206075000Y-63300000D03*
%TD*%
D13*
%TO.C,R1*%
X242287500Y-138200000D03*
X240462500Y-138200000D03*
%TD*%
D10*
%TO.C,C15*%
X204475000Y-72650000D03*
X204475000Y-74550000D03*
%TD*%
%TO.C,C9*%
X42225000Y-68850000D03*
X42225000Y-70750000D03*
%TD*%
%TO.C,C9*%
X42225000Y-120850000D03*
X42225000Y-122750000D03*
%TD*%
D17*
%TO.C,C11*%
X44725000Y-141300000D03*
X46625000Y-141300000D03*
%TD*%
D22*
%TO.C,U2*%
X139865000Y-59180000D03*
X139865000Y-59980000D03*
X139865000Y-60780000D03*
X139865000Y-61580000D03*
X139865000Y-62380000D03*
X139865000Y-63180000D03*
X139865000Y-63980000D03*
X139865000Y-64780000D03*
D23*
X141315000Y-66230000D03*
X142115000Y-66230000D03*
X142915000Y-66230000D03*
X143715000Y-66230000D03*
X144515000Y-66230000D03*
X145315000Y-66230000D03*
X146115000Y-66230000D03*
X146915000Y-66230000D03*
D22*
X148365000Y-64780000D03*
X148365000Y-63980000D03*
X148365000Y-63180000D03*
X148365000Y-62380000D03*
X148365000Y-61580000D03*
X148365000Y-60780000D03*
X148365000Y-59980000D03*
X148365000Y-59180000D03*
D23*
X146915000Y-57730000D03*
X146115000Y-57730000D03*
X145315000Y-57730000D03*
X144515000Y-57730000D03*
X143715000Y-57730000D03*
X142915000Y-57730000D03*
X142115000Y-57730000D03*
X141315000Y-57730000D03*
%TD*%
D20*
%TO.C,L1*%
X28875000Y-57900000D03*
X27275000Y-57900000D03*
%TD*%
D24*
%TO.C,J1*%
X129575000Y-36750000D03*
X129575000Y-43150000D03*
X129575000Y-37550000D03*
X129575000Y-42350000D03*
D25*
X129575000Y-38700000D03*
X129575000Y-39700000D03*
X129575000Y-40200000D03*
X129575000Y-41200000D03*
X129575000Y-41700000D03*
X129575000Y-40700000D03*
X129575000Y-39200000D03*
X129575000Y-38200000D03*
D26*
X128975000Y-35630000D03*
D27*
X124975000Y-35630000D03*
D26*
X128975000Y-44270000D03*
D27*
X124975000Y-44270000D03*
%TD*%
D19*
%TO.C,U3*%
X48875000Y-98462500D03*
X47925000Y-98462500D03*
X46975000Y-98462500D03*
X46975000Y-100737500D03*
X47925000Y-100737500D03*
X48875000Y-100737500D03*
%TD*%
D24*
%TO.C,J1*%
X129575000Y-140750000D03*
X129575000Y-147150000D03*
X129575000Y-141550000D03*
X129575000Y-146350000D03*
D25*
X129575000Y-142700000D03*
X129575000Y-143700000D03*
X129575000Y-144200000D03*
X129575000Y-145200000D03*
X129575000Y-145700000D03*
X129575000Y-144700000D03*
X129575000Y-143200000D03*
X129575000Y-142200000D03*
D26*
X128975000Y-139630000D03*
D27*
X124975000Y-139630000D03*
D26*
X128975000Y-148270000D03*
D27*
X124975000Y-148270000D03*
%TD*%
D22*
%TO.C,U2*%
X86715000Y-111180000D03*
X86715000Y-111980000D03*
X86715000Y-112780000D03*
X86715000Y-113580000D03*
X86715000Y-114380000D03*
X86715000Y-115180000D03*
X86715000Y-115980000D03*
X86715000Y-116780000D03*
D23*
X88165000Y-118230000D03*
X88965000Y-118230000D03*
X89765000Y-118230000D03*
X90565000Y-118230000D03*
X91365000Y-118230000D03*
X92165000Y-118230000D03*
X92965000Y-118230000D03*
X93765000Y-118230000D03*
D22*
X95215000Y-116780000D03*
X95215000Y-115980000D03*
X95215000Y-115180000D03*
X95215000Y-114380000D03*
X95215000Y-113580000D03*
X95215000Y-112780000D03*
X95215000Y-111980000D03*
X95215000Y-111180000D03*
D23*
X93765000Y-109730000D03*
X92965000Y-109730000D03*
X92165000Y-109730000D03*
X91365000Y-109730000D03*
X90565000Y-109730000D03*
X89765000Y-109730000D03*
X88965000Y-109730000D03*
X88165000Y-109730000D03*
%TD*%
D15*
%TO.C,Y2*%
X22675000Y-49950000D03*
X28575000Y-49950000D03*
X28575000Y-47250000D03*
X22675000Y-47250000D03*
%TD*%
D24*
%TO.C,J1*%
X23275000Y-36750000D03*
X23275000Y-43150000D03*
X23275000Y-37550000D03*
X23275000Y-42350000D03*
D25*
X23275000Y-38700000D03*
X23275000Y-39700000D03*
X23275000Y-40200000D03*
X23275000Y-41200000D03*
X23275000Y-41700000D03*
X23275000Y-40700000D03*
X23275000Y-39200000D03*
X23275000Y-38200000D03*
D26*
X22675000Y-35630000D03*
D27*
X18675000Y-35630000D03*
D26*
X22675000Y-44270000D03*
D27*
X18675000Y-44270000D03*
%TD*%
D12*
%TO.C,R4*%
X190725000Y-173587500D03*
X190725000Y-175412500D03*
%TD*%
D10*
%TO.C,C13*%
X51075000Y-177650000D03*
X51075000Y-179550000D03*
%TD*%
D17*
%TO.C,C11*%
X151025000Y-37300000D03*
X152925000Y-37300000D03*
%TD*%
D24*
%TO.C,J1*%
X76425000Y-166750000D03*
X76425000Y-173150000D03*
X76425000Y-167550000D03*
X76425000Y-172350000D03*
D25*
X76425000Y-168700000D03*
X76425000Y-169700000D03*
X76425000Y-170200000D03*
X76425000Y-171200000D03*
X76425000Y-171700000D03*
X76425000Y-170700000D03*
X76425000Y-169200000D03*
X76425000Y-168200000D03*
D26*
X75825000Y-165630000D03*
D27*
X71825000Y-165630000D03*
D26*
X75825000Y-174270000D03*
D27*
X71825000Y-174270000D03*
%TD*%
D22*
%TO.C,U2*%
X33565000Y-59180000D03*
X33565000Y-59980000D03*
X33565000Y-60780000D03*
X33565000Y-61580000D03*
X33565000Y-62380000D03*
X33565000Y-63180000D03*
X33565000Y-63980000D03*
X33565000Y-64780000D03*
D23*
X35015000Y-66230000D03*
X35815000Y-66230000D03*
X36615000Y-66230000D03*
X37415000Y-66230000D03*
X38215000Y-66230000D03*
X39015000Y-66230000D03*
X39815000Y-66230000D03*
X40615000Y-66230000D03*
D22*
X42065000Y-64780000D03*
X42065000Y-63980000D03*
X42065000Y-63180000D03*
X42065000Y-62380000D03*
X42065000Y-61580000D03*
X42065000Y-60780000D03*
X42065000Y-59980000D03*
X42065000Y-59180000D03*
D23*
X40615000Y-57730000D03*
X39815000Y-57730000D03*
X39015000Y-57730000D03*
X38215000Y-57730000D03*
X37415000Y-57730000D03*
X36615000Y-57730000D03*
X35815000Y-57730000D03*
X35015000Y-57730000D03*
%TD*%
D18*
%TO.C,C7*%
X89825000Y-148850000D03*
X89825000Y-146950000D03*
%TD*%
D14*
%TO.C,C10*%
X48825000Y-147800000D03*
X46925000Y-147800000D03*
%TD*%
D18*
%TO.C,C7*%
X196125000Y-44850000D03*
X196125000Y-42950000D03*
%TD*%
%TO.C,C7*%
X249275000Y-70850000D03*
X249275000Y-68950000D03*
%TD*%
D15*
%TO.C,Y2*%
X75825000Y-153950000D03*
X81725000Y-153950000D03*
X81725000Y-151250000D03*
X75825000Y-151250000D03*
%TD*%
D11*
%TO.C,R5*%
X238575000Y-70812500D03*
X238575000Y-68987500D03*
%TD*%
D14*
%TO.C,C17*%
X46625000Y-59200000D03*
X44725000Y-59200000D03*
%TD*%
D13*
%TO.C,R3*%
X135987500Y-38100000D03*
X134162500Y-38100000D03*
%TD*%
D20*
%TO.C,L1*%
X135175000Y-161900000D03*
X133575000Y-161900000D03*
%TD*%
D16*
%TO.C,D1*%
X143375000Y-101500000D03*
X147375000Y-101500000D03*
%TD*%
D14*
%TO.C,C17*%
X259225000Y-137200000D03*
X257325000Y-137200000D03*
%TD*%
D15*
%TO.C,Y2*%
X128975000Y-153950000D03*
X134875000Y-153950000D03*
X134875000Y-151250000D03*
X128975000Y-151250000D03*
%TD*%
D21*
%TO.C,R2*%
X187312500Y-166100000D03*
X189137500Y-166100000D03*
%TD*%
D18*
%TO.C,C2*%
X190775000Y-127150000D03*
X190775000Y-125250000D03*
%TD*%
D11*
%TO.C,R7*%
X235675000Y-32962500D03*
X235675000Y-31137500D03*
%TD*%
D14*
%TO.C,C10*%
X208275000Y-173800000D03*
X206375000Y-173800000D03*
%TD*%
D18*
%TO.C,C8*%
X199625000Y-96750000D03*
X199625000Y-94850000D03*
%TD*%
D13*
%TO.C,R3*%
X135987500Y-64100000D03*
X134162500Y-64100000D03*
%TD*%
D18*
%TO.C,C8*%
X40175000Y-122750000D03*
X40175000Y-120850000D03*
%TD*%
D17*
%TO.C,C11*%
X257325000Y-115300000D03*
X259225000Y-115300000D03*
%TD*%
D14*
%TO.C,C14*%
X259225000Y-35300000D03*
X257325000Y-35300000D03*
%TD*%
D11*
%TO.C,R5*%
X238575000Y-96812500D03*
X238575000Y-94987500D03*
%TD*%
D16*
%TO.C,D1*%
X37075000Y-127500000D03*
X41075000Y-127500000D03*
%TD*%
D10*
%TO.C,C18*%
X243775000Y-56350000D03*
X243775000Y-58250000D03*
%TD*%
D11*
%TO.C,R7*%
X235675000Y-162962500D03*
X235675000Y-161137500D03*
%TD*%
D13*
%TO.C,R1*%
X29687500Y-112200000D03*
X27862500Y-112200000D03*
%TD*%
D20*
%TO.C,L1*%
X28875000Y-161900000D03*
X27275000Y-161900000D03*
%TD*%
D18*
%TO.C,C2*%
X31325000Y-101150000D03*
X31325000Y-99250000D03*
%TD*%
D10*
%TO.C,C18*%
X84325000Y-134350000D03*
X84325000Y-136250000D03*
%TD*%
D18*
%TO.C,C6*%
X34675000Y-174850000D03*
X34675000Y-172950000D03*
%TD*%
D24*
%TO.C,J1*%
X76425000Y-114750000D03*
X76425000Y-121150000D03*
X76425000Y-115550000D03*
X76425000Y-120350000D03*
D25*
X76425000Y-116700000D03*
X76425000Y-117700000D03*
X76425000Y-118200000D03*
X76425000Y-119200000D03*
X76425000Y-119700000D03*
X76425000Y-118700000D03*
X76425000Y-117200000D03*
X76425000Y-116200000D03*
D26*
X75825000Y-113630000D03*
D27*
X71825000Y-113630000D03*
D26*
X75825000Y-122270000D03*
D27*
X71825000Y-122270000D03*
%TD*%
D24*
%TO.C,J1*%
X23275000Y-166750000D03*
X23275000Y-173150000D03*
X23275000Y-167550000D03*
X23275000Y-172350000D03*
D25*
X23275000Y-168700000D03*
X23275000Y-169700000D03*
X23275000Y-170200000D03*
X23275000Y-171200000D03*
X23275000Y-171700000D03*
X23275000Y-170700000D03*
X23275000Y-169200000D03*
X23275000Y-168200000D03*
D26*
X22675000Y-165630000D03*
D27*
X18675000Y-165630000D03*
D26*
X22675000Y-174270000D03*
D27*
X18675000Y-174270000D03*
%TD*%
D24*
%TO.C,J1*%
X235875000Y-62750000D03*
X235875000Y-69150000D03*
X235875000Y-63550000D03*
X235875000Y-68350000D03*
D25*
X235875000Y-64700000D03*
X235875000Y-65700000D03*
X235875000Y-66200000D03*
X235875000Y-67200000D03*
X235875000Y-67700000D03*
X235875000Y-66700000D03*
X235875000Y-65200000D03*
X235875000Y-64200000D03*
D26*
X235275000Y-61630000D03*
D27*
X231275000Y-61630000D03*
D26*
X235275000Y-70270000D03*
D27*
X231275000Y-70270000D03*
%TD*%
D19*
%TO.C,U3*%
X261475000Y-98462500D03*
X260525000Y-98462500D03*
X259575000Y-98462500D03*
X259575000Y-100737500D03*
X260525000Y-100737500D03*
X261475000Y-100737500D03*
%TD*%
D17*
%TO.C,C11*%
X204175000Y-141300000D03*
X206075000Y-141300000D03*
%TD*%
D10*
%TO.C,C18*%
X137475000Y-160350000D03*
X137475000Y-162250000D03*
%TD*%
%TO.C,C3*%
X126325000Y-48000000D03*
X126325000Y-49900000D03*
%TD*%
D18*
%TO.C,C6*%
X247275000Y-148850000D03*
X247275000Y-146950000D03*
%TD*%
D13*
%TO.C,R3*%
X82837500Y-142100000D03*
X81012500Y-142100000D03*
%TD*%
D18*
%TO.C,C2*%
X31325000Y-179150000D03*
X31325000Y-177250000D03*
%TD*%
D12*
%TO.C,R6*%
X267775000Y-177687500D03*
X267775000Y-179512500D03*
%TD*%
D16*
%TO.C,D1*%
X196525000Y-75500000D03*
X200525000Y-75500000D03*
%TD*%
D20*
%TO.C,L1*%
X82025000Y-31900000D03*
X80425000Y-31900000D03*
%TD*%
D19*
%TO.C,U3*%
X208325000Y-150462500D03*
X207375000Y-150462500D03*
X206425000Y-150462500D03*
X206425000Y-152737500D03*
X207375000Y-152737500D03*
X208325000Y-152737500D03*
%TD*%
D10*
%TO.C,C15*%
X45025000Y-46650000D03*
X45025000Y-48550000D03*
%TD*%
D22*
%TO.C,U2*%
X246165000Y-163180000D03*
X246165000Y-163980000D03*
X246165000Y-164780000D03*
X246165000Y-165580000D03*
X246165000Y-166380000D03*
X246165000Y-167180000D03*
X246165000Y-167980000D03*
X246165000Y-168780000D03*
D23*
X247615000Y-170230000D03*
X248415000Y-170230000D03*
X249215000Y-170230000D03*
X250015000Y-170230000D03*
X250815000Y-170230000D03*
X251615000Y-170230000D03*
X252415000Y-170230000D03*
X253215000Y-170230000D03*
D22*
X254665000Y-168780000D03*
X254665000Y-167980000D03*
X254665000Y-167180000D03*
X254665000Y-166380000D03*
X254665000Y-165580000D03*
X254665000Y-164780000D03*
X254665000Y-163980000D03*
X254665000Y-163180000D03*
D23*
X253215000Y-161730000D03*
X252415000Y-161730000D03*
X251615000Y-161730000D03*
X250815000Y-161730000D03*
X250015000Y-161730000D03*
X249215000Y-161730000D03*
X248415000Y-161730000D03*
X247615000Y-161730000D03*
%TD*%
D10*
%TO.C,C18*%
X84325000Y-30350000D03*
X84325000Y-32250000D03*
%TD*%
D18*
%TO.C,C8*%
X146475000Y-70750000D03*
X146475000Y-68850000D03*
%TD*%
D10*
%TO.C,C3*%
X232625000Y-48000000D03*
X232625000Y-49900000D03*
%TD*%
D15*
%TO.C,Y2*%
X182125000Y-101950000D03*
X188025000Y-101950000D03*
X188025000Y-99250000D03*
X182125000Y-99250000D03*
%TD*%
D17*
%TO.C,C11*%
X257325000Y-141300000D03*
X259225000Y-141300000D03*
%TD*%
D14*
%TO.C,C1*%
X189175000Y-144200000D03*
X187275000Y-144200000D03*
%TD*%
D10*
%TO.C,C18*%
X84325000Y-56350000D03*
X84325000Y-58250000D03*
%TD*%
D11*
%TO.C,R7*%
X182525000Y-162962500D03*
X182525000Y-161137500D03*
%TD*%
D13*
%TO.C,R3*%
X135987500Y-168100000D03*
X134162500Y-168100000D03*
%TD*%
D22*
%TO.C,U2*%
X33565000Y-137180000D03*
X33565000Y-137980000D03*
X33565000Y-138780000D03*
X33565000Y-139580000D03*
X33565000Y-140380000D03*
X33565000Y-141180000D03*
X33565000Y-141980000D03*
X33565000Y-142780000D03*
D23*
X35015000Y-144230000D03*
X35815000Y-144230000D03*
X36615000Y-144230000D03*
X37415000Y-144230000D03*
X38215000Y-144230000D03*
X39015000Y-144230000D03*
X39815000Y-144230000D03*
X40615000Y-144230000D03*
D22*
X42065000Y-142780000D03*
X42065000Y-141980000D03*
X42065000Y-141180000D03*
X42065000Y-140380000D03*
X42065000Y-139580000D03*
X42065000Y-138780000D03*
X42065000Y-137980000D03*
X42065000Y-137180000D03*
D23*
X40615000Y-135730000D03*
X39815000Y-135730000D03*
X39015000Y-135730000D03*
X38215000Y-135730000D03*
X37415000Y-135730000D03*
X36615000Y-135730000D03*
X35815000Y-135730000D03*
X35015000Y-135730000D03*
%TD*%
D15*
%TO.C,Y2*%
X182125000Y-75950000D03*
X188025000Y-75950000D03*
X188025000Y-73250000D03*
X182125000Y-73250000D03*
%TD*%
D18*
%TO.C,C8*%
X252775000Y-96750000D03*
X252775000Y-94850000D03*
%TD*%
D12*
%TO.C,R6*%
X267775000Y-125687500D03*
X267775000Y-127512500D03*
%TD*%
D14*
%TO.C,C10*%
X261425000Y-95800000D03*
X259525000Y-95800000D03*
%TD*%
%TO.C,C14*%
X152925000Y-61300000D03*
X151025000Y-61300000D03*
%TD*%
D18*
%TO.C,C7*%
X89825000Y-122850000D03*
X89825000Y-120950000D03*
%TD*%
D20*
%TO.C,L1*%
X188325000Y-161900000D03*
X186725000Y-161900000D03*
%TD*%
D10*
%TO.C,C13*%
X263675000Y-177650000D03*
X263675000Y-179550000D03*
%TD*%
D18*
%TO.C,C2*%
X137625000Y-101150000D03*
X137625000Y-99250000D03*
%TD*%
D12*
%TO.C,R6*%
X214625000Y-177687500D03*
X214625000Y-179512500D03*
%TD*%
D10*
%TO.C,C9*%
X95375000Y-68850000D03*
X95375000Y-70750000D03*
%TD*%
%TO.C,C3*%
X20025000Y-74000000D03*
X20025000Y-75900000D03*
%TD*%
D14*
%TO.C,C1*%
X136025000Y-118200000D03*
X134125000Y-118200000D03*
%TD*%
D12*
%TO.C,R4*%
X31275000Y-95587500D03*
X31275000Y-97412500D03*
%TD*%
D15*
%TO.C,Y2*%
X75825000Y-101950000D03*
X81725000Y-101950000D03*
X81725000Y-99250000D03*
X75825000Y-99250000D03*
%TD*%
D18*
%TO.C,C8*%
X252775000Y-174750000D03*
X252775000Y-172850000D03*
%TD*%
D17*
%TO.C,C11*%
X44725000Y-115300000D03*
X46625000Y-115300000D03*
%TD*%
D18*
%TO.C,C2*%
X84475000Y-75150000D03*
X84475000Y-73250000D03*
%TD*%
D15*
%TO.C,Y2*%
X235275000Y-75950000D03*
X241175000Y-75950000D03*
X241175000Y-73250000D03*
X235275000Y-73250000D03*
%TD*%
D14*
%TO.C,C17*%
X152925000Y-85200000D03*
X151025000Y-85200000D03*
%TD*%
D10*
%TO.C,C9*%
X95375000Y-42850000D03*
X95375000Y-44750000D03*
%TD*%
D14*
%TO.C,C10*%
X101975000Y-95800000D03*
X100075000Y-95800000D03*
%TD*%
D10*
%TO.C,C9*%
X95375000Y-146850000D03*
X95375000Y-148750000D03*
%TD*%
D18*
%TO.C,C2*%
X243925000Y-49150000D03*
X243925000Y-47250000D03*
%TD*%
D12*
%TO.C,R6*%
X161475000Y-99687500D03*
X161475000Y-101512500D03*
%TD*%
D13*
%TO.C,R3*%
X29687500Y-64100000D03*
X27862500Y-64100000D03*
%TD*%
D21*
%TO.C,R2*%
X240462500Y-36100000D03*
X242287500Y-36100000D03*
%TD*%
D14*
%TO.C,C10*%
X155125000Y-173800000D03*
X153225000Y-173800000D03*
%TD*%
D12*
%TO.C,R6*%
X267775000Y-73687500D03*
X267775000Y-75512500D03*
%TD*%
D19*
%TO.C,U3*%
X208325000Y-98462500D03*
X207375000Y-98462500D03*
X206425000Y-98462500D03*
X206425000Y-100737500D03*
X207375000Y-100737500D03*
X208325000Y-100737500D03*
%TD*%
D21*
%TO.C,R2*%
X134162500Y-88100000D03*
X135987500Y-88100000D03*
%TD*%
D11*
%TO.C,R5*%
X185425000Y-96812500D03*
X185425000Y-94987500D03*
%TD*%
D21*
%TO.C,R2*%
X187312500Y-88100000D03*
X189137500Y-88100000D03*
%TD*%
D10*
%TO.C,C3*%
X73175000Y-152000000D03*
X73175000Y-153900000D03*
%TD*%
D16*
%TO.C,D1*%
X196525000Y-49500000D03*
X200525000Y-49500000D03*
%TD*%
D11*
%TO.C,R5*%
X238575000Y-44812500D03*
X238575000Y-42987500D03*
%TD*%
D13*
%TO.C,R1*%
X29687500Y-86200000D03*
X27862500Y-86200000D03*
%TD*%
D22*
%TO.C,U2*%
X86715000Y-163180000D03*
X86715000Y-163980000D03*
X86715000Y-164780000D03*
X86715000Y-165580000D03*
X86715000Y-166380000D03*
X86715000Y-167180000D03*
X86715000Y-167980000D03*
X86715000Y-168780000D03*
D23*
X88165000Y-170230000D03*
X88965000Y-170230000D03*
X89765000Y-170230000D03*
X90565000Y-170230000D03*
X91365000Y-170230000D03*
X92165000Y-170230000D03*
X92965000Y-170230000D03*
X93765000Y-170230000D03*
D22*
X95215000Y-168780000D03*
X95215000Y-167980000D03*
X95215000Y-167180000D03*
X95215000Y-166380000D03*
X95215000Y-165580000D03*
X95215000Y-164780000D03*
X95215000Y-163980000D03*
X95215000Y-163180000D03*
D23*
X93765000Y-161730000D03*
X92965000Y-161730000D03*
X92165000Y-161730000D03*
X91365000Y-161730000D03*
X90565000Y-161730000D03*
X89765000Y-161730000D03*
X88965000Y-161730000D03*
X88165000Y-161730000D03*
%TD*%
D18*
%TO.C,C8*%
X252775000Y-44750000D03*
X252775000Y-42850000D03*
%TD*%
D20*
%TO.C,L1*%
X188325000Y-31900000D03*
X186725000Y-31900000D03*
%TD*%
D10*
%TO.C,C13*%
X210525000Y-151650000D03*
X210525000Y-153550000D03*
%TD*%
D11*
%TO.C,R5*%
X25975000Y-174812500D03*
X25975000Y-172987500D03*
%TD*%
D12*
%TO.C,R4*%
X84425000Y-121587500D03*
X84425000Y-123412500D03*
%TD*%
D21*
%TO.C,R2*%
X240462500Y-88100000D03*
X242287500Y-88100000D03*
%TD*%
D15*
%TO.C,Y2*%
X22675000Y-153950000D03*
X28575000Y-153950000D03*
X28575000Y-151250000D03*
X22675000Y-151250000D03*
%TD*%
D18*
%TO.C,C7*%
X249275000Y-96850000D03*
X249275000Y-94950000D03*
%TD*%
D10*
%TO.C,C18*%
X190625000Y-160350000D03*
X190625000Y-162250000D03*
%TD*%
D20*
%TO.C,L1*%
X82025000Y-135900000D03*
X80425000Y-135900000D03*
%TD*%
D11*
%TO.C,R7*%
X76225000Y-136962500D03*
X76225000Y-135137500D03*
%TD*%
D10*
%TO.C,C3*%
X73175000Y-126000000D03*
X73175000Y-127900000D03*
%TD*%
D18*
%TO.C,C7*%
X249275000Y-44850000D03*
X249275000Y-42950000D03*
%TD*%
D21*
%TO.C,R2*%
X240462500Y-114100000D03*
X242287500Y-114100000D03*
%TD*%
D14*
%TO.C,C17*%
X259225000Y-163200000D03*
X257325000Y-163200000D03*
%TD*%
D19*
%TO.C,U3*%
X155175000Y-72462500D03*
X154225000Y-72462500D03*
X153275000Y-72462500D03*
X153275000Y-74737500D03*
X154225000Y-74737500D03*
X155175000Y-74737500D03*
%TD*%
D16*
%TO.C,D1*%
X90225000Y-179500000D03*
X94225000Y-179500000D03*
%TD*%
%TO.C,D1*%
X143375000Y-153500000D03*
X147375000Y-153500000D03*
%TD*%
D18*
%TO.C,C7*%
X142975000Y-44850000D03*
X142975000Y-42950000D03*
%TD*%
D12*
%TO.C,R6*%
X267775000Y-99687500D03*
X267775000Y-101512500D03*
%TD*%
%TO.C,R4*%
X31275000Y-121587500D03*
X31275000Y-123412500D03*
%TD*%
D10*
%TO.C,C9*%
X42225000Y-94850000D03*
X42225000Y-96750000D03*
%TD*%
D18*
%TO.C,C7*%
X196125000Y-70850000D03*
X196125000Y-68950000D03*
%TD*%
D16*
%TO.C,D1*%
X249675000Y-101500000D03*
X253675000Y-101500000D03*
%TD*%
D10*
%TO.C,C18*%
X190625000Y-56350000D03*
X190625000Y-58250000D03*
%TD*%
D12*
%TO.C,R6*%
X55175000Y-177687500D03*
X55175000Y-179512500D03*
%TD*%
D14*
%TO.C,C14*%
X206075000Y-61300000D03*
X204175000Y-61300000D03*
%TD*%
%TO.C,C10*%
X48825000Y-121800000D03*
X46925000Y-121800000D03*
%TD*%
D18*
%TO.C,C6*%
X194125000Y-96850000D03*
X194125000Y-94950000D03*
%TD*%
D11*
%TO.C,R7*%
X23075000Y-32962500D03*
X23075000Y-31137500D03*
%TD*%
%TO.C,R7*%
X182525000Y-110962500D03*
X182525000Y-109137500D03*
%TD*%
D12*
%TO.C,R4*%
X31275000Y-147587500D03*
X31275000Y-149412500D03*
%TD*%
D21*
%TO.C,R2*%
X81012500Y-140100000D03*
X82837500Y-140100000D03*
%TD*%
D18*
%TO.C,C8*%
X93325000Y-122750000D03*
X93325000Y-120850000D03*
%TD*%
D13*
%TO.C,R1*%
X242287500Y-60200000D03*
X240462500Y-60200000D03*
%TD*%
D10*
%TO.C,C18*%
X243775000Y-160350000D03*
X243775000Y-162250000D03*
%TD*%
D12*
%TO.C,R4*%
X84425000Y-43587500D03*
X84425000Y-45412500D03*
%TD*%
D18*
%TO.C,C7*%
X142975000Y-122850000D03*
X142975000Y-120950000D03*
%TD*%
D14*
%TO.C,C10*%
X155125000Y-147800000D03*
X153225000Y-147800000D03*
%TD*%
D11*
%TO.C,R7*%
X76225000Y-84962500D03*
X76225000Y-83137500D03*
%TD*%
D14*
%TO.C,C1*%
X82875000Y-118200000D03*
X80975000Y-118200000D03*
%TD*%
D18*
%TO.C,C8*%
X199625000Y-44750000D03*
X199625000Y-42850000D03*
%TD*%
D17*
%TO.C,C11*%
X151025000Y-141300000D03*
X152925000Y-141300000D03*
%TD*%
D10*
%TO.C,C18*%
X31175000Y-30350000D03*
X31175000Y-32250000D03*
%TD*%
D12*
%TO.C,R6*%
X55175000Y-73687500D03*
X55175000Y-75512500D03*
%TD*%
D14*
%TO.C,C14*%
X206075000Y-165300000D03*
X204175000Y-165300000D03*
%TD*%
%TO.C,C1*%
X29725000Y-66200000D03*
X27825000Y-66200000D03*
%TD*%
D12*
%TO.C,R6*%
X108325000Y-151687500D03*
X108325000Y-153512500D03*
%TD*%
D13*
%TO.C,R1*%
X189137500Y-138200000D03*
X187312500Y-138200000D03*
%TD*%
D14*
%TO.C,C17*%
X46625000Y-163200000D03*
X44725000Y-163200000D03*
%TD*%
D24*
%TO.C,J1*%
X182725000Y-36750000D03*
X182725000Y-43150000D03*
X182725000Y-37550000D03*
X182725000Y-42350000D03*
D25*
X182725000Y-38700000D03*
X182725000Y-39700000D03*
X182725000Y-40200000D03*
X182725000Y-41200000D03*
X182725000Y-41700000D03*
X182725000Y-40700000D03*
X182725000Y-39200000D03*
X182725000Y-38200000D03*
D26*
X182125000Y-35630000D03*
D27*
X178125000Y-35630000D03*
D26*
X182125000Y-44270000D03*
D27*
X178125000Y-44270000D03*
%TD*%
D14*
%TO.C,C10*%
X48825000Y-43800000D03*
X46925000Y-43800000D03*
%TD*%
%TO.C,C10*%
X155125000Y-121800000D03*
X153225000Y-121800000D03*
%TD*%
D15*
%TO.C,Y2*%
X235275000Y-49950000D03*
X241175000Y-49950000D03*
X241175000Y-47250000D03*
X235275000Y-47250000D03*
%TD*%
D20*
%TO.C,L1*%
X241475000Y-135900000D03*
X239875000Y-135900000D03*
%TD*%
D12*
%TO.C,R4*%
X243875000Y-43587500D03*
X243875000Y-45412500D03*
%TD*%
D17*
%TO.C,C11*%
X44725000Y-37300000D03*
X46625000Y-37300000D03*
%TD*%
D18*
%TO.C,C6*%
X34675000Y-70850000D03*
X34675000Y-68950000D03*
%TD*%
D14*
%TO.C,C17*%
X46625000Y-33200000D03*
X44725000Y-33200000D03*
%TD*%
D16*
%TO.C,D1*%
X249675000Y-127500000D03*
X253675000Y-127500000D03*
%TD*%
D13*
%TO.C,R1*%
X29687500Y-164200000D03*
X27862500Y-164200000D03*
%TD*%
%TO.C,R3*%
X29687500Y-116100000D03*
X27862500Y-116100000D03*
%TD*%
%TO.C,R1*%
X29687500Y-34200000D03*
X27862500Y-34200000D03*
%TD*%
D10*
%TO.C,C15*%
X45025000Y-150650000D03*
X45025000Y-152550000D03*
%TD*%
%TO.C,C15*%
X257625000Y-124650000D03*
X257625000Y-126550000D03*
%TD*%
D18*
%TO.C,C6*%
X247275000Y-122850000D03*
X247275000Y-120950000D03*
%TD*%
D14*
%TO.C,C14*%
X152925000Y-113300000D03*
X151025000Y-113300000D03*
%TD*%
%TO.C,C1*%
X242325000Y-40200000D03*
X240425000Y-40200000D03*
%TD*%
D18*
%TO.C,C7*%
X196125000Y-174850000D03*
X196125000Y-172950000D03*
%TD*%
D14*
%TO.C,C1*%
X29725000Y-144200000D03*
X27825000Y-144200000D03*
%TD*%
D22*
%TO.C,U2*%
X139865000Y-111180000D03*
X139865000Y-111980000D03*
X139865000Y-112780000D03*
X139865000Y-113580000D03*
X139865000Y-114380000D03*
X139865000Y-115180000D03*
X139865000Y-115980000D03*
X139865000Y-116780000D03*
D23*
X141315000Y-118230000D03*
X142115000Y-118230000D03*
X142915000Y-118230000D03*
X143715000Y-118230000D03*
X144515000Y-118230000D03*
X145315000Y-118230000D03*
X146115000Y-118230000D03*
X146915000Y-118230000D03*
D22*
X148365000Y-116780000D03*
X148365000Y-115980000D03*
X148365000Y-115180000D03*
X148365000Y-114380000D03*
X148365000Y-113580000D03*
X148365000Y-112780000D03*
X148365000Y-111980000D03*
X148365000Y-111180000D03*
D23*
X146915000Y-109730000D03*
X146115000Y-109730000D03*
X145315000Y-109730000D03*
X144515000Y-109730000D03*
X143715000Y-109730000D03*
X142915000Y-109730000D03*
X142115000Y-109730000D03*
X141315000Y-109730000D03*
%TD*%
D13*
%TO.C,R3*%
X135987500Y-142100000D03*
X134162500Y-142100000D03*
%TD*%
D11*
%TO.C,R5*%
X238575000Y-174812500D03*
X238575000Y-172987500D03*
%TD*%
D14*
%TO.C,C14*%
X46625000Y-87300000D03*
X44725000Y-87300000D03*
%TD*%
D15*
%TO.C,Y2*%
X128975000Y-179950000D03*
X134875000Y-179950000D03*
X134875000Y-177250000D03*
X128975000Y-177250000D03*
%TD*%
D10*
%TO.C,C13*%
X263675000Y-47650000D03*
X263675000Y-49550000D03*
%TD*%
D24*
%TO.C,J1*%
X23275000Y-140750000D03*
X23275000Y-147150000D03*
X23275000Y-141550000D03*
X23275000Y-146350000D03*
D25*
X23275000Y-142700000D03*
X23275000Y-143700000D03*
X23275000Y-144200000D03*
X23275000Y-145200000D03*
X23275000Y-145700000D03*
X23275000Y-144700000D03*
X23275000Y-143200000D03*
X23275000Y-142200000D03*
D26*
X22675000Y-139630000D03*
D27*
X18675000Y-139630000D03*
D26*
X22675000Y-148270000D03*
D27*
X18675000Y-148270000D03*
%TD*%
D16*
%TO.C,D1*%
X90225000Y-127500000D03*
X94225000Y-127500000D03*
%TD*%
D10*
%TO.C,C18*%
X137475000Y-108350000D03*
X137475000Y-110250000D03*
%TD*%
D18*
%TO.C,C2*%
X243925000Y-127150000D03*
X243925000Y-125250000D03*
%TD*%
D14*
%TO.C,C1*%
X82875000Y-40200000D03*
X80975000Y-40200000D03*
%TD*%
D10*
%TO.C,C18*%
X243775000Y-108350000D03*
X243775000Y-110250000D03*
%TD*%
D22*
%TO.C,U2*%
X139865000Y-137180000D03*
X139865000Y-137980000D03*
X139865000Y-138780000D03*
X139865000Y-139580000D03*
X139865000Y-140380000D03*
X139865000Y-141180000D03*
X139865000Y-141980000D03*
X139865000Y-142780000D03*
D23*
X141315000Y-144230000D03*
X142115000Y-144230000D03*
X142915000Y-144230000D03*
X143715000Y-144230000D03*
X144515000Y-144230000D03*
X145315000Y-144230000D03*
X146115000Y-144230000D03*
X146915000Y-144230000D03*
D22*
X148365000Y-142780000D03*
X148365000Y-141980000D03*
X148365000Y-141180000D03*
X148365000Y-140380000D03*
X148365000Y-139580000D03*
X148365000Y-138780000D03*
X148365000Y-137980000D03*
X148365000Y-137180000D03*
D23*
X146915000Y-135730000D03*
X146115000Y-135730000D03*
X145315000Y-135730000D03*
X144515000Y-135730000D03*
X143715000Y-135730000D03*
X142915000Y-135730000D03*
X142115000Y-135730000D03*
X141315000Y-135730000D03*
%TD*%
D19*
%TO.C,U3*%
X155175000Y-46462500D03*
X154225000Y-46462500D03*
X153275000Y-46462500D03*
X153275000Y-48737500D03*
X154225000Y-48737500D03*
X155175000Y-48737500D03*
%TD*%
D16*
%TO.C,D1*%
X37075000Y-153500000D03*
X41075000Y-153500000D03*
%TD*%
D22*
%TO.C,U2*%
X139865000Y-85180000D03*
X139865000Y-85980000D03*
X139865000Y-86780000D03*
X139865000Y-87580000D03*
X139865000Y-88380000D03*
X139865000Y-89180000D03*
X139865000Y-89980000D03*
X139865000Y-90780000D03*
D23*
X141315000Y-92230000D03*
X142115000Y-92230000D03*
X142915000Y-92230000D03*
X143715000Y-92230000D03*
X144515000Y-92230000D03*
X145315000Y-92230000D03*
X146115000Y-92230000D03*
X146915000Y-92230000D03*
D22*
X148365000Y-90780000D03*
X148365000Y-89980000D03*
X148365000Y-89180000D03*
X148365000Y-88380000D03*
X148365000Y-87580000D03*
X148365000Y-86780000D03*
X148365000Y-85980000D03*
X148365000Y-85180000D03*
D23*
X146915000Y-83730000D03*
X146115000Y-83730000D03*
X145315000Y-83730000D03*
X144515000Y-83730000D03*
X143715000Y-83730000D03*
X142915000Y-83730000D03*
X142115000Y-83730000D03*
X141315000Y-83730000D03*
%TD*%
D10*
%TO.C,C3*%
X179475000Y-74000000D03*
X179475000Y-75900000D03*
%TD*%
D11*
%TO.C,R7*%
X23075000Y-110962500D03*
X23075000Y-109137500D03*
%TD*%
D13*
%TO.C,R3*%
X242287500Y-168100000D03*
X240462500Y-168100000D03*
%TD*%
D11*
%TO.C,R5*%
X132275000Y-96812500D03*
X132275000Y-94987500D03*
%TD*%
%TO.C,R7*%
X129375000Y-136962500D03*
X129375000Y-135137500D03*
%TD*%
D14*
%TO.C,C1*%
X189175000Y-40200000D03*
X187275000Y-40200000D03*
%TD*%
D10*
%TO.C,C9*%
X148525000Y-68850000D03*
X148525000Y-70750000D03*
%TD*%
%TO.C,C13*%
X157375000Y-99650000D03*
X157375000Y-101550000D03*
%TD*%
D24*
%TO.C,J1*%
X129575000Y-62750000D03*
X129575000Y-69150000D03*
X129575000Y-63550000D03*
X129575000Y-68350000D03*
D25*
X129575000Y-64700000D03*
X129575000Y-65700000D03*
X129575000Y-66200000D03*
X129575000Y-67200000D03*
X129575000Y-67700000D03*
X129575000Y-66700000D03*
X129575000Y-65200000D03*
X129575000Y-64200000D03*
D26*
X128975000Y-61630000D03*
D27*
X124975000Y-61630000D03*
D26*
X128975000Y-70270000D03*
D27*
X124975000Y-70270000D03*
%TD*%
D18*
%TO.C,C2*%
X31325000Y-153150000D03*
X31325000Y-151250000D03*
%TD*%
D10*
%TO.C,C9*%
X201675000Y-42850000D03*
X201675000Y-44750000D03*
%TD*%
%TO.C,C18*%
X137475000Y-82350000D03*
X137475000Y-84250000D03*
%TD*%
%TO.C,C15*%
X257625000Y-150650000D03*
X257625000Y-152550000D03*
%TD*%
D15*
%TO.C,Y2*%
X128975000Y-101950000D03*
X134875000Y-101950000D03*
X134875000Y-99250000D03*
X128975000Y-99250000D03*
%TD*%
D10*
%TO.C,C9*%
X254825000Y-120850000D03*
X254825000Y-122750000D03*
%TD*%
D19*
%TO.C,U3*%
X102025000Y-72462500D03*
X101075000Y-72462500D03*
X100125000Y-72462500D03*
X100125000Y-74737500D03*
X101075000Y-74737500D03*
X102025000Y-74737500D03*
%TD*%
D24*
%TO.C,J1*%
X182725000Y-88750000D03*
X182725000Y-95150000D03*
X182725000Y-89550000D03*
X182725000Y-94350000D03*
D25*
X182725000Y-90700000D03*
X182725000Y-91700000D03*
X182725000Y-92200000D03*
X182725000Y-93200000D03*
X182725000Y-93700000D03*
X182725000Y-92700000D03*
X182725000Y-91200000D03*
X182725000Y-90200000D03*
D26*
X182125000Y-87630000D03*
D27*
X178125000Y-87630000D03*
D26*
X182125000Y-96270000D03*
D27*
X178125000Y-96270000D03*
%TD*%
D14*
%TO.C,C10*%
X208275000Y-69800000D03*
X206375000Y-69800000D03*
%TD*%
D21*
%TO.C,R2*%
X240462500Y-166100000D03*
X242287500Y-166100000D03*
%TD*%
D16*
%TO.C,D1*%
X143375000Y-179500000D03*
X147375000Y-179500000D03*
%TD*%
D19*
%TO.C,U3*%
X261475000Y-46462500D03*
X260525000Y-46462500D03*
X259575000Y-46462500D03*
X259575000Y-48737500D03*
X260525000Y-48737500D03*
X261475000Y-48737500D03*
%TD*%
D11*
%TO.C,R5*%
X185425000Y-70812500D03*
X185425000Y-68987500D03*
%TD*%
D14*
%TO.C,C1*%
X82875000Y-170200000D03*
X80975000Y-170200000D03*
%TD*%
D10*
%TO.C,C13*%
X263675000Y-151650000D03*
X263675000Y-153550000D03*
%TD*%
D18*
%TO.C,C6*%
X87825000Y-44850000D03*
X87825000Y-42950000D03*
%TD*%
D12*
%TO.C,R6*%
X214625000Y-73687500D03*
X214625000Y-75512500D03*
%TD*%
D10*
%TO.C,C13*%
X104225000Y-151650000D03*
X104225000Y-153550000D03*
%TD*%
%TO.C,C3*%
X179475000Y-48000000D03*
X179475000Y-49900000D03*
%TD*%
D12*
%TO.C,R6*%
X214625000Y-47687500D03*
X214625000Y-49512500D03*
%TD*%
D18*
%TO.C,C6*%
X247275000Y-70850000D03*
X247275000Y-68950000D03*
%TD*%
D11*
%TO.C,R5*%
X238575000Y-148812500D03*
X238575000Y-146987500D03*
%TD*%
D20*
%TO.C,L1*%
X241475000Y-83900000D03*
X239875000Y-83900000D03*
%TD*%
D18*
%TO.C,C2*%
X84475000Y-101150000D03*
X84475000Y-99250000D03*
%TD*%
D10*
%TO.C,C18*%
X243775000Y-30350000D03*
X243775000Y-32250000D03*
%TD*%
%TO.C,C15*%
X98175000Y-98650000D03*
X98175000Y-100550000D03*
%TD*%
D18*
%TO.C,C2*%
X84475000Y-179150000D03*
X84475000Y-177250000D03*
%TD*%
%TO.C,C2*%
X243925000Y-101150000D03*
X243925000Y-99250000D03*
%TD*%
D10*
%TO.C,C9*%
X148525000Y-94850000D03*
X148525000Y-96750000D03*
%TD*%
D14*
%TO.C,C17*%
X152925000Y-33200000D03*
X151025000Y-33200000D03*
%TD*%
D19*
%TO.C,U3*%
X102025000Y-98462500D03*
X101075000Y-98462500D03*
X100125000Y-98462500D03*
X100125000Y-100737500D03*
X101075000Y-100737500D03*
X102025000Y-100737500D03*
%TD*%
D24*
%TO.C,J1*%
X182725000Y-114750000D03*
X182725000Y-121150000D03*
X182725000Y-115550000D03*
X182725000Y-120350000D03*
D25*
X182725000Y-116700000D03*
X182725000Y-117700000D03*
X182725000Y-118200000D03*
X182725000Y-119200000D03*
X182725000Y-119700000D03*
X182725000Y-118700000D03*
X182725000Y-117200000D03*
X182725000Y-116200000D03*
D26*
X182125000Y-113630000D03*
D27*
X178125000Y-113630000D03*
D26*
X182125000Y-122270000D03*
D27*
X178125000Y-122270000D03*
%TD*%
D12*
%TO.C,R6*%
X55175000Y-125687500D03*
X55175000Y-127512500D03*
%TD*%
%TO.C,R4*%
X243875000Y-95587500D03*
X243875000Y-97412500D03*
%TD*%
D13*
%TO.C,R3*%
X135987500Y-116100000D03*
X134162500Y-116100000D03*
%TD*%
D11*
%TO.C,R7*%
X76225000Y-110962500D03*
X76225000Y-109137500D03*
%TD*%
D19*
%TO.C,U3*%
X261475000Y-72462500D03*
X260525000Y-72462500D03*
X259575000Y-72462500D03*
X259575000Y-74737500D03*
X260525000Y-74737500D03*
X261475000Y-74737500D03*
%TD*%
D10*
%TO.C,C15*%
X98175000Y-176650000D03*
X98175000Y-178550000D03*
%TD*%
D14*
%TO.C,C1*%
X136025000Y-40200000D03*
X134125000Y-40200000D03*
%TD*%
%TO.C,C14*%
X206075000Y-113300000D03*
X204175000Y-113300000D03*
%TD*%
D20*
%TO.C,L1*%
X135175000Y-57900000D03*
X133575000Y-57900000D03*
%TD*%
D10*
%TO.C,C15*%
X204475000Y-46650000D03*
X204475000Y-48550000D03*
%TD*%
D14*
%TO.C,C1*%
X189175000Y-170200000D03*
X187275000Y-170200000D03*
%TD*%
D15*
%TO.C,Y2*%
X182125000Y-49950000D03*
X188025000Y-49950000D03*
X188025000Y-47250000D03*
X182125000Y-47250000D03*
%TD*%
D19*
%TO.C,U3*%
X261475000Y-176462500D03*
X260525000Y-176462500D03*
X259575000Y-176462500D03*
X259575000Y-178737500D03*
X260525000Y-178737500D03*
X261475000Y-178737500D03*
%TD*%
D14*
%TO.C,C14*%
X46625000Y-139300000D03*
X44725000Y-139300000D03*
%TD*%
D24*
%TO.C,J1*%
X182725000Y-166750000D03*
X182725000Y-173150000D03*
X182725000Y-167550000D03*
X182725000Y-172350000D03*
D25*
X182725000Y-168700000D03*
X182725000Y-169700000D03*
X182725000Y-170200000D03*
X182725000Y-171200000D03*
X182725000Y-171700000D03*
X182725000Y-170700000D03*
X182725000Y-169200000D03*
X182725000Y-168200000D03*
D26*
X182125000Y-165630000D03*
D27*
X178125000Y-165630000D03*
D26*
X182125000Y-174270000D03*
D27*
X178125000Y-174270000D03*
%TD*%
D14*
%TO.C,C17*%
X206075000Y-85200000D03*
X204175000Y-85200000D03*
%TD*%
D10*
%TO.C,C18*%
X31175000Y-82350000D03*
X31175000Y-84250000D03*
%TD*%
D11*
%TO.C,R5*%
X79125000Y-70812500D03*
X79125000Y-68987500D03*
%TD*%
D14*
%TO.C,C1*%
X242325000Y-118200000D03*
X240425000Y-118200000D03*
%TD*%
D10*
%TO.C,C9*%
X201675000Y-120850000D03*
X201675000Y-122750000D03*
%TD*%
D13*
%TO.C,R1*%
X242287500Y-86200000D03*
X240462500Y-86200000D03*
%TD*%
D17*
%TO.C,C11*%
X151025000Y-89300000D03*
X152925000Y-89300000D03*
%TD*%
D15*
%TO.C,Y2*%
X128975000Y-49950000D03*
X134875000Y-49950000D03*
X134875000Y-47250000D03*
X128975000Y-47250000D03*
%TD*%
D18*
%TO.C,C8*%
X199625000Y-174750000D03*
X199625000Y-172850000D03*
%TD*%
%TO.C,C8*%
X40175000Y-44750000D03*
X40175000Y-42850000D03*
%TD*%
D16*
%TO.C,D1*%
X249675000Y-179500000D03*
X253675000Y-179500000D03*
%TD*%
D10*
%TO.C,C13*%
X263675000Y-99650000D03*
X263675000Y-101550000D03*
%TD*%
D18*
%TO.C,C8*%
X93325000Y-70750000D03*
X93325000Y-68850000D03*
%TD*%
D13*
%TO.C,R1*%
X82837500Y-112200000D03*
X81012500Y-112200000D03*
%TD*%
D14*
%TO.C,C1*%
X242325000Y-66200000D03*
X240425000Y-66200000D03*
%TD*%
D18*
%TO.C,C6*%
X34675000Y-96850000D03*
X34675000Y-94950000D03*
%TD*%
D17*
%TO.C,C11*%
X97875000Y-115300000D03*
X99775000Y-115300000D03*
%TD*%
D18*
%TO.C,C2*%
X190775000Y-49150000D03*
X190775000Y-47250000D03*
%TD*%
D10*
%TO.C,C9*%
X95375000Y-94850000D03*
X95375000Y-96750000D03*
%TD*%
D14*
%TO.C,C17*%
X46625000Y-137200000D03*
X44725000Y-137200000D03*
%TD*%
D13*
%TO.C,R1*%
X82837500Y-34200000D03*
X81012500Y-34200000D03*
%TD*%
D10*
%TO.C,C9*%
X148525000Y-146850000D03*
X148525000Y-148750000D03*
%TD*%
D21*
%TO.C,R2*%
X81012500Y-88100000D03*
X82837500Y-88100000D03*
%TD*%
D24*
%TO.C,J1*%
X76425000Y-88750000D03*
X76425000Y-95150000D03*
X76425000Y-89550000D03*
X76425000Y-94350000D03*
D25*
X76425000Y-90700000D03*
X76425000Y-91700000D03*
X76425000Y-92200000D03*
X76425000Y-93200000D03*
X76425000Y-93700000D03*
X76425000Y-92700000D03*
X76425000Y-91200000D03*
X76425000Y-90200000D03*
D26*
X75825000Y-87630000D03*
D27*
X71825000Y-87630000D03*
D26*
X75825000Y-96270000D03*
D27*
X71825000Y-96270000D03*
%TD*%
D18*
%TO.C,C8*%
X252775000Y-70750000D03*
X252775000Y-68850000D03*
%TD*%
D17*
%TO.C,C11*%
X151025000Y-115300000D03*
X152925000Y-115300000D03*
%TD*%
D14*
%TO.C,C14*%
X99775000Y-61300000D03*
X97875000Y-61300000D03*
%TD*%
D21*
%TO.C,R2*%
X187312500Y-36100000D03*
X189137500Y-36100000D03*
%TD*%
D11*
%TO.C,R7*%
X76225000Y-32962500D03*
X76225000Y-31137500D03*
%TD*%
D13*
%TO.C,R3*%
X29687500Y-168100000D03*
X27862500Y-168100000D03*
%TD*%
%TO.C,R3*%
X135987500Y-90100000D03*
X134162500Y-90100000D03*
%TD*%
D10*
%TO.C,C18*%
X31175000Y-160350000D03*
X31175000Y-162250000D03*
%TD*%
%TO.C,C18*%
X31175000Y-134350000D03*
X31175000Y-136250000D03*
%TD*%
D21*
%TO.C,R2*%
X27862500Y-114100000D03*
X29687500Y-114100000D03*
%TD*%
D14*
%TO.C,C10*%
X101975000Y-43800000D03*
X100075000Y-43800000D03*
%TD*%
D19*
%TO.C,U3*%
X102025000Y-46462500D03*
X101075000Y-46462500D03*
X100125000Y-46462500D03*
X100125000Y-48737500D03*
X101075000Y-48737500D03*
X102025000Y-48737500D03*
%TD*%
D11*
%TO.C,R5*%
X132275000Y-174812500D03*
X132275000Y-172987500D03*
%TD*%
D17*
%TO.C,C11*%
X151025000Y-63300000D03*
X152925000Y-63300000D03*
%TD*%
D19*
%TO.C,U3*%
X48875000Y-124462500D03*
X47925000Y-124462500D03*
X46975000Y-124462500D03*
X46975000Y-126737500D03*
X47925000Y-126737500D03*
X48875000Y-126737500D03*
%TD*%
D18*
%TO.C,C7*%
X89825000Y-96850000D03*
X89825000Y-94950000D03*
%TD*%
D10*
%TO.C,C9*%
X42225000Y-172850000D03*
X42225000Y-174750000D03*
%TD*%
D22*
%TO.C,U2*%
X139865000Y-33180000D03*
X139865000Y-33980000D03*
X139865000Y-34780000D03*
X139865000Y-35580000D03*
X139865000Y-36380000D03*
X139865000Y-37180000D03*
X139865000Y-37980000D03*
X139865000Y-38780000D03*
D23*
X141315000Y-40230000D03*
X142115000Y-40230000D03*
X142915000Y-40230000D03*
X143715000Y-40230000D03*
X144515000Y-40230000D03*
X145315000Y-40230000D03*
X146115000Y-40230000D03*
X146915000Y-40230000D03*
D22*
X148365000Y-38780000D03*
X148365000Y-37980000D03*
X148365000Y-37180000D03*
X148365000Y-36380000D03*
X148365000Y-35580000D03*
X148365000Y-34780000D03*
X148365000Y-33980000D03*
X148365000Y-33180000D03*
D23*
X146915000Y-31730000D03*
X146115000Y-31730000D03*
X145315000Y-31730000D03*
X144515000Y-31730000D03*
X143715000Y-31730000D03*
X142915000Y-31730000D03*
X142115000Y-31730000D03*
X141315000Y-31730000D03*
%TD*%
D14*
%TO.C,C10*%
X155125000Y-95800000D03*
X153225000Y-95800000D03*
%TD*%
D10*
%TO.C,C13*%
X51075000Y-99650000D03*
X51075000Y-101550000D03*
%TD*%
D16*
%TO.C,D1*%
X90225000Y-75500000D03*
X94225000Y-75500000D03*
%TD*%
D14*
%TO.C,C14*%
X206075000Y-35300000D03*
X204175000Y-35300000D03*
%TD*%
D18*
%TO.C,C8*%
X40175000Y-148750000D03*
X40175000Y-146850000D03*
%TD*%
D13*
%TO.C,R3*%
X82837500Y-64100000D03*
X81012500Y-64100000D03*
%TD*%
D11*
%TO.C,R5*%
X79125000Y-148812500D03*
X79125000Y-146987500D03*
%TD*%
D13*
%TO.C,R3*%
X242287500Y-38100000D03*
X240462500Y-38100000D03*
%TD*%
D10*
%TO.C,C18*%
X84325000Y-160350000D03*
X84325000Y-162250000D03*
%TD*%
D11*
%TO.C,R7*%
X23075000Y-84962500D03*
X23075000Y-83137500D03*
%TD*%
D18*
%TO.C,C8*%
X199625000Y-148750000D03*
X199625000Y-146850000D03*
%TD*%
D17*
%TO.C,C11*%
X204175000Y-89300000D03*
X206075000Y-89300000D03*
%TD*%
D18*
%TO.C,C2*%
X137625000Y-179150000D03*
X137625000Y-177250000D03*
%TD*%
%TO.C,C2*%
X243925000Y-75150000D03*
X243925000Y-73250000D03*
%TD*%
D12*
%TO.C,R6*%
X108325000Y-73687500D03*
X108325000Y-75512500D03*
%TD*%
D21*
%TO.C,R2*%
X27862500Y-62100000D03*
X29687500Y-62100000D03*
%TD*%
D20*
%TO.C,L1*%
X28875000Y-135900000D03*
X27275000Y-135900000D03*
%TD*%
D18*
%TO.C,C8*%
X199625000Y-122750000D03*
X199625000Y-120850000D03*
%TD*%
D10*
%TO.C,C3*%
X126325000Y-126000000D03*
X126325000Y-127900000D03*
%TD*%
D22*
%TO.C,U2*%
X86715000Y-33180000D03*
X86715000Y-33980000D03*
X86715000Y-34780000D03*
X86715000Y-35580000D03*
X86715000Y-36380000D03*
X86715000Y-37180000D03*
X86715000Y-37980000D03*
X86715000Y-38780000D03*
D23*
X88165000Y-40230000D03*
X88965000Y-40230000D03*
X89765000Y-40230000D03*
X90565000Y-40230000D03*
X91365000Y-40230000D03*
X92165000Y-40230000D03*
X92965000Y-40230000D03*
X93765000Y-40230000D03*
D22*
X95215000Y-38780000D03*
X95215000Y-37980000D03*
X95215000Y-37180000D03*
X95215000Y-36380000D03*
X95215000Y-35580000D03*
X95215000Y-34780000D03*
X95215000Y-33980000D03*
X95215000Y-33180000D03*
D23*
X93765000Y-31730000D03*
X92965000Y-31730000D03*
X92165000Y-31730000D03*
X91365000Y-31730000D03*
X90565000Y-31730000D03*
X89765000Y-31730000D03*
X88965000Y-31730000D03*
X88165000Y-31730000D03*
%TD*%
D15*
%TO.C,Y2*%
X235275000Y-179950000D03*
X241175000Y-179950000D03*
X241175000Y-177250000D03*
X235275000Y-177250000D03*
%TD*%
D21*
%TO.C,R2*%
X27862500Y-88100000D03*
X29687500Y-88100000D03*
%TD*%
D18*
%TO.C,C8*%
X146475000Y-96750000D03*
X146475000Y-94850000D03*
%TD*%
D20*
%TO.C,L1*%
X82025000Y-161900000D03*
X80425000Y-161900000D03*
%TD*%
D13*
%TO.C,R3*%
X82837500Y-116100000D03*
X81012500Y-116100000D03*
%TD*%
D22*
%TO.C,U2*%
X246165000Y-111180000D03*
X246165000Y-111980000D03*
X246165000Y-112780000D03*
X246165000Y-113580000D03*
X246165000Y-114380000D03*
X246165000Y-115180000D03*
X246165000Y-115980000D03*
X246165000Y-116780000D03*
D23*
X247615000Y-118230000D03*
X248415000Y-118230000D03*
X249215000Y-118230000D03*
X250015000Y-118230000D03*
X250815000Y-118230000D03*
X251615000Y-118230000D03*
X252415000Y-118230000D03*
X253215000Y-118230000D03*
D22*
X254665000Y-116780000D03*
X254665000Y-115980000D03*
X254665000Y-115180000D03*
X254665000Y-114380000D03*
X254665000Y-113580000D03*
X254665000Y-112780000D03*
X254665000Y-111980000D03*
X254665000Y-111180000D03*
D23*
X253215000Y-109730000D03*
X252415000Y-109730000D03*
X251615000Y-109730000D03*
X250815000Y-109730000D03*
X250015000Y-109730000D03*
X249215000Y-109730000D03*
X248415000Y-109730000D03*
X247615000Y-109730000D03*
%TD*%
D17*
%TO.C,C11*%
X44725000Y-167300000D03*
X46625000Y-167300000D03*
%TD*%
D11*
%TO.C,R7*%
X23075000Y-58962500D03*
X23075000Y-57137500D03*
%TD*%
D22*
%TO.C,U2*%
X33565000Y-111180000D03*
X33565000Y-111980000D03*
X33565000Y-112780000D03*
X33565000Y-113580000D03*
X33565000Y-114380000D03*
X33565000Y-115180000D03*
X33565000Y-115980000D03*
X33565000Y-116780000D03*
D23*
X35015000Y-118230000D03*
X35815000Y-118230000D03*
X36615000Y-118230000D03*
X37415000Y-118230000D03*
X38215000Y-118230000D03*
X39015000Y-118230000D03*
X39815000Y-118230000D03*
X40615000Y-118230000D03*
D22*
X42065000Y-116780000D03*
X42065000Y-115980000D03*
X42065000Y-115180000D03*
X42065000Y-114380000D03*
X42065000Y-113580000D03*
X42065000Y-112780000D03*
X42065000Y-111980000D03*
X42065000Y-111180000D03*
D23*
X40615000Y-109730000D03*
X39815000Y-109730000D03*
X39015000Y-109730000D03*
X38215000Y-109730000D03*
X37415000Y-109730000D03*
X36615000Y-109730000D03*
X35815000Y-109730000D03*
X35015000Y-109730000D03*
%TD*%
D21*
%TO.C,R2*%
X81012500Y-114100000D03*
X82837500Y-114100000D03*
%TD*%
D17*
%TO.C,C11*%
X97875000Y-37300000D03*
X99775000Y-37300000D03*
%TD*%
D14*
%TO.C,C14*%
X206075000Y-87300000D03*
X204175000Y-87300000D03*
%TD*%
D13*
%TO.C,R1*%
X82837500Y-60200000D03*
X81012500Y-60200000D03*
%TD*%
D18*
%TO.C,C7*%
X142975000Y-96850000D03*
X142975000Y-94950000D03*
%TD*%
D14*
%TO.C,C1*%
X29725000Y-40200000D03*
X27825000Y-40200000D03*
%TD*%
D18*
%TO.C,C6*%
X194125000Y-44850000D03*
X194125000Y-42950000D03*
%TD*%
D13*
%TO.C,R3*%
X82837500Y-90100000D03*
X81012500Y-90100000D03*
%TD*%
D10*
%TO.C,C3*%
X73175000Y-48000000D03*
X73175000Y-49900000D03*
%TD*%
D24*
%TO.C,J1*%
X235875000Y-88750000D03*
X235875000Y-95150000D03*
X235875000Y-89550000D03*
X235875000Y-94350000D03*
D25*
X235875000Y-90700000D03*
X235875000Y-91700000D03*
X235875000Y-92200000D03*
X235875000Y-93200000D03*
X235875000Y-93700000D03*
X235875000Y-92700000D03*
X235875000Y-91200000D03*
X235875000Y-90200000D03*
D26*
X235275000Y-87630000D03*
D27*
X231275000Y-87630000D03*
D26*
X235275000Y-96270000D03*
D27*
X231275000Y-96270000D03*
%TD*%
D12*
%TO.C,R6*%
X108325000Y-177687500D03*
X108325000Y-179512500D03*
%TD*%
D10*
%TO.C,C18*%
X31175000Y-108350000D03*
X31175000Y-110250000D03*
%TD*%
D19*
%TO.C,U3*%
X48875000Y-72462500D03*
X47925000Y-72462500D03*
X46975000Y-72462500D03*
X46975000Y-74737500D03*
X47925000Y-74737500D03*
X48875000Y-74737500D03*
%TD*%
D20*
%TO.C,L1*%
X188325000Y-109900000D03*
X186725000Y-109900000D03*
%TD*%
D15*
%TO.C,Y2*%
X182125000Y-127950000D03*
X188025000Y-127950000D03*
X188025000Y-125250000D03*
X182125000Y-125250000D03*
%TD*%
D10*
%TO.C,C18*%
X137475000Y-30350000D03*
X137475000Y-32250000D03*
%TD*%
%TO.C,C15*%
X257625000Y-176650000D03*
X257625000Y-178550000D03*
%TD*%
%TO.C,C18*%
X190625000Y-108350000D03*
X190625000Y-110250000D03*
%TD*%
D13*
%TO.C,R1*%
X135987500Y-164200000D03*
X134162500Y-164200000D03*
%TD*%
D10*
%TO.C,C9*%
X201675000Y-172850000D03*
X201675000Y-174750000D03*
%TD*%
D18*
%TO.C,C7*%
X36675000Y-148850000D03*
X36675000Y-146950000D03*
%TD*%
D12*
%TO.C,R4*%
X190725000Y-43587500D03*
X190725000Y-45412500D03*
%TD*%
D14*
%TO.C,C1*%
X82875000Y-66200000D03*
X80975000Y-66200000D03*
%TD*%
D11*
%TO.C,R7*%
X235675000Y-110962500D03*
X235675000Y-109137500D03*
%TD*%
D19*
%TO.C,U3*%
X208325000Y-176462500D03*
X207375000Y-176462500D03*
X206425000Y-176462500D03*
X206425000Y-178737500D03*
X207375000Y-178737500D03*
X208325000Y-178737500D03*
%TD*%
D10*
%TO.C,C13*%
X104225000Y-47650000D03*
X104225000Y-49550000D03*
%TD*%
D17*
%TO.C,C11*%
X257325000Y-167300000D03*
X259225000Y-167300000D03*
%TD*%
D15*
%TO.C,Y2*%
X235275000Y-127950000D03*
X241175000Y-127950000D03*
X241175000Y-125250000D03*
X235275000Y-125250000D03*
%TD*%
D12*
%TO.C,R4*%
X243875000Y-69587500D03*
X243875000Y-71412500D03*
%TD*%
%TO.C,R4*%
X84425000Y-173587500D03*
X84425000Y-175412500D03*
%TD*%
D18*
%TO.C,C8*%
X146475000Y-174750000D03*
X146475000Y-172850000D03*
%TD*%
D10*
%TO.C,C3*%
X73175000Y-178000000D03*
X73175000Y-179900000D03*
%TD*%
D12*
%TO.C,R4*%
X190725000Y-69587500D03*
X190725000Y-71412500D03*
%TD*%
D17*
%TO.C,C11*%
X97875000Y-89300000D03*
X99775000Y-89300000D03*
%TD*%
D20*
%TO.C,L1*%
X241475000Y-109900000D03*
X239875000Y-109900000D03*
%TD*%
D18*
%TO.C,C2*%
X190775000Y-101150000D03*
X190775000Y-99250000D03*
%TD*%
D10*
%TO.C,C18*%
X190625000Y-82350000D03*
X190625000Y-84250000D03*
%TD*%
D18*
%TO.C,C7*%
X36675000Y-44850000D03*
X36675000Y-42950000D03*
%TD*%
D10*
%TO.C,C3*%
X179475000Y-178000000D03*
X179475000Y-179900000D03*
%TD*%
D24*
%TO.C,J1*%
X182725000Y-140750000D03*
X182725000Y-147150000D03*
X182725000Y-141550000D03*
X182725000Y-146350000D03*
D25*
X182725000Y-142700000D03*
X182725000Y-143700000D03*
X182725000Y-144200000D03*
X182725000Y-145200000D03*
X182725000Y-145700000D03*
X182725000Y-144700000D03*
X182725000Y-143200000D03*
X182725000Y-142200000D03*
D26*
X182125000Y-139630000D03*
D27*
X178125000Y-139630000D03*
D26*
X182125000Y-148270000D03*
D27*
X178125000Y-148270000D03*
%TD*%
D18*
%TO.C,C2*%
X84475000Y-153150000D03*
X84475000Y-151250000D03*
%TD*%
D10*
%TO.C,C13*%
X263675000Y-73650000D03*
X263675000Y-75550000D03*
%TD*%
D14*
%TO.C,C14*%
X46625000Y-35300000D03*
X44725000Y-35300000D03*
%TD*%
D10*
%TO.C,C9*%
X148525000Y-172850000D03*
X148525000Y-174750000D03*
%TD*%
D15*
%TO.C,Y2*%
X22675000Y-179950000D03*
X28575000Y-179950000D03*
X28575000Y-177250000D03*
X22675000Y-177250000D03*
%TD*%
D14*
%TO.C,C10*%
X48825000Y-95800000D03*
X46925000Y-95800000D03*
%TD*%
D10*
%TO.C,C13*%
X104225000Y-73650000D03*
X104225000Y-75550000D03*
%TD*%
D11*
%TO.C,R7*%
X76225000Y-162962500D03*
X76225000Y-161137500D03*
%TD*%
D10*
%TO.C,C9*%
X254825000Y-94850000D03*
X254825000Y-96750000D03*
%TD*%
%TO.C,C13*%
X157375000Y-47650000D03*
X157375000Y-49550000D03*
%TD*%
D21*
%TO.C,R2*%
X81012500Y-62100000D03*
X82837500Y-62100000D03*
%TD*%
D19*
%TO.C,U3*%
X155175000Y-98462500D03*
X154225000Y-98462500D03*
X153275000Y-98462500D03*
X153275000Y-100737500D03*
X154225000Y-100737500D03*
X155175000Y-100737500D03*
%TD*%
D11*
%TO.C,R7*%
X23075000Y-136962500D03*
X23075000Y-135137500D03*
%TD*%
D24*
%TO.C,J1*%
X129575000Y-166750000D03*
X129575000Y-173150000D03*
X129575000Y-167550000D03*
X129575000Y-172350000D03*
D25*
X129575000Y-168700000D03*
X129575000Y-169700000D03*
X129575000Y-170200000D03*
X129575000Y-171200000D03*
X129575000Y-171700000D03*
X129575000Y-170700000D03*
X129575000Y-169200000D03*
X129575000Y-168200000D03*
D26*
X128975000Y-165630000D03*
D27*
X124975000Y-165630000D03*
D26*
X128975000Y-174270000D03*
D27*
X124975000Y-174270000D03*
%TD*%
D10*
%TO.C,C15*%
X151325000Y-98650000D03*
X151325000Y-100550000D03*
%TD*%
D14*
%TO.C,C14*%
X259225000Y-165300000D03*
X257325000Y-165300000D03*
%TD*%
D10*
%TO.C,C15*%
X45025000Y-176650000D03*
X45025000Y-178550000D03*
%TD*%
D14*
%TO.C,C10*%
X261425000Y-173800000D03*
X259525000Y-173800000D03*
%TD*%
D18*
%TO.C,C8*%
X93325000Y-174750000D03*
X93325000Y-172850000D03*
%TD*%
D12*
%TO.C,R4*%
X137575000Y-121587500D03*
X137575000Y-123412500D03*
%TD*%
D14*
%TO.C,C17*%
X206075000Y-59200000D03*
X204175000Y-59200000D03*
%TD*%
%TO.C,C14*%
X152925000Y-87300000D03*
X151025000Y-87300000D03*
%TD*%
D10*
%TO.C,C13*%
X157375000Y-177650000D03*
X157375000Y-179550000D03*
%TD*%
%TO.C,C3*%
X20025000Y-100000000D03*
X20025000Y-101900000D03*
%TD*%
D18*
%TO.C,C6*%
X194125000Y-148850000D03*
X194125000Y-146950000D03*
%TD*%
%TO.C,C7*%
X249275000Y-122850000D03*
X249275000Y-120950000D03*
%TD*%
D10*
%TO.C,C13*%
X157375000Y-73650000D03*
X157375000Y-75550000D03*
%TD*%
D18*
%TO.C,C6*%
X247275000Y-174850000D03*
X247275000Y-172950000D03*
%TD*%
D15*
%TO.C,Y2*%
X75825000Y-75950000D03*
X81725000Y-75950000D03*
X81725000Y-73250000D03*
X75825000Y-73250000D03*
%TD*%
D10*
%TO.C,C15*%
X204475000Y-176650000D03*
X204475000Y-178550000D03*
%TD*%
D14*
%TO.C,C17*%
X259225000Y-111200000D03*
X257325000Y-111200000D03*
%TD*%
D24*
%TO.C,J1*%
X129575000Y-114750000D03*
X129575000Y-121150000D03*
X129575000Y-115550000D03*
X129575000Y-120350000D03*
D25*
X129575000Y-116700000D03*
X129575000Y-117700000D03*
X129575000Y-118200000D03*
X129575000Y-119200000D03*
X129575000Y-119700000D03*
X129575000Y-118700000D03*
X129575000Y-117200000D03*
X129575000Y-116200000D03*
D26*
X128975000Y-113630000D03*
D27*
X124975000Y-113630000D03*
D26*
X128975000Y-122270000D03*
D27*
X124975000Y-122270000D03*
%TD*%
D18*
%TO.C,C7*%
X196125000Y-96850000D03*
X196125000Y-94950000D03*
%TD*%
%TO.C,C7*%
X196125000Y-122850000D03*
X196125000Y-120950000D03*
%TD*%
D16*
%TO.C,D1*%
X37075000Y-75500000D03*
X41075000Y-75500000D03*
%TD*%
D10*
%TO.C,C9*%
X42225000Y-42850000D03*
X42225000Y-44750000D03*
%TD*%
D12*
%TO.C,R6*%
X108325000Y-99687500D03*
X108325000Y-101512500D03*
%TD*%
D10*
%TO.C,C3*%
X20025000Y-178000000D03*
X20025000Y-179900000D03*
%TD*%
%TO.C,C13*%
X210525000Y-177650000D03*
X210525000Y-179550000D03*
%TD*%
D24*
%TO.C,J1*%
X23275000Y-62750000D03*
X23275000Y-69150000D03*
X23275000Y-63550000D03*
X23275000Y-68350000D03*
D25*
X23275000Y-64700000D03*
X23275000Y-65700000D03*
X23275000Y-66200000D03*
X23275000Y-67200000D03*
X23275000Y-67700000D03*
X23275000Y-66700000D03*
X23275000Y-65200000D03*
X23275000Y-64200000D03*
D26*
X22675000Y-61630000D03*
D27*
X18675000Y-61630000D03*
D26*
X22675000Y-70270000D03*
D27*
X18675000Y-70270000D03*
%TD*%
D14*
%TO.C,C14*%
X99775000Y-113300000D03*
X97875000Y-113300000D03*
%TD*%
D20*
%TO.C,L1*%
X188325000Y-83900000D03*
X186725000Y-83900000D03*
%TD*%
D10*
%TO.C,C9*%
X254825000Y-42850000D03*
X254825000Y-44750000D03*
%TD*%
D11*
%TO.C,R7*%
X235675000Y-84962500D03*
X235675000Y-83137500D03*
%TD*%
D16*
%TO.C,D1*%
X143375000Y-49500000D03*
X147375000Y-49500000D03*
%TD*%
D22*
%TO.C,U2*%
X86715000Y-85180000D03*
X86715000Y-85980000D03*
X86715000Y-86780000D03*
X86715000Y-87580000D03*
X86715000Y-88380000D03*
X86715000Y-89180000D03*
X86715000Y-89980000D03*
X86715000Y-90780000D03*
D23*
X88165000Y-92230000D03*
X88965000Y-92230000D03*
X89765000Y-92230000D03*
X90565000Y-92230000D03*
X91365000Y-92230000D03*
X92165000Y-92230000D03*
X92965000Y-92230000D03*
X93765000Y-92230000D03*
D22*
X95215000Y-90780000D03*
X95215000Y-89980000D03*
X95215000Y-89180000D03*
X95215000Y-88380000D03*
X95215000Y-87580000D03*
X95215000Y-86780000D03*
X95215000Y-85980000D03*
X95215000Y-85180000D03*
D23*
X93765000Y-83730000D03*
X92965000Y-83730000D03*
X92165000Y-83730000D03*
X91365000Y-83730000D03*
X90565000Y-83730000D03*
X89765000Y-83730000D03*
X88965000Y-83730000D03*
X88165000Y-83730000D03*
%TD*%
D14*
%TO.C,C1*%
X136025000Y-144200000D03*
X134125000Y-144200000D03*
%TD*%
D13*
%TO.C,R1*%
X29687500Y-60200000D03*
X27862500Y-60200000D03*
%TD*%
D16*
%TO.C,D1*%
X196525000Y-127500000D03*
X200525000Y-127500000D03*
%TD*%
D18*
%TO.C,C7*%
X36675000Y-174850000D03*
X36675000Y-172950000D03*
%TD*%
D24*
%TO.C,J1*%
X76425000Y-62750000D03*
X76425000Y-69150000D03*
X76425000Y-63550000D03*
X76425000Y-68350000D03*
D25*
X76425000Y-64700000D03*
X76425000Y-65700000D03*
X76425000Y-66200000D03*
X76425000Y-67200000D03*
X76425000Y-67700000D03*
X76425000Y-66700000D03*
X76425000Y-65200000D03*
X76425000Y-64200000D03*
D26*
X75825000Y-61630000D03*
D27*
X71825000Y-61630000D03*
D26*
X75825000Y-70270000D03*
D27*
X71825000Y-70270000D03*
%TD*%
D13*
%TO.C,R3*%
X189137500Y-142100000D03*
X187312500Y-142100000D03*
%TD*%
D14*
%TO.C,C14*%
X99775000Y-87300000D03*
X97875000Y-87300000D03*
%TD*%
%TO.C,C10*%
X208275000Y-121800000D03*
X206375000Y-121800000D03*
%TD*%
D24*
%TO.C,J1*%
X182725000Y-62750000D03*
X182725000Y-69150000D03*
X182725000Y-63550000D03*
X182725000Y-68350000D03*
D25*
X182725000Y-64700000D03*
X182725000Y-65700000D03*
X182725000Y-66200000D03*
X182725000Y-67200000D03*
X182725000Y-67700000D03*
X182725000Y-66700000D03*
X182725000Y-65200000D03*
X182725000Y-64200000D03*
D26*
X182125000Y-61630000D03*
D27*
X178125000Y-61630000D03*
D26*
X182125000Y-70270000D03*
D27*
X178125000Y-70270000D03*
%TD*%
D11*
%TO.C,R7*%
X182525000Y-84962500D03*
X182525000Y-83137500D03*
%TD*%
D21*
%TO.C,R2*%
X134162500Y-114100000D03*
X135987500Y-114100000D03*
%TD*%
D13*
%TO.C,R3*%
X189137500Y-90100000D03*
X187312500Y-90100000D03*
%TD*%
D18*
%TO.C,C8*%
X252775000Y-148750000D03*
X252775000Y-146850000D03*
%TD*%
D10*
%TO.C,C15*%
X45025000Y-72650000D03*
X45025000Y-74550000D03*
%TD*%
D11*
%TO.C,R5*%
X79125000Y-96812500D03*
X79125000Y-94987500D03*
%TD*%
D19*
%TO.C,U3*%
X208325000Y-72462500D03*
X207375000Y-72462500D03*
X206425000Y-72462500D03*
X206425000Y-74737500D03*
X207375000Y-74737500D03*
X208325000Y-74737500D03*
%TD*%
D10*
%TO.C,C3*%
X232625000Y-126000000D03*
X232625000Y-127900000D03*
%TD*%
D12*
%TO.C,R4*%
X84425000Y-95587500D03*
X84425000Y-97412500D03*
%TD*%
D24*
%TO.C,J1*%
X76425000Y-36750000D03*
X76425000Y-43150000D03*
X76425000Y-37550000D03*
X76425000Y-42350000D03*
D25*
X76425000Y-38700000D03*
X76425000Y-39700000D03*
X76425000Y-40200000D03*
X76425000Y-41200000D03*
X76425000Y-41700000D03*
X76425000Y-40700000D03*
X76425000Y-39200000D03*
X76425000Y-38200000D03*
D26*
X75825000Y-35630000D03*
D27*
X71825000Y-35630000D03*
D26*
X75825000Y-44270000D03*
D27*
X71825000Y-44270000D03*
%TD*%
D15*
%TO.C,Y2*%
X182125000Y-179950000D03*
X188025000Y-179950000D03*
X188025000Y-177250000D03*
X182125000Y-177250000D03*
%TD*%
D18*
%TO.C,C2*%
X243925000Y-179150000D03*
X243925000Y-177250000D03*
%TD*%
D11*
%TO.C,R7*%
X129375000Y-110962500D03*
X129375000Y-109137500D03*
%TD*%
D20*
%TO.C,L1*%
X241475000Y-31900000D03*
X239875000Y-31900000D03*
%TD*%
D18*
%TO.C,C8*%
X252775000Y-122750000D03*
X252775000Y-120850000D03*
%TD*%
D12*
%TO.C,R4*%
X137575000Y-69587500D03*
X137575000Y-71412500D03*
%TD*%
D22*
%TO.C,U2*%
X193015000Y-85180000D03*
X193015000Y-85980000D03*
X193015000Y-86780000D03*
X193015000Y-87580000D03*
X193015000Y-88380000D03*
X193015000Y-89180000D03*
X193015000Y-89980000D03*
X193015000Y-90780000D03*
D23*
X194465000Y-92230000D03*
X195265000Y-92230000D03*
X196065000Y-92230000D03*
X196865000Y-92230000D03*
X197665000Y-92230000D03*
X198465000Y-92230000D03*
X199265000Y-92230000D03*
X200065000Y-92230000D03*
D22*
X201515000Y-90780000D03*
X201515000Y-89980000D03*
X201515000Y-89180000D03*
X201515000Y-88380000D03*
X201515000Y-87580000D03*
X201515000Y-86780000D03*
X201515000Y-85980000D03*
X201515000Y-85180000D03*
D23*
X200065000Y-83730000D03*
X199265000Y-83730000D03*
X198465000Y-83730000D03*
X197665000Y-83730000D03*
X196865000Y-83730000D03*
X196065000Y-83730000D03*
X195265000Y-83730000D03*
X194465000Y-83730000D03*
%TD*%
D16*
%TO.C,D1*%
X90225000Y-153500000D03*
X94225000Y-153500000D03*
%TD*%
D11*
%TO.C,R7*%
X129375000Y-84962500D03*
X129375000Y-83137500D03*
%TD*%
D12*
%TO.C,R4*%
X190725000Y-95587500D03*
X190725000Y-97412500D03*
%TD*%
D14*
%TO.C,C1*%
X29725000Y-170200000D03*
X27825000Y-170200000D03*
%TD*%
D20*
%TO.C,L1*%
X28875000Y-109900000D03*
X27275000Y-109900000D03*
%TD*%
D14*
%TO.C,C17*%
X259225000Y-59200000D03*
X257325000Y-59200000D03*
%TD*%
D13*
%TO.C,R1*%
X135987500Y-112200000D03*
X134162500Y-112200000D03*
%TD*%
D10*
%TO.C,C3*%
X126325000Y-100000000D03*
X126325000Y-101900000D03*
%TD*%
%TO.C,C13*%
X51075000Y-151650000D03*
X51075000Y-153550000D03*
%TD*%
D14*
%TO.C,C1*%
X82875000Y-92200000D03*
X80975000Y-92200000D03*
%TD*%
D13*
%TO.C,R3*%
X189137500Y-116100000D03*
X187312500Y-116100000D03*
%TD*%
%TO.C,R1*%
X189137500Y-112200000D03*
X187312500Y-112200000D03*
%TD*%
D10*
%TO.C,C15*%
X98175000Y-150650000D03*
X98175000Y-152550000D03*
%TD*%
D18*
%TO.C,C6*%
X87825000Y-148850000D03*
X87825000Y-146950000D03*
%TD*%
D10*
%TO.C,C15*%
X204475000Y-124650000D03*
X204475000Y-126550000D03*
%TD*%
%TO.C,C3*%
X126325000Y-74000000D03*
X126325000Y-75900000D03*
%TD*%
D18*
%TO.C,C6*%
X247275000Y-44850000D03*
X247275000Y-42950000D03*
%TD*%
D14*
%TO.C,C17*%
X152925000Y-163200000D03*
X151025000Y-163200000D03*
%TD*%
%TO.C,C1*%
X242325000Y-170200000D03*
X240425000Y-170200000D03*
%TD*%
D22*
%TO.C,U2*%
X246165000Y-33180000D03*
X246165000Y-33980000D03*
X246165000Y-34780000D03*
X246165000Y-35580000D03*
X246165000Y-36380000D03*
X246165000Y-37180000D03*
X246165000Y-37980000D03*
X246165000Y-38780000D03*
D23*
X247615000Y-40230000D03*
X248415000Y-40230000D03*
X249215000Y-40230000D03*
X250015000Y-40230000D03*
X250815000Y-40230000D03*
X251615000Y-40230000D03*
X252415000Y-40230000D03*
X253215000Y-40230000D03*
D22*
X254665000Y-38780000D03*
X254665000Y-37980000D03*
X254665000Y-37180000D03*
X254665000Y-36380000D03*
X254665000Y-35580000D03*
X254665000Y-34780000D03*
X254665000Y-33980000D03*
X254665000Y-33180000D03*
D23*
X253215000Y-31730000D03*
X252415000Y-31730000D03*
X251615000Y-31730000D03*
X250815000Y-31730000D03*
X250015000Y-31730000D03*
X249215000Y-31730000D03*
X248415000Y-31730000D03*
X247615000Y-31730000D03*
%TD*%
D10*
%TO.C,C3*%
X232625000Y-74000000D03*
X232625000Y-75900000D03*
%TD*%
D18*
%TO.C,C2*%
X190775000Y-75150000D03*
X190775000Y-73250000D03*
%TD*%
D10*
%TO.C,C18*%
X137475000Y-56350000D03*
X137475000Y-58250000D03*
%TD*%
D18*
%TO.C,C2*%
X190775000Y-179150000D03*
X190775000Y-177250000D03*
%TD*%
D14*
%TO.C,C10*%
X48825000Y-173800000D03*
X46925000Y-173800000D03*
%TD*%
D21*
%TO.C,R2*%
X187312500Y-140100000D03*
X189137500Y-140100000D03*
%TD*%
D19*
%TO.C,U3*%
X261475000Y-150462500D03*
X260525000Y-150462500D03*
X259575000Y-150462500D03*
X259575000Y-152737500D03*
X260525000Y-152737500D03*
X261475000Y-152737500D03*
%TD*%
D10*
%TO.C,C3*%
X232625000Y-100000000D03*
X232625000Y-101900000D03*
%TD*%
D20*
%TO.C,L1*%
X135175000Y-135900000D03*
X133575000Y-135900000D03*
%TD*%
M02*
